<svg width="19" height="19" viewBox="0 0 19 19" fill="none" xmlns="http://www.w3.org/2000/svg">
<path d="M13.0625 0H5.9375C2.65881 0 0 2.65881 0 5.9375V13.0625C0 16.3412 2.65881 19 5.9375 19H13.0625C16.3412 19 19 16.3412 19 13.0625V5.9375C19 2.65881 16.3412 0 13.0625 0ZM17.2188 13.0625C17.2188 15.3544 15.3544 17.2188 13.0625 17.2188H5.9375C3.64563 17.2188 1.78125 15.3544 1.78125 13.0625V5.9375C1.78125 3.64563 3.64563 1.78125 5.9375 1.78125H13.0625C15.3544 1.78125 17.2188 3.64563 17.2188 5.9375V13.0625Z" fill="white"/>
<path d="M9.5 4.75C6.87681 4.75 4.75 6.87681 4.75 9.5C4.75 12.1232 6.87681 14.25 9.5 14.25C12.1232 14.25 14.25 12.1232 14.25 9.5C14.25 6.87681 12.1232 4.75 9.5 4.75ZM9.5 12.4688C7.86363 12.4688 6.53125 11.1364 6.53125 9.5C6.53125 7.86244 7.86363 6.53125 9.5 6.53125C11.1364 6.53125 12.4688 7.86244 12.4688 9.5C12.4688 11.1364 11.1364 12.4688 9.5 12.4688Z" fill="white"/>
<path d="M14.6064 5.02677C14.9559 5.02677 15.2393 4.74339 15.2393 4.39383C15.2393 4.04427 14.9559 3.76089 14.6064 3.76089C14.2568 3.76089 13.9734 4.04427 13.9734 4.39383C13.9734 4.74339 14.2568 5.02677 14.6064 5.02677Z" fill="white"/>
</svg>
