<svg width="82" height="40" viewBox="0 0 82 40" fill="none" xmlns="http://www.w3.org/2000/svg">
<g opacity="0.61">
<path d="M12.9174 17.3074C6.22063 18.1886 0.457882 24.0218 0.0173035 27.2997C7.75384 29.5379 12.2301 34.1727 17.1293 33.7322C23.8966 33.1154 24.7954 28.0928 24.2667 24.1276C23.738 20.1271 19.6142 16.4263 12.9174 17.3074Z" fill="#EEB3CF"/>
<path d="M5.53131e-05 27.2823C9.76325 29.2384 10.01 33.4151 17.2178 33.0626C24.831 32.6926 24.2494 24.1101 24.2494 24.1101C24.2494 24.1101 17.4293 22.1187 13.517 22.1716C9.34029 22.2244 4.47632 23.599 5.53131e-05 27.2823Z" fill="#EEB3CF"/>
<path d="M0.070137 27.2293C3.01319 25.2555 5.9915 23.9338 8.86406 23.2465C8.14151 23.8633 6.74928 25.2203 6.18535 26.3834C7.15462 24.815 8.63496 23.7576 9.55136 23.0879C10.8907 22.8059 12.1772 22.6473 13.4284 22.5768C12.5297 23.1584 9.85095 25.2732 8.89931 27.2469C10.4325 24.8502 12.6002 23.4227 13.9924 22.5416C15.3846 22.4887 16.724 22.5592 17.9752 22.7178C16.7592 23.3699 13.9924 25.3084 12.9174 27.2646C14.7325 24.7797 17.0588 23.599 18.6096 22.8059C19.8432 22.9998 21.0064 23.2641 22.0814 23.5813C21.1474 24.0043 18.2924 25.749 17.1117 27.6523C18.9973 25.3965 21.0416 24.3567 22.5396 23.7223C25.3593 24.6563 27.0863 26.26 28.7429 27.2117C29.6064 26.7182 29.5536 26.0662 29.5536 26.0662C29.5536 26.0662 26.5576 24.1276 21.6056 22.8412C20.4953 21.9248 18.874 20.7616 17.6756 18.735C18.2395 20.2329 19.8785 21.7485 20.8301 22.6649C19.7551 22.4182 18.6096 22.242 17.3936 22.1186C16.16 21.308 14.2567 20.3387 12.8293 18.3649C13.5518 19.8629 15.4551 21.2727 16.5125 22.0481C15.2965 21.9776 14.0276 21.9953 12.7411 22.101C11.719 21.6075 10.0448 21.026 8.91693 19.7395C9.55136 20.8321 11.1727 21.7485 11.9481 22.1891C7.70094 22.6826 3.33041 24.4801 0.070137 27.2293Z" fill="#A3C4BC"/>
</g>
<path d="M21.9754 10.205C13.5692 6.78608 2.96011 9.78201 0.246149 13.3066C7.80646 21.0432 9.95647 29.4494 15.9836 32.181C24.3017 35.9523 28.6898 30.683 30.7165 25.678C32.7608 20.7083 30.3993 13.6238 21.9754 10.205Z" fill="#DFF5CF"/>
<path d="M0.263912 13.3068C10.3796 22.0831 7.89471 27.1233 16.5476 31.4938C25.694 36.1111 30.7166 25.6958 30.7166 25.6958C30.7166 25.6958 24.0551 18.8405 19.4555 16.3204C14.521 13.5888 7.92996 11.9851 0.263912 13.3068Z" fill="#DFF5CF"/>
<path d="M0.369598 13.2892C5.12783 12.9367 9.48074 13.3597 13.305 14.4699C12.0537 14.699 9.53361 15.3687 8.08852 16.3732C10.2562 15.1925 12.6881 14.9281 14.2213 14.7519C15.966 15.3158 17.5874 15.9855 19.1029 16.7257C17.6579 16.7962 13.1287 17.5011 10.7144 19.1753C14.098 17.413 17.5874 17.1662 19.7902 17.0605C21.4644 17.9417 22.9624 18.9109 24.337 19.9154C22.4866 19.8626 17.9574 20.3032 15.4021 21.8716C19.1911 20.1798 22.6804 20.3208 25.0243 20.4441C26.346 21.4839 27.5268 22.5589 28.5665 23.6515C27.1919 23.5458 22.6981 23.6692 20.037 25.1143C23.7378 23.722 26.8219 23.8806 29.0071 24.1274C31.6858 27.088 27.6854 21.9245 29.0071 24.1274C30.3465 24.1274 30.2584 24.286 30.2584 24.286C30.2584 24.286 33.4305 27.2819 28.5137 22.4884C27.8264 20.6732 26.6985 18.2413 26.6456 15.0691C26.3108 17.2015 27.2096 20.0564 27.7383 21.7659C26.6456 20.779 25.4296 19.7921 24.0727 18.8581C23.1563 17.0781 21.5878 14.699 21.2177 11.4387C21.0591 13.6769 22.3632 16.5847 23.0858 18.1884C21.7112 17.3072 20.2308 16.4789 18.6447 15.7564C17.7812 14.5052 16.1951 12.7076 15.7369 10.4518C15.7546 12.1613 17.041 14.3113 17.6579 15.3334C12.3181 13.0424 6.00899 12.2318 0.369598 13.2892Z" fill="#A3C4BC"/>
<path d="M34.4701 9.94102C29.4299 2.38071 18.9794 -1.09104 14.7499 0.301187C16.6532 10.9455 13.7101 19.1226 17.1643 24.762C21.9225 32.5514 28.5135 30.6481 33.0074 27.6698C37.4837 24.6739 39.5104 17.5013 34.4701 9.94102Z" fill="#C8EBE0"/>
<path d="M14.75 0.301117C18.1865 13.2365 13.3049 16.0209 18.0103 24.4976C22.98 33.4501 32.9899 27.6522 32.9899 27.6522C32.9899 27.6522 31.3334 18.2414 28.9542 13.5713C26.3989 8.54872 21.8521 3.50852 14.75 0.301117Z" fill="#C8EBE0"/>
<path d="M14.8557 0.353912C18.9795 2.75065 22.3455 5.51748 24.8832 8.60152C23.7201 8.09045 21.2529 7.22692 19.4906 7.24454C21.9578 7.49126 24.1078 8.63676 25.4824 9.35931C26.6103 10.8044 27.5796 12.2671 28.4078 13.7475C27.1742 12.9897 23.0328 11.0335 20.0897 11.0511C23.8963 11.4917 26.9099 13.254 28.7779 14.3995C29.6591 16.0561 30.364 17.7127 30.9279 19.3164C29.4124 18.2413 25.4295 16.0385 22.4336 15.9151C26.5222 16.6376 29.3242 18.7348 31.1923 20.127C31.7034 21.7307 32.0734 23.2816 32.3202 24.7619C31.2452 23.8984 27.4562 21.484 24.4426 21.1844C28.2845 22.1184 30.7517 23.9689 32.4259 25.3963C32.9722 29.3439 32.0558 32.3927 31.9148 34.9657C33.0251 35.7235 33.7829 35.2653 33.7829 35.2653C33.7829 35.2653 34.3292 30.4894 32.9546 23.775C33.4128 21.8893 33.8534 19.2459 35.5804 16.5848C34.1177 18.1709 33.2542 21.0258 32.7255 22.7352C32.373 21.3078 31.9148 19.7922 31.3333 18.2766C31.58 16.3028 31.6152 13.4479 33.1485 10.5401C31.7562 12.3024 31.2099 15.4393 30.8927 17.184C30.2583 15.686 29.4829 14.1704 28.5841 12.6725C28.5665 11.1569 28.2845 8.77775 29.1656 6.64536C28.2316 8.07283 28.0906 10.5753 28.0201 11.7561C24.8832 6.85683 20.125 2.64491 14.8557 0.353912Z" fill="#A3C4BC"/>
<path d="M42.4985 18.55C43.0689 20.4573 44.6375 21.2951 46.5627 21.2951C48.7909 21.2951 50.7695 20.0651 50.7695 17.6409C50.7695 16.0901 49.8782 14.7353 48.2917 14.468V14.4323C49.5752 14.058 50.4486 12.8993 50.4486 11.5802C50.4486 9.2451 48.6483 8.13992 46.5805 8.13992C44.9049 8.13992 43.4254 8.90642 42.7659 10.5107L44.5127 11.0989C44.8871 10.2255 45.6892 9.63726 46.6162 9.63726C47.8283 9.63726 48.7374 10.3503 48.7374 11.6872C48.7374 12.935 48.1135 13.6658 45.511 13.6658V15.1631C47.1153 15.1631 49.0582 15.4127 49.0582 17.5161C49.0582 18.8708 47.9352 19.7978 46.6162 19.7978C45.2792 19.7978 44.7088 19.2095 44.2988 17.9974L42.4985 18.55Z" fill="white"/>
<path d="M51.2983 14.771C51.2983 17.427 52.0648 21.2951 55.6477 21.2951C59.2306 21.2951 59.9971 17.427 59.9971 14.771C59.9971 12.008 59.2306 8.24688 55.6477 8.24688C52.0648 8.24688 51.2983 12.008 51.2983 14.771ZM53.0095 14.771C53.0095 13.0241 53.2591 9.74421 55.6477 9.74421C58.0363 9.74421 58.2858 13.0241 58.2858 14.771C58.2858 16.4109 58.0363 19.7978 55.6477 19.7978C53.2591 19.7978 53.0095 16.4109 53.0095 14.771Z" fill="white"/>
<path d="M42.6233 34.3493C43.6037 35.7218 45.0653 36.2566 46.7231 36.2566C48.773 36.2566 50.6447 34.991 50.6447 32.7093C50.6447 27.9678 44.1384 30.2494 44.1384 26.4526C44.1384 24.8483 45.4575 24.064 46.9727 24.064C48.06 24.064 48.8443 24.4918 49.4326 25.3118L50.4486 24.5809C49.593 23.4579 48.3809 22.9945 47.0083 22.9945C44.8871 22.9945 42.9619 24.2066 42.9619 26.4526C42.9619 31.2476 49.4682 29.1799 49.4682 32.7093C49.4682 34.2245 48.2204 35.1871 46.634 35.1871C45.3862 35.1871 44.3701 34.6523 43.7463 33.6006L42.6233 34.3493Z" fill="white"/>
<path d="M56.1468 27.7004H53.7938V25.3296H52.7243V27.7004H50.9417V28.663H52.7243V34.0284C52.7243 35.2049 53.3125 36.1496 54.8455 36.1496C55.2555 36.1496 55.8437 36.007 56.2359 35.8644L56.1468 34.9019C55.7724 35.0623 55.3446 35.1871 54.9346 35.1871C54.2216 35.1871 53.7938 34.7593 53.7938 34.0284V28.663H56.1468V27.7004Z" fill="white"/>
<path d="M63.6514 33.7254C63.1167 34.6167 61.9758 35.1871 60.8885 35.1871C58.3929 35.1871 57.769 32.9767 57.769 32.0854H64.6853V31.3368C64.6853 29.4294 63.3484 27.4865 60.8172 27.4865C58.4107 27.4865 56.6995 29.3403 56.6995 31.8002C56.6995 34.3493 58.3573 36.1496 60.8707 36.1496C62.3323 36.1496 63.598 35.6327 64.4358 34.3849L63.6514 33.7254ZM57.769 31.1229C57.769 30.6951 58.4286 28.449 60.7637 28.449C62.3502 28.449 63.6158 29.6612 63.6158 31.1229H57.769Z" fill="white"/>
<path d="M65.9449 39.9999H67.0145V34.4919H67.0501C67.7096 35.6327 69.1179 36.1496 70.3478 36.1496C72.879 36.1496 74.6794 34.3314 74.6794 31.8181C74.6794 29.3047 72.879 27.4865 70.3478 27.4865C69.1179 27.4865 67.7096 28.0034 67.0501 29.1442H67.0145V27.7004H65.9449V39.9999ZM66.9075 31.8181C66.9075 29.9642 68.4048 28.449 70.3478 28.449C72.3621 28.449 73.6099 29.9642 73.6099 31.8181C73.6099 33.6719 72.3621 35.1871 70.3478 35.1871C68.4048 35.1871 66.9075 33.6719 66.9075 31.8181Z" fill="white"/>
<path d="M75.2557 34.474C75.8974 35.6149 77.163 36.1496 78.5712 36.1496C80.1398 36.1496 81.548 35.294 81.548 33.6006C81.548 30.2672 76.6639 31.9963 76.6639 29.7681C76.6639 28.9125 77.6443 28.449 78.4108 28.449C79.3733 28.449 79.9437 28.859 80.3537 29.6077L81.3163 29.0373C80.7815 27.9856 79.7477 27.4865 78.4108 27.4865C77.056 27.4865 75.5943 28.253 75.5943 29.8573C75.5943 32.9945 80.4785 31.4081 80.4785 33.6719C80.4785 34.6167 79.5159 35.1871 78.589 35.1871C77.6264 35.1871 76.646 34.7058 76.2004 33.8323L75.2557 34.474Z" fill="white"/>
</svg>
