<svg width="83" height="81" viewBox="0 0 83 81" fill="none" xmlns="http://www.w3.org/2000/svg">
<rect y="0.600273" width="82.6667" height="80" rx="14" fill="#99E5F5"/>
<path d="M54.5327 29.9336H28.1327C27.3227 29.9336 26.666 30.5903 26.666 31.4003V47.0447C26.666 47.8548 27.3227 48.5114 28.1327 48.5114H36.5083L35.2045 50.4669H32.5327C32.2627 50.4669 32.0438 50.6858 32.0438 50.9558C32.0438 51.2258 32.2627 51.4447 32.5327 51.4447H50.1327C50.4027 51.4447 50.6216 51.2258 50.6216 50.9558C50.6216 50.6858 50.4027 50.4669 50.1327 50.4669H47.4609L46.157 48.5114H54.5327C55.3427 48.5114 55.9993 47.8548 55.9993 47.0447V31.4003C55.9993 30.5903 55.3427 29.9336 54.5327 29.9336ZM46.2856 50.4669H36.3797L37.6831 48.5114H44.9822L46.2856 50.4669ZM55.0216 47.0447C55.0216 47.3147 54.8027 47.5336 54.5327 47.5336H28.1327C27.8627 47.5336 27.6438 47.3147 27.6438 47.0447V31.4003C27.6438 31.1303 27.8627 30.9114 28.1327 30.9114H54.5327C54.8027 30.9114 55.0216 31.1303 55.0216 31.4003V47.0447Z" fill="white"/>
<path d="M28.1328 31.4004V47.0449H54.5328V31.4004H28.1328ZM53.555 46.0671H29.1106V32.3782H53.555V46.0671Z" fill="white"/>
</svg>
