<svg width="84" height="81" viewBox="0 0 84 81" fill="none" xmlns="http://www.w3.org/2000/svg">
<rect x="0.613281" y="0.991516" width="82.6667" height="80" rx="14" fill="#F099C8"/>
<path d="M31.5067 40.1846L31.5066 40.1846V40.1859C31.5066 43.2555 32.7627 46.0478 35.2748 48.0023C36.3773 48.9674 37.0622 50.2042 37.0622 51.5748V54.4915C37.0622 56.1837 38.1937 57.0415 39.1955 57.0415H43.3622C44.5009 57.0415 45.4955 56.0469 45.4955 54.9081V51.7137C45.4955 50.3402 46.1828 48.8272 47.4204 47.8645C49.7948 46.0487 51.0511 43.2557 51.0511 40.3248C51.0511 37.6719 49.9342 35.1594 48.1198 33.345C46.3041 31.5293 43.791 30.5526 41.14 30.5526L41.1386 30.5526C35.9737 30.6922 31.6463 34.8798 31.5067 40.1846ZM36.1716 46.8139L36.1717 46.8138L36.1695 46.8123C34.101 45.2953 32.9957 42.8117 32.9955 40.1867C33.134 35.7687 36.8626 32.0415 41.2789 32.0415C43.4885 32.0415 45.5589 32.87 47.0768 34.3879C48.7341 36.0452 49.5622 38.1158 49.5622 40.3248C49.5622 42.8101 48.4577 45.1565 46.5257 46.6744L46.525 46.675C44.9868 47.9335 44.0066 49.8916 44.0066 51.7137V54.9081C44.0066 55.1051 43.9412 55.2654 43.8303 55.3763C43.7194 55.4872 43.5592 55.5526 43.3622 55.5526H39.1955C39.0328 55.5526 38.9143 55.5041 38.8263 55.4298C38.7375 55.3548 38.6765 55.2506 38.635 55.1344C38.5515 54.9006 38.5511 54.6312 38.5511 54.4915V51.5748C38.5511 49.7527 37.7098 48.0724 36.1716 46.8139Z" fill="white" stroke="white" stroke-width="0.1"/>
<path d="M44.7512 52.8248H37.8067C37.3901 52.8248 37.1123 52.5471 37.1123 52.1304C37.1123 51.7137 37.3901 51.4359 37.8067 51.4359H44.7512C45.1679 51.4359 45.4456 51.7137 45.4456 52.1304C45.4456 52.5471 45.1679 52.8248 44.7512 52.8248Z" fill="white"/>
<path d="M41.2794 27.8246C40.8627 27.8246 40.585 27.5468 40.585 27.1302V24.3524C40.585 23.9357 40.8627 23.658 41.2794 23.658C41.6961 23.658 41.9738 23.9357 41.9738 24.3524V27.1302C41.9738 27.5468 41.6961 27.8246 41.2794 27.8246Z" fill="white"/>
<path d="M50.5842 31.7134C50.4453 31.7134 50.1675 31.7134 50.0286 31.5745C49.7509 31.2967 49.7509 30.8801 50.0286 30.6023L51.9731 28.6578C52.2509 28.3801 52.6675 28.3801 52.9453 28.6578C53.2231 28.9356 53.2231 29.3523 52.9453 29.6301L51.0009 31.5745C51.0009 31.5745 50.7231 31.7134 50.5842 31.7134Z" fill="white"/>
<path d="M57.2515 41.0189H54.4737C54.0571 41.0189 53.7793 40.7411 53.7793 40.3244C53.7793 39.9078 54.0571 39.63 54.4737 39.63H57.2515C57.6682 39.63 57.946 39.9078 57.946 40.3244C57.946 40.7411 57.6682 41.0189 57.2515 41.0189Z" fill="white"/>
<path d="M52.5286 52.2689C52.3898 52.2689 52.112 52.2689 51.9731 52.13L50.0286 50.1856C49.7509 49.9078 49.7509 49.4911 50.0286 49.2133C50.3064 48.9356 50.7231 48.9356 51.0009 49.2133L52.9453 51.1578C53.2231 51.4356 53.2231 51.8522 52.9453 52.13C52.9453 52.2689 52.8064 52.2689 52.5286 52.2689Z" fill="white"/>
<path d="M30.0295 52.2689C29.8906 52.2689 29.6128 52.2689 29.474 52.13C29.1962 51.8522 29.1962 51.4356 29.474 51.1578L31.4184 49.2133C31.6962 48.9356 32.1128 48.9356 32.3906 49.2133C32.6684 49.4911 32.6684 49.9078 32.3906 50.1856L30.4462 52.13C30.3073 52.2689 30.1684 52.2689 30.0295 52.2689Z" fill="white"/>
<path d="M28.0845 41.0189H25.3067C24.8901 41.0189 24.6123 40.7411 24.6123 40.3244C24.6123 39.9078 24.8901 39.63 25.3067 39.63H28.0845C28.5012 39.63 28.779 39.9078 28.779 40.3244C28.779 40.7411 28.5012 41.0189 28.0845 41.0189Z" fill="white"/>
<path d="M31.974 31.7134C31.8351 31.7134 31.5573 31.7134 31.4184 31.5745L29.474 29.4911C29.1962 29.2134 29.1962 28.7967 29.474 28.5189C29.7517 28.2411 30.1684 28.2411 30.4462 28.5189L32.3906 30.4634C32.6684 30.7411 32.6684 31.1578 32.3906 31.4356C32.2517 31.5745 32.1128 31.7134 31.974 31.7134Z" fill="white"/>
<path d="M46.8349 41.0191C46.4183 41.0191 46.1405 40.7413 46.1405 40.3246C46.1405 37.6857 43.9183 35.4635 41.2794 35.4635C40.8627 35.4635 40.585 35.1857 40.585 34.7691C40.585 34.3524 40.8627 34.0746 41.2794 34.0746C44.7516 34.0746 47.5294 36.8524 47.5294 40.3246C47.5294 40.7413 47.2516 41.0191 46.8349 41.0191Z" fill="white"/>
</svg>
