<svg width="83" height="80" viewBox="0 0 83 80" fill="none" xmlns="http://www.w3.org/2000/svg">
<rect width="82.6667" height="80" rx="14" fill="#D7A8F3"/>
<path d="M51.0175 46.607C50.9525 44.8479 50.5595 43.1166 49.859 41.5025C50.3286 40.5871 50.5512 39.5644 50.5047 38.5359C50.5047 33.2981 45.3104 25.0175 41.0087 25.0175C36.7071 25.0175 31.5128 33.3219 31.5128 38.5359C31.4663 39.5644 31.6889 40.5871 32.1585 41.5025C31.4568 43.1195 31.0639 44.8542 31 46.6166C31 52.2306 35.5106 52.4544 40.439 52.4544V57.9875H41.5785V52.4544C46.5069 52.4544 51.0175 52.2306 51.0175 46.607ZM41.5785 51.3021V41.7787H40.439V51.3021C35.1355 51.3021 32.1395 50.9306 32.1395 46.607C32.2107 44.8972 32.6106 43.2173 33.317 41.6596L33.4357 41.3787L33.2648 41.1215C32.8035 40.3415 32.5837 39.4415 32.6333 38.5359C32.6333 33.9457 37.3813 26.1555 41.0087 26.1555C44.6362 26.1555 49.3842 33.9409 49.3842 38.5359C49.4324 39.442 49.211 40.342 48.748 41.1215L48.577 41.3787L48.6957 41.6596C49.4032 43.2155 49.8047 44.8938 49.878 46.6023C49.878 50.9306 46.882 51.283 41.5785 51.3021Z" fill="white"/>
<line x1="36" y1="57.6375" x2="46.5975" y2="57.6375" stroke="white" stroke-width="0.7"/>
</svg>
