<svg width="83" height="80" viewBox="0 0 83 80" fill="none" xmlns="http://www.w3.org/2000/svg">
<rect width="82.6667" height="80" rx="14" fill="#92A1F0"/>
<path d="M50.1089 34.2972H32.5598C32.3699 34.281 32.1818 34.3438 32.0395 34.4706C31.8996 34.6049 31.8349 34.7994 31.8661 34.9908L33.6696 50.7018C33.8811 52.4339 35.3581 53.732 37.1031 53.7191H45.8429C47.637 53.7446 49.1482 52.3845 49.3111 50.5977L50.8025 34.9214C50.8117 34.7533 50.7486 34.5892 50.6291 34.4706C50.4869 34.3438 50.2987 34.281 50.1089 34.2972ZM47.9239 50.5284C47.8149 51.5845 46.9039 52.374 45.843 52.3318H37.1031C36.0613 52.3741 35.1658 51.6 35.0569 50.563L33.3228 35.6845H49.3459L47.9239 50.5284Z" fill="white"/>
<path d="M52.6394 29.7884H45.4948V28.6786C45.5333 27.6066 44.6956 26.7064 43.6236 26.6679C43.5884 26.6667 43.5532 26.6663 43.518 26.667H39.148C38.0755 26.6471 37.1901 27.5004 37.1703 28.5729C37.1696 28.6081 37.1699 28.6434 37.1712 28.6786V29.7884H30.0267C29.6436 29.7884 29.333 30.0989 29.333 30.482C29.333 30.8651 29.6436 31.1756 30.0267 31.1756H52.6394C53.0225 31.1756 53.333 30.8651 53.333 30.482C53.333 30.0989 53.0224 29.7884 52.6394 29.7884ZM44.1075 28.6786V29.7884H38.5584V28.6786C38.5193 28.3746 38.7341 28.0965 39.038 28.0574C39.0745 28.0527 39.1113 28.0517 39.148 28.0543H43.5179C43.8236 28.0326 44.089 28.2629 44.1107 28.5686C44.1133 28.6053 44.1123 28.6421 44.1075 28.6786Z" fill="white"/>
</svg>
