<svg width="83" height="81" viewBox="0 0 83 81" fill="none" xmlns="http://www.w3.org/2000/svg">
<rect x="0.111328" y="0.920959" width="82.6667" height="80" rx="14" fill="#F2C787"/>
<path d="M58.2899 36.7893L41.5695 26.3178C41.4219 26.2331 41.2498 26.2331 41.1023 26.3178L24.3572 36.7893C24.2097 36.9022 24.1113 37.0715 24.1113 37.2973V39.5271C24.1113 39.8376 24.3326 40.0916 24.6031 40.0916H26.521V54.5992C26.521 54.9097 26.7423 55.1637 27.0128 55.1637H41.3236C41.594 55.1637 41.8153 54.9097 41.8153 54.5992V50.7606V50.6195C43.8562 50.3373 45.4545 48.3333 45.4545 45.9059C45.4545 42.5189 44.1759 39.3577 41.9137 37.1562L41.6432 36.874C41.4711 36.7046 41.2006 36.7046 41.0039 36.874L40.7334 37.1562C38.4958 39.3295 37.1926 42.5189 37.1926 45.9059C37.1926 47.1196 37.5861 48.2768 38.3237 49.18C38.5204 49.4058 38.8155 49.4058 39.0122 49.2083C39.2089 48.9825 39.2089 48.6438 39.0368 48.418C38.4713 47.7406 38.1762 46.8656 38.1762 45.9342C38.1762 42.9141 39.3319 40.0634 41.3236 38.0876C43.3153 40.0634 44.4709 42.9141 44.4709 45.9342C44.4709 47.7406 43.3153 49.2365 41.8153 49.4905V48.8131V42.9705C41.8153 42.6601 41.594 42.406 41.3236 42.406C41.0531 42.406 40.8318 42.6601 40.8318 42.9705V48.7849V50.7606V54.0347H27.5046V39.4989C27.5046 39.1884 27.2833 38.9344 27.0128 38.9344H25.0949V37.6078L41.3236 27.4468L57.5522 37.6078V38.9344H55.6343C55.3638 38.9344 55.1425 39.1884 55.1425 39.4989V54.0065H45.2578C44.9873 54.0065 44.766 54.2605 44.766 54.571C44.766 54.8815 44.9873 55.1355 45.2578 55.1355H55.6343C55.9048 55.1355 56.1261 54.8815 56.1261 54.571V40.0634H58.044C58.3145 40.0634 58.5358 39.8093 58.5358 39.4989V37.2691C58.5358 37.0715 58.4374 36.9022 58.2899 36.7893Z" fill="white"/>
</svg>
