<svg width="232" height="162" viewBox="0 0 232 162" fill="none" xmlns="http://www.w3.org/2000/svg">
<path d="M185.122 140.448C184.291 140.179 183.412 140.085 182.543 140.173C181.483 140.288 181.633 141.901 182.696 141.825C183.228 141.784 183.754 141.687 184.266 141.536L185.122 140.448Z" fill="#ADE1D1"/>
<path d="M185.445 140.462C185.827 141.249 186.042 142.106 186.076 142.98C186.111 144.046 184.492 144.122 184.418 143.058C184.386 142.526 184.41 141.992 184.488 141.464L185.445 140.462Z" fill="#ADE1D1"/>
<path d="M187.854 137.012C187.854 137.012 187.335 135.385 184.166 136.016C182.731 136.301 182.77 138.358 184.207 138.575H184.268C186.36 138.866 187.087 138.036 187.854 137.012Z" fill="#ADE1D1"/>
<path d="M188.183 136.915C188.183 136.915 189.885 137.048 189.992 140.276C190.041 141.728 188.031 142.169 187.492 140.821C187.492 140.8 187.478 140.782 187.469 140.761C186.718 138.792 187.359 137.895 188.183 136.915Z" fill="#ADE1D1"/>
<path d="M190.46 132.756C190.34 132.165 190.065 131.618 189.663 131.169C189.261 130.72 188.747 130.387 188.173 130.203C186.028 129.527 184.895 132.735 186.991 133.551C187.858 133.868 188.782 134.002 189.704 133.944L190.46 132.756Z" fill="#ADE1D1"/>
<path d="M193.074 127.398C193.074 127.398 192.207 125.349 189.959 124.939C187.576 124.502 186.855 128.082 189.209 128.654C190.266 128.883 191.358 128.892 192.418 128.68L193.074 127.398Z" fill="#ADE1D1"/>
<path d="M194.655 122.122C194.288 121.545 193.809 121.048 193.245 120.661C192.682 120.273 192.046 120.004 191.377 119.868C189.328 119.482 188.637 122.55 190.649 123.074C191.913 123.383 193.234 123.365 194.489 123.021L194.655 122.122Z" fill="#ADE1D1"/>
<path d="M196.144 116.978C195.49 115.901 194.473 115.092 193.276 114.698C191.227 114.069 190.214 117.175 192.251 117.851C193.459 118.252 194.764 118.247 195.968 117.837L196.144 116.978Z" fill="#ADE1D1"/>
<path d="M196.771 112.292C196.771 112.292 195.951 110.37 194.281 109.354C192.42 108.221 190.648 110.993 192.437 112.241C193.539 113.014 194.951 113.546 196.6 113.19L196.771 112.292Z" fill="#ADE1D1"/>
<path d="M197.081 106.733C197.081 106.733 196.178 104.793 194.444 103.865C192.506 102.84 190.82 105.672 192.645 106.893C193.84 107.69 195.331 108.207 196.915 107.584L197.081 106.733Z" fill="#ADE1D1"/>
<path d="M196.888 101.664C196.212 100.615 195.383 99.6724 194.43 98.8674C193.073 97.7589 191.356 99.7546 192.641 100.939C193.827 102.027 195.304 102.941 196.831 102.867L196.888 101.664Z" fill="#ADE1D1"/>
<path d="M196.374 96.7999C195.599 95.4933 194.666 94.2876 193.595 93.2101C192.534 92.1856 190.964 93.7469 191.956 94.8267C193.101 96.0561 194.646 97.3306 196.503 97.888L196.374 96.7999Z" fill="#ADE1D1"/>
<path d="M195.379 91.0791C194.74 90.0861 193.996 89.1649 193.16 88.3314C192.09 87.2844 190.478 88.86 191.504 89.9481C192.594 91.1058 194.004 92.1897 195.657 92.5585L195.379 91.0791Z" fill="#ADE1D1"/>
<path d="M194.509 85.7415C193.852 84.8524 193.139 84.0059 192.376 83.2069C191.519 82.3237 190.15 83.5654 190.958 84.4957C191.906 85.5899 193.123 86.559 194.523 86.7148L194.509 85.7415Z" fill="#ADE1D1"/>
<path d="M193.608 80.7911C193.009 79.6185 192.324 78.4919 191.559 77.4204C190.918 76.5435 189.582 77.4819 190.186 78.3835C190.977 79.5658 192.076 80.7357 193.518 81.2992L193.608 80.7911Z" fill="#ADE1D1"/>
<path d="M192.866 74.2117C192.866 74.2117 192.36 73.3532 191.637 72.3553C190.969 71.4353 189.559 72.3861 190.178 73.3388C190.874 74.4064 191.747 75.3161 192.764 75.4964L192.866 74.2117Z" fill="#ADE1D1"/>
<path d="M192.512 69.8515L191.871 66.6448C191.701 65.7965 190.437 65.9993 190.539 66.8497C190.769 68.5626 191.359 70.2859 192.643 71.4169L192.512 69.8515Z" fill="#ADE1D1"/>
<path d="M192.892 60.7375C192.833 60.5957 192.723 60.4808 192.584 60.4144C192.445 60.348 192.287 60.3347 192.139 60.3771C191.991 60.4195 191.864 60.5146 191.782 60.6444C191.699 60.7743 191.667 60.9298 191.692 61.0817C191.834 61.9724 192.051 62.8497 192.339 63.7044L192.892 60.7375Z" fill="#ADE1D1"/>
<path d="M190.601 132.692C191.174 132.503 191.786 132.471 192.375 132.597C192.965 132.724 193.509 133.006 193.953 133.414C195.593 134.944 193.376 137.512 191.628 136.1C190.923 135.503 190.349 134.767 189.941 133.938L190.601 132.692Z" fill="#ADE1D1"/>
<path d="M193.22 127.203C193.22 127.203 195.375 126.683 197.043 128.244C198.811 129.899 196.367 132.61 194.504 131.059C193.691 130.347 193.033 129.474 192.572 128.496L193.22 127.203Z" fill="#ADE1D1"/>
<path d="M194.795 122.482C195.352 122.083 195.984 121.801 196.653 121.652C197.322 121.504 198.015 121.492 198.688 121.617C200.737 122.027 200.227 125.127 198.164 124.863C196.877 124.676 195.658 124.165 194.623 123.378L194.795 122.482Z" fill="#ADE1D1"/>
<path d="M196.247 117.007C197.254 116.251 198.498 115.88 199.755 115.96C201.898 116.147 201.669 119.402 199.523 119.267C198.253 119.188 197.044 118.695 196.081 117.864L196.247 117.007Z" fill="#ADE1D1"/>
<path d="M196.744 112.426C196.744 112.426 197.881 110.672 199.697 109.955C201.711 109.157 203.004 112.176 201.047 113.104C199.818 113.684 198.336 113.977 196.763 113.339L196.744 112.426Z" fill="#ADE1D1"/>
<path d="M196.814 106.649C196.814 106.649 197.964 104.846 199.802 104.158C201.851 103.39 203.16 106.422 201.191 107.395C199.902 108.031 198.355 108.346 196.868 107.522L196.814 106.649Z" fill="#ADE1D1"/>
<path d="M196.43 101.611C196.866 100.442 197.473 99.3435 198.233 98.3531C199.319 96.9782 201.431 98.558 200.423 99.9923C199.497 101.31 198.259 102.517 196.735 102.773L196.43 101.611Z" fill="#ADE1D1"/>
<path d="M196.271 96.7917C196.648 95.3171 197.207 93.8951 197.935 92.5585C198.671 91.284 200.611 92.3393 199.951 93.6547C199.197 95.1607 198.066 96.8102 196.439 97.8654L196.271 96.7917Z" fill="#ADE1D1"/>
<path d="M195.084 90.8127C195.527 89.6762 196.094 88.5924 196.776 87.5814C197.621 86.352 199.491 87.5569 198.719 88.8272C197.879 90.2124 196.695 91.6057 195.107 92.3105L195.084 90.8127Z" fill="#ADE1D1"/>
<path d="M194.138 85.7128C194.366 84.6318 194.663 83.5663 195.025 82.5225C195.435 81.3607 197.199 81.9221 196.851 83.1044C196.441 84.4936 195.738 85.8808 194.531 86.6041L194.138 85.7128Z" fill="#ADE1D1"/>
<path d="M193.479 80.6948C193.795 79.4155 194.206 78.1615 194.708 76.9431C195.134 75.9431 196.65 76.5517 196.265 77.568C195.765 78.8999 194.962 80.2891 193.688 81.1661L193.479 80.6948Z" fill="#ADE1D1"/>
<path d="M192.497 74.6625C192.497 74.6625 192.69 73.6852 193.04 72.5029C193.364 71.4128 195.011 71.8411 194.743 72.9455C194.444 74.1749 193.923 75.3326 193.022 75.8407L192.497 74.6625Z" fill="#ADE1D1"/>
<path d="M192.724 69.6343L193.839 66.5608C194.134 65.7412 195.363 66.1387 195.123 66.9706C194.642 68.6303 193.806 70.249 192.361 71.171L192.724 69.6343Z" fill="#ADE1D1"/>
<path d="M194.114 61.0592C194.114 61.0592 194.288 60.9198 194.554 60.7006C195.097 60.2498 195.806 61.0366 195.294 61.5202C194.402 62.3308 193.377 62.9811 192.264 63.4422L194.114 61.0592Z" fill="#ADE1D1"/>
<path d="M194.04 59.2786C194.706 57.9184 195.448 56.5967 196.263 55.3199C196.31 55.2319 196.323 55.1298 196.3 55.0329C196.277 54.9359 196.219 54.8507 196.138 54.7932C196.056 54.7357 195.957 54.7098 195.858 54.7204C195.758 54.7309 195.667 54.7773 195.599 54.8507C194.944 55.7482 194.3 57.0616 193.812 58.9917L194.04 59.2786Z" fill="#ADE1D1"/>
<path d="M192.769 75.5477L193.007 75.5231C191.983 65.9727 192.415 60.0839 194.206 58.9426L194.077 58.7377C192.179 59.9527 191.728 65.7637 192.769 75.5477Z" fill="#444053"/>
<path d="M196.294 98.1277L196.649 98.0744C196.516 97.1913 196.362 96.2938 196.19 95.4107C194.698 87.6593 193.538 80.494 192.958 75.0518L192.698 74.8469C193.28 80.2993 194.337 87.7126 195.839 95.4742C196.007 96.3512 196.161 97.2466 196.294 98.1277Z" fill="#444053"/>
<path d="M179.695 146.398C179.748 146.355 185.207 142.179 190 134.17C192.809 129.482 194.856 124.379 196.065 119.05C197.579 112.389 197.622 104.631 196.53 97.3655L196.21 97.6216C198.669 113.928 193.979 126.588 189.602 133.907C184.857 141.843 179.462 145.976 179.406 146.017L179.695 146.398Z" fill="#444053"/>
<path d="M39.9252 146.361C47.4562 146.361 53.5613 145.187 53.5613 143.738C53.5613 142.29 47.4562 141.116 39.9252 141.116C32.3942 141.116 26.2891 142.29 26.2891 143.738C26.2891 145.187 32.3942 146.361 39.9252 146.361Z" fill="#ADE1D1"/>
<path d="M39.6964 144.702C40.5734 144.702 41.2844 143.771 41.2844 142.624C41.2844 141.476 40.5734 140.546 39.6964 140.546C38.8194 140.546 38.1084 141.476 38.1084 142.624C38.1084 143.771 38.8194 144.702 39.6964 144.702Z" fill="#3F3D56"/>
<path d="M39.6964 142.161C40.5734 142.161 41.2844 141.231 41.2844 140.083C41.2844 138.936 40.5734 138.005 39.6964 138.005C38.8194 138.005 38.1084 138.936 38.1084 140.083C38.1084 141.231 38.8194 142.161 39.6964 142.161Z" fill="#3F3D56"/>
<path d="M39.6964 139.622C40.5734 139.622 41.2844 138.692 41.2844 137.544C41.2844 136.397 40.5734 135.467 39.6964 135.467C38.8194 135.467 38.1084 136.397 38.1084 137.544C38.1084 138.692 38.8194 139.622 39.6964 139.622Z" fill="#3F3D56"/>
<path d="M39.6964 137.081C40.5734 137.081 41.2844 136.151 41.2844 135.004C41.2844 133.856 40.5734 132.926 39.6964 132.926C38.8194 132.926 38.1084 133.856 38.1084 135.004C38.1084 136.151 38.8194 137.081 39.6964 137.081Z" fill="#3F3D56"/>
<path d="M39.6964 134.541C40.5734 134.541 41.2844 133.61 41.2844 132.463C41.2844 131.315 40.5734 130.385 39.6964 130.385C38.8194 130.385 38.1084 131.315 38.1084 132.463C38.1084 133.61 38.8194 134.541 39.6964 134.541Z" fill="#3F3D56"/>
<path d="M39.6964 132.002C40.5734 132.002 41.2844 131.072 41.2844 129.924C41.2844 128.777 40.5734 127.846 39.6964 127.846C38.8194 127.846 38.1084 128.777 38.1084 129.924C38.1084 131.072 38.8194 132.002 39.6964 132.002Z" fill="#3F3D56"/>
<path d="M39.6964 129.461C40.5734 129.461 41.2844 128.531 41.2844 127.383C41.2844 126.236 40.5734 125.306 39.6964 125.306C38.8194 125.306 38.1084 126.236 38.1084 127.383C38.1084 128.531 38.8194 129.461 39.6964 129.461Z" fill="#3F3D56"/>
<path d="M45.6379 110C45.8555 109.724 46.0533 109.433 46.23 109.129L42.0583 108.444L46.5661 108.477C46.9991 107.536 47.2354 106.516 47.2605 105.48C47.2855 104.444 47.0987 103.414 46.7115 102.453L40.6588 105.592L46.2403 101.494C45.7184 100.588 45.0154 99.7998 44.1751 99.1778C43.3349 98.5558 42.3754 98.1137 41.3567 97.8791C40.3379 97.6445 39.2817 97.6225 38.254 97.8143C37.2264 98.0062 36.2493 98.4078 35.3838 98.9942C34.5183 99.5805 33.783 100.339 33.2237 101.222C32.6645 102.106 32.2933 103.095 32.1334 104.128C31.9735 105.161 32.0283 106.216 32.2944 107.227C32.5605 108.238 33.0321 109.183 33.6799 110.004C33.3424 110.434 33.0519 110.899 32.8131 111.391L38.2287 114.204L32.4587 112.266C32.0537 113.464 31.954 114.745 32.1687 115.992C32.3833 117.239 32.9056 118.412 33.6881 119.407C32.8052 120.528 32.2559 121.876 32.1029 123.295C31.9499 124.715 32.1995 126.148 32.823 127.433C33.4465 128.717 34.4189 129.799 35.6288 130.557C36.8388 131.315 38.2375 131.716 39.665 131.716C41.0926 131.716 42.4913 131.315 43.7012 130.557C44.9112 129.799 45.8835 128.717 46.507 127.433C47.1306 126.148 47.3801 124.715 47.2271 123.295C47.0741 121.876 46.5248 120.528 45.642 119.407C46.697 118.067 47.2707 116.411 47.2707 114.705C47.2707 113 46.697 111.344 45.642 110.004L45.6379 110Z" fill="#ADE1D1"/>
<path opacity="0.1" d="M32.0577 114.702C32.056 116.407 32.6291 118.063 33.6846 119.402C32.8018 120.524 32.2524 121.872 32.0995 123.291C31.9465 124.711 32.196 126.144 32.8195 127.428C33.4431 128.713 34.4154 129.795 35.6254 130.553C36.8353 131.31 38.234 131.712 39.6616 131.712C41.0891 131.712 42.4878 131.31 43.6978 130.553C44.9077 129.795 45.8801 128.713 46.5036 127.428C47.1271 126.144 47.3766 124.711 47.2237 123.291C47.0707 121.872 46.5214 120.524 45.6385 119.402C46.6589 118.11 32.0577 113.848 32.0577 114.702Z" fill="black"/>
<path d="M47.7021 54.2524V144.759C47.7021 145.174 47.7839 145.585 47.9427 145.968C48.1014 146.351 48.3342 146.7 48.6276 146.993C48.921 147.286 49.2693 147.519 49.6526 147.678C50.0359 147.837 50.4468 147.918 50.8617 147.918H180.742C181.58 147.918 182.383 147.586 182.976 146.993C183.569 146.401 183.901 145.597 183.901 144.759V54.2524H47.7021Z" fill="white"/>
<path d="M47.7021 54.5982V144.578C47.7021 144.991 47.7839 145.399 47.9427 145.78C48.1014 146.162 48.3342 146.508 48.6276 146.8C48.921 147.091 49.2693 147.323 49.6526 147.48C50.0359 147.638 50.4468 147.72 50.8617 147.72H180.742C181.58 147.72 182.383 147.389 182.976 146.8C183.569 146.21 183.901 145.411 183.901 144.578V54.5982H47.7021Z" fill="white"/>
<rect x="60.5635" y="66.6586" width="66.3843" height="16.3766" rx="6" fill="#ADE1D1"/>
<path d="M147.562 95.0518C145.354 93.546 144.785 90.5353 146.29 88.3274C147.796 86.1194 150.807 85.5503 153.015 87.0561C155.223 88.562 155.792 91.5726 154.286 93.7805C152.78 95.9885 149.77 96.5576 147.562 95.0518ZM152.538 87.7556C150.716 86.5132 148.232 86.9828 146.99 88.8045C145.748 90.6261 146.217 93.1099 148.039 94.3523C149.86 95.5947 152.344 95.1251 153.587 93.3035C154.829 91.4818 154.359 88.998 152.538 87.7556Z" fill="#F1F1F1"/>
<path d="M150.487 86.2189C151.282 86.2516 152.057 86.4799 152.743 86.8835C153.429 87.2872 154.004 87.8537 154.419 88.533C154.833 89.2122 155.074 89.9833 155.12 90.7778C155.165 91.5723 155.014 92.3657 154.679 93.0878C154.345 93.8099 153.837 94.4384 153.202 94.9175C152.567 95.3967 151.823 95.7118 151.037 95.8348C150.25 95.9579 149.446 95.8852 148.695 95.6231C147.943 95.361 147.268 94.9177 146.729 94.3323L147.352 93.7587C147.796 94.2417 148.354 94.6074 148.973 94.8237C149.593 95.0399 150.257 95.0999 150.906 94.9984C151.554 94.8968 152.168 94.6369 152.692 94.2415C153.216 93.8462 153.635 93.3277 153.911 92.732C154.187 92.1362 154.312 91.4816 154.274 90.8261C154.237 90.1706 154.038 89.5345 153.696 88.9741C153.354 88.4136 152.879 87.9462 152.313 87.6132C151.747 87.2802 151.108 87.0919 150.452 87.0649L150.487 86.2189Z" fill="#ADE1D1"/>
<rect x="62.0039" y="110.827" width="29.9497" height="27.9457" rx="5.5" stroke="#ADE1D1"/>
<rect x="103.384" y="110.827" width="29.9497" height="27.9457" rx="5.5" stroke="#ADE1D1"/>
<rect x="141.134" y="67.0847" width="16.9225" height="16.3766" rx="6" fill="#ADE1D1"/>
<path d="M148.157 131.789C145.949 130.283 145.38 127.273 146.886 125.065C148.392 122.857 151.403 122.288 153.611 123.793C155.819 125.299 156.388 128.31 154.882 130.518C153.376 132.726 150.365 133.295 148.157 131.789ZM153.134 124.493C151.312 123.25 148.828 123.72 147.586 125.542C146.343 127.363 146.813 129.847 148.634 131.09C150.456 132.332 152.94 131.862 154.182 130.041C155.425 128.219 154.955 125.735 153.134 124.493Z" fill="#F1F1F1"/>
<path d="M151.083 122.956C151.878 122.989 152.653 123.217 153.338 123.621C154.024 124.024 154.6 124.591 155.015 125.27C155.429 125.949 155.67 126.721 155.715 127.515C155.761 128.31 155.609 129.103 155.275 129.825C154.94 130.547 154.433 131.176 153.798 131.655C153.162 132.134 152.419 132.449 151.632 132.572C150.846 132.695 150.042 132.622 149.29 132.36C148.539 132.098 147.864 131.655 147.325 131.07L147.947 130.496C148.392 130.979 148.949 131.345 149.569 131.561C150.189 131.777 150.853 131.837 151.501 131.736C152.15 131.634 152.764 131.374 153.288 130.979C153.812 130.583 154.231 130.065 154.507 129.469C154.783 128.873 154.907 128.219 154.87 127.563C154.832 126.908 154.634 126.272 154.292 125.711C153.95 125.151 153.475 124.683 152.909 124.35C152.343 124.017 151.704 123.829 151.048 123.802L151.083 122.956Z" fill="#ADE1D1"/>
<rect x="141.73" y="103.822" width="16.9225" height="16.3766" rx="6" fill="#ADE1D1"/>
<rect x="61.5039" y="88.34" width="16.9225" height="16.3766" rx="6" fill="#ADE1D1"/>
<rect x="86.9561" y="88.34" width="16.9225" height="16.3766" rx="6" fill="#ADE1D1"/>
<rect x="112.408" y="88.34" width="16.9225" height="16.3766" rx="6" fill="#ADE1D1"/>
<path d="M47.7021 38.2681V54.7114H183.901V38.2681C183.902 37.853 183.82 37.4419 183.661 37.0584C183.503 36.6748 183.27 36.3263 182.977 36.0326C182.683 35.739 182.335 35.5061 181.951 35.3472C181.568 35.1883 181.157 35.1065 180.742 35.1065H50.8617C50.4466 35.1065 50.0356 35.1883 49.6521 35.3472C49.2687 35.5061 48.9203 35.739 48.6268 36.0326C48.3334 36.3263 48.1007 36.6748 47.9421 37.0584C47.7834 37.4419 47.7019 37.853 47.7021 38.2681ZM81.4082 43.1325C80.9094 43.1325 80.4217 42.9845 80.0069 42.7074C79.5921 42.4302 79.2688 42.0363 79.0779 41.5754C78.887 41.1145 78.8371 40.6073 78.9344 40.118C79.0317 39.6288 79.2719 39.1793 79.6247 38.8266C79.9774 38.4738 80.4269 38.2336 80.9162 38.1363C81.4054 38.0389 81.9126 38.0889 82.3735 38.2798C82.8344 38.4707 83.2283 38.794 83.5055 39.2088C83.7826 39.6236 83.9306 40.1113 83.9306 40.6101C83.9306 41.2791 83.6648 41.9207 83.1918 42.3937C82.7188 42.8667 82.0772 43.1325 81.4082 43.1325ZM150.195 43.1325C149.696 43.1325 149.209 42.9845 148.794 42.7074C148.379 42.4302 148.056 42.0363 147.865 41.5754C147.674 41.1145 147.624 40.6073 147.721 40.118C147.819 39.6288 148.059 39.1793 148.412 38.8266C148.765 38.4738 149.214 38.2336 149.703 38.1363C150.192 38.0389 150.7 38.0889 151.161 38.2798C151.621 38.4707 152.015 38.794 152.293 39.2088C152.57 39.6236 152.718 40.1113 152.718 40.6101C152.718 40.9417 152.652 41.27 152.525 41.5763C152.398 41.8826 152.212 42.1609 151.977 42.3951C151.743 42.6294 151.464 42.8151 151.158 42.9416C150.851 43.0681 150.523 43.133 150.191 43.1325H150.195Z" fill="#ADE1D1"/>
<path opacity="0.1" d="M81.4091 37.6288C80.8194 37.6284 80.2428 37.8029 79.7523 38.1303C79.2617 38.4576 78.8793 38.9231 78.6533 39.4678C78.4273 40.0125 78.368 40.6121 78.4828 41.1905C78.5976 41.769 78.8814 42.3004 79.2983 42.7175C79.7151 43.1347 80.2463 43.4188 80.8247 43.534C81.4031 43.6492 82.0026 43.5903 82.5475 43.3647C83.0924 43.1391 83.5581 42.757 83.8858 42.2667C84.2135 41.7764 84.3884 41.1999 84.3884 40.6101C84.3887 40.2187 84.3118 39.8311 84.1622 39.4694C84.0126 39.1077 83.7932 38.779 83.5165 38.5022C83.2398 38.2253 82.9113 38.0057 82.5497 37.8558C82.1881 37.706 81.8005 37.6288 81.4091 37.6288ZM81.4091 43.1325C80.9103 43.1325 80.4226 42.9845 80.0078 42.7074C79.593 42.4302 79.2697 42.0363 79.0788 41.5754C78.8879 41.1145 78.838 40.6073 78.9353 40.1181C79.0326 39.6288 79.2728 39.1793 79.6256 38.8266C79.9783 38.4738 80.4278 38.2336 80.9171 38.1363C81.4063 38.039 81.9135 38.0889 82.3744 38.2798C82.8353 38.4707 83.2292 38.794 83.5064 39.2088C83.7835 39.6236 83.9315 40.1113 83.9315 40.6101C83.9315 41.2791 83.6657 41.9207 83.1927 42.3937C82.7197 42.8667 82.0781 43.1325 81.4091 43.1325Z" fill="black"/>
<path opacity="0.1" d="M150.191 37.6288C149.602 37.6288 149.025 37.8037 148.535 38.1313C148.045 38.4589 147.663 38.9245 147.437 39.4692C147.211 40.014 147.152 40.6134 147.267 41.1918C147.382 41.7701 147.666 42.3013 148.083 42.7182C148.5 43.1352 149.031 43.4191 149.61 43.5341C150.188 43.6492 150.787 43.5901 151.332 43.3645C151.877 43.1389 152.343 42.7567 152.67 42.2665C152.998 41.7762 153.173 41.1998 153.173 40.6101C153.173 39.8194 152.858 39.0611 152.299 38.502C151.74 37.9429 150.982 37.6288 150.191 37.6288ZM150.191 43.1325C149.692 43.1325 149.205 42.9845 148.79 42.7074C148.375 42.4302 148.052 42.0363 147.861 41.5754C147.67 41.1145 147.62 40.6073 147.717 40.1181C147.815 39.6288 148.055 39.1793 148.408 38.8266C148.76 38.4738 149.21 38.2336 149.699 38.1363C150.188 38.039 150.696 38.0889 151.157 38.2798C151.617 38.4707 152.011 38.794 152.289 39.2088C152.566 39.6236 152.714 40.1113 152.714 40.6101C152.714 41.2791 152.448 41.9207 151.975 42.3937C151.502 42.8667 150.86 43.1325 150.191 43.1325Z" fill="black"/>
<path opacity="0.1" d="M211.852 89.8989C213.58 89.8989 214.981 88.4981 214.981 86.7701C214.981 85.042 213.58 83.6412 211.852 83.6412C210.124 83.6412 208.724 85.042 208.724 86.7701C208.724 88.4981 210.124 89.8989 211.852 89.8989Z" fill="#ADE1D1"/>
<path opacity="0.1" d="M223.047 78.0618C225.944 78.0618 228.293 75.7133 228.293 72.8164C228.293 69.9194 225.944 67.5709 223.047 67.5709C220.15 67.5709 217.802 69.9194 217.802 72.8164C217.802 75.7133 220.15 78.0618 223.047 78.0618Z" fill="#ADE1D1"/>
<path opacity="0.1" d="M216.103 103.515C219 103.515 221.348 101.166 221.348 98.2691C221.348 95.3721 219 93.0236 216.103 93.0236C213.206 93.0236 210.857 95.3721 210.857 98.2691C210.857 101.166 213.206 103.515 216.103 103.515Z" fill="#ADE1D1"/>
<path d="M189.838 152.426C189.372 152.075 188.86 151.788 188.318 151.572C188.276 151.55 188.231 151.539 188.184 151.537C187.062 150.731 186.013 149.827 185.049 148.836C185.254 148.672 185.443 148.513 185.644 148.355C184.414 147.769 183.732 146.427 183.068 145.216C181.313 141.997 179 139.115 176.237 136.704C176.169 136.444 175.774 136.499 175.563 136.331C175.494 136.265 175.444 136.182 175.417 136.09C175.391 135.998 175.39 135.901 175.413 135.809C175.446 135.62 175.532 135.446 175.579 135.262C175.692 134.829 175.593 134.375 175.544 133.93C175.495 133.485 175.515 132.989 175.811 132.657C175.905 132.549 176.026 132.465 176.118 132.354C176.215 132.224 176.283 132.075 176.318 131.916C176.354 131.758 176.355 131.593 176.323 131.434C176.3 131.115 176.231 130.801 176.118 130.502C177.122 127.77 178.125 125.033 179.128 122.292C179.831 120.378 180.54 118.423 180.611 116.382C180.669 114.743 180.247 113.04 179.255 111.788C179.435 111.745 179.616 111.7 179.794 111.649C178.622 110.096 178.495 108.039 178.464 106.082C178.448 105.107 178.414 104.131 178.364 103.154C178.704 103.303 179.048 103.437 179.4 103.551L179.728 103.652C180.261 103.808 180.804 103.924 181.353 104C181.595 104.035 181.841 104.062 182.085 104.078C181.732 103.196 181.38 102.312 181.029 101.427C180.847 101.035 180.736 100.614 180.701 100.183V100.101C180.701 100.052 180.701 100.003 180.712 99.9533C180.726 99.836 180.753 99.7206 180.792 99.6091C180.81 99.554 180.831 99.5 180.855 99.4472C180.928 99.2858 181.016 99.1315 181.117 98.9862C181.191 98.8735 181.273 98.7649 181.355 98.6543C181.66 98.2979 181.909 97.8963 182.091 97.4638C182.163 97.2448 182.201 97.0161 182.203 96.7856C182.207 96.5519 182.187 96.3183 182.142 96.0889C182.113 95.9373 182.076 95.7836 182.035 95.6361C182.009 95.5439 181.98 95.4517 181.951 95.3615L181.927 95.2878C181.904 95.2181 181.882 95.1505 181.857 95.0829L181.833 95.0132C181.806 94.9394 181.779 94.8677 181.751 94.794L181.734 94.7509C181.343 93.7449 180.822 92.7859 180.505 91.7512C180.421 91.4758 180.353 91.196 180.3 90.9131C180.286 90.8414 180.275 90.7677 180.263 90.696C180.251 90.6242 180.245 90.573 180.236 90.5115C180.228 90.4501 180.218 90.3681 180.21 90.2964L180.191 90.0915C180.191 90.0259 180.181 89.9604 180.177 89.8866C180.177 89.7616 180.165 89.6366 180.163 89.5116C180.163 89.4665 180.163 89.4235 180.163 89.3784C180.163 89.2842 180.163 89.1879 180.163 89.0936C180.163 89.0424 180.163 88.9912 180.163 88.942C180.163 88.8478 180.177 88.7535 180.185 88.6613C180.185 88.6162 180.185 88.5711 180.199 88.5281C180.213 88.3915 180.232 88.2549 180.255 88.1183C180.275 87.9974 180.298 87.8745 180.322 87.7515C180.397 87.415 180.435 87.0716 180.437 86.727C180.437 86.6615 180.437 86.5938 180.423 86.5221C180.408 86.4504 180.406 86.4115 180.396 86.3582C180.395 86.3418 180.395 86.3254 180.396 86.309C180.396 86.2722 180.378 86.2353 180.37 86.1984C180.361 86.1615 180.359 86.1636 180.353 86.1472C180.347 86.1308 180.331 86.0754 180.318 86.0406C180.306 86.0058 180.308 86.0099 180.302 85.9935C180.296 85.9771 180.273 85.9197 180.257 85.8849L180.243 85.848C180.222 85.8029 180.199 85.7599 180.177 85.7169C180.098 85.5674 180.006 85.4248 179.902 85.2907C179.228 84.4055 178.107 83.7314 177.491 82.7561C177.131 82.124 176.896 81.4282 176.8 80.7071C176.769 80.5431 176.743 80.3792 176.714 80.2173C176.685 80.0555 176.661 79.8957 176.632 79.7358C176.614 79.6375 176.595 79.5309 176.575 79.4408L176.563 79.3773C176.546 79.2994 176.53 79.2195 176.511 79.1416L176.499 79.0863C176.481 79.0043 176.462 78.9224 176.442 78.8404L176.429 78.7974C176.409 78.7113 176.386 78.6253 176.364 78.5392C176.363 78.529 176.363 78.5187 176.364 78.5085C176.339 78.4183 176.313 78.3282 176.286 78.238V78.2196C176.257 78.1253 176.229 78.0331 176.198 77.9409C176.167 77.8467 176.134 77.7503 176.099 77.6561C176.063 77.5598 176.028 77.4635 175.989 77.3692C175.731 76.7091 175.382 76.0884 174.952 75.5251C174.014 74.3203 172.563 73.4556 171.059 73.513C170.252 73.5437 169.477 73.8265 168.717 74.1072L166.744 74.8346L167.295 74.5805C166.721 74.6318 166.135 74.685 165.617 74.9391C165.098 75.1932 164.66 75.6911 164.643 76.273C164.633 76.6111 164.766 76.9471 164.723 77.2832C164.652 77.8385 164.141 78.2155 163.877 78.7072C163.722 79.0035 163.651 79.3366 163.672 79.6703V79.6867C163.672 79.7256 163.672 79.7625 163.672 79.8014C163.671 79.8123 163.671 79.8233 163.672 79.8342V79.8998C162.853 79.5432 162.033 79.1724 161.213 78.7748C159.859 78.1089 158.488 77.3262 157.644 76.064C157.374 75.6542 157.165 75.2116 156.896 74.8059C156.588 74.3693 156.246 73.9582 155.872 73.5765L153.358 70.8555C153.165 71.2181 153.413 71.6464 153.608 72.007C153.814 72.3852 153.971 72.7889 154.073 73.2077C154.122 73.3442 154.118 73.4944 154.06 73.6278C153.969 73.7377 153.85 73.8217 153.716 73.8716C153.486 74.0161 153.311 74.2326 153.217 74.4872C153.124 74.7418 153.117 75.0203 153.198 75.2792C153.287 75.5342 153.441 75.7617 153.645 75.9391C153.848 76.1166 154.095 76.238 154.36 76.2915C154.537 76.3117 154.711 76.3544 154.878 76.4185C155.181 76.5681 155.325 76.9164 155.542 77.1766C155.937 77.652 156.566 77.8303 157.167 77.986C158.097 79.0597 159.064 80.0883 159.994 81.1619C161.402 82.7868 162.842 84.4403 164.678 85.5386C164.869 85.6534 165.063 85.7599 165.26 85.8583C165.26 85.891 165.26 85.9238 165.25 85.9566C165.199 86.1988 165.23 86.4512 165.338 86.6738C165.502 86.934 165.84 87.0118 166.141 87.0651L167.53 87.313C167.518 87.4931 167.496 87.6724 167.463 87.8499C167.444 87.9585 167.422 88.065 167.401 88.1736L167.377 88.313C167.377 88.313 167.377 88.3273 167.377 88.3335C167.377 88.3396 167.377 88.4072 167.362 88.4461C167.348 88.4851 167.362 88.4728 167.362 88.4851V88.5834V88.6244C167.362 88.6674 167.362 88.7125 167.362 88.7576C167.41 89.3026 167.772 89.7534 168.135 90.1694L168.33 90.405C168.021 90.7939 167.804 91.2479 167.696 91.7327C167.635 92.0369 167.604 92.3465 167.606 92.6568C167.421 92.8341 167.28 93.0533 167.197 93.2961C167.099 93.6319 167.063 93.9824 167.09 94.3309V94.3555C167.09 94.4846 167.09 94.6116 167.09 94.7407C167.066 95.2302 167.147 95.7192 167.328 96.175C167.346 96.2119 167.367 96.2446 167.385 96.2795C167.078 96.8819 166.565 97.3511 166.199 97.9187C165.828 98.5488 165.66 99.278 165.718 100.007C165.777 100.736 166.058 101.429 166.524 101.992C166.805 102.316 167.166 102.627 167.199 103.058C167.194 103.253 167.174 103.447 167.141 103.64C167.108 104.103 167.321 104.541 167.436 104.99C167.533 105.363 167.537 105.809 167.324 106.109C167.108 106.423 167.009 106.803 167.043 107.182C167.147 107.762 166.908 108.342 166.867 108.93C166.848 109.182 166.867 109.438 166.844 109.69C166.815 109.932 166.765 110.17 166.695 110.403C166.695 110.428 166.682 110.454 166.674 110.481C166.168 110.704 165.666 110.936 165.182 111.204C164.921 111.321 164.705 111.519 164.568 111.77C164.486 112.022 164.475 112.291 164.535 112.549L164.971 115.585L164.895 115.552C164.93 116.05 164.965 116.549 165.002 117.05C165.029 117.429 165.063 117.831 165.289 118.134C165.404 118.257 165.507 118.389 165.598 118.53C165.77 118.878 165.566 119.284 165.414 119.64C165.262 119.997 165.209 120.503 165.543 120.695C165.717 120.817 165.905 120.917 166.102 120.995C165.693 122.703 166.07 124.494 166.451 126.209C166.742 127.521 167.033 128.831 167.326 130.139C167.44 130.695 167.504 131.26 167.518 131.828C167.518 131.91 167.518 131.992 167.518 132.074C167.559 132.854 167.697 133.626 167.928 134.372C168.383 135.905 167.946 137.745 168.09 139.415C168.185 140.218 168.346 141.013 168.569 141.79C169.559 145.716 170.442 149.564 170.782 153.6C171.146 154.064 171.64 154.408 172.2 154.59C172.159 155.086 172.215 155.653 172.2 155.942C172.2 156.182 172.162 156.419 172.09 156.647C171.915 157.102 171.475 157.399 171.018 157.559C170.874 157.608 170.729 157.647 170.581 157.682L170.745 157.543C169.809 157.339 168.829 157.511 168.018 158.022C167.891 158.087 167.778 158.177 167.685 158.286C167.592 158.395 167.523 158.521 167.479 158.657C167.446 158.918 167.513 159.181 167.668 159.393C168.119 160.053 168.791 160.531 169.563 160.739C170.326 160.94 171.11 161.049 171.899 161.065L173.346 161.149C173.296 161.231 173.279 161.329 173.296 161.424C173.314 161.518 173.365 161.603 173.44 161.663C173.595 161.776 173.779 161.843 173.971 161.856C174.562 161.943 175.162 161.952 175.755 161.882C175.904 161.878 176.048 161.826 176.165 161.735C176.192 161.71 176.214 161.68 176.229 161.646C176.244 161.612 176.252 161.576 176.252 161.539C176.252 161.502 176.244 161.466 176.229 161.432C176.214 161.398 176.192 161.368 176.165 161.344C176.252 161.341 176.336 161.312 176.406 161.261C176.476 161.21 176.529 161.138 176.558 161.057C176.615 160.89 176.633 160.713 176.612 160.538C176.573 159.864 176.513 158.885 176.163 158.284C176.102 158.175 176.008 158.089 175.893 158.038C175.779 157.988 175.651 157.977 175.53 158.006C175.303 156.806 175.166 155.591 175.12 154.371C175.481 154.235 175.833 154.077 176.173 153.895C175.167 152.271 175.149 150.207 175.456 148.318C175.578 147.722 175.668 147.119 175.724 146.513C175.792 145.304 175.61 143.935 174.94 142.935C176.161 143.712 177.242 144.69 178.136 145.828C179.552 147.673 180.415 149.906 182.15 151.443C182.378 151.22 182.609 150.999 182.843 150.779C183.209 151.399 183.555 152.032 183.882 152.678C184.138 153.153 184.34 153.656 184.484 154.176C184.644 154.972 184.662 155.79 184.539 156.592C184.491 157.018 184.433 157.442 184.365 157.864C184.338 158.045 184.296 158.223 184.24 158.397C184.239 158.342 184.226 158.287 184.201 158.237C184.093 158.047 183.791 158.133 183.627 158.264C183.336 158.483 183.094 158.763 182.921 159.083C182.825 159.24 182.781 159.423 182.794 159.606C182.82 159.716 182.871 159.819 182.941 159.908C183.012 159.996 183.102 160.068 183.203 160.118C183.963 160.563 184.918 160.241 185.734 159.913C185.959 159.832 186.174 159.724 186.373 159.592C186.783 159.297 187.006 158.811 187.414 158.524C187.632 158.405 187.842 158.272 188.043 158.127C188.422 157.78 188.453 157.196 188.729 156.758C189.188 156.002 190.215 155.807 190.617 155.006C191.082 154.121 190.539 153.004 189.838 152.426Z" fill="url(#paint0_linear)"/>
<path d="M172.171 156.032C172.17 156.269 172.132 156.504 172.059 156.729C171.887 157.178 171.444 157.471 170.989 157.629C170.534 157.786 170.051 157.834 169.588 157.971C169.384 158.017 169.196 158.114 169.04 158.254C168.631 158.663 168.877 159.401 169.356 159.706C169.835 160.012 170.446 160.001 171.016 159.962C172.224 159.892 173.425 159.721 174.606 159.452C175.032 159.352 175.53 159.155 175.597 158.723C175.61 158.585 175.599 158.447 175.564 158.313C175.274 156.846 175.119 155.356 175.103 153.861C175.103 153.762 172.727 153.699 172.505 153.842C172.009 154.168 172.198 155.528 172.171 156.032Z" fill="#A1616A"/>
<path d="M182.77 150.814C183.164 151.465 183.533 152.13 183.879 152.807C184.135 153.275 184.337 153.771 184.481 154.285C184.64 155.07 184.659 155.876 184.537 156.668C184.489 157.087 184.43 157.506 184.36 157.924C184.293 158.334 184.184 158.799 183.834 159.034C183.99 159.127 184.165 159.183 184.346 159.199C184.527 159.215 184.709 159.19 184.879 159.127C185.217 158.996 185.529 158.805 185.799 158.563C187.555 157.114 188.872 155.01 188.938 152.734C188.956 152.556 188.923 152.376 188.841 152.217C188.759 152.106 188.654 152.012 188.534 151.943C187.224 151.05 186.007 150.028 184.901 148.892C184.836 148.804 184.742 148.744 184.635 148.722C184.551 148.722 184.469 148.746 184.397 148.789C183.723 149.127 182.596 149.609 182.315 150.377C182.507 150.474 182.666 150.626 182.77 150.814Z" fill="#A1616A"/>
<path d="M174.574 158.411C173.099 159.026 171.5 159.247 169.904 159.458C169.699 159.483 169.48 159.499 169.345 159.356C169.291 159.289 169.259 159.207 169.252 159.122C169.246 159.036 169.265 158.951 169.308 158.877C169.395 158.729 169.511 158.6 169.65 158.5L170.71 157.612C169.786 157.416 168.822 157.582 168.017 158.075C167.764 158.201 167.571 158.422 167.48 158.69C167.446 158.948 167.514 159.209 167.669 159.417C168.122 160.071 168.793 160.542 169.562 160.745C170.325 160.943 171.108 161.051 171.896 161.067L173.33 161.149C173.281 161.231 173.263 161.328 173.281 161.421C173.299 161.515 173.351 161.599 173.427 161.657C173.582 161.771 173.767 161.838 173.959 161.852C174.55 161.938 175.149 161.946 175.742 161.876C175.891 161.874 176.035 161.823 176.152 161.731C176.179 161.707 176.201 161.677 176.215 161.644C176.23 161.611 176.238 161.575 176.238 161.538C176.238 161.502 176.23 161.466 176.215 161.433C176.201 161.399 176.179 161.37 176.152 161.346C176.238 161.343 176.322 161.314 176.392 161.264C176.462 161.213 176.516 161.142 176.545 161.061C176.6 160.897 176.618 160.722 176.598 160.551C176.559 159.887 176.5 158.911 176.15 158.331C175.799 157.752 175.07 158.207 174.574 158.411Z" fill="#3F3D56"/>
<path d="M189.8 152.553C189.333 152.207 188.821 151.924 188.28 151.711C188.258 151.695 188.233 151.683 188.206 151.678C188.18 151.672 188.152 151.673 188.125 151.679C188.099 151.686 188.074 151.699 188.054 151.716C188.033 151.734 188.016 151.756 188.005 151.781C187.037 153.094 186.282 154.551 185.766 156.098C185.473 156.979 185.241 157.918 184.647 158.631C184.569 158.725 184.442 158.821 184.335 158.766C184.182 158.688 184.276 158.44 184.19 158.29C184.083 158.102 183.792 158.188 183.618 158.317C183.325 158.535 183.085 158.815 182.913 159.137C182.815 159.289 182.771 159.47 182.786 159.651C182.812 159.759 182.861 159.86 182.93 159.948C182.999 160.035 183.086 160.105 183.186 160.155C183.946 160.596 184.901 160.278 185.714 159.95C185.939 159.871 186.153 159.764 186.352 159.633C186.761 159.344 186.985 158.862 187.392 158.581C187.61 158.463 187.82 158.332 188.021 158.188C188.399 157.846 188.431 157.27 188.706 156.836C189.165 156.092 190.191 155.899 190.593 155.108C191.042 154.225 190.501 153.123 189.8 152.553Z" fill="#3F3D56"/>
<path d="M178.364 111.624C179.974 112.833 180.65 114.983 180.579 116.995C180.507 119.007 179.8 120.937 179.099 122.824C178.095 125.525 177.093 128.225 176.091 130.924C176.203 131.22 176.272 131.531 176.296 131.846C176.328 132.003 176.326 132.165 176.291 132.321C176.256 132.477 176.188 132.624 176.091 132.752C175.997 132.86 175.886 132.944 175.784 133.051C175.489 133.379 175.47 133.87 175.518 134.307C175.565 134.743 175.665 135.194 175.552 135.62C175.505 135.803 175.419 135.975 175.386 136.159C175.364 136.251 175.365 136.347 175.392 136.438C175.418 136.528 175.468 136.61 175.536 136.676C175.741 136.839 176.151 136.786 176.21 137.044C178.965 139.417 181.276 142.262 183.033 145.445C183.697 146.64 184.367 147.964 185.607 148.541C184.399 149.498 183.241 150.517 182.138 151.592C180.407 150.076 179.544 147.869 178.13 146.06C177.235 144.935 176.156 143.97 174.938 143.206C175.608 144.191 175.79 145.544 175.723 146.734C175.666 147.332 175.576 147.927 175.454 148.515C175.137 150.379 175.165 152.408 176.171 154.018C175.098 154.576 173.864 154.99 172.665 154.824C171.913 154.717 171.23 154.327 170.756 153.734C170.416 149.75 169.526 145.947 168.545 142.081C168.32 141.309 168.16 140.521 168.067 139.722C167.924 138.083 168.36 136.26 167.904 134.747C167.673 134.012 167.536 133.251 167.494 132.481C167.494 132.399 167.494 132.319 167.494 132.237C167.48 131.678 167.415 131.121 167.301 130.574L166.428 126.697C166.047 125.002 165.666 123.236 166.078 121.55C165.881 121.474 165.694 121.376 165.521 121.257C165.187 121.066 165.24 120.568 165.391 120.216C165.543 119.864 165.746 119.464 165.576 119.12C165.485 118.98 165.382 118.849 165.266 118.728C165.041 118.429 165.006 118.034 164.98 117.661L164.873 116.181C165.492 116.427 166.007 116.877 166.332 117.458C165.525 116.208 165.922 114.425 166.518 113.061C166.629 112.643 166.872 112.272 167.211 112.003C167.55 111.735 167.967 111.583 168.399 111.571C171.684 111.01 175.696 109.618 178.364 111.624Z" fill="#3F3D56"/>
<path opacity="0.1" d="M176.866 120.038C176.866 120.038 175.252 121.115 175.252 121.923C175.252 122.73 174.842 129.996 174.842 129.996V135.118C174.842 135.118 175.11 137.811 174.842 138.483C174.574 139.155 174.842 142.251 174.842 142.655C174.842 143.058 175.252 138.483 175.252 138.483V133.631L175.662 122.595L176.866 120.038Z" fill="black"/>
<path d="M167.862 82.7171L166.921 82.3504C164.999 81.58 163.075 80.8075 161.215 79.9039C159.862 79.2461 158.492 78.4696 157.649 77.2299C157.379 76.8201 157.17 76.3898 156.902 75.9862C156.593 75.5544 156.25 75.1481 155.877 74.7711L153.365 72.0869C153.172 72.4455 153.418 72.8676 153.615 73.2221C153.821 73.5957 153.977 73.9945 154.08 74.4084C154.128 74.5418 154.123 74.6886 154.066 74.8182C153.975 74.9279 153.857 75.0114 153.724 75.06C153.495 75.2003 153.319 75.413 153.226 75.6644C153.132 75.9157 153.124 76.1913 153.205 76.4472C153.295 76.7002 153.449 76.9254 153.653 77.1007C153.856 77.276 154.101 77.3954 154.365 77.4471C154.542 77.4676 154.716 77.5096 154.883 77.5721C155.187 77.7217 155.33 78.0639 155.547 78.32C155.943 78.7892 156.572 78.9675 157.17 79.1191C158.1 80.1784 159.065 81.1927 159.996 82.252C161.401 83.8543 162.84 85.4854 164.675 86.5713C165.327 86.9699 166.041 87.2566 166.788 87.4196C167.035 85.8288 167.394 84.2574 167.862 82.7171Z" fill="#A1616A"/>
<path opacity="0.15" d="M167.862 82.7171L166.921 82.3504C164.999 81.58 163.075 80.8075 161.215 79.9039C159.862 79.2461 158.492 78.4696 157.649 77.2299C157.379 76.8201 157.17 76.3898 156.902 75.9862C156.593 75.5544 156.25 75.1481 155.877 74.7711L153.365 72.0869C153.172 72.4455 153.418 72.8676 153.615 73.2221C153.821 73.5957 153.977 73.9945 154.08 74.4084C154.128 74.5418 154.123 74.6886 154.066 74.8182C153.975 74.9279 153.857 75.0114 153.724 75.06C153.495 75.2003 153.319 75.413 153.226 75.6644C153.132 75.9157 153.124 76.1913 153.205 76.4472C153.295 76.7002 153.449 76.9254 153.653 77.1007C153.856 77.276 154.101 77.3954 154.365 77.4471C154.542 77.4676 154.716 77.5096 154.883 77.5721C155.187 77.7217 155.33 78.0639 155.547 78.32C155.943 78.7892 156.572 78.9675 157.17 79.1191C158.1 80.1784 159.065 81.1927 159.996 82.252C161.401 83.8543 162.84 85.4854 164.675 86.5713C165.327 86.9699 166.041 87.2566 166.788 87.4196C167.035 85.8288 167.394 84.2574 167.862 82.7171Z" fill="black"/>
<path d="M166.14 88.0671C165.839 88.0138 165.501 87.94 165.337 87.6819C165.228 87.463 165.197 87.2138 165.249 86.975C165.412 85.4306 165.756 83.9108 166.273 82.4467C166.73 83.2929 167.63 83.7867 168.482 84.2313C169.243 84.6544 170.036 85.0162 170.855 85.3132C170.65 85.2476 170.148 88.399 169.865 88.5916C169.509 88.8416 168.648 88.5035 168.253 88.4359L166.14 88.0671Z" fill="#ADE1D1"/>
<path d="M168.322 87.1368C170.7 87.1368 172.629 85.2085 172.629 82.8298C172.629 80.4511 170.7 78.5228 168.322 78.5228C165.943 78.5228 164.015 80.4511 164.015 82.8298C164.015 85.2085 165.943 87.1368 168.322 87.1368Z" fill="#A1616A"/>
<path d="M167.448 86.3951C167.448 86.3951 170.274 88.817 169.063 90.4317C167.852 92.0463 167.178 93.124 168.792 93.2593C170.407 93.3945 175.79 90.5669 175.79 90.5669C175.79 90.5669 170.811 86.5304 171.618 84.1084C172.425 81.6865 167.448 86.3951 167.448 86.3951Z" fill="#FBBEBE"/>
<path d="M170.158 90.1858C169.556 90.3305 169.006 90.6397 168.569 91.0789C168.133 91.5182 167.826 92.0702 167.685 92.6733C167.368 94.1239 168.042 95.7468 167.407 97.0827C167.107 97.7179 166.552 98.1933 166.177 98.7895C165.808 99.4102 165.641 100.13 165.699 100.85C165.757 101.57 166.037 102.254 166.501 102.808C166.782 103.127 167.142 103.437 167.175 103.859C167.17 104.051 167.151 104.243 167.118 104.432C167.085 104.889 167.298 105.324 167.413 105.766C167.509 106.133 167.513 106.574 167.3 106.869C167.085 107.178 166.986 107.553 167.021 107.928C167.124 108.502 166.884 109.073 166.843 109.653C166.825 109.903 166.843 110.153 166.821 110.403C166.791 110.641 166.741 110.876 166.673 111.106L166.312 112.436C168.267 113.272 170.345 113.573 172.459 113.534C174.353 113.497 176.219 113.106 178.072 112.715C178.635 112.596 179.199 112.477 179.754 112.323C178.582 110.791 178.457 108.76 178.424 106.832C178.373 103.617 178.133 100.408 177.705 97.222C178.272 96.1504 178.524 94.9558 178.758 93.7654C178.863 93.2858 178.907 92.795 178.889 92.3044C178.832 91.2799 178.361 90.3066 177.9 89.3785C177.477 88.5302 177.02 87.6368 176.08 87.27C175.853 87.1743 175.605 87.1382 175.36 87.1651C175.115 87.192 174.881 87.281 174.681 87.4237C173.97 87.9605 174.181 88.8867 173.998 89.6776C173.758 90.7021 172.814 91.4377 171.808 91.7266C171.057 91.9234 170.279 91.996 169.505 91.9418C169.429 91.9374 169.356 91.9121 169.293 91.8686C169.231 91.8251 169.182 91.7651 169.152 91.6954C169.122 91.6257 169.112 91.549 169.123 91.4738C169.133 91.3986 169.165 91.328 169.214 91.2697C169.544 90.905 169.876 90.5341 170.158 90.1858Z" fill="#ADE1D1"/>
<path d="M173.494 106.834C171.899 108.137 170.287 109.453 168.447 110.375C167.367 110.916 166.22 111.315 165.169 111.897C164.909 112.011 164.693 112.207 164.554 112.454C164.47 112.702 164.459 112.969 164.521 113.223L164.988 116.444C165.117 117.317 165.955 117.878 166.627 118.435C166.591 118.142 166.531 117.915 166.67 117.655C166.719 117.573 166.771 117.495 166.828 117.419C167.115 116.985 167.125 116.421 167.056 115.905C166.986 115.388 166.851 114.88 166.877 114.352C166.872 114.264 166.889 114.177 166.927 114.098C166.965 114.019 167.023 113.951 167.095 113.901C169.383 112.801 171.848 111.956 174.162 110.911C174.774 110.664 175.35 110.337 175.877 109.938C176.405 109.532 176.761 108.942 176.872 108.285C176.883 108.242 176.885 108.198 176.878 108.154C176.871 108.111 176.855 108.07 176.831 108.033C176.785 107.982 176.724 107.946 176.657 107.93C175.62 107.553 174.526 107.207 173.494 106.834Z" fill="#A1616A"/>
<path opacity="0.1" d="M169.068 93.3187C168.277 93.4518 167.445 93.8617 167.176 94.6198C167.08 94.9522 167.044 95.2992 167.07 95.6443C167.045 96.1294 167.127 96.6141 167.309 97.0642C167.444 97.3127 167.605 97.5462 167.789 97.7609C169.682 100.187 170.633 103.234 172.477 105.699C172.641 105.916 172.94 106.199 172.848 106.455C172.814 106.521 172.785 106.59 172.76 106.66C172.751 106.726 172.759 106.793 172.783 106.856C172.807 106.918 172.845 106.974 172.895 107.018C172.993 107.108 173.07 107.22 173.118 107.344C173.153 107.473 173.067 107.641 172.934 107.631C173.155 108.315 173.834 108.715 174.477 109.039C175.546 109.577 176.731 110.002 177.921 109.885C178.145 108.989 178.456 107.977 178.331 107.065C178.2 106.369 177.969 105.695 177.645 105.066L176.843 103.316C176.161 101.822 175.473 100.318 174.522 98.9801C174.179 98.5565 173.891 98.0919 173.663 97.597C173.42 96.9638 172.75 96.5192 172.344 95.9762C171.741 95.1566 171.114 94.337 170.307 93.7449C169.983 93.4949 169.463 93.2531 169.068 93.3187Z" fill="black"/>
<path d="M169.067 92.915C168.276 93.0482 167.445 93.458 167.176 94.2141C167.08 94.5465 167.044 94.8935 167.07 95.2386C167.045 95.7237 167.127 96.2084 167.309 96.6586C167.444 96.907 167.605 97.1405 167.789 97.3552C169.682 99.7812 170.633 102.828 172.477 105.293C172.641 105.51 172.94 105.793 172.848 106.049C172.814 106.116 172.785 106.184 172.76 106.254C172.751 106.32 172.759 106.388 172.783 106.45C172.806 106.513 172.845 106.568 172.895 106.613C172.993 106.703 173.07 106.814 173.118 106.938C173.153 107.067 173.067 107.236 172.934 107.225C173.155 107.91 173.833 108.309 174.477 108.633C175.546 109.172 176.731 109.596 177.921 109.479C178.144 108.584 178.456 107.572 178.331 106.66C178.2 105.963 177.969 105.29 177.644 104.66L176.843 102.91C176.161 101.416 175.473 99.9124 174.522 98.5744C174.179 98.1504 173.89 97.685 173.663 97.1892C173.419 96.5582 172.749 96.1135 172.344 95.5705C171.741 94.7509 171.114 93.9313 170.307 93.3392C169.983 93.0912 169.463 92.8495 169.067 92.915Z" fill="#ADE1D1"/>
<path d="M167.261 75.7546C166.69 75.8038 166.102 75.8571 165.585 76.107C165.069 76.357 164.628 76.8488 164.612 77.4225C164.612 77.7565 164.735 78.0884 164.692 78.4183C164.62 78.9675 164.11 79.3383 163.848 79.8239C163.389 80.6681 163.745 81.7418 164.339 82.4876C164.934 83.2335 165.739 83.8072 166.35 84.5489C166.831 85.142 167.18 85.8317 167.371 86.5713C167.563 87.3109 167.593 88.0831 167.46 88.8354C167.384 89.1278 167.348 89.4289 167.352 89.7309C167.399 90.2677 167.761 90.7123 168.122 91.1221C169.876 93.1735 171.499 95.3333 172.982 97.5888C173.427 98.2439 173.827 98.9285 174.179 99.6378C174.527 100.371 174.793 101.154 175.277 101.804C175.723 102.361 176.27 102.83 176.89 103.187C178.451 104.15 180.223 104.721 182.053 104.853L180.998 102.236C180.811 101.771 180.619 101.281 180.68 100.783C180.797 99.8406 181.748 99.2218 182.057 98.3244C182.262 97.7466 182.17 97.1093 182.002 96.5213C181.629 95.1955 180.883 94.003 180.482 92.6855C180.129 91.5303 180.051 90.309 180.252 89.1182C180.34 88.5937 180.484 88.0671 180.418 87.5405C180.223 85.9382 178.344 85.1718 177.476 83.8133C176.914 82.9405 176.806 81.8647 176.617 80.8443C176.345 79.3547 175.859 77.8671 174.921 76.6787C173.982 75.4903 172.535 74.6297 171.027 74.6932C170.22 74.724 169.448 75.0047 168.687 75.2792L166.712 75.9984" fill="#3F3D56"/>
<g opacity="0.1">
<path opacity="0.1" d="M176.077 79.1006C176.247 80.0207 176.354 80.9857 176.784 81.8074C176.724 81.4877 176.675 81.166 176.616 80.8505C176.477 80.0473 176.256 79.2605 175.956 78.5023C176.007 78.7011 176.042 78.8998 176.077 79.1006Z" fill="black"/>
<path opacity="0.1" d="M179.712 87.3745C179.511 88.5661 179.59 89.7878 179.941 90.9439C180.037 91.2574 180.146 91.5586 180.277 91.8659C180.106 90.9608 180.097 90.0326 180.25 89.1244C180.339 88.5998 180.482 88.0732 180.416 87.5466C180.356 87.0954 180.172 86.6698 179.884 86.3172C179.853 86.6738 179.771 87.0241 179.712 87.3745Z" fill="black"/>
<path opacity="0.1" d="M181.999 96.5274C181.886 96.1424 181.749 95.7647 181.59 95.3963C181.659 95.7917 181.632 96.1978 181.512 96.5807C181.202 97.4761 180.25 98.0969 180.135 99.0395C180.073 99.5374 180.264 100.027 180.452 100.492C180.522 100.666 180.592 100.843 180.657 101.017C180.652 100.941 180.652 100.865 180.657 100.789C180.774 99.8468 181.725 99.228 182.034 98.3305C182.256 97.7527 182.167 97.1155 181.999 96.5274Z" fill="black"/>
<path opacity="0.1" d="M176.35 101.443C175.731 101.086 175.184 100.616 174.738 100.058C174.252 99.4083 173.986 98.6235 173.637 97.892C173.286 97.1824 172.886 96.4978 172.441 95.843C170.959 93.587 169.336 91.4265 167.583 89.3743C167.519 89.3026 167.458 89.2288 167.396 89.1551C167.354 89.3446 167.338 89.539 167.349 89.7329C167.396 90.2697 167.759 90.7144 168.12 91.1242C169.874 93.1755 171.497 95.3354 172.98 97.5908C173.425 98.2459 173.824 98.9305 174.176 99.6398C174.525 100.373 174.791 101.156 175.275 101.806C175.721 102.363 176.268 102.832 176.887 103.189C178.449 104.152 180.22 104.723 182.051 104.855L181.334 103.092C179.567 102.938 177.861 102.373 176.35 101.443Z" fill="black"/>
<path opacity="0.1" d="M165.809 82.8073C165.194 82.0655 164.393 81.5021 163.799 80.748C163.745 80.6784 163.694 80.6067 163.643 80.5308C163.631 81.248 163.877 81.9456 164.338 82.4958C164.932 83.2519 165.737 83.8154 166.348 84.5571C166.586 84.8452 166.792 85.1585 166.962 85.4915C166.836 84.5067 166.436 83.577 165.809 82.8073Z" fill="black"/>
</g>
<defs>
<linearGradient id="paint0_linear" x1="171.977" y1="161.927" x2="171.977" y2="70.8514" gradientUnits="userSpaceOnUse">
<stop stop-color="#808080" stop-opacity="0.25"/>
<stop offset="0.54" stop-color="#808080" stop-opacity="0.12"/>
<stop offset="1" stop-color="#808080" stop-opacity="0.1"/>
</linearGradient>
</defs>
</svg>
