<svg width="698" height="807" viewBox="0 0 698 807" fill="none" xmlns="http://www.w3.org/2000/svg">
<rect x="272" y="116" width="24" height="23" rx="11.5" fill="#ADE1D1"/>
<rect x="587" y="72" width="111" height="106" rx="53" fill="#C7EEA9"/>
<rect x="513" y="135" width="51" height="49" rx="24.5" fill="#ADE1D1"/>
<rect x="339" width="107" height="104" rx="50" fill="#E68FB9" fill-opacity="0.68"/>
<rect x="646" y="359" width="41" height="40" rx="20" fill="#E68FB9" fill-opacity="0.68"/>
<path d="M635.26 744.931C635.26 772.561 493.22 806.821 318 806.821C142.78 806.821 0.740234 772.561 0.740234 744.931C0.740234 717.301 142.785 694.901 318 694.901C493.215 694.901 635.26 717.301 635.26 744.931Z" fill="#C8EBE0"/>
<path d="M314.74 331.646C313.485 350.491 304.74 368.326 294.595 384.186C292.655 387.236 290.595 390.276 288.505 393.321L287.885 394.226L287.025 393.586C236.585 355.906 224.42 320.086 252.605 262.276C255.73 255.776 259.535 248.656 262.96 242.691L263.555 241.656L264.44 242.456C281.44 257.821 298.26 275.391 307.985 296.061C313.565 308.251 315.545 320.066 314.74 331.646Z" fill="#DFF5CF"/>
<path d="M314.1 331.931C306.21 342.061 293.5 349.891 282.185 353.726L277.15 322.126C296.355 313.866 304.5 303.511 308 296.041L307.81 295.636L307.255 294.471C307.095 294.55 306.968 294.683 306.895 294.846C303.72 302.056 295.935 312.346 276.895 320.601C272.97 295.956 275.165 309.736 271.835 288.851C281.815 286.226 287.3 276.591 290.175 268.726L290.055 268.581L289.14 267.496C288.525 268.041 284.365 283.916 271.605 287.386L264.44 242.431L263.555 241.631L262.96 242.666L267.155 268.956C257.07 268.021 252.815 263.046 252.315 262.856C252.175 263.136 252.04 263.416 251.91 263.691L251.655 264.226C254.505 266.766 259.49 269.826 267.395 270.476C269.16 281.536 270.725 291.321 272.465 302.246C250.69 301.416 242.465 291.341 241.465 291.066L241.345 291.501C241.255 291.831 241.135 292.276 241.05 292.601C246.55 297.461 256.395 303.201 272.725 303.761C276.25 325.851 275.05 318.326 277.89 336.146C264.235 336.401 249.185 333.386 238.76 324.696C238.685 324.634 238.597 324.588 238.504 324.561C238.41 324.533 238.312 324.525 238.215 324.536C238.275 325.356 238.42 326.361 238.42 326.361C238.51 326.451 240.15 327.656 240.33 327.781C250.98 335.251 265.065 337.956 278.13 337.646L282.89 367.496C274.63 368.211 266.313 367.851 258.145 366.426C258.037 366.407 257.927 366.412 257.821 366.442C257.716 366.471 257.618 366.524 257.535 366.596C257.945 367.096 258.365 367.571 258.79 368.056C266.83 369.396 275.008 369.702 283.125 368.966L287.045 393.551L287.905 394.191C288.11 393.896 288.315 393.606 288.525 393.316C288.525 393.316 284.525 368.101 284.525 368.096C284.533 368.061 284.533 368.025 284.525 367.991L282.425 355.226C292.79 351.826 305.955 344.346 314.575 333.756C314.69 332.501 314.7 332.341 314.745 331.666C314.624 331.653 314.502 331.671 314.39 331.717C314.277 331.764 314.178 331.837 314.1 331.931Z" fill="#8CC63F"/>
<path d="M482.66 448.156L482.57 448.256C482.295 448.571 482 448.891 481.72 449.206C481.5 448.876 481.275 448.546 481.065 448.206L481.025 448.146C463.13 420.761 457.895 396.461 471.595 366.886C473.54 362.451 477.475 355.061 482.75 347.011C483.175 346.356 483.75 345.511 483.805 345.426C486.549 341.306 489.584 337.056 492.91 332.676C492.927 332.651 492.945 332.628 492.965 332.606L493.835 331.456L494.465 332.641C494.465 332.686 494.515 332.726 494.535 332.771C520.38 381.601 515.695 411.131 482.66 448.156Z" fill="#DFF5CF"/>
<path d="M485.705 417.805C485.995 414.98 486.97 405.5 488.175 393.805C497.175 391.26 505.465 386.47 510.635 378.76C510.635 378.58 510.595 378.395 510.575 378.21C510.52 377.755 510.46 377.305 510.4 376.85C510.291 376.865 510.187 376.903 510.094 376.963C510.002 377.023 509.924 377.102 509.865 377.195C505.045 384.87 497.115 389.565 488.365 392.195C489.145 384.615 490.005 376.225 490.835 368.17C497.02 367.485 501.9 361.235 504.985 355.765C504.925 355.585 504.855 355.4 504.79 355.22C504.655 354.855 504.52 354.49 504.38 354.125C503.675 354.38 498.88 365.435 490.995 366.625C491.495 361.97 491.935 357.455 492.365 353.3C493.415 343.115 494.235 335.115 494.49 332.645L493.86 331.46L492.99 332.61L490.99 352.16C485.49 350.025 484.175 345.995 483.675 345.685C483.37 346.13 483.08 346.57 482.795 347.01C484.547 350.155 487.394 352.546 490.795 353.725C489.295 368.14 488.705 373.985 488.295 377.91C475.925 374.29 473.01 365.71 472.295 365.41C472.095 365.835 471.765 366.535 471.59 366.91C474.03 371.285 478.84 376.775 488.14 379.41C487.64 384.13 487.36 387.03 485.6 404.085C470.5 400.835 464.5 390.01 464.5 390.01C464.41 390.64 464.33 391.265 464.255 391.89C464.255 391.89 464.255 391.925 464.255 391.94C467.035 396.27 473.19 403.01 485.445 405.58L484.1 418.725L483.1 428.305C476.565 427.59 468.51 424.17 468.51 424.17C468.75 424.835 469.075 425.67 469.165 425.875C473.527 427.89 478.176 429.212 482.945 429.795L481.065 448.225C481.275 448.555 481.5 448.885 481.72 449.225C482 448.91 482.295 448.59 482.57 448.275L484.535 429.17L485.535 419.38C493.875 417.783 501.587 413.845 507.77 408.025C507.8 407.945 508.17 406.765 508.435 405.81C508.445 405.79 498.68 415.25 485.705 417.805Z" fill="#8CC63F"/>
<path d="M159.14 671.456L157.965 671.331L157.4 671.266C144.525 669.836 133.07 667.551 122.83 664.191L122.735 664.161C122.15 663.971 121.57 663.781 120.995 663.581C119.85 663.191 118.72 662.781 117.605 662.361C103.715 657.096 92.1801 649.676 82.4651 639.576L82.2001 639.301C81.7501 638.831 81.3052 638.356 80.8652 637.876C80.5852 637.576 80.3052 637.271 80.0302 636.966C73.4152 629.556 67.6702 620.811 62.6002 610.536C62.4102 610.156 62.2152 609.771 62.0302 609.386C61.8452 609.001 61.5852 608.471 61.3702 608.006L61.3052 607.866C57.1569 598.916 53.6368 589.689 50.7701 580.251C50.7351 580.146 50.7052 580.041 50.6702 579.936C50.5102 579.432 50.3552 578.922 50.2052 578.406C50.1352 578.181 50.0701 577.956 50.0051 577.726C48.0051 571.156 46.1368 564.156 44.4002 556.726C44.3452 556.506 44.2952 556.286 44.2402 556.066L43.9102 554.661L45.2252 554.926L45.9352 555.071C56.1008 557.112 66.1394 559.741 76.0002 562.946C77.0002 563.271 78.0002 563.601 78.9402 563.946C89.0452 567.476 98.0102 571.556 105.94 576.331C106.395 576.601 106.85 576.876 107.295 577.151C107.74 577.426 108.205 577.716 108.655 578.006L108.915 578.176C119.172 584.692 128.079 593.122 135.15 603.006C135.587 603.606 136.013 604.214 136.43 604.831C136.847 605.447 137.277 606.094 137.72 606.771L137.945 607.111C148.265 623.201 154.835 643.551 158.835 669.526L158.94 670.201C159 670.611 159.075 671.036 159.14 671.456Z" fill="#C8EBE0"/>
<path d="M158.95 670.191L140 650.971L130.255 641.091C131.865 638.281 139.155 624.406 137.755 606.776C137.33 606.106 136.9 605.461 136.46 604.821C136.348 604.896 136.258 605 136.201 605.123C136.143 605.245 136.121 605.381 136.135 605.516C137.94 622.736 131.065 636.516 129.135 639.981L105.25 615.771C112.615 599.111 111.42 586.271 108.925 578.166L108.665 577.996C108.215 577.706 107.765 577.426 107.305 577.141C107.246 577.234 107.209 577.34 107.196 577.45C107.183 577.56 107.195 577.671 107.23 577.776C109.79 585.471 111.285 598.061 104.12 614.626L90.8452 601.171L90.7802 601.106L65.7452 575.726L65.6802 575.656L45.2252 554.936L43.9102 554.671L44.2402 556.076L63.9702 576.076C59.9588 578.514 55.1716 579.34 50.5751 578.386C50.454 578.353 50.3263 578.353 50.2052 578.386C50.3552 578.899 50.5102 579.409 50.6702 579.916C55.6416 580.843 60.78 579.857 65.0552 577.156L89.1302 601.556C78.1902 609.056 68.2501 609.116 61.7701 607.786C61.6128 607.754 61.4494 607.775 61.3052 607.846L61.3702 607.986C61.5835 608.452 61.8035 608.912 62.0302 609.366C64.1058 609.755 66.2132 609.951 68.3251 609.951C74.4902 609.951 82.1002 608.286 90.2001 602.641L103.785 616.406L114.74 627.506C100.795 638.726 87.9552 638.696 81.5002 637.681C81.388 637.663 81.2733 637.671 81.1649 637.705C81.0565 637.739 80.9574 637.797 80.8752 637.876C81.3152 638.356 81.7602 638.831 82.2102 639.301C83.7857 639.499 85.3722 639.598 86.9602 639.596C91.4655 639.583 95.9381 638.831 100.2 637.371C105.881 635.394 111.167 632.424 115.81 628.601L128.695 641.651C128.733 641.702 128.777 641.749 128.825 641.791L138.435 651.526C133.43 656.305 127.673 660.229 121.395 663.141C121.304 663.184 121.222 663.245 121.155 663.321C121.088 663.396 121.037 663.485 121.005 663.581C121.58 663.781 122.16 663.971 122.745 664.161C132.02 659.661 137.745 654.326 139.49 652.596L157.99 671.331L159.165 671.456C159.075 671.036 159 670.611 158.95 670.191Z" fill="#8CC63F"/>
<path d="M293.63 384.411C284.865 340.561 295.13 316.946 335.48 299.956C336.215 299.636 336.64 299.456 337.14 299.271C343.595 296.621 350.59 294.271 351.36 294.061L352.5 293.681C357.97 348.326 345.5 372.556 293.63 384.411Z" fill="#C8EBE0"/>
<path d="M353.315 318.976C348.47 321.586 341.54 324.011 335.575 321.146L352.62 294.876C352.62 294.826 352.505 293.731 352.5 293.681L351.365 294.056C351.365 294.056 341.535 309.226 341.53 309.226C336.965 304.131 337.145 299.876 336.915 299.376C336.415 299.566 335.965 299.761 335.5 299.961C335.8 302.626 336.965 306.521 340.69 310.526C335.425 318.641 333.84 321.076 333.84 321.076L328.67 329.046C318.04 318.581 318.385 309.461 318.015 308.921C317.515 309.246 317.32 309.346 316.685 309.786C317.275 314.886 319.73 322.441 327.84 330.326L321.02 340.826C321.02 340.826 316 348.546 315.585 349.226C304.445 339.471 301.585 330.041 300.875 325.226C300.861 325.126 300.825 325.03 300.772 324.944C300.719 324.858 300.648 324.783 300.565 324.726C300.155 325.286 299.525 326.226 299.52 326.226C300.45 331.456 303.7 340.866 314.755 350.491L303.5 367.856C298.963 364.397 294.885 360.375 291.365 355.886C291.299 355.799 291.213 355.729 291.115 355.68C291.017 355.631 290.91 355.606 290.8 355.606C290.8 356.181 290.76 357.226 290.76 357.536C294.24 361.874 298.242 365.767 302.675 369.126L293.44 383.356L293.65 384.411C294 384.331 294.355 384.256 294.7 384.171C294.7 384.141 304.295 369.376 304.32 369.351V369.326L309.16 361.866C316.66 365.186 326.63 367.056 335.55 365.761C335.55 365.761 336.165 365.216 337.085 364.326C337.001 364.235 336.896 364.167 336.779 364.128C336.662 364.089 336.537 364.079 336.415 364.101C324.475 366.216 313.03 361.876 309.99 360.601L321.935 342.191C330.88 345.191 341.285 346.721 350.005 343.096C350.145 342.696 350.39 341.836 350.505 341.431C350.34 341.383 350.163 341.396 350.005 341.466C345.04 343.696 336.325 345.371 322.79 340.891L334.79 322.426C340.755 325.401 347.72 323.641 353.67 320.516C353.67 320.186 353.715 319.231 353.725 318.901C353.584 318.885 353.442 318.911 353.315 318.976Z" fill="#61A323"/>
<path d="M569.7 398.831C548.645 454.466 523.79 464.876 476.285 453.331C476.385 452.986 476.475 452.636 476.575 452.296C476.575 452.296 476.635 452.076 476.64 452.061C482.085 432.861 490.445 413.756 507.745 404.016C509.565 403.411 520.745 394.661 551.68 396.761C551.935 396.761 553.28 396.886 553.475 396.896C559.235 397.346 564.34 398.016 569.7 398.831Z" fill="#EEB3CF"/>
<path d="M552.815 409.551L552.905 409.496L569.275 399.946C569.42 399.576 569.56 399.201 569.7 398.831L568.52 398.651L552.915 407.756C551.605 402.931 552.32 399.321 553.185 397.096C553.212 397.027 553.227 396.954 553.23 396.881C552.73 396.836 552.23 396.796 551.73 396.766C550.795 399.266 550.085 403.266 551.6 408.536L540.84 414.816L540.74 414.876L532.54 419.661C529.04 409.266 530.3 401.751 532.04 397.236C532.08 397.127 532.095 397.011 532.085 396.896L531.73 396.931C531.32 396.971 530.91 397.016 530.5 397.066C528.73 401.891 527.5 409.741 531.215 420.431L520.39 426.726L520.295 426.776L511.74 431.776C506.19 418.046 507.885 408.336 509.41 403.731C509.442 403.634 509.454 403.532 509.446 403.43C509.437 403.329 509.408 403.23 509.36 403.141C508.83 403.416 508.3 403.701 507.785 403.996H507.75C506.25 409.091 504.89 418.966 510.435 432.496L500.145 438.496L500.09 438.526L492.53 442.936C490.039 437.805 488.211 432.378 487.09 426.786C487.067 426.68 487.021 426.58 486.955 426.494C486.889 426.408 486.806 426.337 486.71 426.286C486.46 426.751 486.21 427.221 485.96 427.701L485.81 427.991C486.957 433.44 488.778 438.726 491.23 443.726L476.575 452.276C476.475 452.621 476.385 452.971 476.285 453.316L477.33 453.571L492.595 444.666L500.295 440.166C502.18 442.461 510.23 451.566 522.105 455.531H522.155C522.82 455.351 523.48 455.156 524.155 454.951C524.119 454.833 524.054 454.726 523.967 454.639C523.88 454.552 523.773 454.487 523.655 454.451C512.04 450.951 503.78 441.951 501.655 439.411L520.605 428.356C530.75 438.631 539.495 441.386 545.27 441.801L545.55 441.516C545.855 441.196 546.16 440.871 546.46 440.516C546.33 440.396 546.162 440.325 545.985 440.316C540.55 440.076 531.985 437.646 521.94 427.546L532.48 421.401L532.6 421.326L540.955 416.456C545.085 421.981 552.27 423.256 558.03 423.256H558.675L558.895 422.861L559.455 421.861C559.341 421.792 559.208 421.759 559.075 421.766C553.575 421.916 546.295 420.966 542.265 415.716L552.825 409.551H552.815Z" fill="#61A323"/>
<path d="M599.04 518.821C599.04 519.216 599.04 519.616 599 520.016C599 520.246 599 520.476 599 520.701C598.727 530.032 597.892 539.339 596.5 548.571C596.425 549.071 596.345 549.571 596.27 550.031C596.195 550.491 596.125 550.866 596.055 551.276C596.055 551.396 596.015 551.511 595.99 551.626C594.35 560.786 592.065 568.861 589.02 575.941C588.86 576.316 588.695 576.691 588.52 577.061C588.32 577.511 588.115 577.956 587.91 578.396C587.875 578.476 587.835 578.556 587.795 578.631C583.295 588.131 577.295 595.761 569.49 601.761C569.06 602.094 568.62 602.427 568.17 602.761C567.605 603.176 567.04 603.586 566.455 603.981L566.235 604.126C553.37 612.816 536.125 617.691 513.45 619.776L512.83 619.831L511.76 619.926C511.76 619.566 511.715 619.206 511.695 618.851L511.665 618.301C511.015 606.301 511.33 595.676 512.785 586.266C512.788 586.226 512.788 586.186 512.785 586.146C512.875 585.546 512.97 584.951 513.075 584.366C513.249 583.342 513.437 582.332 513.64 581.336C516.265 568.576 521.185 558.171 528.775 549.666L528.91 549.516C529.31 549.056 529.725 548.606 530.15 548.166C530.34 547.956 530.545 547.746 530.745 547.541C536.39 541.781 543.365 536.926 551.805 532.816L552.685 532.386C553.08 532.191 553.485 532.001 553.89 531.816L554.13 531.706C561.571 528.376 569.276 525.672 577.165 523.621L577.37 523.566C577.87 523.436 578.37 523.306 578.87 523.181L579.335 523.066C584.925 521.619 590.91 520.311 597.29 519.141L597.895 519.026L599.04 518.821Z" fill="#DFF5CF"/>
<path d="M599 520.016C599 519.616 599 519.216 599.04 518.821L597.865 519.031L583 536.261C579.4 531.031 578.765 526.416 578.885 523.406C578.89 523.331 578.88 523.256 578.855 523.186C578.355 523.311 577.855 523.441 577.355 523.571C577.26 526.876 578.025 531.861 581.97 537.431L571.75 549.266L563.935 558.316C555.51 547.466 553.98 538.066 554.2 532.031C554.204 531.914 554.182 531.798 554.135 531.691L553.895 531.801C553.49 531.986 553.085 532.176 552.69 532.371C552.54 538.711 554.255 548.401 562.94 559.471L552.705 571.326C552.679 571.352 552.656 571.38 552.635 571.411L544.5 580.811C532.36 566.891 530.43 554.756 530.365 548.706C530.364 548.605 530.342 548.505 530.301 548.413C530.259 548.321 530.2 548.238 530.125 548.171C529.7 548.611 529.285 549.061 528.885 549.521C529.11 556.021 531.445 568.196 543.51 581.956L533.76 593.256L533.695 593.326L526.56 601.591C521.521 596.552 517.151 590.886 513.56 584.731C513.506 584.639 513.434 584.56 513.348 584.498C513.261 584.436 513.164 584.393 513.06 584.371C512.955 584.956 512.86 585.551 512.77 586.151C512.772 586.191 512.772 586.231 512.77 586.271C516.346 592.267 520.656 597.795 525.6 602.726L511.67 618.856C511.67 619.211 511.71 619.571 511.735 619.931L512.805 619.836L527.19 603.176L534.5 594.726C537.33 596.456 550.5 603.996 565.81 603.996H566.43C567.025 603.601 567.59 603.191 568.155 602.776C568.081 602.677 567.984 602.597 567.873 602.543C567.761 602.489 567.639 602.462 567.515 602.466C552.235 603.051 538.715 595.526 535.515 593.581L553.455 572.806C564 578.066 572.5 579.726 579.06 579.726C581.999 579.744 584.927 579.375 587.77 578.631C587.81 578.551 587.85 578.471 587.885 578.391C588.09 577.951 588.295 577.506 588.495 577.056C588.339 576.982 588.161 576.968 587.995 577.016C581.495 578.926 570.425 579.516 554.46 571.616L564.51 559.976L572.48 550.751C575.925 553.146 579.835 554.026 583.725 554.026C588.065 554.026 592.375 552.926 595.97 551.621C595.97 551.506 596.015 551.391 596.035 551.271C596.105 550.861 596.18 550.446 596.25 550.026C596.119 550.004 595.984 550.018 595.86 550.066C589.4 552.481 580.36 554.301 573.465 549.606L583.5 537.956L599 520.016Z" fill="#61A323"/>
<path d="M177.246 708.476L176.201 708.711L175.011 708.961C158.446 712.511 143.596 714.391 130.186 714.416H129.891C129.241 714.416 128.601 714.416 127.961 714.416C126.396 714.416 124.856 714.356 123.331 714.291C105.066 713.436 89.5706 708.896 76.1106 700.236L75.5056 699.841C75.0056 699.511 74.5056 699.171 73.9806 698.841C73.5656 698.561 73.1506 698.276 72.7356 697.981C63.5156 691.416 55.2356 682.811 47.7356 671.981C47.4056 671.521 47.0756 671.051 46.7356 670.576L45.8456 669.256C39.9906 660.486 34.5706 650.381 29.4306 638.836C29.3456 638.651 29.2606 638.466 29.1806 638.276C28.9706 637.816 28.7656 637.351 28.5656 636.876C28.4356 636.581 28.3106 636.281 28.1856 635.981C24.9589 628.544 21.8373 620.532 18.8206 611.946C18.6706 611.531 18.5206 611.106 18.3706 610.681L17.9756 609.551C18.3706 609.506 18.7556 609.456 19.1506 609.401C19.6506 609.341 20.1506 609.281 20.6006 609.231C34.8456 607.511 47.8656 606.611 59.7856 606.621C60.5906 606.621 61.3806 606.621 62.1656 606.621H63.6356H63.7856C76.9806 606.866 88.7856 608.271 99.3706 610.976C100.026 611.136 100.671 611.306 101.316 611.476L102.986 611.946H103.001C117.321 616.121 129.321 622.806 139.421 632.366C140.066 632.961 140.696 633.576 141.321 634.201C141.821 634.701 142.321 635.201 142.821 635.701L143.451 636.361C158.311 652.301 168.841 675.141 176.686 706.121C176.801 706.541 176.906 706.966 177.011 707.391L177.246 708.476Z" fill="#EEB3CF"/>
<path d="M177 707.436L150.535 691.006H150.505H150.465L136.965 682.621C138.575 678.816 146.77 657.836 142.83 635.806C142.33 635.306 141.83 634.806 141.33 634.306C141.242 634.392 141.176 634.499 141.139 634.617C141.103 634.734 141.096 634.86 141.12 634.981C145.4 656.631 137.43 677.556 135.655 681.821L117.84 670.726L117.795 670.701L102.415 661.146C110.17 636.836 107.1 621.091 102.98 612.011L101.31 611.541C101.264 611.707 101.278 611.884 101.35 612.041C105.47 620.736 108.73 636.136 101.105 660.311L82.5002 648.761C82.4791 648.744 82.4554 648.73 82.4302 648.721L67.6502 639.536C73.2502 628.306 68.7202 615.566 63.7652 606.656H63.6152H62.1452C62.1453 606.787 62.178 606.916 62.2402 607.031C67.0852 615.606 71.6602 627.986 66.3702 638.766L47.8152 627.266L47.7652 627.231C47.752 627.229 47.7385 627.229 47.7252 627.231L19.1502 609.406C18.7502 609.461 18.3652 609.511 17.9702 609.556L18.3652 610.686L46.1552 627.946C39.5302 634.356 33.0802 636.311 28.7752 636.821C28.701 636.83 28.6285 636.85 28.5602 636.881C28.7602 637.381 28.9652 637.821 29.1752 638.281C33.7702 637.701 40.5702 635.556 47.4652 628.781L66.2352 640.436L66.3252 640.491L80.9102 649.551C67.5652 663.881 54.6752 668.131 46.1652 669.161C46.0488 669.174 45.9373 669.215 45.8402 669.281L46.7302 670.601C55.5352 669.456 68.6802 664.976 82.2302 650.356L101.2 662.141L116.31 671.526C99.5002 691.676 82.9202 697.076 74.5002 698.496C74.3991 698.513 74.3025 698.551 74.2165 698.606C74.1305 698.662 74.0569 698.735 74.0002 698.821C74.5002 699.166 75.0002 699.506 75.5252 699.821C84.4102 698.166 100.96 692.361 117.595 672.286L135.595 683.471L149 691.821C143.066 700.029 136.084 707.425 128.23 713.821C128.145 713.89 128.076 713.978 128.028 714.077C127.981 714.177 127.956 714.286 127.955 714.396C128.595 714.396 129.235 714.396 129.88 714.396C137.579 708.027 144.433 700.701 150.275 692.596L176.195 708.726L177.245 708.491L177 707.436Z" fill="#61A323"/>
<path d="M272.17 386.596V386.976C272.17 387.256 272.17 387.536 272.17 387.816C271.825 387.776 271.475 387.741 271.135 387.696C258.03 386.096 244.23 382.876 233.9 374.616L233.3 374.116L233.05 373.911L232.765 373.671L232.56 373.496C226.275 368.146 221.8 361.536 218.535 354.221L218.205 353.466C218.11 353.251 218.015 353.036 217.93 352.816L217.845 352.611C215.18 346.241 213.38 339.376 212.06 332.381C211.995 332.021 211.925 331.661 211.86 331.301C211.858 331.291 211.858 331.28 211.86 331.271L211.8 330.941C211.798 330.919 211.798 330.897 211.8 330.876C211.798 330.836 211.798 330.796 211.8 330.756C211.735 330.406 211.675 330.061 211.615 329.711C210.386 322.195 209.535 314.622 209.065 307.021C209.035 306.571 209.01 306.126 208.985 305.686L210.12 305.936C212.67 306.506 217.41 307.596 222.74 309.231L222.86 309.266C226.715 310.266 235.125 313.586 240.215 316.266L240.715 316.526L241.07 316.721C241.41 316.906 241.74 317.091 242.035 317.271C247.821 320.465 252.994 324.66 257.315 329.661C257.745 330.161 258.165 330.661 258.565 331.186C265.09 339.476 268.735 349.431 270.565 360.856C271.82 368.761 272.245 377.361 272.17 386.596Z" fill="#EEB3CF"/>
<path d="M272.175 386.601C272.175 386.726 272.175 386.851 272.175 386.976C272.175 387.256 272.175 387.536 272.175 387.816C271.83 387.776 271.48 387.741 271.14 387.696C258.815 371.696 262.14 375.996 255.64 367.586C249.765 371.836 241.395 374.996 234.1 374.776C234.06 374.751 233.7 374.466 233.29 374.131L233.04 373.926L232.755 373.686L232.55 373.511C232.624 373.421 232.717 373.35 232.823 373.304C232.929 373.257 233.044 373.235 233.16 373.241C243.46 373.791 252.375 368.056 254.72 366.396C249.78 359.971 243.055 351.246 241.91 349.756C234.82 353.876 226.33 356.646 218.525 354.256L218.195 353.501C218.1 353.286 218.005 353.056 217.92 352.851L217.835 352.646C218.006 352.58 218.194 352.58 218.365 352.646C222.84 354.201 230.365 354.726 240.99 348.601C230.915 335.511 238.24 345.021 228.155 331.931C223.565 335.556 217.465 334.711 212.05 332.431C211.96 331.971 211.9 331.651 211.85 331.351C211.848 331.341 211.848 331.331 211.85 331.321L211.79 330.991C211.787 330.969 211.787 330.947 211.79 330.926C211.79 330.886 211.79 330.846 211.79 330.806C211.935 330.775 212.086 330.792 212.22 330.856C216.645 332.791 222.77 334.286 227.28 330.736C223 325.226 212.705 311.831 209 307.036C208.97 306.586 208.945 306.141 208.92 305.701L210.055 305.951L220.5 319.496C223.5 313.871 222.62 309.786 222.805 309.286C223.255 309.416 223.97 309.636 224.305 309.741C224.464 313.616 223.497 317.454 221.52 320.791L234.34 337.446C239.65 328.906 240.415 321.476 240.095 316.676C240.083 316.536 240.114 316.397 240.185 316.276L240.685 316.536C241.01 316.711 241.38 316.921 241.62 317.036C241.88 322.156 240.93 329.891 235.325 338.691L242.725 348.301C242.725 348.301 248.38 355.726 248.39 355.726C256.165 344.726 257.13 335.091 257.005 330.266C257.002 330.155 257.023 330.045 257.068 329.944C257.113 329.842 257.181 329.753 257.265 329.681C257.98 330.496 258.105 330.681 258.515 331.181C258.485 336.521 257.12 346.141 249.345 356.956C257.885 368.046 255.19 364.551 261.405 372.611C264.688 368.561 267.457 364.12 269.65 359.391C269.701 359.282 269.777 359.188 269.871 359.114C269.966 359.041 270.077 358.992 270.195 358.971C270.195 358.971 270.445 360.411 270.525 360.866C270.525 360.951 270.525 361.001 270.525 361.001C268.324 365.596 265.568 369.905 262.32 373.831L272.15 386.596L272.175 386.601Z" fill="#61A323"/>
<path d="M633.65 618.871C633.245 619.076 632.835 619.291 632.425 619.491C632.24 619.591 632.05 619.686 631.86 619.776C622.875 624.364 613.633 628.43 604.18 631.956L602.575 632.541L601.335 632.981L600.91 633.126C591.905 636.324 582.605 638.617 573.145 639.971L571.645 640.171L570.06 640.356L569.705 640.391C557.85 641.698 545.855 640.793 534.33 637.721C533.63 637.541 532.93 637.346 532.23 637.146C531.53 636.946 530.73 636.701 529.96 636.461L529.64 636.361C511.73 630.641 493.985 619.536 474.64 602.731L474.18 602.336L473.18 601.476C473.52 601.256 473.855 601.041 474.18 600.831L474.595 600.576C485.235 593.936 495.335 588.776 505.185 585.136L505.26 585.106C505.83 584.891 506.405 584.686 506.975 584.486C508.08 584.091 509.185 583.721 510.285 583.366C524.095 578.951 537.48 577.536 551.17 579.191L551.495 579.231C552.15 579.311 552.805 579.396 553.46 579.496C553.855 579.546 554.25 579.606 554.645 579.666C564.3 581.166 574.145 584.211 584.42 588.771C584.797 588.931 585.172 589.097 585.545 589.271L586.94 589.911L587.095 589.986C595.833 594.108 604.283 598.817 612.385 604.081L612.63 604.241C613.085 604.526 613.535 604.816 613.99 605.116L614.55 605.491C620.177 609.157 625.98 613.207 631.96 617.641L632.46 617.991C632.865 618.281 633.255 618.576 633.65 618.871Z" fill="#C8EBE0"/>
<path d="M632.47 617.991L605.07 615.021C606.612 610.818 609.706 607.367 613.715 605.376C613.838 605.317 613.941 605.225 614.015 605.111C613.56 604.811 613.11 604.521 612.655 604.236C608.375 606.485 605.114 610.281 603.535 614.851L584.575 612.796L570.035 611.226C573.575 599.171 581.035 593.226 586.78 590.336C586.928 590.259 587.048 590.136 587.12 589.986L586.965 589.911L585.57 589.271C579.62 592.406 572.07 598.691 568.515 611.061L549.6 609.011H549.485L534.365 607.371C537.9 590.826 547.595 583.171 553.11 580.061C553.21 580.003 553.295 579.924 553.36 579.829C553.425 579.733 553.468 579.625 553.485 579.511C552.83 579.411 552.175 579.326 551.525 579.246C545.665 582.786 536.31 590.816 532.865 607.206L514.745 605.226L501.385 603.781C502.175 597.271 504.064 590.943 506.97 585.066C507.013 584.976 507.038 584.878 507.043 584.779C507.048 584.679 507.033 584.579 507 584.486C506.43 584.686 505.855 584.891 505.285 585.106C502.474 590.931 500.651 597.183 499.89 603.606L474.21 600.821C473.865 601.031 473.53 601.246 473.21 601.466L474.21 602.326L500.47 605.166C500.491 605.168 500.513 605.168 500.535 605.166H500.615L514.145 606.636C516.457 617.879 521.952 628.221 529.975 636.431C530.73 636.671 531.475 636.901 532.245 637.116C532.285 636.984 532.287 636.843 532.252 636.71C532.217 636.577 532.145 636.456 532.045 636.361C519.93 624.781 516.44 610.571 515.7 606.806L548.935 610.406C553.82 627.081 562.76 635.861 569.72 640.361L570.075 640.326L571.66 640.141C571.646 640.029 571.607 639.921 571.547 639.826C571.486 639.731 571.405 639.651 571.31 639.591C564.55 635.441 555.535 627.051 550.555 610.591L568.945 612.591H568.975H569.065H569.105L583.925 614.201C584.815 622.506 593.49 628.991 600.925 633.096L601.35 632.951L602.59 632.511C602.528 632.336 602.403 632.19 602.24 632.101C595.07 628.246 586.475 622.101 585.43 614.366L603.93 616.366H604.045L632.425 619.446C632.835 619.246 633.245 619.031 633.65 618.826L632.47 617.991Z" fill="#8CC63F"/>
<g style="mix-blend-mode:color-burn">
<path d="M454.545 755.926C454.545 768.366 393.41 783.786 318 783.786C242.59 783.786 181.455 768.366 181.455 755.926C181.455 743.486 242.59 733.426 318 733.426C393.41 733.426 454.545 743.486 454.545 755.926Z" fill="#EEB3CF"/>
</g>
<path d="M128.77 340.795C128.789 339.605 129.035 338.429 129.495 337.331C135.575 337.831 138.34 329.15 137.91 321.965C137.41 313.805 121.515 310.176 120.27 330.071C119.9 336.041 118.045 341.261 113.12 341.636C112.425 347.216 114.845 350.636 122.9 353.421L134.6 345.726C131 344.471 128.85 342.765 128.77 340.795Z" fill="#FFCCA9"/>
<path d="M123.29 498.085L122.415 503.695H116.96L116.09 498.085H123.29Z" fill="#FFCCA9"/>
<path d="M116.965 509.681C116.36 507.936 116.155 505.306 116.965 503.681H122.415C126.29 503.681 133.8 505.376 133.8 509.681H116.965Z" fill="#00640A"/>
<path d="M132.215 398.116C132.215 398.116 132.215 427.116 130.45 444.451C129.71 451.766 126.58 483.231 124.565 498.086H114.965C111.63 475.761 115.335 459.166 114.04 443.511C113.88 441.511 113.735 439.592 113.605 437.756C113.515 436.481 113.44 435.256 113.37 434.036C113.17 430.786 113.035 427.781 112.935 425.006C112.475 412.126 112.96 404.221 113.3 400.556C113.46 398.911 113.58 398.116 113.58 398.116H132.215Z" fill="#FFC445"/>
<g style="mix-blend-mode:color-burn">
<path d="M113.606 437.756C113.516 436.481 113.441 435.256 113.371 434.036C113.171 430.786 113.036 427.781 112.936 425.006L115.141 414.086L115.861 413.811C116.136 421.976 114.216 435.226 113.606 437.756Z" fill="#CCCCCC"/>
</g>
<path d="M97.6102 498.085L96.2752 503.695H90.8202L90.4102 498.085H97.6102Z" fill="#FFCCA9"/>
<path d="M90.8254 509.681C90.2204 507.936 90.0154 505.306 90.8254 503.681H96.2754C100.15 503.681 107.66 505.756 107.66 509.681H90.8254Z" fill="#00640A"/>
<path d="M98.6602 395.726C95.5452 405.491 94.6602 430.631 93.4802 443.301C91.8052 461.081 87.3902 477.091 89.0202 498.111H98.5902C98.5902 498.111 107.115 457.816 109.655 445.701C113.34 428.081 116.985 410.041 117.94 398.141L98.6602 395.726Z" fill="#FFC445"/>
<path d="M135.65 345.881C134.53 345.357 133.356 344.955 132.15 344.681C126.28 350.591 115.495 346.681 113.15 341.636C113.15 341.636 106.4 343.181 104.18 343.636C106.155 349.636 108.55 372.456 106.985 377.961C106.385 379.511 105.671 381.015 104.85 382.461C102.465 387.051 98.4553 393.806 97.7153 399.661C104.06 404.341 125.63 407.246 132.245 401.796C132.32 400.706 132.35 399.621 132.35 398.546C132.35 396.076 132.2 393.631 132.03 391.221C131.765 387.441 131.645 384.566 131.645 382.266C131.645 374.861 132.935 373.561 135.045 367.681C137.5 360.686 135.66 355.081 135.65 345.881Z" fill="#497A1A"/>
<path d="M146.185 445.186C144.145 445.001 142.31 446.226 142.075 447.936L138.965 471.436H96.0001C97.2001 462.526 97.7401 458.116 99.0001 448.631C99.0612 448.144 99.0217 447.65 98.8841 447.179C98.7465 446.708 98.5137 446.27 98.2002 445.893C97.8866 445.516 97.4989 445.207 97.0612 444.985C96.6234 444.764 96.1449 444.635 95.6551 444.606C95.1694 444.553 94.678 444.597 94.2098 444.737C93.7417 444.877 93.3062 445.109 92.9292 445.42C92.5523 445.731 92.2413 446.114 92.0148 446.547C91.7882 446.98 91.6506 447.454 91.6101 447.941C52.1501 746.021 52.3551 728.211 55.6751 730.366C56.3607 730.795 57.1637 730.998 57.971 730.947C58.7783 730.896 59.5492 730.593 60.1751 730.081C61.6151 728.881 61.1751 729.691 64.1751 707.156H107.175L104.495 727.061C104.441 727.562 104.495 728.069 104.654 728.547C104.813 729.025 105.072 729.464 105.415 729.834C105.757 730.203 106.175 730.495 106.64 730.69C107.105 730.884 107.606 730.976 108.11 730.961C108.971 730.976 109.81 730.682 110.472 730.131C111.135 729.581 111.578 728.81 111.72 727.961C111.72 727.961 119.635 669.761 149.39 448.626C149.695 446.921 148.23 445.381 146.185 445.186ZM108.09 700.931H65.0901L69.4051 668.901H112.405L108.09 700.931ZM113.23 662.671H70.2301C73.5501 637.956 74.5451 630.671 74.5451 630.671H117.545L113.23 662.671ZM118.38 624.426H75.3801C76.7135 614.596 78.1551 603.919 79.7051 592.396H122.67L118.38 624.426ZM123.525 586.181H80.5601C81.8935 576.157 83.3318 565.491 84.8751 554.181H127.835L123.525 586.181ZM128.67 547.926H85.7151C87.0851 537.776 88.5251 527.099 90.0351 515.896H133L128.67 547.926ZM133.815 509.681H90.8751C92.2518 499.447 93.6885 488.781 95.1851 477.681H138.13L133.815 509.681Z" fill="#497A1A"/>
<path d="M530.885 553.296C530.904 575.091 527.57 596.759 521 617.541C520.404 619.421 519.782 621.289 519.135 623.146C517.815 626.976 516.37 630.761 514.83 634.481C498.761 673.464 471.473 706.794 436.429 730.243C401.385 753.691 360.165 766.199 318 766.181C200.43 766.181 105.115 670.866 105.115 553.296C105.115 435.726 200.43 340.411 318 340.411C345.961 340.396 373.65 345.892 399.486 356.585C425.321 367.278 448.795 382.958 468.566 402.73C488.338 422.501 504.018 445.975 514.711 471.81C525.404 497.645 530.9 525.335 530.885 553.296Z" fill="#93DFFF"/>
<g style="mix-blend-mode:color-dodge">
<path d="M351.785 708.656C340.322 708.654 329.146 705.068 319.821 698.399C310.497 691.731 303.492 682.313 299.785 671.466C287.665 635.861 306.785 597.036 342.375 584.916C386.69 569.831 430.14 593.611 445.225 637.916C445.326 638.107 445.385 638.319 445.396 638.535C445.408 638.752 445.372 638.968 445.292 639.17C445.212 639.371 445.089 639.553 444.932 639.702C444.775 639.852 444.587 639.965 444.382 640.035C444.176 640.105 443.958 640.129 443.743 640.107C443.527 640.085 443.319 640.016 443.133 639.905C442.946 639.794 442.786 639.644 442.663 639.466C442.54 639.287 442.457 639.084 442.42 638.871C427.875 596.111 386.11 573.161 343.35 587.726C335.239 590.486 327.75 594.817 321.313 600.472C314.875 606.127 309.615 612.994 305.832 620.682C302.049 628.37 299.817 636.728 299.264 645.278C298.711 653.829 299.848 662.405 302.61 670.516C307.059 683.537 316.49 694.262 328.836 700.338C341.182 706.413 355.434 707.344 368.465 702.926C378.815 699.402 387.341 691.911 392.169 682.101C396.996 672.291 397.728 660.966 394.205 650.616C391.409 642.413 385.469 635.657 377.692 631.833C369.916 628.009 360.938 627.431 352.735 630.226C349.521 631.32 346.554 633.036 344.004 635.277C341.453 637.517 339.369 640.239 337.87 643.285C336.371 646.331 335.487 649.643 335.269 653.031C335.05 656.419 335.501 659.817 336.595 663.031C338.343 668.143 342.049 672.352 346.9 674.733C351.75 677.113 357.347 677.47 362.46 675.726C364.452 675.05 366.29 673.988 367.871 672.6C369.451 671.213 370.743 669.528 371.672 667.641C372.6 665.754 373.148 663.703 373.283 661.604C373.419 659.506 373.139 657.401 372.46 655.411C371.932 653.855 371.102 652.418 370.018 651.183C368.933 649.948 367.617 648.939 366.142 648.214C364.668 647.489 363.065 647.061 361.425 646.956C359.785 646.851 358.14 647.07 356.585 647.601C354.144 648.429 352.131 650.194 350.99 652.506C349.849 654.818 349.673 657.489 350.5 659.931C350.817 660.861 351.314 661.721 351.963 662.459C352.612 663.197 353.4 663.801 354.282 664.234C355.165 664.667 356.124 664.922 357.105 664.984C358.086 665.046 359.07 664.914 360 664.596C361.427 664.11 362.602 663.077 363.268 661.725C363.933 660.373 364.035 658.813 363.55 657.386C363.187 656.318 362.415 655.438 361.403 654.939C360.392 654.44 359.223 654.363 358.155 654.726C357.769 654.857 357.413 655.063 357.106 655.332C356.8 655.601 356.549 655.928 356.369 656.294C356.189 656.66 356.083 657.057 356.056 657.464C356.03 657.871 356.084 658.28 356.215 658.666C356.276 659.018 356.209 659.38 356.027 659.687C355.845 659.994 355.559 660.226 355.221 660.341C354.882 660.456 354.514 660.447 354.182 660.315C353.851 660.183 353.577 659.937 353.41 659.621C352.892 658.097 353 656.43 353.711 654.986C354.422 653.542 355.677 652.439 357.2 651.921C358.096 651.615 359.044 651.489 359.989 651.55C360.934 651.611 361.857 651.858 362.707 652.276C363.557 652.693 364.316 653.275 364.941 653.986C365.566 654.697 366.045 655.524 366.35 656.421C367.086 658.591 366.932 660.965 365.921 663.021C364.909 665.078 363.124 666.649 360.955 667.391C358.336 668.283 355.47 668.1 352.986 666.881C350.501 665.663 348.602 663.508 347.705 660.891C346.627 657.707 346.855 654.225 348.34 651.209C349.824 648.193 352.444 645.888 355.625 644.801C357.549 644.145 359.583 643.876 361.611 644.007C363.639 644.138 365.622 644.667 367.445 645.565C369.269 646.462 370.897 647.71 372.238 649.238C373.579 650.765 374.606 652.541 375.26 654.466C376.064 656.824 376.394 659.318 376.234 661.804C376.073 664.291 375.425 666.721 374.325 668.957C373.225 671.192 371.695 673.189 369.823 674.834C367.951 676.478 365.774 677.738 363.415 678.541C360.513 679.53 357.444 679.937 354.384 679.74C351.324 679.543 348.332 678.745 345.581 677.391C342.829 676.038 340.371 674.155 338.347 671.852C336.323 669.548 334.773 666.868 333.785 663.966C332.566 660.383 332.064 656.595 332.309 652.818C332.553 649.042 333.54 645.35 335.211 641.955C336.883 638.559 339.207 635.526 342.05 633.029C344.894 630.532 348.202 628.619 351.785 627.401C360.732 624.357 370.522 624.992 379.001 629.166C387.48 633.339 393.954 640.709 397 649.656C398.871 655.148 399.642 660.955 399.269 666.746C398.896 672.536 397.385 678.197 394.824 683.403C392.263 688.61 388.701 693.261 384.343 697.091C379.984 700.922 374.913 703.855 369.42 705.726C363.743 707.665 357.785 708.655 351.785 708.656Z" fill="#1A1A1A"/>
</g>
<g style="mix-blend-mode:color-burn">
<g style="mix-blend-mode:color-burn">
<path d="M338.405 510.036C337.935 501.331 334.17 493.091 333.44 484.406C332.66 475.181 335.175 465.096 330.44 457.146C325.44 448.761 314.54 446.391 306.665 440.616C299.33 435.236 294.76 426.971 288.82 420.081C278.64 408.281 263.66 398.331 247.94 401.891C230.885 405.756 215.515 409.331 200.705 419.286C192.642 424.682 185.401 431.214 179.205 438.681C173.87 445.136 169.27 452.396 167.205 460.511C165.14 468.626 165.83 477.696 170.41 484.706C176.455 493.956 187.865 498.076 195.665 505.906C201.799 512.111 205.442 520.352 205.9 529.066C206.35 538.331 203.165 547.321 200.925 556.321C198.636 565.554 197.32 575.003 197 584.511C196.88 588.106 196.915 591.801 198.185 595.166C200.255 600.666 205.265 604.486 207.995 609.666C212.495 618.211 210.1 628.566 210.745 638.206C211.02 642.326 211.925 646.516 214.245 649.946C220.68 659.546 235.7 659.341 245.285 652.881C254.87 646.421 260.5 635.726 266.47 625.851C276.615 609.086 289.695 592.746 308.065 585.921C315.685 583.091 324.345 581.786 330.105 576.051C335.325 570.856 336.99 563.051 337.04 555.671C337.09 548.291 335.78 540.961 336.14 533.606C336.53 525.726 338.83 517.926 338.405 510.036Z" fill="#CCCCCC"/>
</g>
<g style="mix-blend-mode:color-burn">
<path d="M530.885 553.296C530.904 575.091 527.57 596.759 521 617.541C520.404 619.421 519.782 621.289 519.135 623.146C512.85 619.976 507.08 605.146 505.35 597.961C503.88 591.826 503.46 585.386 501.005 579.576C495.605 566.751 482.35 563.741 473.3 577.836C470.185 582.686 468.135 588.216 464.495 592.696C461.79 596.036 456.24 598.526 453.565 595.156C452.105 593.311 452.445 590.656 452.7 588.336C455.52 562.901 438.89 543.121 431.475 540.016C427.8 538.471 426.825 538.866 393.45 539.321C380.485 539.506 364.905 538.246 358.74 526.821C355.74 521.256 357.335 513.996 354.415 504.606C351.145 494.106 345.51 488.526 344.975 477.351C344.655 470.501 350.69 454.411 349.06 449.251C343.56 431.891 321.755 435.251 317.71 417.896C315.71 409.276 313.67 398.001 305.12 393.636C283.23 382.491 271.36 390.276 261.43 390.386C256.72 390.436 251.605 388.721 249.245 384.651C248.245 382.946 247.855 380.716 248.895 379.056C249.56 377.981 250.71 377.321 251.82 376.736C258.385 373.346 265.91 371.551 271.45 366.686C274.95 363.641 279.785 355.721 298.82 361.476C306.48 363.796 314.365 367.026 322.22 365.476C325.61 364.811 328.76 363.286 332.055 362.221C344.735 358.116 358.215 361.046 371.225 360.836C377.14 360.736 382.86 358.876 388.665 359.091C391.04 359.181 393.405 359.256 395.77 359.371C442.903 377.132 482.242 410.978 506.84 454.931C522.686 485.294 530.936 519.046 530.885 553.296Z" fill="#CCCCCC"/>
</g>
<g style="mix-blend-mode:color-burn">
<path d="M324.655 606.851C320.285 607.621 319.605 613.126 317.455 616.176C314.65 620.176 309.885 622.176 305.57 623.931C300.195 626.151 294.205 629.266 292.895 635.016C292.15 638.271 293.02 642.091 290.97 644.706C290.21 645.681 289.115 646.356 288.435 647.391C287.832 648.462 287.489 649.662 287.435 650.891C287.215 652.891 287.195 655.121 288.435 656.666C289.675 658.211 291.905 658.601 293.815 658.166C295.725 657.731 297.38 656.566 298.96 655.396C303.245 652.216 307.33 648.701 312.045 646.231C314.545 644.931 317.17 643.926 319.485 642.346C323.745 639.436 326.6 634.751 328.22 629.801C329.84 624.851 330.34 619.601 330.72 614.401C330.891 613.102 330.821 611.784 330.515 610.511C330.121 609.311 329.319 608.288 328.248 607.619C327.177 606.951 325.906 606.679 324.655 606.851Z" fill="#CCCCCC"/>
</g>
</g>
<path d="M176.26 433.226C170.925 439.681 166.325 446.946 164.26 455.056C162.195 463.166 162.88 472.241 167.465 479.251C173.51 488.501 184.915 492.626 192.715 500.451C198.85 506.656 202.494 514.897 202.955 523.611C203.405 532.876 200.22 541.866 197.98 550.866C195.685 560.098 194.366 569.547 194.045 579.056C193.925 582.651 193.96 586.346 195.23 589.711C197.295 595.211 202.31 599.031 205.04 604.211C209.54 612.756 207.14 623.116 207.79 632.751C208.065 636.871 208.97 641.061 211.265 644.491C217.7 654.091 232.725 653.891 242.305 647.426C251.885 640.961 257.545 630.281 263.53 620.391C273.675 603.626 286.755 587.286 305.12 580.461C312.74 577.631 321.4 576.331 327.165 570.596C332.38 565.396 334.045 557.596 334.1 550.211C334.155 542.826 332.84 535.506 333.2 528.146C333.585 520.251 335.89 512.466 335.465 504.576C334.99 495.876 331.225 487.631 330.495 478.951C329.72 469.721 332.235 459.636 327.495 451.686C322.495 443.301 311.595 440.931 303.72 435.156C296.38 429.776 291.815 421.516 285.87 414.621C275.695 402.821 260.715 392.871 244.99 396.431C227.94 400.296 212.57 403.871 197.76 413.826C189.697 419.223 182.455 425.758 176.26 433.226Z" fill="#8CC63F"/>
<path d="M530.886 553.296C530.904 575.091 527.57 596.759 521.001 617.541C513.081 622.511 504.566 601.506 502.406 592.506C500.936 586.371 500.511 579.931 498.061 574.121C492.661 561.296 479.406 558.286 470.355 572.381C467.24 577.231 465.186 582.766 461.551 587.241C458.84 590.581 453.296 593.071 450.621 589.701C449.156 587.856 449.496 585.201 449.756 582.881C452.571 557.446 435.946 537.666 428.526 534.561C424.856 533.021 423.881 533.411 390.501 533.871C377.536 534.051 361.956 532.791 355.791 521.371C352.791 515.806 354.391 508.546 351.466 499.151C348.201 488.651 342.561 483.071 342.031 471.901C341.706 465.051 347.746 448.961 346.116 443.806C340.616 426.446 318.806 429.806 314.761 412.451C312.761 403.831 310.726 392.551 302.171 388.191C280.281 377.041 268.416 384.826 258.486 384.931C253.776 384.981 248.656 383.271 246.301 379.201C245.301 377.501 244.911 375.266 245.951 373.606C246.616 372.531 247.761 371.871 248.876 371.286C255.436 367.896 262.961 366.106 268.511 361.236C272.011 358.196 276.836 350.276 295.876 356.031C303.536 358.346 311.416 361.576 319.271 360.031C322.661 359.366 325.816 357.841 329.106 356.776C341.791 352.676 355.271 355.606 368.276 355.391C374.191 355.291 379.911 353.431 385.721 353.646C388.096 353.736 390.461 353.811 392.826 353.926C473.501 384.226 530.886 462.056 530.886 553.296Z" fill="#8CC63F"/>
<path d="M303.8 619.961C298.42 622.181 292.43 625.296 291.12 631.046C290.375 634.301 291.245 638.116 289.2 640.736C288.44 641.706 287.345 642.386 286.66 643.416C286.057 644.488 285.715 645.687 285.66 646.916C285.44 648.916 285.42 651.141 286.685 652.691C287.95 654.241 290.16 654.621 292.065 654.191C293.97 653.761 295.635 652.591 297.215 651.416C301.5 648.226 305.575 644.726 310.285 642.251C312.785 640.951 315.41 639.946 317.725 638.366C321.99 635.456 324.845 630.771 326.465 625.821C328.085 620.871 328.585 615.621 328.965 610.416C329.138 609.119 329.069 607.802 328.76 606.531C328.366 605.331 327.562 604.308 326.49 603.641C325.418 602.974 324.146 602.705 322.895 602.881C318.525 603.651 317.84 609.156 315.695 612.201C312.88 616.181 308.115 618.181 303.8 619.961Z" fill="#61A323"/>
<path d="M479.445 692.051C462.387 711.897 441.827 728.44 418.79 740.856C417.7 732.731 419.54 733.061 426.01 724.391C427.545 722.341 427.955 719.701 428.735 717.256C430.155 712.846 432.855 708.976 435.52 705.191C436.348 703.887 437.358 702.708 438.52 701.691C439.94 700.561 441.685 699.936 443.32 699.141C448.065 696.831 451.41 692.251 456.125 689.881C465.825 685.006 473.245 688.131 479.445 692.051Z" fill="#61A323"/>
<g style="mix-blend-mode:color-burn">
<path d="M451.675 650.131C451.675 659.341 444.1 666.221 435.825 668.076C404.58 675.076 368.45 672.026 347.925 667.191C336.155 664.421 329.745 652.516 337.735 643.576C340.028 641.012 343.174 639.37 346.588 638.955C350.002 638.54 353.451 639.381 356.29 641.321C355.419 637.946 355.687 634.378 357.053 631.171C358.418 627.965 360.805 625.299 363.842 623.588C366.879 621.878 370.395 621.218 373.845 621.712C377.295 622.207 380.486 623.827 382.92 626.321C383.38 623.12 384.466 620.04 386.115 617.259C387.765 614.478 389.946 612.048 392.534 610.11C395.123 608.172 398.068 606.762 401.201 605.962C404.334 605.161 407.594 604.986 410.795 605.446C413.996 605.905 417.075 606.991 419.857 608.64C422.638 610.29 425.068 612.471 427.006 615.06C428.944 617.648 430.354 620.593 431.154 623.726C431.955 626.859 432.13 630.12 431.67 633.321C434.123 632.891 436.64 633.003 439.045 633.65C441.45 634.296 443.684 635.461 445.59 637.063C447.497 638.665 449.03 640.665 450.081 642.923C451.132 645.18 451.676 647.64 451.675 650.131Z" fill="#CCCCCC"/>
</g>
<g style="mix-blend-mode:color-burn">
<path d="M164.715 548.291C164.715 553.941 169.365 558.166 174.44 559.291C193.615 563.586 215.79 561.716 228.39 558.751C235.61 557.051 239.545 549.751 234.64 544.251C233.233 542.679 231.303 541.671 229.208 541.417C227.114 541.162 224.998 541.677 223.255 542.866C223.788 540.795 223.623 538.606 222.784 536.638C221.946 534.671 220.482 533.036 218.618 531.986C216.755 530.936 214.598 530.531 212.481 530.833C210.364 531.135 208.406 532.127 206.91 533.656C206.672 531.653 206.036 529.718 205.039 527.964C204.041 526.211 202.703 524.675 201.103 523.447C199.503 522.219 197.673 521.324 195.722 520.814C193.77 520.304 191.736 520.19 189.74 520.478C187.744 520.767 185.825 521.452 184.098 522.493C182.37 523.534 180.869 524.911 179.682 526.541C178.494 528.172 177.645 530.024 177.185 531.987C176.724 533.951 176.662 535.987 177 537.976C175.495 537.711 173.949 537.779 172.472 538.175C170.996 538.571 169.624 539.286 168.453 540.269C167.282 541.252 166.341 542.48 165.695 543.865C165.049 545.251 164.715 546.762 164.715 548.291Z" fill="#CCCCCC"/>
</g>
<g style="mix-blend-mode:color-burn">
<path d="M416.53 451.09C416.53 459.165 409.885 465.2 402.625 466.825C375.22 472.96 343.53 470.29 325.525 466.05C315.2 463.62 309.58 453.175 316.59 445.335C318.598 443.084 321.356 441.639 324.351 441.271C327.345 440.903 330.372 441.637 332.865 443.335C332.098 440.375 332.33 437.244 333.527 434.429C334.723 431.615 336.816 429.275 339.48 427.773C342.145 426.271 345.231 425.692 348.258 426.126C351.285 426.559 354.085 427.981 356.22 430.17C356.626 427.362 357.581 424.66 359.031 422.22C360.481 419.78 362.397 417.65 364.67 415.95C366.943 414.251 369.529 413.016 372.279 412.316C375.03 411.616 377.891 411.465 380.7 411.87C383.509 412.276 386.211 413.231 388.65 414.681C391.09 416.131 393.221 418.047 394.92 420.32C396.619 422.594 397.854 425.179 398.554 427.93C399.254 430.68 399.406 433.541 399 436.35C401.15 435.976 403.355 436.077 405.462 436.645C407.569 437.214 409.526 438.236 411.196 439.64C412.866 441.044 414.209 442.797 415.13 444.775C416.052 446.753 416.529 448.908 416.53 451.09Z" fill="#CCCCCC"/>
</g>
<path d="M448.37 646.536C448.37 655.746 440.79 662.626 432.515 664.476C401.275 671.476 365.145 668.431 344.615 663.596C332.845 660.821 326.435 648.916 334.43 639.976C336.725 637.41 339.874 635.767 343.291 635.353C346.708 634.939 350.159 635.782 353 637.726C352.129 634.351 352.397 630.783 353.763 627.576C355.128 624.37 357.515 621.704 360.552 619.993C363.588 618.283 367.105 617.623 370.555 618.118C374.005 618.612 377.195 620.232 379.63 622.726C380.09 619.525 381.175 616.446 382.825 613.664C384.475 610.883 386.656 608.453 389.244 606.515C391.833 604.577 394.778 603.167 397.911 602.367C401.044 601.566 404.304 601.391 407.505 601.851C410.706 602.31 413.785 603.396 416.567 605.045C419.348 606.695 421.777 608.876 423.716 611.465C425.654 614.053 427.064 616.998 427.864 620.131C428.664 623.264 428.84 626.525 428.38 629.726C430.832 629.299 433.347 629.414 435.749 630.062C438.152 630.71 440.384 631.876 442.288 633.477C444.193 635.079 445.724 637.077 446.775 639.333C447.825 641.589 448.37 644.047 448.37 646.536Z" fill="#CCFFFF"/>
<path d="M162 545.326C162 550.976 166.65 555.196 171.73 556.326C190.905 560.616 213.08 558.751 225.675 555.786C232.9 554.081 236.835 546.786 231.93 541.286C230.523 539.712 228.591 538.704 226.496 538.449C224.4 538.195 222.283 538.71 220.54 539.901C221.069 537.829 220.9 535.641 220.059 533.676C219.217 531.711 217.75 530.079 215.886 529.033C214.021 527.987 211.864 527.586 209.748 527.892C207.632 528.198 205.677 529.194 204.185 530.726C203.922 528.744 203.269 526.834 202.263 525.106C201.257 523.379 199.919 521.868 198.325 520.661C196.731 519.454 194.914 518.576 192.978 518.076C191.043 517.576 189.027 517.466 187.048 517.751C185.07 518.035 183.167 518.71 181.451 519.735C179.734 520.76 178.239 522.115 177.05 523.722C175.861 525.329 175.002 527.156 174.524 529.097C174.046 531.039 173.958 533.055 174.265 535.031C172.763 534.775 171.223 534.848 169.753 535.247C168.282 535.645 166.916 536.359 165.749 537.339C164.582 538.318 163.642 539.54 162.995 540.919C162.348 542.299 162.008 543.802 162 545.326Z" fill="#CCFFFF"/>
<path d="M412.631 446.85C412.631 454.93 405.986 460.96 398.726 462.585C371.326 468.72 339.631 466.055 321.626 461.815C311.306 459.38 305.681 448.94 312.691 441.095C314.703 438.849 317.462 437.409 320.457 437.046C323.451 436.683 326.475 437.42 328.966 439.12C328.201 436.16 328.435 433.03 329.633 430.216C330.83 427.403 332.924 425.064 335.587 423.563C338.251 422.062 341.336 421.482 344.363 421.915C347.39 422.348 350.189 423.768 352.326 425.955C353.142 420.285 356.177 415.171 360.764 411.739C363.035 410.039 365.618 408.804 368.367 408.103C371.116 407.402 373.975 407.249 376.783 407.653C379.591 408.057 382.291 409.01 384.731 410.458C387.17 411.906 389.3 413.82 391 416.091C392.699 418.362 393.935 420.946 394.636 423.694C395.337 426.443 395.49 429.303 395.086 432.11C397.236 431.734 399.444 431.833 401.552 432.4C403.661 432.967 405.62 433.989 407.292 435.393C408.964 436.798 410.308 438.551 411.23 440.531C412.152 442.51 412.63 444.667 412.631 446.85Z" fill="#CCFFFF"/>
<g style="mix-blend-mode:color-burn">
<path d="M490.135 678.571C486.755 683.211 483.192 687.711 479.445 692.071C459.479 715.344 434.71 734.019 406.841 746.812C378.973 759.604 348.665 766.212 318 766.181C200.43 766.181 105.115 670.866 105.115 553.296C105.115 482.546 139.615 419.861 192.73 381.151C166.193 417.519 151.927 461.394 152 506.416C152 623.986 247.315 719.301 364.885 719.301C409.902 719.367 453.772 705.102 490.14 678.571H490.135Z" fill="#C4C4C4"/>
</g>
<g style="mix-blend-mode:color-dodge">
<path d="M530.885 553.296C530.904 575.091 527.57 596.759 521 617.541C519.18 623.294 517.124 628.941 514.83 634.481C503.546 661.813 486.699 686.498 465.359 706.966C444.019 727.435 418.654 743.24 390.875 753.376C406.798 742.669 421.209 729.869 433.72 715.321C448.511 698.14 460.461 678.707 469.12 657.756C471.41 652.226 473.467 646.577 475.29 640.811C481.85 620.029 485.177 598.363 485.155 576.571C485.155 485.326 427.765 407.506 347.115 377.216C299.529 359.429 247.164 359.172 199.405 376.491C227.541 357.643 259.761 345.766 293.398 341.845C327.036 337.924 361.124 342.07 392.84 353.941C473.5 384.226 530.885 462.061 530.885 553.296Z" fill="#1A1A1A"/>
</g>
<g style="mix-blend-mode:color-burn">
<path d="M216 493.726C211.615 484.226 207.755 482.301 202.615 473.281C199.8 468.361 197.88 461.346 198.375 449.621C205.935 455.356 208.33 459.256 210.465 467.896C211.49 472.021 217.675 476.701 219.435 479.831C220.175 478.071 221.385 476.576 223.17 474.871C214.46 458.671 211.57 444.336 217.615 430.681C218.76 451.611 228.825 447.831 227.385 471.181C228.51 470.226 229.755 469.181 231.135 467.976C231.17 449.091 239.67 449.801 245.965 435.781C249.44 485.311 224.46 482.631 216 493.726Z" fill="#CCCCCC"/>
</g>
<path d="M223.415 468.936C221.95 470.151 220.565 471.331 219.325 472.546C210.525 456.256 207.585 441.851 213.66 428.141C214.81 449.171 224.96 445.251 223.415 468.936Z" fill="#008503"/>
<path d="M216 493.726C211.705 484.366 203.8 479.726 198.665 470.726C195.86 465.806 193.93 458.791 194.425 447.071C196.5 459.726 202.065 465.056 207.09 469.226C210.43 472.001 214.215 474.436 215.855 478.011C215.024 480.016 214.581 482.16 214.55 484.331C214.706 487.504 215.192 490.653 216 493.726Z" fill="#008503"/>
<path d="M207.095 469.226C202.065 465.051 196.475 459.726 194.42 447.071C201.2 456.191 205.45 453.451 207.095 469.226Z" fill="#00640A"/>
<path d="M229.585 474.016C218.84 480.806 218.585 486.781 215.995 493.741C215.995 493.741 215.995 493.741 215.995 493.696C211.04 475.936 218.85 472.661 227.2 465.421C234.5 459.141 242.105 450.861 242 433.226C246.61 461.251 238.38 467.676 229.585 474.016Z" fill="#00640A"/>
<path d="M216 493.726C216.69 488.111 216.75 479.451 229.58 474.026C227.945 480.696 217.89 488.781 216 493.726Z" fill="#008503"/>
<path d="M227.18 465.416C227.21 446.531 235.715 447.226 242 433.226C242.115 450.861 234.5 459.131 227.18 465.416Z" fill="#008503"/>
<path d="M223.24 494.106H222.195C221.907 493.177 221.416 492.325 220.755 491.612C220.095 490.899 219.283 490.343 218.38 489.986C216.861 489.393 215.174 489.393 213.655 489.986C212.741 490.341 211.918 490.898 211.248 491.615C210.578 492.331 210.078 493.189 209.785 494.126H208.74C207.373 494.127 206.063 494.67 205.096 495.637C204.13 496.603 203.586 497.914 203.585 499.281H228.395C228.397 498.602 228.265 497.93 228.007 497.302C227.749 496.675 227.37 496.105 226.891 495.624C226.412 495.143 225.843 494.762 225.217 494.501C224.59 494.241 223.918 494.106 223.24 494.106Z" fill="#8C6239"/>
<path d="M540.18 764.821L554.685 759.581V719.611L540.18 724.846V764.821Z" fill="#D8A4BF"/>
<path d="M540.18 724.846H469V764.821H540.18V724.846Z" fill="#EEB3CF"/>
<path d="M554.685 719.611L540.18 724.846H469L483.785 719.611H554.685Z" fill="#CE8AAE"/>
<g style="mix-blend-mode:color-burn">
<path d="M200.235 432.596C200.185 434.528 199.382 436.365 197.997 437.714C196.613 439.063 194.756 439.818 192.823 439.818C190.889 439.818 189.033 439.063 187.648 437.714C186.263 436.365 185.46 434.528 185.41 432.596C185.41 428.501 192.82 417.646 192.82 417.646C192.82 417.646 200.235 428.501 200.235 432.596Z" fill="#CCCCCC"/>
</g>
<path d="M198.5 429.751C198.45 431.683 197.647 433.52 196.262 434.869C194.878 436.218 193.021 436.973 191.088 436.973C189.155 436.973 187.298 436.218 185.913 434.869C184.528 433.52 183.725 431.683 183.675 429.751C183.675 425.656 191.085 414.806 191.085 414.806C191.085 414.806 198.5 425.656 198.5 429.751Z" fill="#99FFFF"/>
<g style="mix-blend-mode:color-burn">
<path d="M489.86 482.696C482.4 493.196 467.675 495.096 467.3 507.776C467.13 507.416 466.96 507.051 466.8 506.676C464.3 500.361 467.125 497.001 469.86 493.756C471.535 491.756 473.12 489.881 473.12 487.511C473.149 486.443 472.824 485.396 472.197 484.531C471.57 483.667 470.674 483.034 469.65 482.731C468.826 482.496 467.957 482.461 467.116 482.629C466.275 482.796 465.487 483.162 464.815 483.696C464.794 483.714 464.774 483.734 464.755 483.756C463.795 483.131 462.435 483.511 461.715 484.131C460.31 485.356 458.68 487.131 455.925 486.021C458.8 490.756 467 488.426 465.64 484.916C465.683 484.894 465.723 484.869 465.76 484.841C466.242 484.457 466.808 484.194 467.411 484.073C468.015 483.953 468.639 483.98 469.23 484.151C469.946 484.367 470.569 484.814 471.004 485.422C471.439 486.03 471.661 486.764 471.635 487.511C471.635 489.341 470.285 490.941 468.725 492.801C466.04 495.986 462.725 499.941 465.28 506.846C461.09 503.071 455.04 507.846 450.425 500.021C449.665 508.476 453.995 515.281 464.71 516.741C464.21 517.233 463.924 517.903 463.915 518.606C463.532 518.601 463.153 518.683 462.805 518.845C462.458 519.006 462.151 519.244 461.908 519.54C461.665 519.836 461.491 520.183 461.4 520.555C461.308 520.928 461.302 521.316 461.38 521.691H474.22C474.507 521.683 474.785 521.594 475.022 521.434C475.26 521.274 475.446 521.049 475.56 520.786C475.673 520.523 475.709 520.233 475.663 519.95C475.617 519.668 475.491 519.404 475.3 519.191C474.885 518.802 474.334 518.593 473.765 518.606C473.769 517.903 473.494 517.227 473 516.726C472.498 516.235 471.823 515.96 471.12 515.961C471.025 515.955 470.93 515.955 470.835 515.961C477.095 505.726 496.15 507.726 489.86 482.696Z" fill="#CCCCCC"/>
</g>
<path d="M519.17 550.106C513.35 545.306 497.285 537.436 491.67 533.276C488.095 530.776 477.795 525.006 474.235 521.166C474.235 521.166 472.86 516.876 471.69 517.101C470.96 517.241 471.275 518.536 471.62 519.496C469.77 518.536 467.355 517.611 466.335 518.661C464.615 520.436 469.66 522.936 469.66 522.936C475.415 532.286 501.7 549.046 510.73 554.661C516.2 558.066 523.5 553.671 519.17 550.106Z" fill="#FFCCA9"/>
<path d="M467.535 511.806C467.408 511.806 467.283 511.779 467.168 511.725C467.053 511.671 466.951 511.593 466.87 511.496C465.382 509.71 464.188 507.698 463.335 505.536C460.04 497.211 464.005 492.501 467.19 488.716C469.01 486.551 470.585 484.681 470.585 482.546C470.615 481.674 470.355 480.817 469.847 480.108C469.339 479.399 468.61 478.878 467.775 478.626C467.086 478.428 466.359 478.397 465.655 478.537C464.952 478.677 464.292 478.984 463.73 479.431C463.553 479.576 463.324 479.646 463.096 479.623C462.867 479.601 462.656 479.488 462.51 479.311C462.364 479.133 462.295 478.905 462.318 478.676C462.34 478.447 462.453 478.236 462.63 478.091C463.414 477.47 464.334 477.044 465.315 476.849C466.295 476.653 467.308 476.693 468.27 476.966C469.465 477.321 470.509 478.06 471.24 479.069C471.971 480.078 472.349 481.3 472.315 482.546C472.315 485.311 470.47 487.506 468.51 489.826C465.325 493.616 462.01 497.531 464.945 504.901C465.727 506.896 466.825 508.753 468.195 510.401C468.342 510.577 468.412 510.805 468.391 511.033C468.371 511.262 468.261 511.473 468.085 511.621C467.929 511.745 467.735 511.81 467.535 511.806Z" fill="#00640A"/>
<path d="M463.18 478.761C466.365 483.261 455.815 486.666 452.255 480.806C455.47 482.121 457.37 480.031 459.015 478.606C460.025 477.726 462.12 477.266 463.18 478.761Z" fill="#FFC445"/>
<path d="M469.095 516.646C468.604 516.408 468.14 516.118 467.71 515.781C467.43 515.081 467.33 512.951 465.71 509.701C463.345 491.666 482.49 490.066 491.84 476.931C499.34 506.811 475.835 503.661 469.095 516.646Z" fill="#008503"/>
<path d="M467.71 516.646C467.497 516.646 467.29 516.566 467.131 516.423C466.973 516.28 466.872 516.083 466.85 515.871C465.505 503.556 473.53 497.986 481.285 492.596C482.03 492.096 482.785 491.566 483.515 491.041C483.703 490.919 483.93 490.874 484.149 490.916C484.369 490.958 484.563 491.083 484.693 491.265C484.822 491.447 484.876 491.673 484.842 491.894C484.809 492.115 484.692 492.314 484.515 492.451L482.275 494.021C474.59 499.351 467.335 504.391 468.57 515.686C468.594 515.913 468.527 516.142 468.384 516.32C468.241 516.499 468.033 516.614 467.805 516.641L467.71 516.646Z" fill="#00640A"/>
<path d="M467.325 514.096C466.839 514.173 466.377 514.364 465.979 514.655C465.581 514.945 465.258 515.326 465.035 515.766C464.925 515.766 464.815 515.766 464.7 515.766C463.88 515.766 463.092 516.087 462.505 516.661C450.005 514.956 444.955 507.011 445.845 497.161C452.075 507.726 460.555 498.591 465.31 508.041C466.945 511.266 467.045 513.396 467.325 514.096Z" fill="#008503"/>
<path d="M465.86 515.606C465.741 515.605 465.623 515.58 465.513 515.532C465.404 515.484 465.306 515.414 465.225 515.326C461.265 511.011 458.11 509.566 454 508.521C453.887 508.495 453.781 508.447 453.687 508.38C453.593 508.312 453.514 508.226 453.453 508.128C453.393 508.029 453.353 507.919 453.336 507.805C453.319 507.691 453.325 507.574 453.354 507.462C453.383 507.35 453.434 507.245 453.504 507.153C453.574 507.061 453.661 506.984 453.762 506.926C453.862 506.869 453.973 506.832 454.088 506.818C454.203 506.804 454.319 506.814 454.43 506.846C458.74 507.941 462.265 509.546 466.5 514.156C466.577 514.239 466.637 514.337 466.676 514.444C466.715 514.55 466.732 514.664 466.727 514.777C466.722 514.89 466.694 515.002 466.646 515.104C466.598 515.207 466.529 515.299 466.445 515.376C466.287 515.524 466.077 515.606 465.86 515.606Z" fill="#00640A"/>
<path d="M459.406 520.901C459.372 520.736 459.356 520.569 459.355 520.401C459.359 519.717 459.634 519.063 460.12 518.582C460.606 518.102 461.262 517.833 461.945 517.836C461.948 517.489 462.019 517.146 462.154 516.827C462.29 516.507 462.487 516.218 462.735 515.976C463.24 515.485 463.917 515.211 464.62 515.211H464.906C465.038 514.794 465.3 514.431 465.653 514.173C466.006 513.916 466.431 513.777 466.868 513.777C467.305 513.777 467.73 513.916 468.083 514.173C468.436 514.431 468.698 514.794 468.831 515.211C468.925 515.205 469.021 515.205 469.115 515.211C469.818 515.209 470.493 515.484 470.995 515.976C471.244 516.218 471.443 516.507 471.579 516.826C471.715 517.145 471.787 517.488 471.79 517.836C472.36 517.823 472.911 518.035 473.326 518.426C473.516 518.639 473.642 518.902 473.688 519.184C473.735 519.466 473.699 519.756 473.586 520.019C473.473 520.282 473.287 520.507 473.051 520.667C472.814 520.828 472.536 520.918 472.25 520.926L459.406 520.901Z" fill="#8C6239"/>
<path d="M497.275 555.416C494.47 552.551 481.48 546.491 475.99 541.731C474.255 538.106 471.245 529.116 468.895 523.126C468.434 521.942 467.577 520.954 466.47 520.331C465.6 519.796 462.325 517.041 461.745 517.596C461.5 517.831 461.98 518.736 462.51 519.596C461.61 519.596 460.705 519.596 459.88 519.631C459.14 518.451 458.62 516.456 458.21 517.331C457.956 518.165 457.993 519.06 458.315 519.871C458.66 520.871 459.355 521.571 459.855 521.701C460.01 521.761 463.265 522.606 463.42 522.651C464.615 529.651 468.475 542.381 470.175 546.151C474.495 551.606 487.74 562.706 491.985 564.151C497.39 566.001 501.425 559.651 497.275 555.416Z" fill="#FFCCA9"/>
<path d="M492.05 709.326L493.015 716.011H498.72L499.32 709.176L492.05 709.326Z" fill="#FFCFAB"/>
<path d="M498.82 722.226C499.42 720.481 499.59 717.601 498.72 716.011H493C488.945 716.071 481.19 718.066 481.19 722.226H498.82Z" fill="#00640A"/>
<path d="M533.41 701.801L536.715 707.586L541.64 704.706L539.585 698.191L533.41 701.801Z" fill="#FFCFAB"/>
<path d="M544.865 710.021C544.505 708.211 543.195 705.636 541.64 704.706L536.715 707.586C533.25 709.681 527.56 715.316 529.66 718.906L544.865 710.021Z" fill="#00640A"/>
<path d="M540.7 700.561L533.455 704.336C533.455 704.336 512.63 673.491 508.64 663.161C508.03 661.581 507.83 661.226 506.35 643.886C506.085 640.726 505.775 637.006 505.41 632.611C505.38 632.261 505.355 631.936 505.33 631.641C504.45 621.081 503.9 606.141 504.01 596.471L520.64 602.306C525.31 622.126 522.14 640.981 523.385 658.761C531.86 672.586 540.7 700.561 540.7 700.561Z" fill="#497A1A"/>
<g style="mix-blend-mode:color-burn">
<path d="M506.35 643.881C506.085 640.726 505.775 637.006 505.41 632.611C505.38 632.261 505.355 631.936 505.33 631.641L509.215 622.596C509.335 630.181 508.165 638.421 506.35 643.881Z" fill="#CCCCCC"/>
</g>
<path d="M491.175 712.116C487.925 695.616 485.64 668.806 485.64 659.791C485.64 646.521 486.045 624.791 487.43 613.076C488.23 606.291 489.985 602.686 492.015 599.076L509.74 599.696C510.32 605.951 510.375 616.556 509.24 622.586C507.785 630.181 501.55 657.621 501.405 663.946C500.87 687.406 501.55 692.781 500.5 712.106L491.175 712.116Z" fill="#497A1A"/>
<path d="M519.196 589.011C521.696 574.431 525.591 562.606 520.266 553.291C520.266 553.291 520.266 553.291 520.266 553.251C519.301 550.711 516.041 547.931 512.206 545.406C505.161 540.751 496.431 536.116 496.431 536.116C494.321 537.206 491.986 540.451 491.026 541.986C492.226 543.391 496.451 546.881 500.781 549.771C500.538 550.193 500.253 550.59 499.931 550.956C499.791 551.091 493.581 551.871 492.931 551.591C488.476 549.671 482.431 545.791 481.316 545.341C481.316 545.341 476.616 547.686 474.936 551.341C478.766 556.381 488.191 561.706 491.046 565.896C491.201 571.486 493.131 579.991 493.381 586.621C493.636 593.446 488.231 602.881 487.316 614.386C493.401 616.276 512.846 617.686 522.716 614.626C521.671 602.116 518.036 595.786 519.196 589.011Z" fill="#FFC445"/>
<path d="M517.905 550.081C517.905 550.081 516.15 555.021 509.48 555.021C502.81 555.021 499.92 550.956 499.92 550.956C500.243 550.59 500.528 550.193 500.77 549.771C502.315 547.046 502.17 543.476 502.17 543.476C497.91 543.476 496.135 540.296 495.365 537.441C495.025 536.072 494.816 534.674 494.74 533.266C494.6 531.671 493.905 519.996 503.205 520.501C512.505 521.006 511.375 529.226 510.58 538.226C510.294 540.737 510.863 543.272 512.195 545.421C513.584 547.516 515.575 549.14 517.905 550.081Z" fill="#FFCCA9"/>
<path d="M522.16 555.021C520.55 557.806 502.365 557.786 500.525 555.756C497.705 552.636 502.84 536.966 501.89 532.476C498.605 532.476 494.77 530.646 494.135 528.106C493.305 524.761 495.86 521.406 498.3 519.731C500.5 518.231 503.19 517.691 505.88 517.566C524.47 516.691 524.26 551.376 522.16 555.021Z" fill="#603813"/>
<g style="mix-blend-mode:color-burn">
<path d="M286.165 564.136C286 563.361 284.805 559.946 284.805 559.946C284.7 559.703 284.538 559.49 284.332 559.323C284.127 559.157 283.884 559.043 283.625 558.991L260.935 549.491C260.752 549.382 260.55 549.309 260.34 549.276C260.023 549.231 259.7 549.28 259.411 549.419C259.122 549.557 258.88 549.777 258.716 550.052C258.552 550.328 258.473 550.645 258.489 550.965C258.505 551.285 258.615 551.593 258.805 551.851L262.645 556.991L263.285 563.561C263.282 563.607 263.282 563.654 263.285 563.701L243.03 590.151C242.799 590.428 242.626 590.749 242.521 591.094C242.417 591.44 242.383 591.803 242.421 592.162C242.46 592.521 242.571 592.869 242.746 593.184C242.922 593.499 243.16 593.776 243.445 593.998C243.73 594.219 244.057 594.381 244.406 594.474C244.755 594.566 245.119 594.588 245.476 594.537C245.833 594.486 246.177 594.363 246.486 594.177C246.795 593.99 247.064 593.743 247.275 593.451L269.725 564.131C269.725 564.576 269.725 564.976 269.725 565.281C269.702 565.527 269.729 565.776 269.804 566.012C269.878 566.248 270 566.467 270.16 566.656C270.33 566.831 270.549 566.951 270.788 567C271.027 567.05 271.275 567.026 271.501 566.933C271.726 566.84 271.919 566.681 272.053 566.478C272.188 566.274 272.258 566.035 272.255 565.791C272.255 563.336 272.305 561.756 272.32 560.721L274.025 558.496L274.42 558.666C275.86 561.391 276.305 562.001 276.31 562.901V568.226C276.275 568.451 276.303 568.682 276.39 568.893C276.478 569.104 276.622 569.286 276.806 569.421C276.99 569.556 277.208 569.637 277.435 569.657C277.663 569.676 277.891 569.632 278.095 569.531C278.328 569.393 278.519 569.195 278.649 568.957C278.778 568.719 278.841 568.451 278.83 568.181C279.265 560.966 279.3 561.681 279.05 561.061C278.98 560.871 278.91 560.701 278.84 560.521L282.04 561.861L283.235 564.656L283 571.226C282.974 571.546 283.077 571.863 283.285 572.108C283.493 572.353 283.79 572.505 284.11 572.531C284.43 572.557 284.748 572.454 284.993 572.246C285.237 572.038 285.389 571.741 285.415 571.421L285.805 567.991C285.92 566.991 286.005 566.256 286.07 565.741C286.176 565.213 286.208 564.672 286.165 564.136ZM265.47 556.381C265.458 556.115 265.371 555.859 265.22 555.641L264.44 554.471L266.795 555.471C267.335 556.326 267.755 556.971 268.085 557.471C267.43 558.331 266.585 559.431 265.61 560.701L265.47 556.381Z" fill="#CCCCCC"/>
</g>
<path d="M245.13 579.521C242.46 581.586 233.97 587.021 225.425 591.966C213.425 598.941 199.27 606.616 195.765 609.506C191.18 613.291 199.135 619.111 204.94 615.506C210.61 612.006 220.745 606.136 230.44 599.741C237.31 595.206 247.725 583.526 247.725 583.526C251.915 579.526 254.895 576.631 253.015 574.801C251.825 573.641 247.165 576.026 245.13 579.521Z" fill="#FFC499"/>
<path d="M250.41 582.056C249 588.771 244.5 598.291 242.585 602.141C236.49 607.186 218.19 614.026 215.085 617.066C210.475 621.566 216.165 629.886 222.165 627.916C226.88 626.366 245.4 615.031 248.87 609.916C251.34 606.256 255.055 589.611 256.37 582.191C258.685 577.191 257.28 573.286 255.285 573.291C253.29 573.296 251.58 576.551 250.41 582.056Z" fill="#FFCFAB"/>
<path d="M187.206 767.846L184.536 773.921L179.021 772.456L179.951 765.806L187.206 767.846Z" fill="#FFCFAB"/>
<path d="M177.325 778.441C177.19 776.601 177.77 773.771 179.02 772.441L184.52 773.906C188.42 775.006 195.41 778.906 194.345 782.946L177.325 778.441Z" fill="#00640A"/>
<path d="M224.451 770.746L223.241 776.741H217.536L217.146 770.746H224.451Z" fill="#FFCFAB"/>
<path d="M217.435 782.961C216.83 781.216 216.665 778.331 217.535 776.741H223.24C227.295 776.806 235.055 778.801 235.055 782.961H217.435Z" fill="#00640A"/>
<path d="M210.85 681.436C210.535 693.991 208.785 714.361 205.45 726.436C205.45 726.436 198.07 745.936 187.65 769.581L178.86 767.081C178.86 767.081 184.67 742.581 190.215 722.501C191.525 709.971 188.17 686.176 191.715 670.906L206.94 667.251L207.635 667.086L210.98 666.281C210.98 666.281 211.07 672.681 210.85 681.436Z" fill="#FFC445"/>
<g style="mix-blend-mode:color-burn">
<path d="M213.79 695.545L209 706.695C208.715 709.725 207.955 713.975 207.55 716.725C202.735 699.725 204.55 682.425 204.55 682.425C207.33 664.99 206.86 667.96 207.295 665.23C209.925 678.695 211.625 687.865 213.79 695.545Z" fill="#CCCCCC"/>
</g>
<path d="M225.45 772.021C225.45 772.021 230.16 733.261 230.16 723.981C230.16 702.411 228.635 677.561 224.215 666.311H203.715C202.125 683.501 212.45 719.811 213.105 724.121C213.395 744.336 214.435 752.121 215.515 772.021H225.45Z" fill="#FFC445"/>
<path d="M227.63 610.396C221.7 612.656 217.93 610.671 214.57 611.396C214.57 611.396 215.79 610.086 216.72 608.846C216.075 606.091 214.57 600.531 212.61 598.651C202 603.051 194.91 605.826 192.165 610.751C187 620.016 193.165 638.556 192.665 655.381C192.54 659.501 191.105 673.966 191.105 673.966C201.105 678.781 218.255 676.741 226.375 673.831C226.375 673.831 220.615 639.971 223.005 631.216C224.08 630.156 230.115 625.716 233.405 622.906C232.335 618.446 230.41 612.476 227.63 610.396Z" fill="#497A1A"/>
<path d="M214.57 611.391C210.225 612.636 198.815 610.891 198.815 608.176C199.21 606.796 199.935 605.021 199.93 600.096C199.93 594.151 208.93 594.751 208.93 594.751L211.56 596.981C211.25 599.546 211.154 602.134 211.275 604.716C211.59 610.601 214.57 611.391 214.57 611.391Z" fill="#FFCFAB"/>
<path d="M212.065 602.141C208.405 602.931 203.02 597.426 202.48 591.061C201.94 584.696 203.89 579.231 207.615 578.916C210.415 578.681 213.145 581.461 214.77 585.511C216.215 589.106 219 600.636 212.065 602.141Z" fill="#FFCFAB"/>
<path d="M211.345 589.536C211.345 589.536 208.845 588.336 207.845 590.421C207.095 591.921 208.605 594.261 208.605 594.261C208.415 595.491 206.605 599.041 206.265 599.436C205.395 600.381 201.43 601.331 199.765 600.031C198.425 598.971 192.16 589.506 194.355 583.771C197.31 576.031 204.52 577.381 207.415 576.806C209.275 576.441 211.63 574.806 213.235 575.886C215.235 577.206 214.735 581.071 213.33 582.701C211.925 584.331 211.955 588.406 211.345 589.536Z" fill="#603813"/>
<path d="M285.575 556.871C285.459 556.6 285.278 556.362 285.049 556.177C284.82 555.993 284.549 555.867 284.26 555.811L258.92 545.226C258.716 545.104 258.49 545.024 258.255 544.991C257.779 544.925 257.297 545.047 256.91 545.331C256.526 545.619 256.272 546.048 256.204 546.523C256.136 546.998 256.258 547.481 256.545 547.866L260.83 553.606L261.54 560.941C261.582 561.284 261.754 561.599 262.02 561.82C262.286 562.041 262.627 562.151 262.973 562.129C263.318 562.106 263.642 561.953 263.877 561.699C264.113 561.446 264.243 561.112 264.24 560.766L263.985 552.916C263.974 552.621 263.877 552.335 263.705 552.096L262.835 550.786L265.465 551.886C268.12 556.086 268.22 555.991 268.39 556.626C268.595 557.396 268.795 561.236 268.785 562.861C268.761 563.137 268.792 563.415 268.878 563.679C268.964 563.943 269.103 564.187 269.285 564.396C269.475 564.59 269.719 564.723 269.986 564.778C270.252 564.832 270.529 564.806 270.78 564.702C271.032 564.599 271.247 564.422 271.397 564.196C271.548 563.969 271.627 563.703 271.625 563.431C271.715 555.381 271.79 555.736 271.565 555.286C271.415 554.981 271.22 554.601 271.015 554.206L274.045 555.471C275.65 558.516 276.15 559.196 276.155 560.201L276.18 566.151C276.12 567.446 277.28 568.086 278.18 567.611C278.438 567.456 278.65 567.236 278.794 566.972C278.938 566.709 279.009 566.411 279 566.111C279.5 558.056 279.5 558.871 279.25 558.161C279.165 557.951 279.09 557.756 279.015 557.561L282.585 559.061L283.92 562.186L283.565 569.486C283.546 569.838 283.665 570.184 283.898 570.449C284.13 570.715 284.456 570.88 284.808 570.909C285.16 570.937 285.509 570.828 285.781 570.603C286.053 570.378 286.227 570.056 286.265 569.706L286.7 565.876C286.83 564.736 286.925 563.936 286.995 563.376C287.14 562.156 287.175 561.876 287.12 561.611C286.91 560.686 285.575 556.871 285.575 556.871Z" fill="#603813"/>
<path d="M273.755 553.371C273.87 553.419 273.972 553.493 274.054 553.587C274.135 553.681 274.194 553.793 274.225 553.913C274.257 554.033 274.26 554.159 274.235 554.281C274.21 554.403 274.157 554.518 274.08 554.616L243.695 594.291C243.453 594.602 243.152 594.863 242.81 595.058C242.467 595.254 242.089 595.379 241.698 595.429C240.907 595.528 240.11 595.309 239.48 594.821C238.851 594.332 238.442 593.613 238.342 592.823C238.243 592.033 238.462 591.235 238.95 590.606L268.62 551.871C268.73 551.73 268.883 551.63 269.056 551.585C269.228 551.54 269.411 551.552 269.575 551.621L273.755 553.371Z" fill="#8C6239"/>
<path d="M249.14 576.586C249.14 576.586 252.585 576.331 252.26 577.506C252.015 578.396 249.59 578.506 247.715 578.201C247.11 578.101 249.14 576.586 249.14 576.586Z" fill="#FFC499"/>
<path d="M255.725 579.726C255.725 579.726 253.195 577.491 253.79 576.686C254.195 576.146 255.255 575.981 257.23 578.021L255.725 579.726Z" fill="#FFCCA9"/>
<path d="M171.555 384.971C169.885 385.919 167.969 386.343 166.055 386.186C159.515 385.781 148.15 385.776 144.395 383.646C141.78 382.146 137.01 374.871 135 367.646C137.5 360.671 135.645 355.066 135.635 345.866C140.82 348.126 145.135 368.696 149.485 375.966C157.075 378.516 163.245 379.816 166.94 380.716C167.885 380.946 169.015 381.261 169.375 381.391L171.555 384.971Z" fill="#FFCCA9"/>
<path d="M156.5 402.726C156.356 401.824 156.391 400.903 156.605 400.016C156.819 399.129 157.206 398.292 157.745 397.556L168.56 382.671C169.661 381.232 171.281 380.28 173.074 380.019C174.867 379.758 176.691 380.208 178.157 381.272C179.623 382.337 180.614 383.932 180.92 385.718C181.227 387.504 180.823 389.339 179.795 390.831L168.955 405.726C168.245 406.701 167.294 407.475 166.194 407.971C165.094 408.467 163.884 408.667 162.683 408.553C161.482 408.439 160.331 408.014 159.345 407.32C158.358 406.626 157.569 405.687 157.055 404.596C156.783 404.001 156.597 403.372 156.5 402.726ZM177.32 382.426C176.753 382.012 176.109 381.714 175.426 381.549C174.743 381.384 174.034 381.356 173.34 381.465C172.646 381.575 171.981 381.821 171.382 382.188C170.783 382.555 170.263 383.037 169.85 383.606L159 398.496C158.587 399.064 158.29 399.709 158.126 400.392C157.962 401.075 157.934 401.784 158.045 402.479C158.267 403.88 159.037 405.137 160.185 405.971C161.334 406.805 162.766 407.149 164.168 406.926C165.57 406.704 166.826 405.934 167.66 404.786L178.5 389.901C178.918 389.331 179.217 388.684 179.381 387.997C179.545 387.31 179.57 386.597 179.455 385.901C179.376 385.403 179.228 384.918 179.015 384.461C178.626 383.648 178.036 382.95 177.3 382.431L177.32 382.426Z" fill="#603813"/>
<path d="M163.12 413.295L176.13 407.335L191.09 408.455L190.59 410.855L163.12 413.295Z" fill="#603813"/>
<path d="M159.346 412.999L154.154 401.904C153.929 401.424 153.904 400.874 154.085 400.375C154.265 399.876 154.637 399.47 155.117 399.245L181.107 387.082L187.995 401.8L162.005 413.963C161.525 414.188 160.975 414.213 160.476 414.032C159.977 413.851 159.571 413.48 159.346 412.999Z" fill="#8C6239"/>
<path d="M172.66 381.876C174.16 383.256 169.885 387.976 167.62 387.266C160 384.881 168.4 377.896 172.66 381.876Z" fill="#FFCCA9"/>
<path d="M135 399.571C125.9 396.956 116.21 391.966 109.745 385.106C105.92 381.056 94.5754 346.671 104.135 343.606C113.86 340.501 118.705 380.886 118.675 381.391C122.925 383.991 129.175 391.476 136.305 394.186C138.805 394.616 149.945 393.576 149.05 399.361C148.45 403.326 139.7 400.916 135 399.571Z" fill="#FFCCA9"/>
<path d="M139.175 323.551C134.6 323.856 131.05 322.446 129.275 321.781C126.915 323.281 125.445 326.416 125.445 326.416C125.445 323.286 120.79 323.536 122.54 328.531C121.1 329.851 121.61 333.126 121.375 335.726C119.435 356.786 99.9404 363.916 95.4954 352.441C94.2454 349.216 96.0754 346.551 96.6404 344.231C97.2954 341.536 96.7054 336.381 98.3454 333.661C100.085 330.776 103.885 329.386 104.845 327.231C106.155 324.231 107.88 321.731 110.735 319.921C115.16 317.106 117.42 310.771 126.36 310.771C133.065 310.771 139.175 314.806 139.175 323.551Z" fill="#603813"/>
</svg>
