<svg width="1440" height="891" viewBox="0 0 1440 891" fill="none" xmlns="http://www.w3.org/2000/svg">
<g filter="url(#filter0_d)">
<rect x="1010" y="247" width="24" height="23" rx="11.5" fill="#ADE1D1"/>
<rect x="1325" y="203" width="111" height="106" rx="53" fill="#C7EEA9"/>
<rect x="466" y="786" width="65" height="65" rx="32.5" fill="#C7EEA9"/>
<rect x="4" y="660" width="140" height="147" rx="70" fill="#C7EEA9"/>
<rect x="613" y="215" width="65" height="65" rx="32.5" fill="#C7EEA9"/>
<rect x="1251" y="266" width="51" height="49" rx="24.5" fill="#ADE1D1"/>
<rect x="434" y="700" width="51" height="49" rx="24.5" fill="#ADE1D1"/>
<rect x="536" width="164" height="158" rx="79" fill="#ADE1D1"/>
<rect x="1077" y="131" width="107" height="104" rx="50" fill="#E68FB9" fill-opacity="0.68"/>
<rect x="37" y="24" width="107" height="104" rx="50" fill="#ADE1D1"/>
<rect x="316" y="754" width="107" height="104" rx="50" fill="#EEB3CF"/>
<rect x="353" y="79" width="65" height="63" rx="31.5" fill="#EEB3CF"/>
<rect x="1384" y="490" width="41" height="40" rx="20" fill="#E68FB9" fill-opacity="0.68"/>
<path d="M1404.52 820.3C1404.52 847.93 1262.48 882.19 1087.26 882.19C912.04 882.19 770 847.93 770 820.3C770 792.67 912.045 770.27 1087.26 770.27C1262.48 770.27 1404.52 792.67 1404.52 820.3Z" fill="#C8EBE0"/>
<path d="M1084 407.015C1082.75 425.86 1074 443.695 1063.86 459.555C1061.92 462.605 1059.86 465.645 1057.77 468.69L1057.15 469.595L1056.29 468.955C1005.85 431.275 993.68 395.455 1021.87 337.645C1024.99 331.145 1028.8 324.025 1032.22 318.06L1032.82 317.025L1033.7 317.825C1050.7 333.19 1067.52 350.76 1077.25 371.43C1082.83 383.62 1084.81 395.435 1084 407.015Z" fill="#DFF5CF"/>
<path d="M1083.36 407.3C1075.47 417.43 1062.76 425.26 1051.45 429.095L1046.41 397.495C1065.62 389.235 1073.76 378.88 1077.26 371.41L1077.07 371.005L1076.52 369.84C1076.36 369.919 1076.23 370.052 1076.16 370.215C1072.98 377.425 1065.2 387.715 1046.16 395.97C1042.23 371.325 1044.43 385.105 1041.1 364.22C1051.08 361.595 1056.56 351.96 1059.44 344.095L1059.32 343.95L1058.4 342.865C1057.79 343.41 1053.63 359.285 1040.87 362.755L1033.7 317.8L1032.82 317L1032.22 318.035L1036.42 344.325C1026.33 343.39 1022.08 338.415 1021.58 338.225C1021.44 338.505 1021.3 338.785 1021.17 339.06L1020.92 339.595C1023.77 342.135 1028.75 345.195 1036.66 345.845C1038.42 356.905 1039.99 366.69 1041.73 377.615C1019.95 376.785 1011.73 366.71 1010.73 366.435L1010.61 366.87C1010.52 367.2 1010.4 367.645 1010.31 367.97C1015.81 372.83 1025.66 378.57 1041.99 379.13C1045.51 401.22 1044.31 393.695 1047.15 411.515C1033.5 411.77 1018.45 408.755 1008.02 400.065C1007.94 400.004 1007.86 399.958 1007.76 399.93C1007.67 399.903 1007.57 399.894 1007.48 399.905C1007.54 400.725 1007.68 401.73 1007.68 401.73C1007.77 401.82 1009.41 403.025 1009.59 403.15C1020.24 410.62 1034.33 413.325 1047.39 413.015L1052.15 442.865C1043.89 443.58 1035.57 443.22 1027.41 441.795C1027.3 441.776 1027.19 441.782 1027.08 441.811C1026.98 441.84 1026.88 441.893 1026.8 441.965C1027.21 442.465 1027.63 442.94 1028.05 443.425C1036.09 444.766 1044.27 445.071 1052.39 444.335L1056.31 468.92L1057.17 469.56C1057.37 469.265 1057.58 468.975 1057.79 468.685C1057.79 468.685 1053.79 443.47 1053.79 443.465C1053.79 443.43 1053.79 443.395 1053.79 443.36L1051.69 430.595C1062.05 427.195 1075.22 419.715 1083.84 409.125C1083.95 407.87 1083.96 407.71 1084.01 407.035C1083.88 407.023 1083.76 407.041 1083.65 407.087C1083.54 407.133 1083.44 407.206 1083.36 407.3Z" fill="#8CC63F"/>
<path d="M1251.92 523.525L1251.83 523.625C1251.56 523.94 1251.26 524.26 1250.98 524.575C1250.76 524.245 1250.54 523.915 1250.33 523.575L1250.29 523.515C1232.39 496.13 1227.16 471.83 1240.86 442.255C1242.8 437.82 1246.74 430.43 1252.01 422.38C1252.44 421.725 1253.01 420.88 1253.07 420.795C1255.81 416.675 1258.84 412.425 1262.17 408.045C1262.19 408.02 1262.21 407.997 1262.23 407.975L1263.1 406.825L1263.73 408.01C1263.73 408.055 1263.78 408.095 1263.8 408.14C1289.64 456.97 1284.96 486.5 1251.92 523.525Z" fill="#DFF5CF"/>
<path d="M1254.97 493.175C1255.26 490.35 1256.23 480.87 1257.44 469.175C1266.44 466.63 1274.73 461.84 1279.9 454.13C1279.9 453.95 1279.86 453.765 1279.84 453.58C1279.78 453.125 1279.72 452.675 1279.66 452.22C1279.55 452.234 1279.45 452.273 1279.35 452.332C1279.26 452.392 1279.18 452.472 1279.13 452.565C1274.31 460.24 1266.38 464.935 1257.63 467.565C1258.41 459.985 1259.27 451.595 1260.1 443.54C1266.28 442.855 1271.16 436.605 1274.25 431.135C1274.19 430.955 1274.12 430.77 1274.05 430.59C1273.92 430.225 1273.78 429.86 1273.64 429.495C1272.94 429.75 1268.14 440.805 1260.26 441.995C1260.76 437.34 1261.2 432.825 1261.63 428.67C1262.68 418.485 1263.5 410.485 1263.75 408.015L1263.12 406.83L1262.25 407.98L1260.25 427.53C1254.75 425.395 1253.44 421.365 1252.94 421.055C1252.63 421.5 1252.34 421.94 1252.06 422.38C1253.81 425.525 1256.65 427.915 1260.06 429.095C1258.56 443.51 1257.97 449.355 1257.56 453.28C1245.19 449.66 1242.27 441.08 1241.56 440.78C1241.36 441.205 1241.03 441.905 1240.85 442.28C1243.29 446.655 1248.1 452.145 1257.4 454.78C1256.9 459.5 1256.62 462.4 1254.86 479.455C1239.76 476.205 1233.76 465.38 1233.76 465.38C1233.67 466.01 1233.59 466.635 1233.52 467.26C1233.52 467.26 1233.52 467.295 1233.52 467.31C1236.3 471.64 1242.45 478.38 1254.71 480.95L1253.36 494.095L1252.36 503.675C1245.83 502.96 1237.77 499.54 1237.77 499.54C1238.01 500.205 1238.34 501.04 1238.43 501.245C1242.79 503.259 1247.44 504.582 1252.21 505.165L1250.33 523.595C1250.54 523.925 1250.76 524.255 1250.98 524.595C1251.26 524.28 1251.56 523.96 1251.83 523.645L1253.8 504.54L1254.8 494.75C1263.13 493.153 1270.85 489.214 1277.03 483.395C1277.06 483.315 1277.43 482.135 1277.7 481.18C1277.71 481.16 1267.94 490.62 1254.97 493.175Z" fill="#8CC63F"/>
<path d="M928.4 746.825L927.225 746.7L926.66 746.635C913.785 745.205 902.33 742.92 892.09 739.56L891.995 739.53C891.41 739.34 890.83 739.15 890.255 738.95C889.11 738.56 887.98 738.15 886.865 737.73C872.975 732.465 861.44 725.045 851.725 714.945L851.46 714.67C851.01 714.2 850.565 713.725 850.125 713.245C849.845 712.945 849.565 712.64 849.29 712.335C842.675 704.925 836.93 696.18 831.86 685.905C831.67 685.525 831.475 685.14 831.29 684.755C831.105 684.37 830.845 683.84 830.63 683.375L830.565 683.235C826.417 674.286 822.897 665.058 820.03 655.62C819.995 655.515 819.965 655.41 819.93 655.305C819.77 654.802 819.615 654.292 819.465 653.775C819.395 653.55 819.33 653.325 819.265 653.095C817.265 646.525 815.397 639.525 813.66 632.095C813.605 631.875 813.555 631.655 813.5 631.435L813.17 630.03L814.485 630.295L815.195 630.44C825.361 632.481 835.399 635.11 845.26 638.315C846.26 638.64 847.26 638.97 848.2 639.315C858.305 642.845 867.27 646.925 875.2 651.7C875.655 651.97 876.11 652.245 876.555 652.52C877 652.795 877.465 653.085 877.915 653.375L878.175 653.545C888.432 660.062 897.339 668.492 904.41 678.375C904.847 678.975 905.273 679.583 905.69 680.2C906.107 680.817 906.537 681.463 906.98 682.14L907.205 682.48C917.525 698.57 924.095 718.92 928.095 744.895L928.2 745.57C928.26 745.98 928.335 746.405 928.4 746.825Z" fill="#C8EBE0"/>
<path d="M928.21 745.56L909.26 726.34L899.515 716.46C901.125 713.65 908.415 699.775 907.015 682.145C906.59 681.475 906.16 680.83 905.72 680.19C905.607 680.265 905.518 680.37 905.46 680.492C905.403 680.615 905.38 680.751 905.395 680.885C907.2 698.105 900.325 711.885 898.395 715.35L874.51 691.14C881.875 674.48 880.68 661.64 878.185 653.535L877.925 653.365C877.475 653.075 877.025 652.795 876.565 652.51C876.506 652.604 876.469 652.709 876.456 652.819C876.443 652.929 876.454 653.04 876.49 653.145C879.05 660.84 880.545 673.43 873.38 689.995L860.105 676.54L860.04 676.475L835.005 651.095L834.94 651.025L814.485 630.305L813.17 630.04L813.5 631.445L833.23 651.445C829.219 653.884 824.431 654.709 819.835 653.755C819.714 653.722 819.586 653.722 819.465 653.755C819.615 654.268 819.77 654.778 819.93 655.285C824.901 656.213 830.04 655.227 834.315 652.525L858.39 676.925C847.45 684.425 837.51 684.485 831.03 683.155C830.873 683.124 830.709 683.145 830.565 683.215L830.63 683.355C830.843 683.822 831.063 684.282 831.29 684.735C833.366 685.125 835.473 685.321 837.585 685.32C843.75 685.32 851.36 683.655 859.46 678.01L873.045 691.775L884 702.875C870.055 714.095 857.215 714.065 850.76 713.05C850.648 713.032 850.533 713.041 850.425 713.075C850.316 713.108 850.217 713.167 850.135 713.245C850.575 713.725 851.02 714.2 851.47 714.67C853.045 714.869 854.632 714.967 856.22 714.965C860.725 714.952 865.198 714.201 869.46 712.74C875.141 710.763 880.426 707.794 885.07 703.97L897.955 717.02C897.993 717.071 898.036 717.118 898.085 717.16L907.695 726.895C902.69 731.674 896.933 735.599 890.655 738.51C890.564 738.553 890.482 738.615 890.415 738.69C890.348 738.766 890.297 738.854 890.265 738.95C890.84 739.15 891.42 739.34 892.005 739.53C901.28 735.03 907.005 729.695 908.75 727.965L927.25 746.7L928.425 746.825C928.335 746.405 928.26 745.98 928.21 745.56Z" fill="#8CC63F"/>
<path d="M1062.89 459.78C1054.13 415.93 1064.39 392.315 1104.74 375.325C1105.48 375.005 1105.9 374.825 1106.4 374.64C1112.86 371.99 1119.85 369.64 1120.62 369.43L1121.76 369.05C1127.23 423.695 1114.76 447.925 1062.89 459.78Z" fill="#C8EBE0"/>
<path d="M1122.58 394.345C1117.73 396.955 1110.8 399.38 1104.84 396.515L1121.88 370.245C1121.88 370.195 1121.77 369.1 1121.76 369.05L1120.62 369.425C1120.62 369.425 1110.8 384.595 1110.79 384.595C1106.23 379.5 1106.41 375.245 1106.18 374.745C1105.68 374.935 1105.23 375.13 1104.76 375.33C1105.06 377.995 1106.23 381.89 1109.95 385.895C1104.69 394.01 1103.1 396.445 1103.1 396.445L1097.93 404.415C1087.3 393.95 1087.65 384.83 1087.28 384.29C1086.78 384.615 1086.58 384.715 1085.95 385.155C1086.54 390.255 1088.99 397.81 1097.1 405.695L1090.28 416.195C1090.28 416.195 1085.26 423.915 1084.85 424.595C1073.71 414.84 1070.85 405.41 1070.14 400.595C1070.12 400.495 1070.09 400.399 1070.03 400.313C1069.98 400.227 1069.91 400.153 1069.83 400.095C1069.42 400.655 1068.78 401.595 1068.78 401.595C1069.71 406.825 1072.96 416.235 1084.02 425.86L1072.76 443.225C1068.22 439.767 1064.14 435.744 1060.62 431.255C1060.56 431.168 1060.47 431.098 1060.38 431.049C1060.28 431.001 1060.17 430.975 1060.06 430.975C1060.06 431.55 1060.02 432.595 1060.02 432.905C1063.5 437.244 1067.5 441.136 1071.93 444.495L1062.7 458.725L1062.91 459.78C1063.26 459.7 1063.62 459.625 1063.96 459.54C1063.96 459.51 1073.56 444.745 1073.58 444.72V444.695L1078.42 437.235C1085.92 440.555 1095.89 442.425 1104.81 441.13C1104.81 441.13 1105.43 440.585 1106.35 439.695C1106.26 439.605 1106.16 439.537 1106.04 439.497C1105.92 439.458 1105.8 439.449 1105.68 439.47C1093.74 441.585 1082.29 437.245 1079.25 435.97L1091.2 417.56C1100.14 420.56 1110.55 422.09 1119.27 418.465C1119.41 418.065 1119.65 417.205 1119.77 416.8C1119.6 416.753 1119.42 416.765 1119.27 416.835C1114.3 419.065 1105.59 420.74 1092.05 416.26L1104.05 397.795C1110.02 400.77 1116.98 399.01 1122.93 395.885C1122.93 395.555 1122.98 394.6 1122.99 394.27C1122.84 394.255 1122.7 394.281 1122.58 394.345Z" fill="#61A323"/>
<path d="M1338.96 474.2C1317.9 529.835 1293.05 540.245 1245.54 528.7C1245.64 528.355 1245.73 528.005 1245.83 527.665C1245.83 527.665 1245.89 527.445 1245.9 527.43C1251.34 508.23 1259.7 489.125 1277 479.385C1278.82 478.78 1290 470.03 1320.94 472.13C1321.19 472.13 1322.54 472.255 1322.73 472.265C1328.49 472.715 1333.6 473.385 1338.96 474.2Z" fill="#EEB3CF"/>
<path d="M1322.07 484.92L1322.16 484.865L1338.53 475.315C1338.68 474.945 1338.82 474.57 1338.96 474.2L1337.78 474.02L1322.17 483.125C1320.86 478.3 1321.58 474.69 1322.44 472.465C1322.47 472.396 1322.49 472.324 1322.49 472.25C1321.99 472.205 1321.49 472.165 1320.99 472.135C1320.05 474.635 1319.34 478.635 1320.86 483.905L1310.1 490.185L1310 490.245L1301.8 495.03C1298.3 484.635 1299.56 477.12 1301.3 472.605C1301.34 472.496 1301.36 472.38 1301.34 472.265L1300.99 472.3C1300.58 472.34 1300.17 472.385 1299.76 472.435C1297.99 477.26 1296.76 485.11 1300.47 495.8L1289.65 502.095L1289.55 502.145L1281 507.145C1275.45 493.415 1277.14 483.705 1278.67 479.1C1278.7 479.003 1278.71 478.901 1278.71 478.8C1278.7 478.698 1278.67 478.6 1278.62 478.51C1278.09 478.785 1277.56 479.07 1277.04 479.365H1277.01C1275.51 484.46 1274.15 494.335 1279.69 507.865L1269.4 513.865L1269.35 513.895L1261.79 518.305C1259.3 513.174 1257.47 507.747 1256.35 502.155C1256.33 502.049 1256.28 501.95 1256.21 501.863C1256.15 501.777 1256.07 501.706 1255.97 501.655C1255.72 502.12 1255.47 502.59 1255.22 503.07L1255.07 503.36C1256.22 508.809 1258.04 514.095 1260.49 519.095L1245.83 527.645C1245.73 527.99 1245.64 528.34 1245.54 528.685L1246.59 528.94L1261.85 520.035L1269.55 515.535C1271.44 517.83 1279.49 526.935 1291.36 530.9H1291.41C1292.08 530.72 1292.74 530.525 1293.41 530.32C1293.38 530.202 1293.31 530.095 1293.23 530.008C1293.14 529.921 1293.03 529.857 1292.91 529.82C1281.3 526.32 1273.04 517.32 1270.91 514.78L1289.86 503.725C1300.01 514 1308.75 516.755 1314.53 517.17L1314.81 516.885C1315.11 516.565 1315.42 516.24 1315.72 515.885C1315.59 515.765 1315.42 515.694 1315.24 515.685C1309.81 515.445 1301.24 513.015 1291.2 502.915L1301.74 496.77L1301.86 496.695L1310.21 491.825C1314.34 497.35 1321.53 498.625 1327.29 498.625H1327.93L1328.15 498.23L1328.71 497.23C1328.6 497.161 1328.47 497.128 1328.33 497.135C1322.83 497.285 1315.55 496.335 1311.52 491.085L1322.08 484.92H1322.07Z" fill="#61A323"/>
<path d="M1368.3 594.19C1368.3 594.585 1368.3 594.985 1368.26 595.385C1368.26 595.615 1368.26 595.845 1368.26 596.07C1367.99 605.402 1367.15 614.708 1365.76 623.94C1365.69 624.44 1365.61 624.94 1365.53 625.4C1365.46 625.86 1365.39 626.235 1365.32 626.645C1365.32 626.765 1365.28 626.88 1365.25 626.995C1363.61 636.155 1361.33 644.23 1358.28 651.31C1358.12 651.685 1357.96 652.06 1357.78 652.43C1357.58 652.88 1357.38 653.325 1357.17 653.765C1357.13 653.845 1357.1 653.925 1357.06 654C1352.56 663.5 1346.56 671.13 1338.75 677.13C1338.32 677.463 1337.88 677.797 1337.43 678.13C1336.87 678.545 1336.3 678.955 1335.72 679.35L1335.5 679.495C1322.63 688.185 1305.39 693.06 1282.71 695.145L1282.09 695.2L1281.02 695.295C1281.02 694.935 1280.98 694.575 1280.96 694.22L1280.93 693.67C1280.28 681.67 1280.59 671.045 1282.04 661.635C1282.05 661.595 1282.05 661.555 1282.04 661.515C1282.13 660.915 1282.23 660.32 1282.34 659.735C1282.51 658.712 1282.7 657.702 1282.9 656.705C1285.53 643.945 1290.45 633.54 1298.04 625.035L1298.17 624.885C1298.57 624.425 1298.99 623.975 1299.41 623.535C1299.6 623.325 1299.81 623.115 1300.01 622.91C1305.65 617.15 1312.63 612.295 1321.07 608.185L1321.95 607.755C1322.34 607.56 1322.75 607.37 1323.15 607.185L1323.39 607.075C1330.83 603.746 1338.54 601.041 1346.43 598.99L1346.63 598.935C1347.13 598.805 1347.63 598.675 1348.13 598.55L1348.6 598.435C1354.19 596.988 1360.17 595.68 1366.55 594.51L1367.16 594.395L1368.3 594.19Z" fill="#DFF5CF"/>
<path d="M1368.26 595.385C1368.26 594.985 1368.26 594.585 1368.3 594.19L1367.12 594.4L1352.26 611.63C1348.66 606.4 1348.02 601.785 1348.14 598.775C1348.15 598.7 1348.14 598.625 1348.11 598.555C1347.61 598.68 1347.11 598.81 1346.61 598.94C1346.52 602.245 1347.28 607.23 1351.23 612.8L1341.01 624.635L1333.19 633.685C1324.77 622.835 1323.24 613.435 1323.46 607.4C1323.46 607.283 1323.44 607.167 1323.39 607.06L1323.15 607.17C1322.75 607.355 1322.34 607.545 1321.95 607.74C1321.8 614.08 1323.51 623.77 1332.2 634.84L1321.96 646.695C1321.94 646.721 1321.92 646.749 1321.89 646.78L1313.76 656.18C1301.62 642.26 1299.69 630.125 1299.62 624.075C1299.62 623.974 1299.6 623.875 1299.56 623.782C1299.52 623.69 1299.46 623.608 1299.38 623.54C1298.96 623.98 1298.54 624.43 1298.14 624.89C1298.37 631.39 1300.7 643.565 1312.77 657.325L1303.02 668.625L1302.95 668.695L1295.82 676.96C1290.78 671.922 1286.41 666.255 1282.82 660.1C1282.77 660.009 1282.69 659.93 1282.61 659.868C1282.52 659.806 1282.42 659.762 1282.32 659.74C1282.21 660.325 1282.12 660.92 1282.03 661.52C1282.03 661.56 1282.03 661.6 1282.03 661.64C1285.61 667.637 1289.92 673.164 1294.86 678.095L1280.93 694.225C1280.93 694.58 1280.97 694.94 1280.99 695.3L1282.06 695.205L1296.45 678.545L1303.76 670.095C1306.59 671.825 1319.76 679.365 1335.07 679.365H1335.69C1336.28 678.97 1336.85 678.56 1337.41 678.145C1337.34 678.046 1337.24 677.966 1337.13 677.912C1337.02 677.858 1336.9 677.832 1336.77 677.835C1321.49 678.42 1307.97 670.895 1304.77 668.95L1322.71 648.175C1333.26 653.435 1341.76 655.095 1348.32 655.095C1351.26 655.113 1354.19 654.745 1357.03 654C1357.07 653.92 1357.11 653.84 1357.14 653.76C1357.35 653.32 1357.55 652.875 1357.75 652.425C1357.6 652.352 1357.42 652.337 1357.25 652.385C1350.75 654.295 1339.68 654.885 1323.72 646.985L1333.77 635.345L1341.74 626.12C1345.18 628.515 1349.09 629.395 1352.98 629.395C1357.32 629.395 1361.63 628.295 1365.23 626.99C1365.23 626.875 1365.27 626.76 1365.29 626.64C1365.36 626.23 1365.44 625.815 1365.51 625.395C1365.38 625.373 1365.24 625.387 1365.12 625.435C1358.66 627.85 1349.62 629.67 1342.72 624.975L1352.76 613.325L1368.26 595.385Z" fill="#61A323"/>
<path d="M946.505 783.845L945.46 784.08L944.27 784.33C927.705 787.88 912.855 789.76 899.445 789.785H899.15C898.5 789.785 897.86 789.785 897.22 789.785C895.655 789.785 894.115 789.725 892.59 789.66C874.325 788.805 858.83 784.265 845.37 775.605L844.765 775.21C844.265 774.88 843.765 774.54 843.24 774.21C842.825 773.93 842.41 773.645 841.995 773.35C832.775 766.785 824.495 758.18 816.995 747.35C816.665 746.89 816.335 746.42 815.995 745.945L815.105 744.625C809.25 735.855 803.83 725.75 798.69 714.205C798.605 714.02 798.52 713.835 798.44 713.645C798.23 713.185 798.025 712.72 797.825 712.245C797.695 711.95 797.57 711.65 797.445 711.35C794.218 703.913 791.097 695.902 788.08 687.315C787.93 686.9 787.78 686.475 787.63 686.05L787.235 684.92C787.63 684.875 788.015 684.825 788.41 684.77C788.91 684.71 789.41 684.65 789.86 684.6C804.105 682.88 817.125 681.98 829.045 681.99C829.85 681.99 830.64 681.99 831.425 681.99H832.895H833.045C846.24 682.235 858.045 683.64 868.63 686.345C869.285 686.505 869.93 686.675 870.575 686.845L872.245 687.315H872.26C886.58 691.49 898.58 698.175 908.68 707.735C909.325 708.33 909.955 708.945 910.58 709.57C911.08 710.07 911.58 710.57 912.08 711.07L912.71 711.73C927.57 727.67 938.1 750.51 945.945 781.49C946.06 781.91 946.165 782.335 946.27 782.76L946.505 783.845Z" fill="#EEB3CF"/>
<path d="M946.26 782.805L919.795 766.375H919.765H919.725L906.225 757.99C907.835 754.185 916.03 733.205 912.09 711.175C911.59 710.675 911.09 710.175 910.59 709.675C910.501 709.761 910.436 709.868 910.399 709.986C910.362 710.104 910.356 710.229 910.38 710.35C914.66 732 906.69 752.925 904.915 757.19L887.1 746.095L887.055 746.07L871.675 736.515C879.43 712.205 876.36 696.46 872.24 687.38L870.57 686.91C870.523 687.076 870.538 687.253 870.61 687.41C874.73 696.105 877.99 711.505 870.365 735.68L851.76 724.13C851.739 724.113 851.715 724.1 851.69 724.09L836.91 714.905C842.51 703.675 837.98 690.935 833.025 682.025H832.875H831.405C831.405 682.156 831.438 682.285 831.5 682.4C836.345 690.975 840.92 703.355 835.63 714.135L817.075 702.635L817.025 702.6C817.012 702.598 816.998 702.598 816.985 702.6L788.41 684.775C788.01 684.83 787.625 684.88 787.23 684.925L787.625 686.055L815.415 703.315C808.79 709.725 802.34 711.68 798.035 712.19C797.961 712.199 797.888 712.22 797.82 712.25C798.02 712.75 798.225 713.19 798.435 713.65C803.03 713.07 809.83 710.925 816.725 704.15L835.495 715.805L835.585 715.86L850.17 724.92C836.825 739.25 823.935 743.5 815.425 744.53C815.309 744.543 815.197 744.585 815.1 744.65L815.99 745.97C824.795 744.825 837.94 740.345 851.49 725.725L870.46 737.51L885.57 746.895C868.76 767.045 852.18 772.445 843.76 773.865C843.659 773.882 843.562 773.92 843.476 773.976C843.39 774.032 843.317 774.105 843.26 774.19C843.76 774.535 844.26 774.875 844.785 775.19C853.67 773.535 870.22 767.73 886.855 747.655L904.855 758.84L918.26 767.19C912.326 775.398 905.344 782.794 897.49 789.19C897.404 789.26 897.335 789.347 897.288 789.447C897.24 789.546 897.215 789.655 897.215 789.765C897.855 789.765 898.495 789.765 899.14 789.765C906.839 783.396 913.692 776.07 919.535 767.965L945.455 784.095L946.505 783.86L946.26 782.805Z" fill="#61A323"/>
<path d="M1041.43 461.965V462.345C1041.43 462.625 1041.43 462.905 1041.43 463.185C1041.08 463.145 1040.73 463.11 1040.39 463.065C1027.29 461.465 1013.49 458.245 1003.16 449.985L1002.56 449.485L1002.31 449.28L1002.02 449.04L1001.82 448.865C995.535 443.515 991.06 436.905 987.795 429.59L987.465 428.835C987.37 428.62 987.275 428.405 987.19 428.185L987.105 427.98C984.44 421.61 982.64 414.745 981.32 407.75C981.255 407.39 981.185 407.03 981.12 406.67C981.118 406.66 981.118 406.65 981.12 406.64L981.06 406.31C981.057 406.288 981.057 406.267 981.06 406.245C981.057 406.205 981.057 406.165 981.06 406.125C980.995 405.775 980.935 405.43 980.875 405.08C979.646 397.564 978.795 389.991 978.325 382.39C978.295 381.94 978.27 381.495 978.245 381.055L979.38 381.305C981.93 381.875 986.67 382.965 992 384.6L992.12 384.635C995.975 385.635 1004.38 388.955 1009.47 391.635L1009.97 391.895L1010.33 392.09C1010.67 392.275 1011 392.46 1011.29 392.64C1017.08 395.835 1022.25 400.03 1026.57 405.03C1027 405.53 1027.42 406.03 1027.82 406.555C1034.35 414.845 1037.99 424.8 1039.82 436.225C1041.08 444.13 1041.5 452.73 1041.43 461.965Z" fill="#EEB3CF"/>
<path d="M1041.43 461.97C1041.43 462.095 1041.43 462.22 1041.43 462.345C1041.43 462.625 1041.43 462.905 1041.43 463.185C1041.09 463.145 1040.74 463.11 1040.4 463.065C1028.07 447.065 1031.4 451.365 1024.9 442.955C1019.02 447.205 1010.65 450.365 1003.36 450.145C1003.32 450.12 1002.96 449.835 1002.55 449.5L1002.3 449.295L1002.01 449.055L1001.81 448.88C1001.88 448.791 1001.98 448.72 1002.08 448.673C1002.19 448.626 1002.3 448.604 1002.42 448.61C1012.72 449.16 1021.63 443.425 1023.98 441.765C1019.04 435.34 1012.31 426.615 1011.17 425.125C1004.08 429.245 995.59 432.015 987.785 429.625L987.455 428.87C987.36 428.655 987.265 428.425 987.18 428.22L987.095 428.015C987.266 427.95 987.454 427.95 987.625 428.015C992.1 429.57 999.625 430.095 1010.25 423.97C1000.17 410.88 1007.5 420.39 997.415 407.3C992.825 410.925 986.725 410.08 981.31 407.8C981.22 407.34 981.16 407.02 981.11 406.72C981.108 406.71 981.108 406.7 981.11 406.69L981.05 406.36C981.047 406.338 981.047 406.317 981.05 406.295C981.05 406.255 981.05 406.215 981.05 406.175C981.195 406.144 981.346 406.162 981.48 406.225C985.905 408.16 992.03 409.655 996.54 406.105C992.26 400.595 981.965 387.2 978.26 382.405C978.23 381.955 978.205 381.51 978.18 381.07L979.315 381.32L989.76 394.865C992.76 389.24 991.88 385.155 992.065 384.655C992.515 384.785 993.23 385.005 993.565 385.11C993.724 388.985 992.757 392.823 990.78 396.16L1003.6 412.815C1008.91 404.275 1009.67 396.845 1009.35 392.045C1009.34 391.906 1009.37 391.766 1009.44 391.645L1009.94 391.905C1010.27 392.08 1010.64 392.29 1010.88 392.405C1011.14 397.525 1010.19 405.26 1004.58 414.06L1011.98 423.67C1011.98 423.67 1017.64 431.095 1017.65 431.095C1025.42 420.095 1026.39 410.46 1026.26 405.635C1026.26 405.524 1026.28 405.414 1026.33 405.313C1026.37 405.212 1026.44 405.122 1026.52 405.05C1027.24 405.865 1027.36 406.05 1027.77 406.55C1027.74 411.89 1026.38 421.51 1018.6 432.325C1027.14 443.415 1024.45 439.92 1030.66 447.98C1033.95 443.93 1036.72 439.49 1038.91 434.76C1038.96 434.652 1039.04 434.557 1039.13 434.484C1039.23 434.411 1039.34 434.361 1039.45 434.34C1039.45 434.34 1039.7 435.78 1039.78 436.235C1039.78 436.32 1039.78 436.37 1039.78 436.37C1037.58 440.965 1034.83 445.274 1031.58 449.2L1041.41 461.965L1041.43 461.97Z" fill="#61A323"/>
<path d="M1402.91 694.24C1402.5 694.445 1402.09 694.66 1401.68 694.86C1401.5 694.96 1401.31 695.055 1401.12 695.145C1392.13 699.733 1382.89 703.8 1373.44 707.325L1371.83 707.91L1370.59 708.35L1370.17 708.495C1361.17 711.693 1351.86 713.986 1342.4 715.34L1340.9 715.54L1339.32 715.725L1338.96 715.76C1327.11 717.068 1315.11 716.162 1303.59 713.09C1302.89 712.91 1302.19 712.715 1301.49 712.515C1300.79 712.315 1299.99 712.07 1299.22 711.83L1298.9 711.73C1280.99 706.01 1263.24 694.905 1243.9 678.1L1243.44 677.705L1242.44 676.845C1242.78 676.625 1243.11 676.41 1243.44 676.2L1243.85 675.945C1254.49 669.305 1264.59 664.145 1274.44 660.505L1274.52 660.475C1275.09 660.26 1275.66 660.055 1276.23 659.855C1277.34 659.46 1278.44 659.09 1279.54 658.735C1293.35 654.32 1306.74 652.905 1320.43 654.56L1320.75 654.6C1321.41 654.68 1322.06 654.765 1322.72 654.865C1323.11 654.915 1323.51 654.975 1323.9 655.035C1333.56 656.535 1343.4 659.58 1353.68 664.14C1354.06 664.3 1354.43 664.467 1354.8 664.64L1356.2 665.28L1356.35 665.355C1365.09 669.477 1373.54 674.187 1381.64 679.45L1381.89 679.61C1382.34 679.895 1382.79 680.185 1383.25 680.485L1383.81 680.86C1389.44 684.527 1395.24 688.577 1401.22 693.01L1401.72 693.36C1402.12 693.65 1402.51 693.945 1402.91 694.24Z" fill="#C8EBE0"/>
<path d="M1401.73 693.36L1374.33 690.39C1375.87 686.188 1378.97 682.736 1382.97 680.745C1383.1 680.686 1383.2 680.594 1383.27 680.48C1382.82 680.18 1382.37 679.89 1381.91 679.605C1377.64 681.854 1374.37 685.65 1372.79 690.22L1353.83 688.165L1339.29 686.595C1342.83 674.54 1350.29 668.595 1356.04 665.705C1356.19 665.629 1356.31 665.506 1356.38 665.355L1356.22 665.28L1354.83 664.64C1348.88 667.775 1341.33 674.06 1337.77 686.43L1318.86 684.38H1318.74L1303.62 682.74C1307.16 666.195 1316.85 658.54 1322.37 655.43C1322.47 655.372 1322.56 655.293 1322.62 655.198C1322.69 655.103 1322.73 654.994 1322.74 654.88C1322.09 654.78 1321.43 654.695 1320.78 654.615C1314.92 658.155 1305.57 666.185 1302.12 682.575L1284 680.595L1270.64 679.15C1271.44 672.641 1273.32 666.313 1276.23 660.435C1276.27 660.345 1276.3 660.248 1276.3 660.148C1276.31 660.048 1276.29 659.949 1276.26 659.855C1275.69 660.055 1275.11 660.26 1274.54 660.475C1271.73 666.3 1269.91 672.552 1269.15 678.975L1243.47 676.19C1243.12 676.4 1242.79 676.615 1242.47 676.835L1243.47 677.695L1269.73 680.535C1269.75 680.538 1269.77 680.538 1269.79 680.535H1269.87L1283.4 682.005C1285.72 693.249 1291.21 703.591 1299.23 711.8C1299.99 712.04 1300.73 712.27 1301.5 712.485C1301.54 712.353 1301.55 712.212 1301.51 712.079C1301.48 711.946 1301.4 711.825 1301.3 711.73C1289.19 700.15 1285.7 685.94 1284.96 682.175L1318.19 685.775C1323.08 702.45 1332.02 711.23 1338.98 715.73L1339.33 715.695L1340.92 715.51C1340.91 715.398 1340.87 715.291 1340.81 715.196C1340.75 715.1 1340.67 715.02 1340.57 714.96C1333.81 710.81 1324.79 702.42 1319.81 685.96L1338.2 687.96H1338.23H1338.32H1338.36L1353.18 689.57C1354.07 697.875 1362.75 704.36 1370.18 708.465L1370.61 708.32L1371.85 707.88C1371.79 707.705 1371.66 707.559 1371.5 707.47C1364.33 703.615 1355.73 697.47 1354.69 689.735L1373.19 691.735H1373.3L1401.68 694.815C1402.09 694.615 1402.5 694.4 1402.91 694.195L1401.73 693.36Z" fill="#8CC63F"/>
<g style="mix-blend-mode:color-burn">
<path d="M1223.81 831.295C1223.81 843.735 1162.67 859.155 1087.26 859.155C1011.85 859.155 950.715 843.735 950.715 831.295C950.715 818.855 1011.85 808.795 1087.26 808.795C1162.67 808.795 1223.81 818.855 1223.81 831.295Z" fill="#EEB3CF"/>
</g>
<path d="M898.03 416.165C898.049 414.974 898.295 413.798 898.755 412.7C904.835 413.2 907.6 404.52 907.17 397.335C906.67 389.175 890.775 385.545 889.53 405.44C889.16 411.41 887.305 416.63 882.38 417.005C881.685 422.585 884.105 426.005 892.16 428.79L903.86 421.095C900.26 419.84 898.11 418.135 898.03 416.165Z" fill="#FFCCA9"/>
<path d="M892.55 573.455L891.675 579.065H886.22L885.35 573.455H892.55Z" fill="#FFCCA9"/>
<path d="M886.225 585.05C885.62 583.305 885.415 580.675 886.225 579.05H891.675C895.55 579.05 903.06 580.745 903.06 585.05H886.225Z" fill="#00640A"/>
<path d="M901.475 473.485C901.475 473.485 901.475 502.485 899.71 519.82C898.97 527.135 895.84 558.6 893.825 573.455H884.225C880.89 551.13 884.595 534.535 883.3 518.88C883.14 516.88 882.995 514.962 882.865 513.125C882.775 511.85 882.7 510.625 882.63 509.405C882.43 506.155 882.295 503.15 882.195 500.375C881.735 487.495 882.22 479.59 882.56 475.925C882.72 474.28 882.84 473.485 882.84 473.485H901.475Z" fill="#FFC445"/>
<g style="mix-blend-mode:color-burn">
<path d="M882.865 513.125C882.775 511.85 882.7 510.625 882.63 509.405C882.43 506.155 882.295 503.15 882.195 500.375L884.4 489.455L885.12 489.18C885.395 497.345 883.475 510.595 882.865 513.125Z" fill="#CCCCCC"/>
</g>
<path d="M866.87 573.455L865.535 579.065H860.08L859.67 573.455H866.87Z" fill="#FFCCA9"/>
<path d="M860.085 585.05C859.48 583.305 859.275 580.675 860.085 579.05H865.535C869.41 579.05 876.92 581.125 876.92 585.05H860.085Z" fill="#00640A"/>
<path d="M867.92 471.095C864.805 480.86 863.92 506 862.74 518.67C861.065 536.45 856.65 552.46 858.28 573.48H867.85C867.85 573.48 876.375 533.185 878.915 521.07C882.6 503.45 886.245 485.41 887.2 473.51L867.92 471.095Z" fill="#FFC445"/>
<path d="M904.91 421.25C903.79 420.726 902.616 420.324 901.41 420.05C895.54 425.96 884.755 422.05 882.41 417.005C882.41 417.005 875.66 418.55 873.44 419.005C875.415 425.005 877.81 447.825 876.245 453.33C875.644 454.88 874.931 456.384 874.11 457.83C871.725 462.42 867.715 469.175 866.975 475.03C873.32 479.71 894.89 482.615 901.505 477.165C901.58 476.075 901.61 474.99 901.61 473.915C901.61 471.445 901.46 469 901.29 466.59C901.025 462.81 900.905 459.935 900.905 457.635C900.905 450.23 902.195 448.93 904.305 443.05C906.76 436.055 904.92 430.45 904.91 421.25Z" fill="#497A1A"/>
<path d="M915.445 520.555C913.405 520.37 911.57 521.595 911.335 523.305L908.225 546.805H865.26C866.46 537.895 867 533.485 868.26 524C868.321 523.513 868.281 523.019 868.144 522.548C868.006 522.077 867.773 521.64 867.46 521.262C867.146 520.885 866.759 520.576 866.321 520.355C865.883 520.133 865.405 520.004 864.915 519.975C864.429 519.922 863.938 519.967 863.47 520.107C863.001 520.246 862.566 520.479 862.189 520.789C861.812 521.1 861.501 521.483 861.275 521.916C861.048 522.349 860.91 522.823 860.87 523.31C821.41 821.39 821.615 803.58 824.935 805.735C825.62 806.164 826.423 806.368 827.231 806.317C828.038 806.266 828.809 805.962 829.435 805.45C830.875 804.25 830.435 805.06 833.435 782.525H876.435L873.755 802.43C873.701 802.931 873.755 803.438 873.914 803.916C874.073 804.395 874.332 804.833 874.674 805.203C875.017 805.573 875.435 805.865 875.9 806.059C876.365 806.253 876.866 806.346 877.37 806.33C878.231 806.345 879.07 806.051 879.732 805.5C880.395 804.95 880.837 804.18 880.98 803.33C880.98 803.33 888.895 745.13 918.65 523.995C918.955 522.29 917.49 520.75 915.445 520.555ZM877.35 776.3H834.35L838.665 744.27H881.665L877.35 776.3ZM882.49 738.04H839.49C842.81 713.325 843.805 706.04 843.805 706.04H886.805L882.49 738.04ZM887.64 699.795H844.64C845.973 689.965 847.415 679.288 848.965 667.765H891.93L887.64 699.795ZM892.785 661.55H849.82C851.153 651.527 852.592 640.86 854.135 629.55H897.095L892.785 661.55ZM897.93 623.295H854.975C856.345 613.145 857.785 602.468 859.295 591.265H902.26L897.93 623.295ZM903.075 585.05H860.135C861.512 574.817 862.948 564.15 864.445 553.05H907.39L903.075 585.05Z" fill="#497A1A"/>
<path d="M1300.15 628.665C1300.16 650.46 1296.83 672.129 1290.26 692.91C1289.66 694.79 1289.04 696.658 1288.4 698.515C1287.08 702.345 1285.63 706.13 1284.09 709.85C1268.02 748.833 1240.73 782.164 1205.69 805.612C1170.65 829.06 1129.43 841.569 1087.26 841.55C969.69 841.55 874.375 746.235 874.375 628.665C874.375 511.095 969.69 415.78 1087.26 415.78C1115.22 415.765 1142.91 421.261 1168.75 431.954C1194.58 442.647 1218.05 458.328 1237.83 478.099C1257.6 497.87 1273.28 521.344 1283.97 547.18C1294.66 573.015 1300.16 600.704 1300.15 628.665Z" fill="#93DFFF"/>
<g style="mix-blend-mode:color-dodge">
<path d="M1121.04 784.025C1109.58 784.023 1098.41 780.437 1089.08 773.769C1079.76 767.1 1072.75 757.683 1069.04 746.835C1056.92 711.23 1076.04 672.405 1111.63 660.285C1155.95 645.2 1199.4 668.98 1214.48 713.285C1214.59 713.477 1214.64 713.688 1214.66 713.905C1214.67 714.121 1214.63 714.338 1214.55 714.539C1214.47 714.741 1214.35 714.922 1214.19 715.072C1214.03 715.221 1213.85 715.335 1213.64 715.404C1213.44 715.474 1213.22 715.499 1213 715.476C1212.79 715.454 1212.58 715.385 1212.39 715.274C1212.21 715.164 1212.05 715.014 1211.92 714.835C1211.8 714.657 1211.72 714.454 1211.68 714.24C1197.13 671.48 1155.37 648.53 1112.61 663.095C1104.5 665.855 1097.01 670.187 1090.57 675.841C1084.14 681.496 1078.87 688.364 1075.09 696.051C1071.31 703.739 1069.08 712.097 1068.52 720.648C1067.97 729.198 1069.11 737.774 1071.87 745.885C1076.32 758.906 1085.75 769.631 1098.1 775.707C1110.44 781.783 1124.69 782.714 1137.72 778.295C1148.07 774.771 1156.6 767.281 1161.43 757.471C1166.26 747.661 1166.99 736.335 1163.46 725.985C1160.67 717.782 1154.73 711.026 1146.95 707.203C1139.18 703.379 1130.2 702.801 1121.99 705.595C1118.78 706.689 1115.81 708.405 1113.26 710.646C1110.71 712.887 1108.63 715.608 1107.13 718.654C1105.63 721.701 1104.75 725.012 1104.53 728.4C1104.31 731.788 1104.76 735.186 1105.85 738.4C1107.6 743.512 1111.31 747.721 1116.16 750.102C1121.01 752.482 1126.61 752.84 1131.72 751.095C1133.71 750.419 1135.55 749.357 1137.13 747.97C1138.71 746.583 1140 744.897 1140.93 743.011C1141.86 741.124 1142.41 739.072 1142.54 736.974C1142.68 734.875 1142.4 732.77 1141.72 730.78C1141.19 729.224 1140.36 727.788 1139.28 726.553C1138.19 725.318 1136.88 724.309 1135.4 723.583C1133.93 722.858 1132.32 722.43 1130.68 722.325C1129.04 722.22 1127.4 722.439 1125.84 722.97C1123.4 723.799 1121.39 725.563 1120.25 727.875C1119.11 730.187 1118.93 732.858 1119.76 735.3C1120.08 736.231 1120.57 737.09 1121.22 737.828C1121.87 738.567 1122.66 739.17 1123.54 739.603C1124.42 740.037 1125.38 740.292 1126.37 740.354C1127.35 740.416 1128.33 740.284 1129.26 739.965C1130.69 739.479 1131.86 738.447 1132.53 737.095C1133.19 735.743 1133.29 734.182 1132.81 732.755C1132.45 731.687 1131.67 730.807 1130.66 730.308C1129.65 729.81 1128.48 729.733 1127.41 730.095C1127.03 730.226 1126.67 730.432 1126.37 730.701C1126.06 730.97 1125.81 731.297 1125.63 731.663C1125.45 732.029 1125.34 732.427 1125.32 732.834C1125.29 733.241 1125.34 733.649 1125.47 734.035C1125.54 734.387 1125.47 734.749 1125.29 735.056C1125.1 735.363 1124.82 735.595 1124.48 735.71C1124.14 735.826 1123.77 735.816 1123.44 735.684C1123.11 735.552 1122.84 735.306 1122.67 734.99C1122.15 733.466 1122.26 731.799 1122.97 730.355C1123.68 728.911 1124.94 727.809 1126.46 727.29C1127.36 726.985 1128.3 726.859 1129.25 726.92C1130.19 726.981 1131.12 727.227 1131.97 727.645C1132.82 728.063 1133.58 728.644 1134.2 729.355C1134.83 730.066 1135.3 730.894 1135.61 731.79C1136.35 733.96 1136.19 736.334 1135.18 738.39C1134.17 740.447 1132.38 742.018 1130.21 742.76C1127.6 743.653 1124.73 743.469 1122.25 742.251C1119.76 741.032 1117.86 738.878 1116.96 736.26C1115.89 733.076 1116.12 729.594 1117.6 726.578C1119.08 723.562 1121.7 721.258 1124.88 720.17C1126.81 719.515 1128.84 719.245 1130.87 719.376C1132.9 719.507 1134.88 720.037 1136.71 720.934C1138.53 721.832 1140.16 723.08 1141.5 724.607C1142.84 726.134 1143.87 727.911 1144.52 729.835C1145.32 732.194 1145.65 734.687 1145.49 737.174C1145.33 739.66 1144.68 742.091 1143.58 744.326C1142.48 746.562 1140.95 748.559 1139.08 750.203C1137.21 751.848 1135.03 753.107 1132.67 753.91C1129.77 754.899 1126.7 755.307 1123.64 755.109C1120.58 754.912 1117.59 754.114 1114.84 752.761C1112.09 751.407 1109.63 749.525 1107.61 747.221C1105.58 744.918 1104.03 742.238 1103.04 739.335C1101.83 735.752 1101.32 731.964 1101.57 728.188C1101.81 724.411 1102.8 720.719 1104.47 717.324C1106.14 713.928 1108.47 710.896 1111.31 708.398C1114.15 705.901 1117.46 703.989 1121.04 702.77C1129.99 699.727 1139.78 700.362 1148.26 704.535C1156.74 708.709 1163.21 716.079 1166.26 725.025C1168.13 730.518 1168.9 736.325 1168.53 742.115C1168.16 747.906 1166.65 753.566 1164.08 758.773C1161.52 763.98 1157.96 768.631 1153.6 772.461C1149.24 776.291 1144.17 779.225 1138.68 781.095C1133 783.034 1127.04 784.024 1121.04 784.025Z" fill="#1A1A1A"/>
</g>
<g style="mix-blend-mode:color-burn">
<g style="mix-blend-mode:color-burn">
<path d="M1107.67 585.405C1107.2 576.7 1103.43 568.46 1102.7 559.775C1101.92 550.55 1104.44 540.465 1099.7 532.515C1094.7 524.13 1083.8 521.76 1075.93 515.985C1068.59 510.605 1064.02 502.34 1058.08 495.45C1047.9 483.65 1032.92 473.7 1017.2 477.26C1000.15 481.125 984.775 484.7 969.965 494.655C961.902 500.051 954.661 506.584 948.465 514.05C943.13 520.505 938.53 527.765 936.465 535.88C934.4 543.995 935.09 553.065 939.67 560.075C945.715 569.325 957.125 573.445 964.925 581.275C971.059 587.48 974.701 595.722 975.16 604.435C975.61 613.7 972.425 622.69 970.185 631.69C967.895 640.924 966.58 650.372 966.26 659.88C966.14 663.475 966.175 667.17 967.445 670.535C969.515 676.035 974.525 679.855 977.255 685.035C981.755 693.58 979.36 703.935 980.005 713.575C980.28 717.695 981.185 721.885 983.505 725.315C989.94 734.915 1004.96 734.71 1014.55 728.25C1024.13 721.79 1029.76 711.095 1035.73 701.22C1045.88 684.455 1058.96 668.115 1077.33 661.29C1084.95 658.46 1093.61 657.155 1099.37 651.42C1104.59 646.225 1106.25 638.42 1106.3 631.04C1106.35 623.66 1105.04 616.33 1105.4 608.975C1105.79 601.095 1108.09 593.295 1107.67 585.405Z" fill="#CCCCCC"/>
</g>
<g style="mix-blend-mode:color-burn">
<path d="M1300.15 628.665C1300.16 650.46 1296.83 672.128 1290.26 692.91C1289.66 694.79 1289.04 696.658 1288.4 698.515C1282.11 695.345 1276.34 680.515 1274.61 673.33C1273.14 667.195 1272.72 660.755 1270.27 654.945C1264.87 642.12 1251.61 639.11 1242.56 653.205C1239.45 658.055 1237.4 663.585 1233.76 668.065C1231.05 671.405 1225.5 673.895 1222.83 670.525C1221.37 668.68 1221.71 666.025 1221.96 663.705C1224.78 638.27 1208.15 618.49 1200.74 615.385C1197.06 613.84 1196.09 614.235 1162.71 614.69C1149.75 614.875 1134.17 613.615 1128 602.19C1125 596.625 1126.6 589.365 1123.68 579.975C1120.41 569.475 1114.77 563.895 1114.24 552.72C1113.92 545.87 1119.95 529.78 1118.32 524.62C1112.82 507.26 1091.02 510.62 1086.97 493.265C1084.97 484.645 1082.93 473.37 1074.38 469.005C1052.49 457.86 1040.62 465.645 1030.69 465.755C1025.98 465.805 1020.87 464.09 1018.51 460.02C1017.51 458.315 1017.12 456.085 1018.16 454.425C1018.82 453.35 1019.97 452.69 1021.08 452.105C1027.65 448.715 1035.17 446.92 1040.71 442.055C1044.21 439.01 1049.05 431.09 1068.08 436.845C1075.74 439.165 1083.63 442.395 1091.48 440.845C1094.87 440.18 1098.02 438.655 1101.32 437.59C1114 433.485 1127.48 436.415 1140.49 436.205C1146.4 436.105 1152.12 434.245 1157.93 434.46C1160.3 434.55 1162.67 434.625 1165.03 434.74C1212.16 452.501 1251.5 486.347 1276.1 530.3C1291.95 560.664 1300.2 594.415 1300.15 628.665Z" fill="#CCCCCC"/>
</g>
<g style="mix-blend-mode:color-burn">
<path d="M1093.92 682.22C1089.55 682.99 1088.86 688.495 1086.71 691.545C1083.91 695.545 1079.15 697.545 1074.83 699.3C1069.46 701.52 1063.46 704.635 1062.15 710.385C1061.41 713.64 1062.28 717.46 1060.23 720.075C1059.47 721.05 1058.38 721.725 1057.7 722.76C1057.09 723.832 1056.75 725.031 1056.7 726.26C1056.48 728.26 1056.46 730.49 1057.7 732.035C1058.94 733.58 1061.17 733.97 1063.08 733.535C1064.99 733.1 1066.64 731.935 1068.22 730.765C1072.5 727.585 1076.59 724.07 1081.31 721.6C1083.81 720.3 1086.43 719.295 1088.74 717.715C1093 714.805 1095.86 710.12 1097.48 705.17C1099.1 700.22 1099.6 694.97 1099.98 689.77C1100.15 688.472 1100.08 687.153 1099.78 685.88C1099.38 684.681 1098.58 683.657 1097.51 682.989C1096.44 682.32 1095.17 682.048 1093.92 682.22Z" fill="#CCCCCC"/>
</g>
</g>
<path d="M945.52 508.595C940.185 515.05 935.585 522.315 933.52 530.425C931.455 538.535 932.14 547.61 936.725 554.62C942.77 563.87 954.175 567.995 961.975 575.82C968.11 582.025 971.754 590.266 972.215 598.98C972.665 608.245 969.48 617.235 967.24 626.235C964.944 635.468 963.626 644.916 963.305 654.425C963.185 658.02 963.22 661.715 964.49 665.08C966.555 670.58 971.57 674.4 974.3 679.58C978.8 688.125 976.4 698.485 977.05 708.12C977.325 712.24 978.23 716.43 980.525 719.86C986.96 729.46 1001.98 729.26 1011.56 722.795C1021.14 716.33 1026.8 705.65 1032.79 695.76C1042.93 678.995 1056.01 662.655 1074.38 655.83C1082 653 1090.66 651.7 1096.42 645.965C1101.64 640.765 1103.3 632.965 1103.36 625.58C1103.41 618.195 1102.1 610.875 1102.46 603.515C1102.84 595.62 1105.15 587.835 1104.72 579.945C1104.25 571.245 1100.48 563 1099.75 554.32C1098.98 545.09 1101.49 535.005 1096.75 527.055C1091.75 518.67 1080.85 516.3 1072.98 510.525C1065.64 505.145 1061.07 496.885 1055.13 489.99C1044.95 478.19 1029.97 468.24 1014.25 471.8C997.2 475.665 981.83 479.24 967.02 489.195C958.957 494.593 951.715 501.127 945.52 508.595Z" fill="#8CC63F"/>
<path d="M1300.15 628.665C1300.16 650.46 1296.83 672.128 1290.26 692.91C1282.34 697.88 1273.83 676.875 1271.67 667.875C1270.2 661.74 1269.77 655.3 1267.32 649.49C1261.92 636.665 1248.67 633.655 1239.62 647.75C1236.5 652.6 1234.45 658.135 1230.81 662.61C1228.1 665.95 1222.56 668.44 1219.88 665.07C1218.42 663.225 1218.76 660.57 1219.02 658.25C1221.83 632.815 1205.21 613.035 1197.79 609.93C1194.12 608.39 1193.14 608.78 1159.76 609.24C1146.8 609.42 1131.22 608.16 1125.05 596.74C1122.05 591.175 1123.65 583.915 1120.73 574.52C1117.46 564.02 1111.82 558.44 1111.29 547.27C1110.97 540.42 1117.01 524.33 1115.38 519.175C1109.88 501.815 1088.07 505.175 1084.02 487.82C1082.02 479.2 1079.99 467.92 1071.43 463.56C1049.54 452.41 1037.68 460.195 1027.75 460.3C1023.04 460.35 1017.92 458.64 1015.56 454.57C1014.56 452.87 1014.17 450.635 1015.21 448.975C1015.88 447.9 1017.02 447.24 1018.14 446.655C1024.7 443.265 1032.22 441.475 1037.77 436.605C1041.27 433.565 1046.1 425.645 1065.14 431.4C1072.8 433.715 1080.68 436.945 1088.53 435.4C1091.92 434.735 1095.08 433.21 1098.37 432.145C1111.05 428.045 1124.53 430.975 1137.54 430.76C1143.45 430.66 1149.17 428.8 1154.98 429.015C1157.36 429.105 1159.72 429.18 1162.09 429.295C1242.76 459.595 1300.15 537.425 1300.15 628.665Z" fill="#8CC63F"/>
<path d="M1073.06 695.33C1067.68 697.55 1061.69 700.665 1060.38 706.415C1059.63 709.67 1060.5 713.485 1058.46 716.105C1057.7 717.075 1056.6 717.755 1055.92 718.785C1055.32 719.857 1054.97 721.056 1054.92 722.285C1054.7 724.285 1054.68 726.51 1055.94 728.06C1057.21 729.61 1059.42 729.99 1061.32 729.56C1063.23 729.13 1064.89 727.96 1066.47 726.785C1070.76 723.595 1074.83 720.095 1079.54 717.62C1082.04 716.32 1084.67 715.315 1086.98 713.735C1091.25 710.825 1094.1 706.14 1095.72 701.19C1097.34 696.24 1097.84 690.99 1098.22 685.785C1098.4 684.488 1098.33 683.171 1098.02 681.9C1097.63 680.7 1096.82 679.678 1095.75 679.011C1094.68 678.343 1093.41 678.074 1092.15 678.25C1087.78 679.02 1087.1 684.525 1084.95 687.57C1082.14 691.55 1077.37 693.55 1073.06 695.33Z" fill="#61A323"/>
<path d="M1248.71 767.42C1231.65 787.266 1211.09 803.809 1188.05 816.225C1186.96 808.1 1188.8 808.43 1195.27 799.76C1196.81 797.71 1197.22 795.07 1198 792.625C1199.42 788.215 1202.12 784.345 1204.78 780.56C1205.61 779.256 1206.62 778.077 1207.78 777.06C1209.2 775.93 1210.95 775.305 1212.58 774.51C1217.33 772.2 1220.67 767.62 1225.39 765.25C1235.09 760.375 1242.51 763.5 1248.71 767.42Z" fill="#61A323"/>
<g style="mix-blend-mode:color-burn">
<path d="M1220.94 725.5C1220.94 734.71 1213.36 741.59 1205.09 743.445C1173.84 750.445 1137.71 747.395 1117.19 742.56C1105.42 739.79 1099.01 727.885 1107 718.945C1109.29 716.381 1112.43 714.739 1115.85 714.324C1119.26 713.909 1122.71 714.75 1125.55 716.69C1124.68 713.315 1124.95 709.747 1126.31 706.541C1127.68 703.334 1130.06 700.668 1133.1 698.958C1136.14 697.247 1139.65 696.588 1143.11 697.082C1146.56 697.576 1149.75 699.196 1152.18 701.69C1152.64 698.489 1153.73 695.41 1155.37 692.628C1157.02 689.847 1159.21 687.418 1161.79 685.479C1164.38 683.541 1167.33 682.131 1170.46 681.331C1173.59 680.531 1176.85 680.355 1180.06 680.815C1183.26 681.275 1186.34 682.36 1189.12 684.01C1191.9 685.659 1194.33 687.841 1196.27 690.429C1198.2 693.018 1199.61 695.962 1200.41 699.096C1201.21 702.229 1201.39 705.489 1200.93 708.69C1203.38 708.26 1205.9 708.372 1208.3 709.019C1210.71 709.666 1212.94 710.831 1214.85 712.433C1216.76 714.035 1218.29 716.035 1219.34 718.292C1220.39 720.55 1220.94 723.01 1220.94 725.5Z" fill="#CCCCCC"/>
</g>
<g style="mix-blend-mode:color-burn">
<path d="M933.975 623.66C933.975 629.31 938.625 633.535 943.7 634.66C962.875 638.955 985.05 637.085 997.65 634.12C1004.87 632.42 1008.81 625.12 1003.9 619.62C1002.49 618.048 1000.56 617.041 998.468 616.786C996.374 616.531 994.258 617.046 992.515 618.235C993.048 616.164 992.883 613.975 992.044 612.008C991.206 610.041 989.741 608.405 987.878 607.355C986.015 606.305 983.858 605.9 981.741 606.202C979.624 606.504 977.665 607.496 976.17 609.025C975.932 607.022 975.296 605.087 974.299 603.334C973.301 601.581 971.963 600.045 970.363 598.817C968.763 597.589 966.933 596.693 964.982 596.183C963.03 595.673 960.996 595.559 959 595.848C957.004 596.136 955.085 596.821 953.358 597.862C951.63 598.904 950.129 600.28 948.941 601.911C947.754 603.541 946.905 605.393 946.445 607.357C945.984 609.321 945.921 611.357 946.26 613.345C944.754 613.08 943.209 613.148 941.732 613.544C940.255 613.94 938.883 614.655 937.713 615.638C936.542 616.621 935.6 617.849 934.955 619.235C934.309 620.621 933.975 622.131 933.975 623.66Z" fill="#CCCCCC"/>
</g>
<g style="mix-blend-mode:color-burn">
<path d="M1185.79 526.46C1185.79 534.535 1179.15 540.57 1171.89 542.195C1144.48 548.33 1112.79 545.66 1094.79 541.42C1084.46 538.99 1078.84 528.545 1085.85 520.705C1087.86 518.453 1090.62 517.009 1093.61 516.641C1096.61 516.273 1099.63 517.006 1102.13 518.705C1101.36 515.745 1101.59 512.613 1102.79 509.799C1103.98 506.984 1106.08 504.644 1108.74 503.142C1111.4 501.641 1114.49 501.061 1117.52 501.495C1120.55 501.929 1123.34 503.351 1125.48 505.54C1125.89 502.731 1126.84 500.029 1128.29 497.59C1129.74 495.15 1131.66 493.019 1133.93 491.32C1136.2 489.621 1138.79 488.386 1141.54 487.686C1144.29 486.986 1147.15 486.834 1149.96 487.24C1152.77 487.646 1155.47 488.601 1157.91 490.051C1160.35 491.501 1162.48 493.417 1164.18 495.69C1165.88 497.963 1167.11 500.549 1167.81 503.299C1168.51 506.05 1168.67 508.911 1168.26 511.72C1170.41 511.346 1172.62 511.447 1174.72 512.015C1176.83 512.583 1178.79 513.605 1180.46 515.01C1182.13 516.414 1183.47 518.166 1184.39 520.144C1185.31 522.122 1185.79 524.278 1185.79 526.46Z" fill="#CCCCCC"/>
</g>
<path d="M1217.63 721.905C1217.63 731.115 1210.05 737.995 1201.78 739.845C1170.54 746.845 1134.41 743.8 1113.88 738.965C1102.11 736.19 1095.7 724.285 1103.69 715.345C1105.98 712.779 1109.13 711.136 1112.55 710.722C1115.97 710.308 1119.42 711.151 1122.26 713.095C1121.39 709.72 1121.66 706.152 1123.02 702.946C1124.39 699.739 1126.77 697.073 1129.81 695.363C1132.85 693.652 1136.36 692.993 1139.82 693.487C1143.27 693.981 1146.46 695.601 1148.89 698.095C1149.35 694.894 1150.44 691.815 1152.08 689.033C1153.73 686.252 1155.92 683.823 1158.5 681.884C1161.09 679.946 1164.04 678.536 1167.17 677.736C1170.3 676.936 1173.56 676.76 1176.77 677.22C1179.97 677.68 1183.05 678.765 1185.83 680.415C1188.61 682.064 1191.04 684.246 1192.98 686.834C1194.91 689.423 1196.32 692.367 1197.12 695.501C1197.92 698.634 1198.1 701.894 1197.64 705.095C1200.09 704.668 1202.61 704.783 1205.01 705.431C1207.41 706.079 1209.64 707.245 1211.55 708.847C1213.45 710.448 1214.98 712.447 1216.03 714.703C1217.09 716.958 1217.63 719.417 1217.63 721.905Z" fill="#CCFFFF"/>
<path d="M931.26 620.695C931.26 626.345 935.91 630.565 940.99 631.695C960.165 635.985 982.34 634.12 994.935 631.155C1002.16 629.45 1006.1 622.155 1001.19 616.655C999.783 615.082 997.851 614.074 995.756 613.819C993.66 613.564 991.543 614.08 989.8 615.27C990.329 613.199 990.16 611.011 989.319 609.046C988.477 607.081 987.01 605.448 985.146 604.402C983.281 603.356 981.124 602.955 979.008 603.261C976.892 603.567 974.937 604.564 973.445 606.095C973.182 604.113 972.529 602.203 971.523 600.476C970.517 598.748 969.179 597.237 967.585 596.03C965.991 594.824 964.174 593.945 962.238 593.445C960.303 592.946 958.287 592.835 956.308 593.12C954.33 593.405 952.427 594.079 950.711 595.104C948.994 596.129 947.499 597.484 946.31 599.092C945.121 600.699 944.262 602.526 943.784 604.467C943.306 606.408 943.218 608.425 943.525 610.4C942.023 610.144 940.483 610.218 939.013 610.616C937.542 611.015 936.176 611.729 935.009 612.708C933.842 613.688 932.902 614.91 932.255 616.289C931.608 617.668 931.268 619.171 931.26 620.695Z" fill="#CCFFFF"/>
<path d="M1181.89 522.22C1181.89 530.3 1175.25 536.33 1167.99 537.955C1140.59 544.09 1108.89 541.425 1090.89 537.185C1080.57 534.75 1074.94 524.31 1081.95 516.465C1083.96 514.218 1086.72 512.779 1089.72 512.416C1092.71 512.052 1095.73 512.79 1098.23 514.49C1097.46 511.53 1097.7 508.399 1098.89 505.586C1100.09 502.773 1102.18 500.434 1104.85 498.932C1107.51 497.431 1110.6 496.852 1113.62 497.285C1116.65 497.717 1119.45 499.138 1121.59 501.325C1122.4 495.655 1125.44 490.541 1130.02 487.108C1132.29 485.409 1134.88 484.173 1137.63 483.472C1140.38 482.771 1143.23 482.618 1146.04 483.022C1148.85 483.427 1151.55 484.38 1153.99 485.828C1156.43 487.275 1158.56 489.19 1160.26 491.461C1161.96 493.732 1163.19 496.315 1163.9 499.064C1164.6 501.813 1164.75 504.672 1164.35 507.48C1166.5 507.104 1168.7 507.202 1170.81 507.769C1172.92 508.337 1174.88 509.358 1176.55 510.763C1178.22 512.167 1179.57 513.921 1180.49 515.9C1181.41 517.879 1181.89 520.036 1181.89 522.22Z" fill="#CCFFFF"/>
<g style="mix-blend-mode:color-burn">
<path d="M1259.4 753.94C1256.02 758.58 1252.45 763.08 1248.71 767.44C1228.74 790.713 1203.97 809.388 1176.1 822.181C1148.23 834.974 1117.92 841.582 1087.26 841.55C969.69 841.55 874.375 746.235 874.375 628.665C874.375 557.915 908.875 495.23 961.99 456.52C935.452 492.889 921.186 536.764 921.26 581.785C921.26 699.355 1016.58 794.67 1134.15 794.67C1179.16 794.736 1223.03 780.471 1259.4 753.94H1259.4Z" fill="#C4C4C4"/>
</g>
<g style="mix-blend-mode:color-dodge">
<path d="M1300.15 628.665C1300.16 650.46 1296.83 672.128 1290.26 692.91C1288.44 698.663 1286.38 704.31 1284.09 709.85C1272.81 737.182 1255.96 761.867 1234.62 782.336C1213.28 802.805 1187.91 818.609 1160.14 828.745C1176.06 818.038 1190.47 805.238 1202.98 790.69C1217.77 773.509 1229.72 754.076 1238.38 733.125C1240.67 727.595 1242.73 721.947 1244.55 716.18C1251.11 695.398 1254.44 673.732 1254.42 651.94C1254.42 560.695 1197.03 482.875 1116.38 452.585C1068.79 434.798 1016.42 434.541 968.665 451.86C996.801 433.012 1029.02 421.136 1062.66 417.215C1096.3 413.293 1130.38 417.439 1162.1 429.31C1242.76 459.595 1300.15 537.43 1300.15 628.665Z" fill="#1A1A1A"/>
</g>
<g style="mix-blend-mode:color-burn">
<path d="M985.26 569.095C980.875 559.595 977.015 557.67 971.875 548.65C969.06 543.73 967.14 536.715 967.635 524.99C975.195 530.725 977.59 534.625 979.725 543.265C980.75 547.39 986.935 552.07 988.695 555.2C989.435 553.44 990.645 551.945 992.43 550.24C983.72 534.04 980.83 519.705 986.875 506.05C988.02 526.98 998.085 523.2 996.645 546.55C997.77 545.595 999.015 544.55 1000.39 543.345C1000.43 524.46 1008.93 525.17 1015.22 511.15C1018.7 560.68 993.72 558 985.26 569.095Z" fill="#CCCCCC"/>
</g>
<path d="M992.675 544.305C991.21 545.52 989.825 546.7 988.585 547.915C979.785 531.625 976.845 517.22 982.92 503.51C984.07 524.54 994.22 520.62 992.675 544.305Z" fill="#008503"/>
<path d="M985.26 569.095C980.965 559.735 973.06 555.095 967.925 546.095C965.12 541.175 963.19 534.16 963.685 522.44C965.76 535.095 971.325 540.425 976.35 544.595C979.69 547.37 983.475 549.805 985.115 553.38C984.284 555.385 983.841 557.53 983.81 559.7C983.965 562.873 984.451 566.022 985.26 569.095Z" fill="#008503"/>
<path d="M976.355 544.595C971.325 540.42 965.735 535.095 963.68 522.44C970.46 531.56 974.71 528.82 976.355 544.595Z" fill="#00640A"/>
<path d="M998.845 549.385C988.1 556.175 987.845 562.15 985.255 569.11C985.255 569.11 985.255 569.11 985.255 569.065C980.3 551.305 988.11 548.03 996.46 540.79C1003.76 534.51 1011.36 526.23 1011.26 508.595C1015.87 536.62 1007.64 543.045 998.845 549.385Z" fill="#00640A"/>
<path d="M985.26 569.095C985.95 563.48 986.01 554.82 998.84 549.395C997.205 556.065 987.15 564.15 985.26 569.095Z" fill="#008503"/>
<path d="M996.44 540.785C996.47 521.9 1004.97 522.595 1011.26 508.595C1011.37 526.23 1003.76 534.5 996.44 540.785Z" fill="#008503"/>
<path d="M992.5 569.475H991.455C991.167 568.547 990.676 567.695 990.015 566.982C989.355 566.269 988.543 565.713 987.64 565.355C986.121 564.762 984.434 564.762 982.915 565.355C982.001 565.711 981.178 566.267 980.508 566.984C979.838 567.701 979.338 568.559 979.045 569.495H978C976.633 569.496 975.323 570.04 974.356 571.006C973.39 571.973 972.846 573.283 972.845 574.65H997.655C997.657 573.971 997.525 573.299 997.267 572.672C997.009 572.044 996.63 571.474 996.151 570.993C995.672 570.513 995.103 570.131 994.477 569.871C993.85 569.61 993.178 569.476 992.5 569.475Z" fill="#8C6239"/>
<path d="M1309.44 840.19L1323.94 834.95V794.98L1309.44 800.215V840.19Z" fill="#D8A4BF"/>
<path d="M1309.44 800.215H1238.26V840.19H1309.44V800.215Z" fill="#EEB3CF"/>
<path d="M1323.95 794.98L1309.44 800.215H1238.26L1253.05 794.98H1323.95Z" fill="#CE8AAE"/>
<g style="mix-blend-mode:color-burn">
<path d="M969.495 507.965C969.445 509.898 968.642 511.734 967.257 513.083C965.872 514.432 964.016 515.187 962.082 515.187C960.149 515.187 958.292 514.432 956.908 513.083C955.523 511.734 954.72 509.898 954.67 507.965C954.67 503.87 962.08 493.015 962.08 493.015C962.08 493.015 969.495 503.87 969.495 507.965Z" fill="#CCCCCC"/>
</g>
<path d="M967.76 505.12C967.71 507.053 966.907 508.889 965.522 510.238C964.138 511.587 962.281 512.343 960.348 512.343C958.414 512.343 956.558 511.587 955.173 510.238C953.788 508.889 952.985 507.053 952.935 505.12C952.935 501.025 960.345 490.175 960.345 490.175C960.345 490.175 967.76 501.025 967.76 505.12Z" fill="#99FFFF"/>
<g style="mix-blend-mode:color-burn">
<path d="M1259.12 558.065C1251.66 568.565 1236.93 570.465 1236.56 583.145C1236.39 582.785 1236.22 582.42 1236.06 582.045C1233.56 575.73 1236.38 572.37 1239.12 569.125C1240.79 567.125 1242.38 565.25 1242.38 562.88C1242.41 561.812 1242.08 560.765 1241.46 559.901C1240.83 559.037 1239.93 558.404 1238.91 558.1C1238.09 557.865 1237.22 557.83 1236.38 557.998C1235.53 558.166 1234.75 558.532 1234.07 559.065C1234.05 559.084 1234.03 559.104 1234.01 559.125C1233.05 558.5 1231.69 558.88 1230.97 559.5C1229.57 560.725 1227.94 562.5 1225.18 561.39C1228.06 566.125 1236.26 563.795 1234.9 560.285C1234.94 560.264 1234.98 560.239 1235.02 560.21C1235.5 559.826 1236.07 559.563 1236.67 559.443C1237.27 559.323 1237.9 559.349 1238.49 559.52C1239.21 559.737 1239.83 560.184 1240.26 560.791C1240.7 561.399 1240.92 562.133 1240.89 562.88C1240.89 564.71 1239.54 566.31 1237.98 568.17C1235.3 571.355 1231.98 575.31 1234.54 582.215C1230.35 578.44 1224.3 583.215 1219.68 575.39C1218.92 583.845 1223.25 590.65 1233.97 592.11C1233.47 592.602 1233.18 593.273 1233.17 593.975C1232.79 593.971 1232.41 594.052 1232.06 594.214C1231.72 594.376 1231.41 594.613 1231.17 594.91C1230.92 595.206 1230.75 595.553 1230.66 595.925C1230.57 596.297 1230.56 596.685 1230.64 597.06H1243.48C1243.77 597.053 1244.04 596.964 1244.28 596.804C1244.52 596.643 1244.71 596.418 1244.82 596.155C1244.93 595.892 1244.97 595.602 1244.92 595.32C1244.88 595.037 1244.75 594.773 1244.56 594.56C1244.14 594.172 1243.59 593.962 1243.02 593.975C1243.03 593.272 1242.75 592.596 1242.26 592.095C1241.76 591.604 1241.08 591.33 1240.38 591.33C1240.28 591.325 1240.19 591.325 1240.09 591.33C1246.35 581.095 1265.41 583.095 1259.12 558.065Z" fill="#CCCCCC"/>
</g>
<path d="M1288.43 625.475C1282.61 620.675 1266.55 612.805 1260.93 608.645C1257.36 606.145 1247.06 600.375 1243.5 596.535C1243.5 596.535 1242.12 592.245 1240.95 592.47C1240.22 592.61 1240.54 593.905 1240.88 594.865C1239.03 593.905 1236.62 592.98 1235.6 594.03C1233.88 595.805 1238.92 598.305 1238.92 598.305C1244.68 607.655 1270.96 624.415 1279.99 630.03C1285.46 633.435 1292.76 629.04 1288.43 625.475Z" fill="#FFCCA9"/>
<path d="M1236.8 587.175C1236.67 587.176 1236.54 587.148 1236.43 587.094C1236.31 587.041 1236.21 586.962 1236.13 586.865C1234.64 585.08 1233.45 583.067 1232.6 580.905C1229.3 572.58 1233.27 567.87 1236.45 564.085C1238.27 561.92 1239.85 560.05 1239.85 557.915C1239.87 557.043 1239.62 556.186 1239.11 555.477C1238.6 554.768 1237.87 554.247 1237.04 553.995C1236.35 553.797 1235.62 553.767 1234.91 553.907C1234.21 554.047 1233.55 554.353 1232.99 554.8C1232.81 554.946 1232.58 555.015 1232.36 554.993C1232.13 554.97 1231.92 554.858 1231.77 554.68C1231.62 554.502 1231.55 554.274 1231.58 554.045C1231.6 553.816 1231.71 553.606 1231.89 553.46C1232.67 552.839 1233.59 552.414 1234.57 552.218C1235.56 552.023 1236.57 552.063 1237.53 552.335C1238.72 552.69 1239.77 553.429 1240.5 554.438C1241.23 555.447 1241.61 556.669 1241.58 557.915C1241.58 560.68 1239.73 562.875 1237.77 565.195C1234.59 568.985 1231.27 572.9 1234.21 580.27C1234.99 582.265 1236.08 584.122 1237.46 585.77C1237.6 585.947 1237.67 586.174 1237.65 586.403C1237.63 586.631 1237.52 586.842 1237.35 586.99C1237.19 587.114 1236.99 587.18 1236.8 587.175Z" fill="#00640A"/>
<path d="M1232.44 554.13C1235.63 558.63 1225.08 562.035 1221.52 556.175C1224.73 557.49 1226.63 555.4 1228.28 553.975C1229.29 553.095 1231.38 552.635 1232.44 554.13Z" fill="#FFC445"/>
<path d="M1238.36 592.015C1237.86 591.777 1237.4 591.487 1236.97 591.15C1236.69 590.45 1236.59 588.32 1234.97 585.07C1232.61 567.035 1251.75 565.435 1261.1 552.3C1268.6 582.18 1245.1 579.03 1238.36 592.015Z" fill="#008503"/>
<path d="M1236.97 592.015C1236.76 592.015 1236.55 591.936 1236.39 591.793C1236.23 591.649 1236.13 591.453 1236.11 591.24C1234.77 578.925 1242.79 573.355 1250.55 567.965C1251.29 567.465 1252.05 566.935 1252.78 566.41C1252.96 566.288 1253.19 566.243 1253.41 566.285C1253.63 566.327 1253.82 566.452 1253.95 566.635C1254.08 566.817 1254.14 567.042 1254.1 567.263C1254.07 567.484 1253.95 567.684 1253.78 567.82L1251.54 569.39C1243.85 574.72 1236.6 579.76 1237.83 591.055C1237.85 591.283 1237.79 591.511 1237.64 591.69C1237.5 591.869 1237.29 591.984 1237.07 592.01L1236.97 592.015Z" fill="#00640A"/>
<path d="M1236.59 589.465C1236.1 589.542 1235.64 589.734 1235.24 590.024C1234.84 590.314 1234.52 590.695 1234.29 591.135C1234.18 591.135 1234.08 591.135 1233.96 591.135C1233.14 591.135 1232.35 591.456 1231.77 592.03C1219.27 590.325 1214.22 582.38 1215.11 572.53C1221.34 583.095 1229.81 573.96 1234.57 583.41C1236.2 586.635 1236.31 588.765 1236.59 589.465Z" fill="#008503"/>
<path d="M1235.12 590.975C1235 590.975 1234.88 590.95 1234.77 590.901C1234.66 590.853 1234.57 590.783 1234.49 590.695C1230.53 586.38 1227.37 584.935 1223.26 583.89C1223.15 583.864 1223.04 583.816 1222.95 583.749C1222.85 583.681 1222.77 583.596 1222.71 583.497C1222.65 583.398 1222.61 583.289 1222.6 583.174C1222.58 583.06 1222.58 582.943 1222.61 582.831C1222.64 582.719 1222.69 582.614 1222.76 582.522C1222.83 582.43 1222.92 582.353 1223.02 582.296C1223.12 582.238 1223.23 582.202 1223.35 582.188C1223.46 582.174 1223.58 582.183 1223.69 582.215C1228 583.31 1231.53 584.915 1235.76 589.525C1235.84 589.608 1235.9 589.706 1235.94 589.813C1235.97 589.92 1235.99 590.033 1235.99 590.146C1235.98 590.26 1235.95 590.371 1235.91 590.474C1235.86 590.577 1235.79 590.669 1235.71 590.745C1235.55 590.894 1235.34 590.976 1235.12 590.975Z" fill="#00640A"/>
<path d="M1228.67 596.27C1228.63 596.105 1228.62 595.938 1228.61 595.77C1228.62 595.087 1228.89 594.433 1229.38 593.952C1229.87 593.471 1230.52 593.202 1231.21 593.205C1231.21 592.858 1231.28 592.515 1231.41 592.196C1231.55 591.877 1231.75 591.587 1231.99 591.345C1232.5 590.854 1233.18 590.58 1233.88 590.58H1234.17C1234.3 590.164 1234.56 589.801 1234.91 589.543C1235.27 589.285 1235.69 589.146 1236.13 589.146C1236.56 589.146 1236.99 589.285 1237.34 589.543C1237.7 589.801 1237.96 590.164 1238.09 590.58C1238.18 590.575 1238.28 590.575 1238.38 590.58C1239.08 590.579 1239.75 590.853 1240.26 591.345C1240.5 591.587 1240.7 591.876 1240.84 592.196C1240.97 592.515 1241.05 592.858 1241.05 593.205C1241.62 593.193 1242.17 593.405 1242.59 593.795C1242.78 594.008 1242.9 594.271 1242.95 594.554C1242.99 594.836 1242.96 595.125 1242.85 595.388C1242.73 595.651 1242.55 595.876 1242.31 596.037C1242.07 596.197 1241.8 596.287 1241.51 596.295L1228.67 596.27Z" fill="#8C6239"/>
<path d="M1266.54 630.785C1263.73 627.92 1250.74 621.86 1245.25 617.1C1243.51 613.475 1240.51 604.485 1238.16 598.495C1237.69 597.311 1236.84 596.324 1235.73 595.7C1234.86 595.165 1231.58 592.41 1231 592.965C1230.76 593.2 1231.24 594.105 1231.77 594.965C1230.87 594.965 1229.96 594.965 1229.14 595C1228.4 593.82 1227.88 591.825 1227.47 592.7C1227.22 593.534 1227.25 594.43 1227.57 595.24C1227.92 596.24 1228.61 596.94 1229.11 597.07C1229.27 597.13 1232.52 597.975 1232.68 598.02C1233.87 605.02 1237.73 617.75 1239.43 621.52C1243.75 626.975 1257 638.075 1261.24 639.52C1266.65 641.37 1270.69 635.02 1266.54 630.785Z" fill="#FFCCA9"/>
<path d="M1261.31 784.695L1262.28 791.38H1267.98L1268.58 784.545L1261.31 784.695Z" fill="#FFCFAB"/>
<path d="M1268.08 797.595C1268.68 795.85 1268.85 792.97 1267.98 791.38H1262.26C1258.2 791.44 1250.45 793.435 1250.45 797.595H1268.08Z" fill="#00640A"/>
<path d="M1302.67 777.17L1305.97 782.955L1310.9 780.075L1308.84 773.56L1302.67 777.17Z" fill="#FFCFAB"/>
<path d="M1314.13 785.39C1313.77 783.58 1312.46 781.005 1310.9 780.075L1305.98 782.955C1302.51 785.05 1296.82 790.685 1298.92 794.275L1314.13 785.39Z" fill="#00640A"/>
<path d="M1309.96 775.93L1302.72 779.705C1302.72 779.705 1281.89 748.86 1277.9 738.53C1277.29 736.95 1277.09 736.595 1275.61 719.255C1275.35 716.095 1275.04 712.375 1274.67 707.98C1274.64 707.63 1274.62 707.305 1274.59 707.01C1273.71 696.45 1273.16 681.51 1273.27 671.84L1289.9 677.675C1294.57 697.495 1291.4 716.35 1292.65 734.13C1301.12 747.955 1309.96 775.93 1309.96 775.93Z" fill="#497A1A"/>
<g style="mix-blend-mode:color-burn">
<path d="M1275.61 719.25C1275.35 716.095 1275.04 712.375 1274.67 707.98C1274.64 707.63 1274.62 707.305 1274.59 707.01L1278.48 697.965C1278.6 705.55 1277.43 713.79 1275.61 719.25Z" fill="#CCCCCC"/>
</g>
<path d="M1260.43 787.485C1257.18 770.985 1254.9 744.175 1254.9 735.16C1254.9 721.89 1255.3 700.16 1256.69 688.445C1257.49 681.66 1259.24 678.055 1261.27 674.445L1279 675.065C1279.58 681.32 1279.63 691.925 1278.5 697.955C1277.04 705.55 1270.81 732.99 1270.66 739.315C1270.13 762.775 1270.81 768.15 1269.76 787.475L1260.43 787.485Z" fill="#497A1A"/>
<path d="M1288.46 664.38C1290.96 649.8 1294.85 637.975 1289.53 628.66C1289.53 628.66 1289.53 628.66 1289.53 628.62C1288.56 626.08 1285.3 623.3 1281.47 620.775C1274.42 616.12 1265.69 611.485 1265.69 611.485C1263.58 612.575 1261.25 615.82 1260.29 617.355C1261.49 618.76 1265.71 622.25 1270.04 625.14C1269.8 625.563 1269.51 625.96 1269.19 626.325C1269.05 626.46 1262.84 627.24 1262.19 626.96C1257.74 625.04 1251.69 621.16 1250.58 620.71C1250.58 620.71 1245.88 623.055 1244.2 626.71C1248.03 631.75 1257.45 637.075 1260.31 641.265C1260.46 646.855 1262.39 655.36 1262.64 661.99C1262.9 668.815 1257.49 678.25 1256.58 689.755C1262.66 691.645 1282.11 693.055 1291.98 689.995C1290.93 677.485 1287.3 671.155 1288.46 664.38Z" fill="#FFC445"/>
<path d="M1287.17 625.45C1287.17 625.45 1285.41 630.39 1278.74 630.39C1272.07 630.39 1269.18 626.325 1269.18 626.325C1269.5 625.96 1269.79 625.563 1270.03 625.14C1271.58 622.415 1271.43 618.845 1271.43 618.845C1267.17 618.845 1265.4 615.665 1264.63 612.81C1264.28 611.441 1264.08 610.043 1264 608.635C1263.86 607.04 1263.17 595.365 1272.47 595.87C1281.77 596.375 1280.64 604.595 1279.84 613.595C1279.55 616.107 1280.12 618.642 1281.46 620.79C1282.84 622.885 1284.83 624.51 1287.17 625.45Z" fill="#FFCCA9"/>
<path d="M1291.42 630.39C1289.81 633.175 1271.63 633.155 1269.79 631.125C1266.97 628.005 1272.1 612.335 1271.15 607.845C1267.87 607.845 1264.03 606.015 1263.4 603.475C1262.57 600.13 1265.12 596.775 1267.56 595.1C1269.76 593.6 1272.45 593.06 1275.14 592.935C1293.73 592.06 1293.52 626.745 1291.42 630.39Z" fill="#603813"/>
<g style="mix-blend-mode:color-burn">
<path d="M1055.42 639.505C1055.26 638.73 1054.06 635.315 1054.06 635.315C1053.96 635.073 1053.8 634.859 1053.59 634.693C1053.39 634.527 1053.14 634.412 1052.88 634.36L1030.19 624.86C1030.01 624.751 1029.81 624.678 1029.6 624.645C1029.28 624.6 1028.96 624.65 1028.67 624.788C1028.38 624.926 1028.14 625.147 1027.98 625.422C1027.81 625.697 1027.73 626.014 1027.75 626.334C1027.76 626.654 1027.87 626.962 1028.06 627.22L1031.9 632.36L1032.54 638.93C1032.54 638.977 1032.54 639.023 1032.54 639.07L1012.29 665.52C1012.06 665.797 1011.89 666.118 1011.78 666.464C1011.68 666.809 1011.64 667.173 1011.68 667.531C1011.72 667.89 1011.83 668.238 1012.01 668.553C1012.18 668.869 1012.42 669.145 1012.7 669.367C1012.99 669.589 1013.32 669.751 1013.67 669.843C1014.01 669.936 1014.38 669.957 1014.74 669.906C1015.09 669.855 1015.44 669.733 1015.75 669.546C1016.05 669.359 1016.32 669.113 1016.53 668.82L1038.98 639.5C1038.98 639.945 1038.98 640.345 1038.98 640.65C1038.96 640.897 1038.99 641.145 1039.06 641.382C1039.14 641.618 1039.26 641.837 1039.42 642.025C1039.59 642.2 1039.81 642.32 1040.05 642.37C1040.29 642.419 1040.54 642.396 1040.76 642.303C1040.99 642.209 1041.18 642.051 1041.31 641.847C1041.45 641.643 1041.52 641.404 1041.51 641.16C1041.51 638.705 1041.56 637.125 1041.58 636.09L1043.28 633.865L1043.68 634.035C1045.12 636.76 1045.56 637.37 1045.57 638.27V643.595C1045.54 643.821 1045.56 644.051 1045.65 644.262C1045.74 644.473 1045.88 644.656 1046.07 644.79C1046.25 644.925 1046.47 645.007 1046.69 645.026C1046.92 645.045 1047.15 645.002 1047.35 644.9C1047.59 644.762 1047.78 644.564 1047.91 644.326C1048.04 644.089 1048.1 643.82 1048.09 643.55C1048.52 636.335 1048.56 637.05 1048.31 636.43C1048.24 636.24 1048.17 636.07 1048.1 635.89L1051.3 637.23L1052.49 640.025L1052.26 646.595C1052.23 646.915 1052.34 647.233 1052.54 647.477C1052.75 647.722 1053.05 647.874 1053.37 647.9C1053.69 647.926 1054.01 647.823 1054.25 647.615C1054.5 647.407 1054.65 647.11 1054.67 646.79L1055.06 643.36C1055.18 642.36 1055.26 641.625 1055.33 641.11C1055.44 640.582 1055.47 640.042 1055.42 639.505ZM1034.73 631.75C1034.72 631.485 1034.63 631.229 1034.48 631.01L1033.7 629.84L1036.05 630.84C1036.59 631.695 1037.01 632.34 1037.34 632.84C1036.69 633.7 1035.84 634.8 1034.87 636.07L1034.73 631.75Z" fill="#CCCCCC"/>
</g>
<path d="M1014.39 654.89C1011.72 656.955 1003.23 662.39 994.685 667.335C982.685 674.31 968.53 681.985 965.025 684.875C960.44 688.66 968.395 694.48 974.2 690.875C979.87 687.375 990.005 681.505 999.7 675.11C1006.57 670.575 1016.99 658.895 1016.99 658.895C1021.18 654.895 1024.16 652 1022.28 650.17C1021.09 649.01 1016.43 651.395 1014.39 654.89Z" fill="#FFC499"/>
<path d="M1019.67 657.425C1018.26 664.14 1013.76 673.66 1011.84 677.51C1005.75 682.555 987.45 689.395 984.345 692.435C979.735 696.935 985.425 705.255 991.425 703.285C996.14 701.735 1014.66 690.4 1018.13 685.285C1020.6 681.625 1024.31 664.98 1025.63 657.56C1027.94 652.56 1026.54 648.655 1024.54 648.66C1022.55 648.665 1020.84 651.92 1019.67 657.425Z" fill="#FFCFAB"/>
<path d="M956.465 843.215L953.795 849.29L948.28 847.825L949.21 841.175L956.465 843.215Z" fill="#FFCFAB"/>
<path d="M946.585 853.81C946.45 851.97 947.03 849.14 948.28 847.81L953.78 849.275C957.68 850.375 964.67 854.275 963.605 858.315L946.585 853.81Z" fill="#00640A"/>
<path d="M993.71 846.115L992.5 852.11H986.795L986.405 846.115H993.71Z" fill="#FFCFAB"/>
<path d="M986.695 858.33C986.09 856.585 985.925 853.7 986.795 852.11H992.5C996.555 852.175 1004.32 854.17 1004.32 858.33H986.695Z" fill="#00640A"/>
<path d="M980.11 756.805C979.795 769.36 978.045 789.73 974.71 801.805C974.71 801.805 967.33 821.305 956.91 844.95L948.12 842.45C948.12 842.45 953.93 817.95 959.475 797.87C960.785 785.34 957.43 761.545 960.975 746.275L976.2 742.62L976.895 742.455L980.24 741.65C980.24 741.65 980.33 748.05 980.11 756.805Z" fill="#FFC445"/>
<g style="mix-blend-mode:color-burn">
<path d="M983.05 770.915L978.26 782.065C977.975 785.095 977.215 789.345 976.81 792.095C971.995 775.095 973.81 757.795 973.81 757.795C976.59 740.36 976.12 743.33 976.555 740.6C979.185 754.065 980.885 763.235 983.05 770.915Z" fill="#CCCCCC"/>
</g>
<path d="M994.71 847.39C994.71 847.39 999.42 808.63 999.42 799.35C999.42 777.78 997.895 752.93 993.475 741.68H972.975C971.385 758.87 981.71 795.18 982.365 799.49C982.655 819.705 983.695 827.49 984.775 847.39H994.71Z" fill="#FFC445"/>
<path d="M996.89 685.765C990.96 688.025 987.19 686.04 983.83 686.765C983.83 686.765 985.05 685.455 985.98 684.215C985.335 681.46 983.83 675.9 981.87 674.02C971.26 678.42 964.17 681.195 961.425 686.12C956.26 695.385 962.425 713.925 961.925 730.75C961.8 734.87 960.365 749.335 960.365 749.335C970.365 754.15 987.515 752.11 995.635 749.2C995.635 749.2 989.875 715.34 992.265 706.585C993.34 705.525 999.375 701.085 1002.66 698.275C1001.59 693.815 999.67 687.845 996.89 685.765Z" fill="#497A1A"/>
<path d="M983.83 686.76C979.485 688.005 968.075 686.26 968.075 683.545C968.47 682.165 969.195 680.39 969.19 675.465C969.19 669.52 978.19 670.12 978.19 670.12L980.82 672.35C980.509 674.916 980.414 677.503 980.535 680.085C980.85 685.97 983.83 686.76 983.83 686.76Z" fill="#FFCFAB"/>
<path d="M981.325 677.51C977.665 678.3 972.28 672.795 971.74 666.43C971.2 660.065 973.15 654.6 976.875 654.285C979.675 654.05 982.405 656.83 984.03 660.88C985.475 664.475 988.26 676.005 981.325 677.51Z" fill="#FFCFAB"/>
<path d="M980.605 664.905C980.605 664.905 978.105 663.705 977.105 665.79C976.355 667.29 977.865 669.63 977.865 669.63C977.675 670.86 975.865 674.41 975.525 674.805C974.655 675.75 970.69 676.7 969.025 675.4C967.685 674.34 961.42 664.875 963.615 659.14C966.57 651.4 973.78 652.75 976.675 652.175C978.535 651.81 980.89 650.175 982.495 651.255C984.495 652.575 983.995 656.44 982.59 658.07C981.185 659.7 981.215 663.775 980.605 664.905Z" fill="#603813"/>
<path d="M1054.83 632.24C1054.72 631.969 1054.54 631.731 1054.31 631.547C1054.08 631.362 1053.81 631.236 1053.52 631.18L1028.18 620.595C1027.98 620.473 1027.75 620.393 1027.51 620.36C1027.04 620.294 1026.56 620.416 1026.17 620.7C1025.79 620.988 1025.53 621.417 1025.46 621.892C1025.4 622.367 1025.52 622.85 1025.8 623.235L1030.09 628.975L1030.8 636.31C1030.84 636.654 1031.01 636.968 1031.28 637.189C1031.55 637.41 1031.89 637.521 1032.23 637.498C1032.58 637.476 1032.9 637.322 1033.14 637.069C1033.37 636.815 1033.5 636.481 1033.5 636.135L1033.24 628.285C1033.23 627.99 1033.14 627.705 1032.96 627.465L1032.09 626.155L1034.72 627.255C1037.38 631.455 1037.48 631.36 1037.65 631.995C1037.85 632.765 1038.05 636.605 1038.04 638.23C1038.02 638.506 1038.05 638.785 1038.14 639.049C1038.22 639.312 1038.36 639.556 1038.54 639.765C1038.74 639.959 1038.98 640.092 1039.25 640.147C1039.51 640.202 1039.79 640.175 1040.04 640.072C1040.29 639.968 1040.51 639.792 1040.66 639.565C1040.81 639.338 1040.89 639.072 1040.88 638.8C1040.97 630.75 1041.05 631.105 1040.82 630.655C1040.67 630.35 1040.48 629.97 1040.27 629.575L1043.3 630.84C1044.91 633.885 1045.41 634.565 1045.41 635.57L1045.44 641.52C1045.38 642.815 1046.54 643.455 1047.44 642.98C1047.7 642.826 1047.91 642.605 1048.05 642.342C1048.2 642.078 1048.27 641.78 1048.26 641.48C1048.76 633.425 1048.76 634.24 1048.51 633.53C1048.42 633.32 1048.35 633.125 1048.27 632.93L1051.84 634.43L1053.18 637.555L1052.82 644.855C1052.81 645.207 1052.93 645.553 1053.16 645.819C1053.39 646.085 1053.72 646.249 1054.07 646.278C1054.42 646.307 1054.77 646.197 1055.04 645.972C1055.31 645.748 1055.49 645.426 1055.52 645.075L1055.96 641.245C1056.09 640.105 1056.18 639.305 1056.25 638.745C1056.4 637.525 1056.43 637.245 1056.38 636.98C1056.17 636.055 1054.83 632.24 1054.83 632.24Z" fill="#603813"/>
<path d="M1043.02 628.74C1043.13 628.788 1043.23 628.862 1043.31 628.956C1043.39 629.05 1043.45 629.162 1043.49 629.282C1043.52 629.403 1043.52 629.529 1043.49 629.651C1043.47 629.772 1043.42 629.887 1043.34 629.985L1012.96 669.66C1012.71 669.972 1012.41 670.232 1012.07 670.428C1011.73 670.623 1011.35 670.749 1010.96 670.798C1010.17 670.897 1009.37 670.679 1008.74 670.19C1008.11 669.701 1007.7 668.983 1007.6 668.192C1007.5 667.402 1007.72 666.604 1008.21 665.975L1037.88 627.24C1037.99 627.1 1038.14 626.999 1038.32 626.954C1038.49 626.909 1038.67 626.921 1038.84 626.99L1043.02 628.74Z" fill="#8C6239"/>
<path d="M1018.4 651.955C1018.4 651.955 1021.84 651.7 1021.52 652.875C1021.27 653.765 1018.85 653.875 1016.97 653.57C1016.37 653.47 1018.4 651.955 1018.4 651.955Z" fill="#FFC499"/>
<path d="M1024.99 655.095C1024.99 655.095 1022.46 652.86 1023.05 652.055C1023.46 651.515 1024.52 651.35 1026.49 653.39L1024.99 655.095Z" fill="#FFCCA9"/>
<path d="M940.815 460.34C939.145 461.288 937.229 461.712 935.315 461.555C928.775 461.15 917.41 461.145 913.655 459.015C911.04 457.515 906.27 450.24 904.26 443.015C906.76 436.04 904.905 430.435 904.895 421.235C910.08 423.495 914.395 444.065 918.745 451.335C926.335 453.885 932.505 455.185 936.2 456.085C937.145 456.315 938.275 456.63 938.635 456.76L940.815 460.34Z" fill="#FFCCA9"/>
<path d="M925.76 478.095C925.615 477.194 925.651 476.273 925.865 475.385C926.078 474.498 926.466 473.662 927.005 472.925L937.82 458.04C938.921 456.601 940.541 455.65 942.334 455.389C944.126 455.127 945.95 455.577 947.416 456.642C948.882 457.706 949.874 459.302 950.18 461.088C950.486 462.873 950.083 464.708 949.055 466.2L938.215 481.095C937.505 482.071 936.553 482.844 935.454 483.34C934.354 483.836 933.144 484.037 931.943 483.923C930.742 483.809 929.591 483.384 928.604 482.69C927.618 481.996 926.828 481.057 926.315 479.965C926.043 479.371 925.856 478.741 925.76 478.095ZM946.58 457.795C946.012 457.381 945.369 457.083 944.686 456.918C944.003 456.754 943.294 456.725 942.6 456.835C941.906 456.944 941.241 457.19 940.642 457.557C940.043 457.924 939.522 458.406 939.11 458.975L928.26 473.865C927.847 474.434 927.55 475.078 927.386 475.761C927.222 476.445 927.194 477.154 927.304 477.848C927.527 479.25 928.297 480.506 929.445 481.34C930.593 482.174 932.026 482.518 933.428 482.296C934.83 482.073 936.086 481.303 936.92 480.155L947.76 465.27C948.177 464.7 948.477 464.053 948.641 463.366C948.805 462.679 948.83 461.967 948.715 461.27C948.636 460.772 948.488 460.287 948.275 459.83C947.886 459.018 947.296 458.319 946.56 457.8L946.58 457.795Z" fill="#603813"/>
<path d="M932.38 488.665L945.39 482.705L960.35 483.825L959.85 486.225L932.38 488.665Z" fill="#603813"/>
<path d="M928.606 488.369L923.413 477.274C923.188 476.793 923.164 476.243 923.344 475.745C923.525 475.246 923.897 474.839 924.377 474.615L950.366 462.451L957.255 477.169L931.265 489.332C930.785 489.557 930.235 489.582 929.736 489.401C929.237 489.221 928.831 488.849 928.606 488.369Z" fill="#8C6239"/>
<path d="M941.92 457.245C943.42 458.625 939.145 463.345 936.88 462.635C929.26 460.25 937.66 453.265 941.92 457.245Z" fill="#FFCCA9"/>
<path d="M904.26 474.94C895.16 472.325 885.47 467.335 879.005 460.475C875.18 456.425 863.835 422.04 873.395 418.975C883.12 415.87 887.965 456.255 887.935 456.76C892.185 459.36 898.435 466.845 905.565 469.555C908.065 469.985 919.205 468.945 918.31 474.73C917.71 478.695 908.96 476.285 904.26 474.94Z" fill="#FFCCA9"/>
<path d="M908.435 398.92C903.86 399.225 900.31 397.815 898.535 397.15C896.175 398.65 894.705 401.785 894.705 401.785C894.705 398.655 890.05 398.905 891.8 403.9C890.36 405.22 890.87 408.495 890.635 411.095C888.695 432.155 869.2 439.285 864.755 427.81C863.505 424.585 865.335 421.92 865.9 419.6C866.555 416.905 865.965 411.75 867.605 409.03C869.345 406.145 873.145 404.755 874.105 402.6C875.415 399.6 877.14 397.1 879.995 395.29C884.42 392.475 886.68 386.14 895.62 386.14C902.325 386.14 908.435 390.175 908.435 398.92Z" fill="#603813"/>
</g>
<defs>
<filter id="filter0_d" x="0" y="0" width="1440" height="890.19" filterUnits="userSpaceOnUse" color-interpolation-filters="sRGB">
<feFlood flood-opacity="0" result="BackgroundImageFix"/>
<feColorMatrix in="SourceAlpha" type="matrix" values="0 0 0 0 0 0 0 0 0 0 0 0 0 0 0 0 0 0 127 0"/>
<feOffset dy="4"/>
<feGaussianBlur stdDeviation="2"/>
<feColorMatrix type="matrix" values="0 0 0 0 0 0 0 0 0 0 0 0 0 0 0 0 0 0 0.25 0"/>
<feBlend mode="normal" in2="BackgroundImageFix" result="effect1_dropShadow"/>
<feBlend mode="normal" in="SourceGraphic" in2="effect1_dropShadow" result="shape"/>
</filter>
</defs>
</svg>
