<svg width="1440" height="866" viewBox="0 0 1440 866" fill="none" xmlns="http://www.w3.org/2000/svg">
<g filter="url(#filter0_d)">
<rect x="1010" y="247" width="24" height="23" rx="11.5" fill="#ADE1D1"/>
<rect x="1325" y="203" width="111" height="106" rx="53" fill="#C7EEA9"/>
<rect x="466" y="786" width="65" height="65" rx="32.5" fill="#C7EEA9"/>
<rect x="4" y="660" width="140" height="147" rx="70" fill="#C7EEA9"/>
<rect x="613" y="215" width="65" height="65" rx="32.5" fill="#C7EEA9"/>
<rect x="1251" y="266" width="51" height="49" rx="24.5" fill="#ADE1D1"/>
<rect x="434" y="700" width="51" height="49" rx="24.5" fill="#ADE1D1"/>
<rect x="536" width="164" height="158" rx="79" fill="#ADE1D1"/>
<rect x="1077" y="131" width="107" height="104" rx="50" fill="#E68FB9" fill-opacity="0.68"/>
<rect x="37" y="24" width="107" height="104" rx="50" fill="#ADE1D1"/>
<rect x="316" y="754" width="107" height="104" rx="50" fill="#EEB3CF"/>
<rect x="353" y="79" width="65" height="63" rx="31.5" fill="#EEB3CF"/>
<rect x="1384" y="490" width="41" height="40" rx="20" fill="#E68FB9" fill-opacity="0.68"/>
</g>
<defs>
<filter id="filter0_d" x="0" y="0" width="1440" height="866" filterUnits="userSpaceOnUse" color-interpolation-filters="sRGB">
<feFlood flood-opacity="0" result="BackgroundImageFix"/>
<feColorMatrix in="SourceAlpha" type="matrix" values="0 0 0 0 0 0 0 0 0 0 0 0 0 0 0 0 0 0 127 0"/>
<feOffset dy="4"/>
<feGaussianBlur stdDeviation="2"/>
<feColorMatrix type="matrix" values="0 0 0 0 0 0 0 0 0 0 0 0 0 0 0 0 0 0 0.25 0"/>
<feBlend mode="normal" in2="BackgroundImageFix" result="effect1_dropShadow"/>
<feBlend mode="normal" in="SourceGraphic" in2="effect1_dropShadow" result="shape"/>
</filter>
</defs>
</svg>
