<svg width="292" height="149" viewBox="0 0 292 149" fill="none" xmlns="http://www.w3.org/2000/svg">
<g opacity="0.61" filter="url(#filter0_d)">
<path d="M49.0559 61.5523C25.8198 64.6097 5.82458 84.8495 4.29589 96.223C31.1396 103.989 46.6711 120.07 63.6701 118.542C87.1508 116.402 90.2693 98.9746 88.4349 85.2164C86.6004 71.3359 72.2919 58.4949 49.0559 61.5523Z" fill="#EEB3CF"/>
<path d="M4.23525 96.1619C38.111 102.949 38.967 117.441 63.9764 116.218C90.3921 114.934 88.3742 85.1554 88.3742 85.1554C88.3742 85.1554 64.7101 78.2457 51.1354 78.4291C36.6434 78.6126 19.7667 83.3821 4.23525 96.1619Z" fill="#EEB3CF"/>
<path d="M4.47929 95.9786C14.6909 89.1301 25.0248 84.544 34.9919 82.1593C32.4848 84.2995 27.6542 89.0078 25.6975 93.0436C29.0606 87.6014 34.197 83.9326 37.3766 81.609C42.0239 80.6306 46.4876 80.0803 50.8291 79.8357C47.7106 81.8536 38.4162 89.1913 35.1142 96.0398C40.434 87.7237 47.9552 82.7708 52.7858 79.7134C57.6165 79.53 62.2637 79.7745 66.6052 80.3249C62.386 82.5873 52.7858 89.3136 49.0558 96.1009C55.354 87.4791 63.4255 83.3822 68.8065 80.6306C73.0868 81.3032 77.1225 82.2204 80.8525 83.3211C77.6117 84.7886 67.7058 90.8422 63.6089 97.4462C70.1517 89.6193 77.2448 86.0116 82.4424 83.8103C92.226 87.0511 98.2184 92.6155 103.966 95.9175C106.963 94.2054 106.779 91.9429 106.779 91.9429C106.779 91.9429 96.384 85.2167 79.2015 80.7529C75.3493 77.5732 69.7237 73.5375 65.5656 66.5055C67.5224 71.7031 73.2091 76.9618 76.511 80.1414C72.7811 79.2854 68.8065 78.6739 64.5873 78.2458C60.307 75.4331 53.703 72.07 48.7501 65.2214C51.2571 70.419 57.8611 75.3108 61.5299 78.0013C57.3107 77.7567 52.9081 77.8178 48.4443 78.1847C44.8978 76.4726 39.0888 74.4547 35.1753 69.9909C37.3766 73.7821 43.0022 76.9618 45.6927 78.4904C30.9562 80.2026 15.7916 86.4396 4.47929 95.9786Z" fill="#A3C4BC"/>
</g>
<g filter="url(#filter1_d)">
<path d="M80.4852 36.9084C51.3178 25.0458 14.507 35.4408 5.09033 47.6703C31.3226 74.5141 38.7826 103.681 59.6951 113.159C88.5567 126.245 103.782 107.962 110.814 90.5959C117.907 73.3523 109.714 48.771 80.4852 36.9084Z" fill="#DFF5CF"/>
<path d="M5.15156 47.6713C40.2502 78.1227 31.6284 95.6109 61.6519 110.776C93.3874 126.796 110.814 90.658 110.814 90.658C110.814 90.658 87.7007 66.8716 71.7412 58.1275C54.6199 48.6496 31.7507 43.0852 5.15156 47.6713Z" fill="#DFF5CF"/>
<path d="M5.51864 47.6099C22.0285 46.3869 37.1319 47.8545 50.4009 51.7068C46.0594 52.5017 37.3154 54.8253 32.3013 58.3107C39.8224 54.2138 48.2607 53.2966 53.5806 52.6851C59.6342 54.6419 65.2598 56.9655 70.5184 59.5337C65.5043 59.7782 49.7894 62.2241 41.4122 68.0332C53.1526 61.9184 65.2598 61.0623 72.9032 60.6955C78.7122 63.7528 83.9097 67.1159 88.6793 70.6014C82.2588 70.4179 66.5439 71.9466 57.6775 77.3887C70.8242 71.5186 82.9314 72.0077 91.064 72.4358C95.6501 76.0435 99.747 79.7735 103.355 83.5646C98.5851 83.1977 82.9925 83.6258 73.7593 88.6399C86.6002 83.8092 97.3011 84.3595 104.883 85.2156C114.178 95.4884 100.297 77.5722 104.883 85.2156C109.531 85.2156 109.225 85.7659 109.225 85.7659C109.225 85.7659 120.231 96.161 103.171 79.5289C100.786 73.2307 96.873 64.7923 96.6896 53.7858C95.5278 61.1846 98.6463 71.0905 100.481 77.0218C96.6896 73.5976 92.4704 70.1733 87.762 66.9325C84.5824 60.7566 79.1402 52.5017 77.8561 41.1894C77.3058 48.9551 81.8307 59.0445 84.3378 64.6089C79.5683 61.5515 74.4319 58.6776 68.9286 56.1705C65.9324 51.8291 60.4291 45.592 58.8393 37.7651C58.9004 43.6964 63.3642 51.1564 65.5043 54.703C46.9766 46.7538 25.0858 43.941 5.51864 47.6099Z" fill="#A3C4BC"/>
</g>
<g filter="url(#filter2_d)">
<path d="M123.839 35.9927C106.35 9.76045 70.0899 -2.28561 55.4145 2.54504C62.0184 39.4781 51.8068 67.8506 63.7917 87.4178C80.3015 114.445 103.171 107.841 118.763 97.5071C134.295 87.112 141.327 62.225 123.839 35.9927Z" fill="#C8EBE0"/>
<path d="M55.4145 2.54492C67.3382 47.4272 50.4004 57.0885 66.7268 86.5004C83.9704 117.563 118.702 97.4459 118.702 97.4459C118.702 97.4459 112.954 64.7931 104.699 48.589C95.833 31.162 80.0569 13.6738 55.4145 2.54492Z" fill="#C8EBE0"/>
<path d="M55.781 2.72827C70.0895 11.0443 81.7686 20.6445 90.5739 31.3453C86.5381 29.572 77.9775 26.5758 71.8628 26.6369C80.4234 27.493 87.8834 31.4676 92.6529 33.9746C96.5663 38.9887 99.9295 44.064 102.803 49.2004C98.5231 46.571 84.1534 39.7837 73.9418 39.8448C87.1496 41.3735 97.6059 47.4883 104.087 51.4628C107.145 57.2107 109.591 62.9586 111.547 68.523C106.289 64.793 92.4695 57.1496 82.0744 56.7215C96.2606 59.2286 105.983 66.5051 112.465 71.3358C114.238 76.9002 115.522 82.2812 116.378 87.4176C112.648 84.4213 99.5014 76.0441 89.0452 75.0046C102.375 78.2455 110.936 84.6659 116.745 89.6189C118.641 103.316 115.461 113.894 114.972 122.822C118.824 125.451 121.453 123.861 121.453 123.861C121.453 123.861 123.349 107.291 118.579 83.9933C120.169 77.4505 121.698 68.2784 127.69 59.0451C122.615 64.5484 119.619 74.4543 117.785 80.3856C116.562 75.4327 114.972 70.174 112.954 64.9153C113.81 58.0668 113.932 48.1609 119.252 38.0715C114.421 44.1863 112.526 55.0705 111.425 61.1241C109.224 55.9266 106.533 50.6679 103.415 45.4704C103.354 40.2117 102.375 31.9568 105.433 24.5579C102.192 29.5109 101.703 38.1938 101.458 42.2907C90.5739 25.2917 74.0641 10.6774 55.781 2.72827Z" fill="#A3C4BC"/>
</g>
<g filter="url(#filter3_d)">
<path d="M151.695 65.8638C153.674 72.4817 159.117 75.3887 165.797 75.3887C173.528 75.3887 180.393 71.121 180.393 62.7095C180.393 57.3286 177.301 52.628 171.796 51.7003V51.5766C176.249 50.2777 179.28 46.2575 179.28 41.6806C179.28 33.5783 173.033 29.7437 165.858 29.7437C160.045 29.7437 154.911 32.4032 152.623 37.9696L158.684 40.0107C159.983 36.9801 162.766 34.939 165.982 34.939C170.188 34.939 173.342 37.413 173.342 42.0517C173.342 46.3812 171.177 48.917 162.147 48.917V54.1124C167.714 54.1124 174.455 54.9783 174.455 62.2766C174.455 66.9771 170.559 70.1933 165.982 70.1933C161.343 70.1933 159.364 68.1523 157.942 63.9465L151.695 65.8638Z" fill="#212227"/>
<path d="M182.228 52.7517C182.228 61.9673 184.887 75.3887 197.319 75.3887C209.751 75.3887 212.41 61.9673 212.41 52.7517C212.41 43.165 209.751 30.1147 197.319 30.1147C184.887 30.1147 182.228 43.165 182.228 52.7517ZM188.165 52.7517C188.165 46.6904 189.031 35.3101 197.319 35.3101C205.607 35.3101 206.473 46.6904 206.473 52.7517C206.473 58.4419 205.607 70.1933 197.319 70.1933C189.031 70.1933 188.165 58.4419 188.165 52.7517Z" fill="#212227"/>
<path d="M152.128 120.683C155.53 125.446 160.601 127.301 166.353 127.301C173.466 127.301 179.96 122.91 179.96 114.993C179.96 98.541 157.385 106.458 157.385 93.2838C157.385 87.7174 161.962 84.996 167.219 84.996C170.992 84.996 173.713 86.4804 175.754 89.3255L179.28 86.7896C176.311 82.8931 172.105 81.285 167.343 81.285C159.983 81.285 153.303 85.4908 153.303 93.2838C153.303 109.921 175.878 102.747 175.878 114.993C175.878 120.25 171.549 123.59 166.044 123.59C161.714 123.59 158.189 121.735 156.024 118.086L152.128 120.683Z" fill="#212227"/>
<path d="M199.051 97.6133H190.887V89.3873H187.176V97.6133H180.991V100.953H187.176V119.57C187.176 123.652 189.217 126.93 194.536 126.93C195.958 126.93 197.999 126.435 199.36 125.94L199.051 122.601C197.752 123.157 196.268 123.59 194.845 123.59C192.371 123.59 190.887 122.106 190.887 119.57V100.953H199.051V97.6133Z" fill="#212227"/>
<path d="M225.09 118.518C223.235 121.611 219.276 123.59 215.503 123.59C206.844 123.59 204.68 115.921 204.68 112.828H228.677V110.231C228.677 103.613 224.039 96.8711 215.256 96.8711C206.906 96.8711 200.969 103.303 200.969 111.839C200.969 120.683 206.721 126.93 215.441 126.93C220.513 126.93 224.904 125.136 227.811 120.807L225.09 118.518ZM204.68 109.488C204.68 108.004 206.968 100.211 215.07 100.211C220.575 100.211 224.966 104.417 224.966 109.488H204.68Z" fill="#212227"/>
<path d="M233.048 140.29H236.759V121.178H236.883C239.171 125.136 244.057 126.93 248.325 126.93C257.107 126.93 263.354 120.621 263.354 111.901C263.354 103.18 257.107 96.8711 248.325 96.8711C244.057 96.8711 239.171 98.6647 236.883 102.623H236.759V97.6133H233.048V140.29ZM236.388 111.901C236.388 105.468 241.583 100.211 248.325 100.211C255.314 100.211 259.643 105.468 259.643 111.901C259.643 118.333 255.314 123.59 248.325 123.59C241.583 123.59 236.388 118.333 236.388 111.901Z" fill="#212227"/>
<path d="M265.354 121.116C267.58 125.075 271.972 126.93 276.858 126.93C282.3 126.93 287.187 123.961 287.187 118.086C287.187 106.52 270.24 112.519 270.24 104.788C270.24 101.819 273.642 100.211 276.301 100.211C279.641 100.211 281.62 101.634 283.043 104.231L286.383 102.252C284.527 98.6029 280.94 96.8711 276.301 96.8711C271.6 96.8711 266.529 99.5306 266.529 105.097C266.529 115.983 283.476 110.478 283.476 118.333C283.476 121.611 280.136 123.59 276.92 123.59C273.58 123.59 270.178 121.92 268.632 118.89L265.354 121.116Z" fill="#212227"/>
</g>
<defs>
<filter id="filter0_d" x="0.235352" y="60.0972" width="110.546" height="65.5464" filterUnits="userSpaceOnUse" color-interpolation-filters="sRGB">
<feFlood flood-opacity="0" result="BackgroundImageFix"/>
<feColorMatrix in="SourceAlpha" type="matrix" values="0 0 0 0 0 0 0 0 0 0 0 0 0 0 0 0 0 0 127 0"/>
<feOffset dy="3"/>
<feGaussianBlur stdDeviation="2"/>
<feColorMatrix type="matrix" values="0 0 0 0 0 0 0 0 0 0 0 0 0 0 0 0 0 0 0.3 0"/>
<feBlend mode="normal" in2="BackgroundImageFix" result="effect1_dropShadow"/>
<feBlend mode="normal" in="SourceGraphic" in2="effect1_dropShadow" result="shape"/>
</filter>
<filter id="filter1_d" x="1.09033" y="30.6846" width="116.125" height="93.9226" filterUnits="userSpaceOnUse" color-interpolation-filters="sRGB">
<feFlood flood-opacity="0" result="BackgroundImageFix"/>
<feColorMatrix in="SourceAlpha" type="matrix" values="0 0 0 0 0 0 0 0 0 0 0 0 0 0 0 0 0 0 127 0"/>
<feOffset dy="3"/>
<feGaussianBlur stdDeviation="2"/>
<feColorMatrix type="matrix" values="0 0 0 0 0 0 0 0 0 0 0 0 0 0 0 0 0 0 0.3 0"/>
<feBlend mode="normal" in2="BackgroundImageFix" result="effect1_dropShadow"/>
<feBlend mode="normal" in="SourceGraphic" in2="effect1_dropShadow" result="shape"/>
</filter>
<filter id="filter2_d" x="51.4146" y="0.5" width="86.6734" height="130.838" filterUnits="userSpaceOnUse" color-interpolation-filters="sRGB">
<feFlood flood-opacity="0" result="BackgroundImageFix"/>
<feColorMatrix in="SourceAlpha" type="matrix" values="0 0 0 0 0 0 0 0 0 0 0 0 0 0 0 0 0 0 127 0"/>
<feOffset dy="3"/>
<feGaussianBlur stdDeviation="2"/>
<feColorMatrix type="matrix" values="0 0 0 0 0 0 0 0 0 0 0 0 0 0 0 0 0 0 0.3 0"/>
<feBlend mode="normal" in2="BackgroundImageFix" result="effect1_dropShadow"/>
<feBlend mode="normal" in="SourceGraphic" in2="effect1_dropShadow" result="shape"/>
</filter>
<filter id="filter3_d" x="147.695" y="29.7437" width="143.492" height="118.546" filterUnits="userSpaceOnUse" color-interpolation-filters="sRGB">
<feFlood flood-opacity="0" result="BackgroundImageFix"/>
<feColorMatrix in="SourceAlpha" type="matrix" values="0 0 0 0 0 0 0 0 0 0 0 0 0 0 0 0 0 0 127 0"/>
<feOffset dy="4"/>
<feGaussianBlur stdDeviation="2"/>
<feColorMatrix type="matrix" values="0 0 0 0 0 0 0 0 0 0 0 0 0 0 0 0 0 0 0.25 0"/>
<feBlend mode="normal" in2="BackgroundImageFix" result="effect1_dropShadow"/>
<feBlend mode="normal" in="SourceGraphic" in2="effect1_dropShadow" result="shape"/>
</filter>
</defs>
</svg>
