<svg width="669" height="606" viewBox="0 0 669 606" fill="none" xmlns="http://www.w3.org/2000/svg">
<rect x="75" y="22" width="97" height="93" rx="46" fill="#C7EEA9" fill-opacity="0.71"/>
<rect x="543" y="192" width="32" height="31" rx="15.5" fill="#C7EEA9" fill-opacity="0.71"/>
<rect x="172" y="451" width="52" height="50" rx="25" fill="#C7EEA9" fill-opacity="0.71"/>
<rect x="348" y="10" width="32" height="31" rx="15.5" fill="#C7EEA9" fill-opacity="0.71"/>
<rect x="237" y="41" width="24" height="23" rx="11.5" fill="#ADE1D1"/>
<rect x="124" y="482" width="24" height="23" rx="11.5" fill="#ADE1D1"/>
<rect x="493" width="129" height="118" rx="59" fill="#ADE1D1" fill-opacity="0.67"/>
<rect x="21" y="145" width="54" height="52" rx="26" fill="#ADE1D1"/>
<rect x="533" y="445" width="19" height="18" rx="9" fill="#E68FB9" fill-opacity="0.68"/>
<rect x="333" y="93" width="78" height="76" rx="38" fill="#E68FB9" fill-opacity="0.68"/>
<rect x="70" y="293" width="107" height="104" rx="50" fill="#E68FB9" fill-opacity="0.68"/>
<rect x="611" y="284" width="41" height="40" rx="20" fill="#E68FB9" fill-opacity="0.68"/>
<path opacity="0.1" d="M388.183 231.728C345.353 230.241 304.561 216.411 265.605 201.283C226.648 186.156 188.065 169.393 146.254 161.379C119.37 156.22 88.6169 155.492 66.9503 169.909C46.1011 183.78 39.3665 207.727 35.7416 229.951C33.017 246.672 31.4177 264.263 38.8808 279.918C44.0635 290.781 53.268 299.914 59.6116 310.321C81.758 346.541 66.127 391.195 42.103 426.562C30.8491 443.146 17.7828 458.973 9.09957 476.629C0.416337 494.286 -3.58767 514.519 4.04719 532.561C11.5813 550.413 29.5164 563.823 48.9856 573.259C88.457 592.384 135.007 597.869 180.395 600.973C280.874 607.843 381.892 604.87 482.638 601.891C519.918 600.783 557.37 599.67 594.045 593.9C614.415 590.702 635.442 585.608 650.232 573.353C669.002 557.782 673.657 531.412 661.077 511.884C639.979 479.129 581.642 471.014 566.9 435.843C558.779 416.498 567.119 394.944 578.918 377.003C604.221 338.503 646.636 304.742 648.869 260.739C650.409 230.531 630.016 200.252 598.488 185.954C565.437 170.969 519.616 172.852 495.231 197.664C470.123 223.21 426.002 233.037 388.183 231.728Z" fill="#ADE1D1"/>
<path d="M497.747 565.792C489.648 576.837 472.835 578 472.835 578C472.835 578 469.153 561.254 477.253 550.208C485.352 539.163 502.165 538 502.165 538C502.165 538 505.846 554.746 497.747 565.792Z" fill="#E6E6E6"/>
<path d="M456.389 570.065C461.614 577.244 472.462 578 472.462 578C472.462 578 474.836 567.115 469.611 559.935C464.385 552.756 453.538 552 453.538 552C453.538 552 451.164 562.885 456.389 570.065Z" fill="#E6E6E6"/>
<path d="M487 223H162V404H487V223Z" fill="#E6E6E6"/>
<path d="M179 386H470V241H179V386Z" fill="white"/>
<path d="M486 213H163V229H486V213Z" fill="#ADE1D1"/>
<path d="M256 293H196V335H256V293Z" fill="#E6E6E6"/>
<path d="M453 293H291V297H453V293Z" fill="#E6E6E6"/>
<path d="M453 312H291V316H453V312Z" fill="#E6E6E6"/>
<path d="M453 330H291V335H453V330Z" fill="#E6E6E6"/>
<path d="M399.78 407.588L398.177 416.718C398.177 416.718 390.564 437.758 392.568 457.607C394.571 477.456 396.174 491.35 396.174 491.35C396.174 491.35 390.164 541.369 392.568 559.233C392.568 559.233 398.979 567.967 407.393 558.836L413.804 492.938L420.615 446.095L426.625 498.496L430.632 558.043C430.632 558.043 436.242 563.997 444.656 558.836L443.855 491.35C443.855 491.35 451.067 434.185 449.865 429.422C448.663 424.658 440.649 406 440.649 406L399.78 407.588Z" fill="#2F2E41"/>
<path d="M395.957 559.221L396.366 567.769C396.366 567.769 390.131 577.446 397.904 577.446C397.982 577.446 397.827 577.446 397.904 577.446C403.525 577.428 408.606 579.946 407.941 574.391L407.003 566.548L405.367 558L395.957 559.221Z" fill="#2F2E41"/>
<path d="M442.043 559.221L441.634 567.769C441.634 567.769 447.869 577.446 440.096 577.446C440.018 577.446 440.173 577.446 440.096 577.446C434.475 577.428 429.394 579.946 430.059 574.391L430.997 566.548L432.633 558L442.043 559.221Z" fill="#2F2E41"/>
<path d="M418.5 339C425.404 339 431 333.404 431 326.5C431 319.596 425.404 314 418.5 314C411.596 314 406 319.596 406 326.5C406 333.404 411.596 339 418.5 339Z" fill="#9F616A"/>
<path d="M412.888 335.138C412.888 335.138 414.517 352.585 409.628 355.24C404.739 357.895 430 356.758 430 356.758C430 356.758 424.296 336.276 424.703 334L412.888 335.138Z" fill="#FFB8B8"/>
<path d="M436.751 346.19C436.751 346.19 420.984 339.012 398.909 346.19C398.909 346.19 389.252 348.783 388.069 351.973C386.887 355.164 401.274 391.655 399.698 398.036C398.749 401.947 398.483 405.996 398.909 410C398.909 410 433.598 405.214 441.876 408.804C441.876 408.804 438.722 398.435 439.51 391.256C440.299 384.077 447 350.577 447 350.577C447 350.577 443.452 346.988 436.751 346.19Z" fill="#ADE1D1"/>
<path d="M450.494 440C450.494 440 444.63 459.566 450.885 459.991C457.141 460.417 454.404 445.104 454.404 445.104L453.622 440H450.494Z" fill="#9F616A"/>
<path d="M438.6 352.395L447 350C447 350 451.8 353.592 451.8 358.382C451.8 363.172 451 393.906 451 393.906L457 439.807L447.8 443L437 393.506L438.6 352.395Z" fill="#ADE1D1"/>
<path d="M385.506 440C385.506 440 391.37 459.566 385.115 459.991C378.859 460.417 381.596 445.104 381.596 445.104L382.378 440H385.506Z" fill="#9F616A"/>
<path d="M397.4 352.395L389 350C389 350 384.2 353.592 384.2 358.382C384.2 363.172 385 393.906 385 393.906L379 439.807L388.2 443L399 393.506L397.4 352.395Z" fill="#ADE1D1"/>
<path d="M424.141 307.091C424.141 307.091 413.038 305.088 410.658 319.907C408.279 334.726 409.468 340.333 405.503 341.935C401.537 343.537 400.348 345.54 401.141 348.744C401.934 351.948 404.71 353.15 400.744 359.158C396.778 365.165 409.468 363.563 419.779 368.369C430.09 373.176 453.884 366.367 450.711 360.76C447.539 355.152 442.383 357.555 444.763 351.147C447.142 344.739 447.935 343.537 444.763 339.532C441.59 335.527 446.349 310.695 424.141 307.091Z" fill="#2F2E41"/>
</svg>
