<svg width="669" height="577" viewBox="0 0 669 577" fill="none" xmlns="http://www.w3.org/2000/svg">
<rect x="70" y="25" width="97" height="93" rx="46" fill="#C7EEA9" fill-opacity="0.71"/>
<rect x="298" y="391" width="97" height="93" rx="46" fill="#C7EEA9" fill-opacity="0.71"/>
<rect x="631" y="430" width="32" height="31" rx="15.5" fill="#C7EEA9" fill-opacity="0.71"/>
<rect x="343" y="13" width="32" height="31" rx="15.5" fill="#C7EEA9" fill-opacity="0.71"/>
<rect x="232" y="44" width="24" height="23" rx="11.5" fill="#ADE1D1"/>
<rect x="62" y="554" width="24" height="23" rx="11.5" fill="#ADE1D1"/>
<rect x="547" width="111" height="106" rx="53" fill="#ADE1D1" fill-opacity="0.67"/>
<rect x="473" y="163" width="51" height="49" rx="24.5" fill="#ADE1D1"/>
<rect x="16" y="148" width="54" height="52" rx="26" fill="#ADE1D1"/>
<rect x="524" y="498" width="66" height="64" rx="32" fill="#E68FB9" fill-opacity="0.68"/>
<rect x="299" y="68" width="107" height="104" rx="50" fill="#E68FB9" fill-opacity="0.68"/>
<rect x="606" y="287" width="41" height="40" rx="20" fill="#E68FB9" fill-opacity="0.68"/>
<g filter="url(#filter0_d)">
<path d="M233.845 499.762C233.845 508.725 191.811 515.994 139.958 515.994C88.1054 515.994 46.0713 508.725 46.0713 499.762C46.0713 497.52 48.6949 495.388 53.4419 493.448C67.2617 487.793 99.0823 483.774 136.484 483.542C137.637 483.533 138.796 483.529 139.958 483.529C191.811 483.529 233.845 490.798 233.845 499.762Z" fill="#3F3D56"/>
<path opacity="0.1" d="M136.484 483.542C132.277 490.401 126.571 496.218 119.796 500.557C113.021 504.897 105.351 507.647 97.3611 508.6C89.3716 509.553 81.2701 508.685 73.6639 506.061C66.0577 503.437 59.1443 499.125 53.4419 493.448C67.2617 487.793 99.0824 483.775 136.484 483.542Z" fill="black"/>
<path d="M92.1371 500.201C119.275 500.201 141.274 476.63 141.274 447.554C141.274 418.478 119.275 394.907 92.1371 394.907C64.9994 394.907 43 418.478 43 447.554C43 476.63 64.9994 500.201 92.1371 500.201Z" fill="#3F3D56"/>
<path d="M152.43 208.562C159.397 235.402 181.872 252.749 202.68 247.348L152.43 208.562Z" fill="#3F3D56"/>
<path d="M202.68 247.348C195.635 220.207 208.724 193.367 231.945 187.339L202.68 247.348Z" fill="#ADE1D1"/>
<path d="M166.701 207.454C173.319 232.949 189.411 250.792 202.68 247.348L166.701 207.454Z" fill="#ADE1D1"/>
<path d="M202.68 247.348C193.678 212.667 208.112 178.967 234.951 172L202.68 247.348Z" fill="#3F3D56"/>
<path d="M194.849 249.746C194.849 249.746 200.145 248.196 201.457 246.632C202.768 245.069 209.017 241.987 209.893 243.721C210.769 245.455 220.288 250.777 214.274 252.39C208.259 254.004 200.025 255.087 198.165 254.526C196.305 253.964 194.849 249.746 194.849 249.746Z" fill="#A8A8A8"/>
<path opacity="0.2" d="M214.215 251.723C208.2 253.336 199.966 254.419 198.106 253.858C196.69 253.43 195.509 250.884 195.026 249.693C194.914 249.727 194.849 249.746 194.849 249.746C194.849 249.746 196.305 253.964 198.165 254.525C200.025 255.087 208.259 254.004 214.274 252.39C216.01 251.925 216.45 251.15 216.179 250.241C216.081 250.858 215.507 251.376 214.215 251.723Z" fill="black"/>
<path d="M547.094 227.314H193.482V432.198H547.094V227.314Z" fill="#F2F2F2"/>
<path opacity="0.3" d="M395.734 289.503H201.818V391.068H395.734V289.503Z" fill="#ADE1D1"/>
<path d="M488.428 285.076H410.651V289.378H488.428V285.076Z" fill="#3F3D56"/>
<path d="M523.842 293.019H410.651V297.321H523.842V293.019Z" fill="#3F3D56"/>
<path d="M488.428 312.215H410.651V316.517H488.428V312.215Z" fill="#3F3D56"/>
<path d="M488.428 343.988H410.651V348.29H488.428V343.988Z" fill="#3F3D56"/>
<path d="M523.842 320.158H410.651V324.461H523.842V320.158Z" fill="#3F3D56"/>
<path d="M523.842 328.101H410.651V332.404H523.842V328.101Z" fill="#3F3D56"/>
<path d="M523.842 336.044H410.651V340.347H523.842V336.044Z" fill="#3F3D56"/>
<path d="M451.36 363.184H410.651V374.437H451.36V363.184Z" fill="#ADE1D1"/>
<path d="M180.973 350.961C180.973 350.961 188.281 330.256 193.559 336.752C198.837 343.248 185.439 354.209 185.439 354.209L180.973 350.961Z" fill="#A0616A"/>
<path d="M146.464 330.662L150.86 332.291C150.86 332.291 152.96 341.624 152.148 343.248C151.336 344.872 150.93 343.654 152.148 346.902C153.366 350.149 157.02 358.675 157.426 359.893C157.832 361.111 180.973 352.179 180.973 347.714C180.973 347.714 185.845 353.397 188.281 354.615C188.281 354.615 161.486 374.103 157.832 376.539C154.178 378.975 152.148 377.757 148.9 374.915C145.652 372.073 131.849 348.526 131.849 348.526L146.464 330.662Z" fill="#575A89"/>
<path d="M158.238 474.788C158.238 474.788 157.832 479.254 157.02 479.66C156.208 480.066 150.118 490.215 157.02 492.245C163.922 494.275 167.982 493.463 169.606 494.275C171.23 495.087 199.649 496.711 200.055 492.245C200.461 487.779 186.251 486.967 186.251 486.967C186.251 486.967 173.26 478.442 171.23 473.976C169.2 469.51 158.238 474.788 158.238 474.788Z" fill="#2F2E41"/>
<path d="M75.8228 482.907C75.8228 482.907 66.0791 499.553 68.515 501.583C70.9509 503.613 94.674 511.01 98.1521 511.327C102.618 511.733 105.866 508.079 102.212 506.049C98.5581 504.019 90.8443 495.493 90.8443 492.651V485.343L75.8228 482.907Z" fill="#2F2E41"/>
<path d="M66.4847 374.103C66.4847 374.103 57.959 384.659 71.3566 401.71L93.6859 430.129C93.6859 430.129 79.8823 452.053 79.4763 463.42C79.0703 474.788 76.2284 472.352 75.4164 477.224C74.6045 482.096 70.9506 479.66 73.7925 483.314C76.6344 486.967 87.1901 490.215 90.438 487.373C93.6859 484.532 93.6859 480.878 93.6859 479.254C93.6859 477.63 99.3697 468.292 99.7757 465.45C100.182 462.608 115.203 439.467 115.203 439.467C115.203 439.467 120.075 425.663 114.391 417.95C108.707 410.236 104.952 399.295 104.952 399.295C104.952 399.295 121.699 419.574 133.473 424.445C133.473 424.445 137.939 425.257 137.127 427.287C136.315 429.317 137.127 430.535 138.345 432.565C139.562 434.595 148.088 458.142 150.93 464.232C153.772 470.322 152.554 473.976 155.802 476.006C159.05 478.036 173.665 476.412 173.665 474.382C173.665 472.352 171.636 467.074 170.418 464.232C169.2 461.39 159.456 428.505 160.268 422.821C161.08 417.138 159.862 409.424 153.772 406.176C147.682 402.928 116.827 376.539 115.203 376.539C113.579 376.539 66.4847 374.103 66.4847 374.103Z" fill="#2F2E41"/>
<path d="M148.088 310.363C157.505 310.363 165.14 302.729 165.14 293.311C165.14 283.894 157.505 276.26 148.088 276.26C138.671 276.26 131.037 283.894 131.037 293.311C131.037 302.729 138.671 310.363 148.088 310.363Z" fill="#A0616A"/>
<path d="M134.285 294.935C134.285 294.935 129.007 304.273 122.511 305.491C116.015 306.709 139.563 325.384 139.563 325.384C139.563 325.384 145.247 307.521 150.118 306.709C154.99 305.897 134.285 294.935 134.285 294.935Z" fill="#A0616A"/>
<path d="M150.93 333.098C150.93 338.376 135.097 353.397 135.097 353.397L120.075 365.983C120.075 365.983 119.669 370.449 118.045 370.855C116.421 371.261 114.391 371.261 116.015 373.697C117.639 376.133 121.699 381.411 118.045 382.222C116.944 382.39 115.833 382.496 114.72 382.539C113.746 382.596 112.601 382.649 111.314 382.698C108.31 382.803 104.55 382.872 100.478 382.844C99.3209 382.84 98.1435 382.826 96.9459 382.803C81.5955 382.499 63.8132 380.733 65.2667 374.915C67.7026 365.171 66.0787 361.923 71.3565 356.645C76.6343 351.367 85.1601 333.098 85.1601 333.098C85.1601 333.098 102.212 304.273 116.421 304.273L119.373 303.497C120.744 303.136 122.194 303.215 123.518 303.724C124.842 304.233 125.973 305.145 126.749 306.331C129.599 310.671 134.094 317.191 136.721 319.294C140.78 322.542 141.414 320.212 141.414 320.212C141.414 320.212 150.93 327.82 150.93 333.098Z" fill="#575A89"/>
<path d="M114.797 394.808C114.797 394.808 126.571 413.078 119.263 416.325C111.955 419.573 107.896 397.244 107.896 397.244L114.797 394.808Z" fill="#A0616A"/>
<path d="M136.941 291.385C137.596 291.303 137.802 290.477 137.913 289.827C138.503 286.344 141.098 283.041 144.585 282.479C145.918 282.302 147.273 282.411 148.561 282.8C150.405 283.306 152.136 284.158 153.662 285.31C154.467 285.92 155.242 286.627 156.211 286.911C156.851 287.099 159.567 288.307 160.202 288.511C161.598 288.961 162.753 290.421 164.19 290.132C165.565 289.855 166.087 288.195 166.308 286.81C166.812 283.654 165.006 278.945 163.21 276.302C161.847 274.296 159.541 273.142 157.235 272.391C154.534 271.571 151.758 271.02 148.949 270.744C145.156 270.297 141.228 270.059 137.593 271.231C133.958 272.404 130.649 275.271 129.97 279.03C129.829 279.813 129.802 280.615 129.629 281.391C129.207 283.285 127.953 284.877 127.222 286.675C126.695 287.996 126.45 289.412 126.503 290.833C126.557 292.253 126.907 293.647 127.533 294.924C128.545 296.96 130.305 298.916 129.925 301.158L133.058 298.688C133.511 298.43 133.862 298.026 134.052 297.541C134.243 297.056 134.261 296.521 134.104 296.024L133.649 292.102C133.565 291.383 133.493 290.608 133.852 289.981C135.244 287.548 135.85 291.523 136.941 291.385Z" fill="#2F2E41"/>
<path opacity="0.1" d="M107.489 366.795L111.314 382.698C107.457 382.836 102.354 382.909 96.9459 382.803C95.5817 378.711 94.2785 374.444 93.2798 370.449C89.6259 355.833 95.7157 333.504 98.9636 322.948C102.212 312.393 110.331 309.551 110.331 309.551C110.331 309.551 114.391 310.769 119.669 314.423C124.947 318.077 107.489 366.795 107.489 366.795Z" fill="black"/>
<path opacity="0.1" d="M110.737 365.983L114.72 382.539C113.746 382.596 112.601 382.649 111.314 382.698C108.31 382.803 104.55 382.872 100.478 382.844C99.0125 378.496 97.5956 373.908 96.5278 369.637C92.8739 355.021 98.9638 332.692 102.212 322.136C105.46 311.581 112.564 323.151 112.564 323.151C112.564 323.151 109.722 316.25 115 319.903C120.278 323.557 110.737 365.983 110.737 365.983Z" fill="black"/>
<path d="M111.955 308.739C111.955 308.739 103.836 311.581 100.588 322.136C97.3397 332.692 91.2499 355.021 94.9038 369.637C98.5577 384.253 106.271 402.522 106.271 402.522C106.271 402.522 113.985 396.838 116.827 398.056L109.113 365.983C109.113 365.983 126.571 317.265 121.293 313.611C116.015 309.957 111.955 308.739 111.955 308.739Z" fill="#575A89"/>
<path d="M387.398 278.974H193.482V380.538H387.398V278.974Z" fill="#3F3D56"/>
<path d="M294.048 353.728C306.168 353.728 315.992 343.885 315.992 331.744C315.992 319.603 306.168 309.76 294.048 309.76C281.929 309.76 272.104 319.603 272.104 331.744C272.104 343.885 281.929 353.728 294.048 353.728Z" fill="white"/>
<path d="M294.048 306.014C288.861 306.014 283.79 307.552 279.478 310.434C275.165 313.316 271.804 317.411 269.819 322.204C267.834 326.996 267.314 332.269 268.326 337.356C269.338 342.443 271.836 347.116 275.504 350.784C279.171 354.452 283.844 356.949 288.931 357.961C294.019 358.973 299.292 358.454 304.084 356.469C308.876 354.484 312.972 351.122 315.854 346.81C318.735 342.497 320.273 337.426 320.273 332.24C320.253 325.29 317.483 318.632 312.57 313.718C307.656 308.804 300.997 306.034 294.048 306.014ZM288.664 346.222L275.223 332.782L278.993 329.012L288.677 338.695L309.115 318.257L312.885 322.027L288.664 346.222Z" fill="#ADE1D1"/>
</g>
<path opacity="0.1" d="M388.183 180.728C345.353 179.241 304.561 165.411 265.605 150.283C226.648 135.156 188.065 118.393 146.254 110.379C119.37 105.22 88.6169 104.492 66.9503 118.909C46.1011 132.78 39.3665 156.727 35.7416 178.951C33.017 195.672 31.4177 213.263 38.8808 228.918C44.0635 239.781 53.268 248.914 59.6116 259.321C81.758 295.541 66.127 340.195 42.103 375.562C30.8491 392.146 17.7828 407.973 9.09957 425.629C0.416337 443.286 -3.58767 463.519 4.04719 481.561C11.5813 499.413 29.5164 512.823 48.9856 522.259C88.457 541.384 135.007 546.869 180.395 549.973C280.874 556.843 381.892 553.87 482.638 550.891C519.918 549.783 557.37 548.67 594.045 542.9C614.415 539.702 635.442 534.608 650.232 522.353C669.002 506.782 673.657 480.412 661.077 460.884C639.979 428.129 581.642 420.014 566.9 384.843C558.779 365.498 567.119 343.944 578.918 326.003C604.221 287.503 646.636 253.742 648.869 209.739C650.409 179.531 630.016 149.252 598.488 134.954C565.437 119.969 519.616 121.852 495.231 146.664C470.123 172.21 426.002 182.037 388.183 180.728Z" fill="#ADE1D1"/>
<defs>
<filter id="filter0_d" x="40" y="172" width="510.094" height="350.994" filterUnits="userSpaceOnUse" color-interpolation-filters="sRGB">
<feFlood flood-opacity="0" result="BackgroundImageFix"/>
<feColorMatrix in="SourceAlpha" type="matrix" values="0 0 0 0 0 0 0 0 0 0 0 0 0 0 0 0 0 0 127 0"/>
<feOffset dy="4"/>
<feGaussianBlur stdDeviation="1.5"/>
<feColorMatrix type="matrix" values="0 0 0 0 0 0 0 0 0 0 0 0 0 0 0 0 0 0 0.09 0"/>
<feBlend mode="normal" in2="BackgroundImageFix" result="effect1_dropShadow"/>
<feBlend mode="normal" in="SourceGraphic" in2="effect1_dropShadow" result="shape"/>
</filter>
</defs>
</svg>
