<svg width="672" height="582" viewBox="0 0 672 582" fill="none" xmlns="http://www.w3.org/2000/svg">
<rect x="79" y="25" width="97" height="93" rx="46" fill="#C7EEA9" fill-opacity="0.71"/>
<rect x="640" y="430" width="32" height="31" rx="15.5" fill="#C7EEA9" fill-opacity="0.71"/>
<rect x="352" y="13" width="32" height="31" rx="15.5" fill="#C7EEA9" fill-opacity="0.71"/>
<rect x="241" y="44" width="24" height="23" rx="11.5" fill="#ADE1D1"/>
<rect x="556" width="111" height="106" rx="53" fill="#ADE1D1" fill-opacity="0.67"/>
<rect x="25" y="148" width="54" height="52" rx="26" fill="#ADE1D1"/>
<rect x="533" y="498" width="66" height="64" rx="32" fill="#E68FB9" fill-opacity="0.68"/>
<rect x="308" y="68" width="107" height="104" rx="50" fill="#E68FB9" fill-opacity="0.68"/>
<rect x="615" y="287" width="41" height="40" rx="20" fill="#E68FB9" fill-opacity="0.68"/>
<path opacity="0.1" d="M388.183 189.728C345.353 188.241 304.561 174.411 265.605 159.283C226.648 144.156 188.065 127.393 146.254 119.379C119.37 114.22 88.6169 113.492 66.9503 127.909C46.1011 141.78 39.3665 165.727 35.7416 187.951C33.017 204.672 31.4177 222.263 38.8808 237.918C44.0635 248.781 53.268 257.914 59.6116 268.321C81.758 304.541 66.127 349.195 42.103 384.562C30.8491 401.146 17.7828 416.973 9.09957 434.629C0.416337 452.286 -3.58767 472.519 4.04719 490.561C11.5813 508.413 29.5164 521.823 48.9856 531.259C88.457 550.384 135.007 555.869 180.395 558.973C280.874 565.843 381.892 562.87 482.638 559.891C519.918 558.783 557.37 557.67 594.045 551.9C614.415 548.702 635.442 543.608 650.232 531.353C669.002 515.782 673.657 489.412 661.077 469.884C639.979 437.129 581.642 429.014 566.9 393.843C558.779 374.498 567.119 352.944 578.918 335.003C604.221 296.503 646.636 262.742 648.869 218.739C650.409 188.531 630.016 158.252 598.488 143.954C565.437 128.969 519.616 130.852 495.231 155.664C470.123 181.21 426.002 191.037 388.183 189.728Z" fill="#ADE1D1"/>
<path d="M534.447 519.904C532.043 519.126 529.504 518.856 526.99 519.11C523.928 519.442 524.36 524.103 527.434 523.884C528.972 523.766 530.492 523.486 531.971 523.049L534.447 519.904Z" fill="#ADE1D1"/>
<path d="M535.377 519.945C536.483 522.219 537.104 524.698 537.201 527.225C537.302 530.305 532.622 530.524 532.409 527.45C532.317 525.911 532.384 524.367 532.611 522.842L535.377 519.945Z" fill="#ADE1D1"/>
<path d="M542.343 509.971C542.343 509.971 540.844 505.268 531.681 507.092C527.535 507.916 527.648 513.862 531.8 514.49H531.977C538.025 515.331 540.127 512.933 542.343 509.971Z" fill="#ADE1D1"/>
<path d="M543.296 509.693C543.296 509.693 548.219 510.078 548.527 519.406C548.669 523.606 542.858 524.879 541.3 520.982C541.3 520.923 541.259 520.869 541.235 520.81C539.061 515.118 540.915 512.524 543.296 509.693Z" fill="#ADE1D1"/>
<path d="M549.871 497.669C549.526 495.962 548.731 494.378 547.569 493.081C546.407 491.784 544.92 490.82 543.261 490.289C537.06 488.334 533.784 497.61 539.844 499.967C542.351 500.883 545.021 501.27 547.686 501.104L549.871 497.669Z" fill="#ADE1D1"/>
<path d="M557.434 482.18C557.434 482.18 554.929 476.257 548.431 475.072C541.543 473.811 539.458 484.158 546.263 485.811C549.317 486.474 552.475 486.5 555.539 485.888L557.434 482.18Z" fill="#ADE1D1"/>
<path d="M562.002 466.928C560.941 465.261 559.555 463.825 557.927 462.705C556.299 461.586 554.461 460.806 552.525 460.413C546.602 459.299 544.606 468.166 550.422 469.682C554.075 470.575 557.895 470.522 561.522 469.528L562.002 466.928Z" fill="#ADE1D1"/>
<path d="M566.308 452.061C564.418 448.945 561.477 446.607 558.015 445.469C552.092 443.65 549.166 452.63 555.054 454.584C558.544 455.742 562.317 455.728 565.798 454.543L566.308 452.061Z" fill="#ADE1D1"/>
<path d="M568.119 438.515C568.119 438.515 565.75 432.959 560.923 430.021C555.544 426.746 550.421 434.76 555.592 438.367C558.778 440.6 562.859 442.14 567.627 441.109L568.119 438.515Z" fill="#ADE1D1"/>
<path d="M569.014 422.446C569.014 422.446 566.402 416.836 561.391 414.153C555.788 411.192 550.913 419.377 556.191 422.908C559.644 425.212 563.956 426.704 568.535 424.904L569.014 422.446Z" fill="#ADE1D1"/>
<path d="M568.458 407.792C566.503 404.759 564.108 402.034 561.35 399.707C557.429 396.502 552.466 402.272 556.179 405.695C559.609 408.84 563.879 411.482 568.292 411.269L568.458 407.792Z" fill="#ADE1D1"/>
<path d="M566.971 393.73C564.732 389.953 562.034 386.468 558.939 383.353C555.871 380.392 551.334 384.905 554.201 388.027C557.512 391.58 561.978 395.265 567.344 396.876L566.971 393.73Z" fill="#ADE1D1"/>
<path d="M564.098 377.193C562.251 374.323 560.101 371.66 557.683 369.25C554.591 366.224 549.93 370.779 552.897 373.924C556.048 377.27 560.124 380.404 564.904 381.47L564.098 377.193Z" fill="#ADE1D1"/>
<path d="M561.586 361.764C559.688 359.194 557.628 356.747 555.42 354.437C552.944 351.884 548.988 355.473 551.322 358.162C554.064 361.325 557.582 364.127 561.628 364.577L561.586 361.764Z" fill="#ADE1D1"/>
<path d="M558.98 347.453C557.249 344.064 555.269 340.807 553.057 337.71C551.203 335.175 547.341 337.888 549.088 340.494C551.375 343.911 554.549 347.294 558.719 348.922L558.98 347.453Z" fill="#ADE1D1"/>
<path d="M556.831 328.434C556.831 328.434 555.368 325.953 553.277 323.068C551.346 320.409 547.271 323.157 549.06 325.911C551.073 328.997 553.597 331.627 556.534 332.148L556.831 328.434Z" fill="#ADE1D1"/>
<path d="M555.806 315.83L553.952 306.561C553.46 304.108 549.806 304.695 550.102 307.153C550.765 312.105 552.471 317.086 556.185 320.355L555.806 315.83Z" fill="#ADE1D1"/>
<path d="M556.908 289.484C556.735 289.074 556.418 288.742 556.017 288.55C555.616 288.358 555.159 288.32 554.731 288.443C554.304 288.565 553.936 288.84 553.698 289.215C553.459 289.591 553.367 290.04 553.437 290.479C553.849 293.054 554.475 295.59 555.309 298.061L556.908 289.484Z" fill="#ADE1D1"/>
<path d="M550.285 497.485C551.94 496.939 553.71 496.844 555.414 497.211C557.117 497.577 558.692 498.392 559.975 499.57C564.714 503.995 558.305 511.416 553.253 507.335C551.216 505.609 549.557 503.482 548.378 501.086L550.285 497.485Z" fill="#ADE1D1"/>
<path d="M557.855 481.617C557.855 481.617 564.086 480.113 568.908 484.626C574.019 489.412 566.953 497.248 561.569 492.764C559.216 490.706 557.315 488.183 555.983 485.355L557.855 481.617Z" fill="#ADE1D1"/>
<path d="M562.41 467.97C564.02 466.817 565.848 466.002 567.781 465.572C569.715 465.142 571.716 465.108 573.664 465.471C579.587 466.655 578.112 475.617 572.147 474.853C568.426 474.313 564.904 472.835 561.912 470.559L562.41 467.97Z" fill="#ADE1D1"/>
<path d="M566.604 452.144C569.515 449.959 573.111 448.885 576.744 449.117C582.94 449.656 582.276 459.068 576.075 458.677C572.404 458.449 568.908 457.023 566.124 454.62L566.604 452.144Z" fill="#ADE1D1"/>
<path d="M568.043 438.9C568.043 438.9 571.33 433.83 576.578 431.757C582.401 429.453 586.138 438.177 580.481 440.86C576.928 442.537 572.645 443.384 568.096 441.542L568.043 438.9Z" fill="#ADE1D1"/>
<path d="M568.25 422.203C568.25 422.203 571.573 416.99 576.886 415C582.809 412.779 586.594 421.545 580.902 424.359C577.176 426.195 572.704 427.107 568.404 424.726L568.25 422.203Z" fill="#ADE1D1"/>
<path d="M567.137 407.638C568.397 404.257 570.153 401.083 572.349 398.22C575.488 394.246 581.595 398.812 578.681 402.959C576.004 406.767 572.426 410.256 568.019 410.996L567.137 407.638Z" fill="#ADE1D1"/>
<path d="M566.681 393.707C567.77 389.444 569.386 385.333 571.49 381.47C573.617 377.786 579.226 380.836 577.318 384.639C575.139 388.992 571.869 393.76 567.166 396.81L566.681 393.707Z" fill="#ADE1D1"/>
<path d="M563.245 376.423C564.524 373.138 566.165 370.005 568.138 367.083C570.578 363.529 575.986 367.011 573.753 370.684C571.324 374.688 567.901 378.715 563.31 380.753L563.245 376.423Z" fill="#ADE1D1"/>
<path d="M560.509 361.681C561.169 358.556 562.026 355.476 563.073 352.458C564.258 349.1 569.358 350.723 568.351 354.141C567.166 358.156 565.135 362.166 561.646 364.257L560.509 361.681Z" fill="#ADE1D1"/>
<path d="M558.607 347.175C559.522 343.477 560.71 339.852 562.161 336.33C563.393 333.439 567.776 335.199 566.663 338.136C565.218 341.986 562.896 346.002 559.212 348.537L558.607 347.175Z" fill="#ADE1D1"/>
<path d="M555.758 329.738C555.758 329.738 556.315 326.912 557.327 323.495C558.263 320.344 563.025 321.581 562.249 324.774C561.385 328.328 559.88 331.674 557.274 333.143L555.758 329.738Z" fill="#ADE1D1"/>
<path d="M556.421 315.202L559.644 306.318C560.497 303.948 564.05 305.098 563.357 307.502C561.965 312.3 559.549 316.979 555.373 319.645L556.421 315.202Z" fill="#ADE1D1"/>
<path d="M560.438 290.414C560.438 290.414 560.942 290.011 561.712 289.378C563.281 288.075 565.331 290.349 563.85 291.747C561.272 294.09 558.308 295.97 555.09 297.303L560.438 290.414Z" fill="#ADE1D1"/>
<path d="M560.225 285.267C562.151 281.335 564.296 277.515 566.651 273.824C566.786 273.569 566.824 273.274 566.757 272.994C566.691 272.714 566.524 272.467 566.289 272.301C566.053 272.135 565.766 272.06 565.479 272.09C565.193 272.121 564.927 272.255 564.732 272.467C562.837 275.062 560.977 278.858 559.567 284.438L560.225 285.267Z" fill="#ADE1D1"/>
<path d="M556.552 332.296L557.239 332.225C554.278 304.618 555.527 287.595 560.704 284.296L560.331 283.703C554.846 287.216 553.543 304.014 556.552 332.296Z" fill="#444053"/>
<path d="M566.741 397.569L567.765 397.415C567.38 394.862 566.936 392.268 566.439 389.715C562.127 367.308 558.774 346.595 557.098 330.863L556.346 330.271C558.028 346.032 561.084 367.462 565.426 389.898C565.911 392.433 566.356 395.022 566.741 397.569Z" fill="#444053"/>
<path d="M518.763 537.105C518.917 536.98 534.696 524.909 548.55 501.756C556.67 488.206 562.588 473.454 566.082 458.049C570.46 438.793 570.584 416.369 567.427 395.365L566.503 396.106C573.611 443.242 560.053 479.84 547.401 500.997C533.683 523.938 518.088 535.884 517.928 536.003L518.763 537.105Z" fill="#444053"/>
<path d="M114.726 536.998C136.496 536.998 154.144 533.604 154.144 529.416C154.144 525.229 136.496 521.835 114.726 521.835C92.9557 521.835 75.3076 525.229 75.3076 529.416C75.3076 533.604 92.9557 536.998 114.726 536.998Z" fill="#ADE1D1"/>
<path d="M114.063 532.2C116.598 532.2 118.653 529.511 118.653 526.194C118.653 522.877 116.598 520.188 114.063 520.188C111.527 520.188 109.472 522.877 109.472 526.194C109.472 529.511 111.527 532.2 114.063 532.2Z" fill="#3F3D56"/>
<path d="M114.063 524.856C116.598 524.856 118.653 522.167 118.653 518.85C118.653 515.533 116.598 512.844 114.063 512.844C111.527 512.844 109.472 515.533 109.472 518.85C109.472 522.167 111.527 524.856 114.063 524.856Z" fill="#3F3D56"/>
<path d="M114.063 517.517C116.598 517.517 118.653 514.828 118.653 511.511C118.653 508.194 116.598 505.505 114.063 505.505C111.527 505.505 109.472 508.194 109.472 511.511C109.472 514.828 111.527 517.517 114.063 517.517Z" fill="#3F3D56"/>
<path d="M114.063 510.172C116.598 510.172 118.653 507.483 118.653 504.166C118.653 500.849 116.598 498.16 114.063 498.16C111.527 498.16 109.472 500.849 109.472 504.166C109.472 507.483 111.527 510.172 114.063 510.172Z" fill="#3F3D56"/>
<path d="M114.063 502.828C116.598 502.828 118.653 500.139 118.653 496.822C118.653 493.505 116.598 490.816 114.063 490.816C111.527 490.816 109.472 493.505 109.472 496.822C109.472 500.139 111.527 502.828 114.063 502.828Z" fill="#3F3D56"/>
<path d="M114.063 495.489C116.598 495.489 118.653 492.8 118.653 489.483C118.653 486.166 116.598 483.477 114.063 483.477C111.527 483.477 109.472 486.166 109.472 489.483C109.472 492.8 111.527 495.489 114.063 495.489Z" fill="#3F3D56"/>
<path d="M114.063 488.144C116.598 488.144 118.653 485.455 118.653 482.138C118.653 478.821 116.598 476.132 114.063 476.132C111.527 476.132 109.472 478.821 109.472 482.138C109.472 485.455 111.527 488.144 114.063 488.144Z" fill="#3F3D56"/>
<path d="M131.239 431.887C131.868 431.089 132.441 430.248 132.951 429.37L120.892 427.391L133.923 427.486C135.175 424.765 135.858 421.817 135.93 418.823C136.002 415.828 135.462 412.851 134.343 410.072L116.846 419.146L132.981 407.3C131.472 404.682 129.44 402.402 127.011 400.604C124.582 398.806 121.809 397.528 118.864 396.85C115.919 396.172 112.866 396.108 109.895 396.663C106.924 397.217 104.1 398.378 101.598 400.073C99.096 401.768 96.9704 403.961 95.3538 406.514C93.7371 409.068 92.6642 411.927 92.202 414.913C91.7398 417.9 91.8983 420.949 92.6674 423.872C93.4366 426.794 94.7999 429.527 96.6724 431.899C95.6969 433.143 94.857 434.487 94.1669 435.909L109.822 444.041L93.1422 438.438C91.9715 441.903 91.6834 445.605 92.3039 449.209C92.9245 452.813 94.4341 456.206 96.6961 459.08C94.144 462.323 92.5561 466.218 92.1138 470.321C91.6716 474.424 92.393 478.568 94.1954 482.281C95.9978 485.993 98.8085 489.123 102.306 491.313C105.804 493.502 109.847 494.664 113.974 494.664C118.1 494.664 122.144 493.502 125.641 491.313C129.139 489.123 131.95 485.993 133.752 482.281C135.554 478.568 136.276 474.424 135.834 470.321C135.391 466.218 133.803 462.323 131.251 459.08C134.301 455.206 135.96 450.42 135.96 445.489C135.96 440.559 134.301 435.772 131.251 431.899L131.239 431.887Z" fill="#ADE1D1"/>
<path opacity="0.1" d="M91.981 445.48C91.976 450.41 93.6329 455.197 96.684 459.068C94.1319 462.311 92.5439 466.206 92.1017 470.309C91.6595 474.412 92.3808 478.557 94.1833 482.269C95.9857 485.981 98.7964 489.111 102.294 491.301C105.792 493.491 109.835 494.652 113.962 494.652C118.088 494.652 122.132 493.491 125.629 491.301C129.127 489.111 131.937 485.981 133.74 482.269C135.542 478.557 136.264 474.412 135.821 470.309C135.379 466.206 133.791 462.311 131.239 459.068C134.189 455.331 91.981 443.011 91.981 445.48Z" fill="black"/>
<path d="M137.204 270.738V532.366C137.204 533.566 137.44 534.753 137.899 535.861C138.358 536.969 139.031 537.976 139.879 538.824C140.727 539.673 141.734 540.345 142.842 540.804C143.95 541.263 145.138 541.5 146.338 541.5H521.784C524.206 541.5 526.529 540.537 528.242 538.824C529.955 537.112 530.917 534.788 530.917 532.366V270.738H137.204Z" fill="white"/>
<path opacity="0.1" d="M257.354 294.158H173.483C170.653 294.158 168.359 296.451 168.359 299.281V344.279C168.359 347.108 170.653 349.402 173.483 349.402H257.354C260.183 349.402 262.477 347.108 262.477 344.279V299.281C262.477 296.451 260.183 294.158 257.354 294.158Z" fill="black"/>
<path opacity="0.1" d="M375.999 294.158H292.128C289.299 294.158 287.005 296.451 287.005 299.281V344.279C287.005 347.108 289.299 349.402 292.128 349.402H375.999C378.829 349.402 381.123 347.108 381.123 344.279V299.281C381.123 296.451 378.829 294.158 375.999 294.158Z" fill="black"/>
<path d="M256.027 294.933H174.804C171.974 294.933 169.68 297.227 169.68 300.057V343.497C169.68 346.326 171.974 348.62 174.804 348.62H256.027C258.856 348.62 261.15 346.326 261.15 343.497V300.057C261.15 297.227 258.856 294.933 256.027 294.933Z" fill="#ADE1D1"/>
<path opacity="0.1" d="M412.094 348.62H493.317C496.147 348.62 498.44 346.326 498.44 343.497V300.057C498.44 297.227 496.147 294.933 493.317 294.933H412.094C409.264 294.933 406.97 297.227 406.97 300.057V343.497C406.97 346.326 409.264 348.62 412.094 348.62Z" fill="#444053"/>
<path d="M293.449 348.62H374.672C377.502 348.62 379.796 346.326 379.796 343.497V300.057C379.796 297.227 377.502 294.933 374.672 294.933H293.449C290.62 294.933 288.326 297.227 288.326 300.057V343.497C288.326 346.326 290.62 348.62 293.449 348.62Z" fill="#ADE1D1"/>
<path opacity="0.1" d="M256.027 372.484H174.804C171.974 372.484 169.68 374.778 169.68 377.608V421.048C169.68 423.877 171.974 426.171 174.804 426.171H256.027C258.856 426.171 261.15 423.877 261.15 421.048V377.608C261.15 374.778 258.856 372.484 256.027 372.484Z" fill="#444053"/>
<path opacity="0.1" d="M412.094 426.171H493.317C496.147 426.171 498.44 423.877 498.44 421.048V377.608C498.44 374.778 496.147 372.484 493.317 372.484H412.094C409.264 372.484 406.97 374.778 406.97 377.608V421.048C406.97 423.877 409.264 426.171 412.094 426.171Z" fill="#444053"/>
<path opacity="0.1" d="M293.449 426.171H374.672C377.502 426.171 379.796 423.877 379.796 421.048V377.608C379.796 374.778 377.502 372.484 374.672 372.484H293.449C290.62 372.484 288.326 374.778 288.326 377.608V421.048C288.326 423.877 290.62 426.171 293.449 426.171Z" fill="#444053"/>
<path opacity="0.1" d="M256.027 450.035H174.804C171.974 450.035 169.68 452.329 169.68 455.159V498.599C169.68 501.428 171.974 503.722 174.804 503.722H256.027C258.856 503.722 261.15 501.428 261.15 498.599V455.159C261.15 452.329 258.856 450.035 256.027 450.035Z" fill="#444053"/>
<path opacity="0.1" d="M412.094 503.728H493.317C496.147 503.728 498.44 501.434 498.44 498.605V455.165C498.44 452.335 496.147 450.041 493.317 450.041H412.094C409.264 450.041 406.97 452.335 406.97 455.165V498.605C406.97 501.434 409.264 503.728 412.094 503.728Z" fill="#444053"/>
<path opacity="0.1" d="M293.449 503.728H374.672C377.502 503.728 379.796 501.434 379.796 498.605V455.165C379.796 452.335 377.502 450.041 374.672 450.041H293.449C290.62 450.041 288.326 452.335 288.326 455.165V498.605C288.326 501.434 290.62 503.728 293.449 503.728Z" fill="#444053"/>
<path d="M137.204 224.532V272.064H530.917V224.532C530.918 223.332 530.682 222.144 530.224 221.035C529.765 219.926 529.092 218.918 528.244 218.07C527.396 217.221 526.389 216.548 525.28 216.088C524.172 215.629 522.984 215.392 521.784 215.392H146.338C145.138 215.392 143.949 215.629 142.841 216.088C141.732 216.548 140.725 217.221 139.877 218.07C139.029 218.918 138.356 219.926 137.898 221.035C137.439 222.144 137.203 223.332 137.204 224.532ZM234.639 238.593C233.197 238.593 231.787 238.166 230.588 237.364C229.389 236.563 228.454 235.424 227.903 234.092C227.351 232.76 227.206 231.294 227.488 229.879C227.769 228.465 228.463 227.166 229.483 226.146C230.503 225.126 231.802 224.432 233.216 224.151C234.631 223.869 236.097 224.014 237.429 224.566C238.761 225.117 239.9 226.052 240.701 227.251C241.502 228.45 241.93 229.86 241.93 231.302C241.93 233.236 241.162 235.09 239.795 236.458C238.427 237.825 236.573 238.593 234.639 238.593ZM433.483 238.593C432.04 238.593 430.631 238.166 429.432 237.364C428.233 236.563 427.298 235.424 426.746 234.092C426.194 232.76 426.05 231.294 426.331 229.879C426.613 228.465 427.307 227.166 428.327 226.146C429.347 225.126 430.646 224.432 432.06 224.151C433.474 223.869 434.941 224.014 436.273 224.566C437.605 225.117 438.744 226.052 439.545 227.251C440.346 228.45 440.774 229.86 440.774 231.302C440.774 232.26 440.585 233.209 440.218 234.095C439.851 234.98 439.312 235.785 438.634 236.462C437.956 237.139 437.151 237.676 436.265 238.042C435.379 238.407 434.429 238.595 433.471 238.593H433.483Z" fill="#ADE1D1"/>
<path opacity="0.1" d="M234.639 222.684C232.934 222.683 231.267 223.187 229.849 224.133C228.431 225.08 227.326 226.425 226.672 228C226.019 229.574 225.848 231.307 226.18 232.98C226.511 234.652 227.332 236.188 228.537 237.394C229.742 238.599 231.277 239.421 232.949 239.754C234.621 240.087 236.354 239.917 237.929 239.264C239.504 238.612 240.851 237.508 241.798 236.09C242.745 234.673 243.251 233.007 243.251 231.302C243.252 230.17 243.029 229.05 242.597 228.004C242.165 226.959 241.53 226.009 240.73 225.208C239.931 224.408 238.981 223.773 237.936 223.34C236.891 222.907 235.77 222.684 234.639 222.684ZM234.639 238.593C233.197 238.593 231.787 238.166 230.588 237.364C229.389 236.563 228.454 235.424 227.902 234.092C227.351 232.76 227.206 231.294 227.487 229.879C227.769 228.465 228.463 227.166 229.483 226.146C230.503 225.126 231.802 224.432 233.216 224.151C234.631 223.869 236.097 224.014 237.429 224.566C238.761 225.117 239.9 226.052 240.701 227.251C241.502 228.45 241.93 229.86 241.93 231.302C241.93 233.236 241.162 235.09 239.794 236.458C238.427 237.825 236.572 238.593 234.639 238.593Z" fill="black"/>
<path opacity="0.1" d="M433.471 222.684C431.766 222.684 430.1 223.189 428.683 224.136C427.265 225.083 426.161 226.429 425.509 228.004C424.856 229.579 424.686 231.311 425.018 232.983C425.351 234.655 426.171 236.19 427.377 237.396C428.582 238.601 430.118 239.422 431.789 239.754C433.461 240.087 435.194 239.916 436.769 239.264C438.343 238.612 439.689 237.507 440.636 236.09C441.583 234.673 442.089 233.006 442.089 231.302C442.089 229.016 441.181 226.824 439.565 225.208C437.948 223.592 435.756 222.684 433.471 222.684ZM433.471 238.593C432.029 238.593 430.619 238.166 429.42 237.364C428.221 236.563 427.286 235.424 426.734 234.092C426.182 232.76 426.038 231.294 426.319 229.879C426.601 228.465 427.295 227.166 428.315 226.146C429.335 225.126 430.634 224.432 432.048 224.151C433.463 223.869 434.929 224.014 436.261 224.566C437.593 225.117 438.732 226.052 439.533 227.251C440.334 228.45 440.762 229.86 440.762 231.302C440.762 233.236 439.994 235.09 438.626 236.458C437.259 237.825 435.404 238.593 433.471 238.593Z" fill="black"/>
<path opacity="0.1" d="M611.719 373.782C616.714 373.782 620.764 369.732 620.764 364.737C620.764 359.742 616.714 355.693 611.719 355.693C606.724 355.693 602.675 359.742 602.675 364.737C602.675 369.732 606.724 373.782 611.719 373.782Z" fill="#ADE1D1"/>
<path opacity="0.1" d="M644.077 339.564C652.451 339.564 659.24 332.775 659.24 324.401C659.24 316.026 652.451 309.238 644.077 309.238C635.703 309.238 628.914 316.026 628.914 324.401C628.914 332.775 635.703 339.564 644.077 339.564Z" fill="#ADE1D1"/>
<path opacity="0.1" d="M624.005 413.14C632.379 413.14 639.168 406.352 639.168 397.977C639.168 389.603 632.379 382.814 624.005 382.814C615.631 382.814 608.842 389.603 608.842 397.977C608.842 406.352 615.631 413.14 624.005 413.14Z" fill="#ADE1D1"/>
<path d="M548.076 554.53C546.727 553.515 545.249 552.684 543.681 552.06C543.562 551.999 543.43 551.964 543.296 551.96C540.05 549.63 537.018 547.018 534.234 544.153C534.826 543.679 535.371 543.217 535.951 542.761C532.397 541.067 530.425 537.188 528.506 533.687C523.432 524.381 516.746 516.05 508.758 509.083C508.563 508.33 507.42 508.49 506.81 508.005C506.611 507.813 506.466 507.573 506.39 507.308C506.314 507.042 506.31 506.762 506.377 506.494C506.472 505.949 506.721 505.446 506.857 504.913C507.183 503.663 506.899 502.348 506.756 501.063C506.614 499.777 506.674 498.344 507.526 497.384C507.799 497.07 508.148 496.828 508.415 496.508C508.695 496.131 508.892 495.699 508.994 495.241C509.097 494.783 509.101 494.308 509.007 493.848C508.943 492.926 508.743 492.018 508.415 491.153C511.317 483.256 514.218 475.345 517.116 467.42C519.148 461.887 521.197 456.237 521.404 450.337C521.57 445.599 520.35 440.677 517.483 437.058C518.004 436.933 518.526 436.803 519.041 436.655C515.653 432.165 515.286 426.219 515.197 420.562C515.149 417.743 515.053 414.921 514.907 412.098C515.89 412.53 516.885 412.915 517.904 413.247L518.851 413.537C520.39 413.988 521.96 414.324 523.548 414.544C524.247 414.645 524.958 414.722 525.663 414.769C524.644 412.218 523.627 409.664 522.613 407.105C522.085 405.972 521.764 404.755 521.665 403.51V403.273C521.665 403.13 521.665 402.988 521.694 402.846C521.735 402.507 521.812 402.173 521.925 401.851C521.978 401.692 522.039 401.536 522.109 401.383C522.32 400.916 522.574 400.47 522.867 400.05C523.08 399.725 523.317 399.411 523.554 399.091C524.437 398.061 525.154 396.9 525.681 395.65C525.889 395.017 525.999 394.355 526.006 393.689C526.018 393.013 525.958 392.338 525.829 391.675C525.746 391.237 525.639 390.793 525.521 390.366C525.444 390.1 525.361 389.833 525.278 389.572L525.207 389.359C525.142 389.158 525.077 388.962 525.005 388.767L524.934 388.566C524.857 388.352 524.78 388.145 524.697 387.932L524.65 387.807C523.519 384.899 522.014 382.127 521.096 379.136C520.855 378.34 520.657 377.531 520.504 376.713C520.462 376.506 520.433 376.293 520.397 376.086C520.362 375.878 520.344 375.73 520.32 375.553C520.297 375.375 520.267 375.138 520.243 374.931L520.19 374.338C520.19 374.149 520.16 373.959 520.149 373.746C520.149 373.385 520.113 373.023 520.107 372.662C520.107 372.532 520.107 372.407 520.107 372.277C520.107 372.005 520.107 371.726 520.107 371.454C520.107 371.306 520.107 371.158 520.107 371.015C520.107 370.743 520.149 370.471 520.172 370.204C520.172 370.074 520.172 369.943 520.214 369.819C520.253 369.424 520.306 369.029 520.374 368.634C520.433 368.285 520.498 367.93 520.569 367.574C520.784 366.601 520.895 365.609 520.901 364.613C520.901 364.423 520.901 364.228 520.859 364.02C520.818 363.813 520.812 363.7 520.782 363.546C520.779 363.499 520.779 363.452 520.782 363.404C520.782 363.298 520.729 363.191 520.705 363.084C520.682 362.978 520.676 362.984 520.658 362.936C520.64 362.889 520.593 362.729 520.557 362.628C520.522 362.528 520.528 362.54 520.51 362.492C520.492 362.445 520.427 362.279 520.38 362.178L520.338 362.072C520.279 361.941 520.214 361.817 520.149 361.693C519.919 361.26 519.653 360.848 519.355 360.461C517.406 357.902 514.166 355.953 512.383 353.134C511.342 351.306 510.665 349.295 510.387 347.211C510.298 346.737 510.221 346.263 510.139 345.795C510.056 345.327 509.985 344.865 509.902 344.403C509.848 344.119 509.795 343.811 509.736 343.55L509.7 343.367C509.653 343.141 509.605 342.91 509.552 342.685L509.517 342.525C509.463 342.289 509.41 342.052 509.351 341.815L509.315 341.69C509.256 341.442 509.191 341.193 509.126 340.944C509.123 340.914 509.123 340.885 509.126 340.855C509.055 340.595 508.978 340.334 508.901 340.073V340.02C508.818 339.748 508.735 339.481 508.646 339.214C508.557 338.942 508.462 338.664 508.362 338.391C508.255 338.113 508.154 337.834 508.042 337.562C507.297 335.654 506.288 333.859 505.045 332.231C502.332 328.748 498.138 326.249 493.791 326.415C491.457 326.504 489.218 327.321 487.021 328.132L481.317 330.235L482.91 329.501C481.252 329.649 479.558 329.803 478.059 330.537C476.561 331.272 475.293 332.711 475.246 334.393C475.216 335.37 475.601 336.342 475.477 337.313C475.269 338.918 473.794 340.008 473.03 341.43C472.583 342.286 472.378 343.249 472.438 344.214V344.261C472.438 344.373 472.438 344.48 472.438 344.593C472.435 344.624 472.435 344.656 472.438 344.687V344.877C470.069 343.846 467.7 342.774 465.33 341.625C461.415 339.7 457.453 337.438 455.012 333.789C454.231 332.604 453.626 331.325 452.85 330.152C451.96 328.89 450.97 327.702 449.889 326.598L442.621 318.732C442.065 319.781 442.781 321.019 443.344 322.061C443.941 323.155 444.394 324.321 444.688 325.532C444.832 325.927 444.819 326.361 444.653 326.746C444.388 327.064 444.045 327.307 443.658 327.451C442.994 327.869 442.487 328.495 442.216 329.231C441.945 329.967 441.925 330.772 442.159 331.52C442.417 332.257 442.862 332.915 443.451 333.428C444.04 333.941 444.752 334.292 445.518 334.446C446.031 334.505 446.534 334.628 447.016 334.814C447.893 335.246 448.307 336.253 448.935 337.005C450.078 338.379 451.897 338.895 453.632 339.345C456.321 342.448 459.117 345.422 461.806 348.526C465.875 353.223 470.039 358.002 475.346 361.177C475.897 361.509 476.46 361.817 477.028 362.101C477.028 362.196 477.028 362.291 476.999 362.386C476.85 363.086 476.94 363.815 477.254 364.459C477.727 365.211 478.705 365.436 479.575 365.59L483.591 366.307C483.556 366.827 483.49 367.345 483.396 367.858C483.342 368.172 483.277 368.48 483.218 368.794L483.147 369.197C483.147 369.197 483.147 369.239 483.147 369.256C483.147 369.274 483.147 369.47 483.106 369.582C483.064 369.695 483.106 369.659 483.106 369.695V369.979V370.097C483.106 370.222 483.106 370.352 483.106 370.482C483.242 372.058 484.29 373.361 485.339 374.563L485.901 375.245C485.008 376.369 484.383 377.681 484.071 379.083C483.892 379.962 483.805 380.857 483.81 381.754C483.273 382.266 482.867 382.9 482.626 383.602C482.345 384.573 482.241 385.586 482.318 386.593V386.664C482.318 387.037 482.318 387.405 482.318 387.778C482.249 389.193 482.483 390.607 483.005 391.924C483.058 392.031 483.117 392.125 483.171 392.226C482.282 393.967 480.801 395.324 479.741 396.964C478.669 398.786 478.184 400.894 478.353 403.001C478.521 405.108 479.335 407.112 480.683 408.74C481.495 409.675 482.537 410.576 482.632 411.82C482.618 412.384 482.562 412.946 482.466 413.502C482.371 414.84 482.987 416.108 483.319 417.405C483.597 418.483 483.609 419.774 482.993 420.639C482.37 421.548 482.083 422.645 482.182 423.743C482.484 425.419 481.791 427.095 481.672 428.795C481.619 429.524 481.672 430.264 481.607 430.993C481.522 431.691 481.377 432.38 481.175 433.054C481.175 433.125 481.139 433.202 481.115 433.279C479.652 433.925 478.201 434.594 476.803 435.37C476.049 435.706 475.424 436.28 475.026 437.005C474.79 437.732 474.757 438.51 474.932 439.255L476.193 448.033L475.974 447.939C476.073 449.376 476.176 450.819 476.282 452.268C476.359 453.364 476.46 454.525 477.111 455.402C477.443 455.755 477.742 456.138 478.006 456.545C478.503 457.552 477.911 458.724 477.473 459.755C477.034 460.786 476.88 462.249 477.846 462.805C478.349 463.156 478.892 463.446 479.463 463.67C478.278 468.61 479.368 473.787 480.47 478.744C481.311 482.535 482.154 486.322 482.999 490.105C483.329 491.712 483.516 493.345 483.556 494.986C483.556 495.222 483.556 495.459 483.556 495.696C483.675 497.952 484.072 500.184 484.74 502.342C486.055 506.773 484.794 512.091 485.208 516.919C485.484 519.241 485.947 521.537 486.594 523.784C489.455 535.132 492.008 546.256 492.991 557.924C494.043 559.264 495.47 560.26 497.09 560.785C496.971 562.218 497.131 563.859 497.09 564.694C497.088 565.386 496.98 566.073 496.77 566.732C496.267 568.047 494.993 568.906 493.672 569.368C493.258 569.51 492.837 569.622 492.411 569.723L492.885 569.32C490.177 568.732 487.346 569.229 485.001 570.706C484.633 570.894 484.305 571.153 484.038 571.468C483.77 571.783 483.568 572.148 483.443 572.542C483.346 573.295 483.541 574.056 483.988 574.669C485.292 576.578 487.235 577.958 489.467 578.56C491.672 579.141 493.939 579.457 496.219 579.502L500.401 579.745C500.259 579.984 500.208 580.266 500.258 580.539C500.308 580.813 500.456 581.059 500.673 581.232C501.122 581.559 501.654 581.752 502.208 581.788C503.916 582.042 505.651 582.068 507.367 581.865C507.797 581.853 508.212 581.704 508.551 581.439C508.63 581.367 508.693 581.28 508.736 581.182C508.779 581.085 508.802 580.98 508.802 580.873C508.802 580.767 508.779 580.661 508.736 580.564C508.693 580.466 508.63 580.379 508.551 580.308C508.802 580.3 509.045 580.216 509.248 580.068C509.45 579.92 509.604 579.715 509.688 579.478C509.852 578.997 509.905 578.485 509.842 577.98C509.73 576.031 509.558 573.2 508.545 571.464C508.37 571.149 508.096 570.899 507.766 570.753C507.435 570.608 507.066 570.575 506.715 570.659C506.06 567.191 505.664 563.678 505.53 560.151C506.574 559.76 507.591 559.301 508.575 558.777C505.667 554.08 505.613 548.116 506.502 542.655C506.854 540.93 507.113 539.188 507.278 537.436C507.473 533.942 506.946 529.985 505.009 527.095C508.54 529.34 511.664 532.168 514.249 535.458C518.342 540.789 520.836 547.245 525.852 551.687C526.512 551.044 527.179 550.404 527.854 549.768C528.913 551.561 529.914 553.391 530.857 555.259C531.598 556.633 532.182 558.085 532.599 559.589C533.061 561.889 533.115 564.253 532.759 566.572C532.621 567.804 532.453 569.03 532.255 570.25C532.176 570.772 532.055 571.287 531.894 571.79C531.892 571.63 531.853 571.472 531.781 571.328C531.468 570.777 530.597 571.026 530.123 571.405C529.279 572.038 528.582 572.847 528.08 573.774C527.803 574.227 527.675 574.755 527.712 575.285C527.789 575.603 527.935 575.901 528.14 576.157C528.344 576.413 528.603 576.621 528.897 576.766C531.094 578.051 533.855 577.121 536.212 576.173C536.863 575.939 537.484 575.627 538.06 575.243C539.245 574.39 539.89 572.987 541.069 572.157C541.698 571.812 542.305 571.428 542.887 571.008C543.983 570.007 544.072 568.319 544.871 567.052C546.198 564.866 549.166 564.303 550.327 561.987C551.671 559.429 550.102 556.201 548.076 554.53Z" fill="url(#paint0_linear)"/>
<path d="M497.013 564.955C497.01 565.639 496.9 566.318 496.688 566.969C496.19 568.266 494.911 569.113 493.596 569.569C492.281 570.025 490.883 570.161 489.544 570.558C488.956 570.692 488.412 570.973 487.963 571.376C486.778 572.56 487.489 574.692 488.875 575.575C490.261 576.458 492.026 576.428 493.673 576.315C497.167 576.112 500.638 575.619 504.05 574.841C505.282 574.55 506.721 573.982 506.917 572.732C506.954 572.335 506.922 571.934 506.822 571.547C505.981 567.307 505.535 562.999 505.489 558.676C505.489 558.392 498.619 558.209 497.979 558.623C496.545 559.565 497.09 563.498 497.013 564.955Z" fill="#A1616A"/>
<path d="M527.647 549.869C528.784 551.752 529.852 553.673 530.851 555.632C531.591 556.985 532.175 558.418 532.593 559.903C533.052 562.171 533.106 564.503 532.753 566.791C532.614 568.003 532.445 569.214 532.243 570.422C532.048 571.607 531.734 572.951 530.721 573.632C531.172 573.9 531.678 574.063 532.201 574.109C532.724 574.155 533.25 574.083 533.742 573.899C534.719 573.52 535.62 572.969 536.401 572.27C541.477 568.082 545.286 561.999 545.475 555.419C545.529 554.905 545.432 554.386 545.197 553.926C544.958 553.604 544.655 553.334 544.309 553.133C540.521 550.553 537.003 547.598 533.807 544.313C533.619 544.06 533.345 543.885 533.037 543.821C532.794 543.823 532.557 543.89 532.35 544.017C530.401 544.994 527.143 546.386 526.332 548.607C526.887 548.887 527.345 549.326 527.647 549.869Z" fill="#A1616A"/>
<path d="M503.956 571.832C499.691 573.609 495.071 574.248 490.457 574.858C489.865 574.929 489.231 574.977 488.84 574.562C488.685 574.369 488.591 574.133 488.572 573.886C488.553 573.638 488.609 573.391 488.733 573.176C488.985 572.749 489.321 572.378 489.722 572.086L492.785 569.522C490.115 568.955 487.329 569.434 485.002 570.86C484.27 571.225 483.712 571.863 483.45 572.637C483.351 573.382 483.547 574.136 483.995 574.74C485.305 576.629 487.245 577.989 489.468 578.578C491.673 579.15 493.937 579.462 496.214 579.508L500.36 579.745C500.217 579.981 500.167 580.262 500.218 580.533C500.27 580.804 500.419 581.046 500.639 581.214C501.089 581.543 501.623 581.738 502.179 581.776C503.886 582.025 505.618 582.049 507.332 581.848C507.762 581.84 508.178 581.693 508.516 581.427C508.595 581.357 508.657 581.271 508.7 581.175C508.743 581.079 508.766 580.975 508.766 580.87C508.766 580.765 508.743 580.661 508.7 580.565C508.657 580.469 508.595 580.383 508.516 580.313C508.767 580.306 509.009 580.223 509.211 580.077C509.414 579.93 509.568 579.726 509.654 579.49C509.812 579.016 509.864 578.512 509.808 578.015C509.695 576.096 509.523 573.277 508.51 571.601C507.498 569.924 505.389 571.239 503.956 571.832Z" fill="#3F3D56"/>
<path d="M547.969 554.898C546.618 553.896 545.14 553.077 543.574 552.463C543.512 552.415 543.439 552.382 543.362 552.366C543.285 552.35 543.205 552.352 543.129 552.371C543.052 552.391 542.981 552.427 542.921 552.478C542.861 552.529 542.813 552.592 542.781 552.664C539.983 556.46 537.799 560.672 536.307 565.144C535.46 567.691 534.79 570.404 533.073 572.465C532.848 572.738 532.48 573.016 532.172 572.856C531.728 572.631 532.001 571.915 531.752 571.482C531.444 570.937 530.603 571.186 530.099 571.559C529.253 572.188 528.557 572.997 528.062 573.928C527.778 574.37 527.649 574.893 527.694 575.415C527.768 575.728 527.91 576.02 528.11 576.272C528.309 576.524 528.562 576.729 528.85 576.872C531.047 578.146 533.807 577.228 536.159 576.28C536.808 576.051 537.427 575.742 538.001 575.362C539.185 574.527 539.831 573.135 541.01 572.323C541.639 571.982 542.246 571.602 542.828 571.186C543.918 570.197 544.013 568.532 544.806 567.277C546.133 565.127 549.1 564.57 550.261 562.284C551.559 559.731 549.995 556.544 547.969 554.898Z" fill="#3F3D56"/>
<path d="M514.914 436.584C519.569 440.079 521.524 446.292 521.316 452.108C521.109 457.925 519.066 463.504 517.04 468.96C514.138 476.766 511.239 484.571 508.345 492.374C508.668 493.229 508.867 494.127 508.937 495.039C509.029 495.492 509.024 495.96 508.922 496.411C508.819 496.863 508.623 497.287 508.345 497.657C508.072 497.971 507.753 498.214 507.456 498.522C506.604 499.469 506.55 500.891 506.686 502.153C506.823 503.414 507.113 504.717 506.787 505.949C506.651 506.476 506.402 506.974 506.307 507.507C506.241 507.772 506.246 508.049 506.322 508.312C506.398 508.574 506.542 508.811 506.74 509C507.332 509.473 508.517 509.319 508.688 510.066C516.653 516.925 523.332 525.149 528.412 534.35C530.331 537.804 532.268 541.63 535.852 543.3C532.36 546.066 529.013 549.01 525.824 552.12C520.819 547.737 518.325 541.357 514.238 536.127C511.651 532.875 508.531 530.085 505.01 527.876C506.947 530.725 507.474 534.635 507.279 538.076C507.115 539.805 506.856 541.523 506.503 543.223C505.585 548.613 505.668 554.477 508.576 559.133C505.472 560.744 501.907 561.94 498.442 561.46C496.267 561.151 494.293 560.024 492.921 558.309C491.938 546.795 489.367 535.802 486.53 524.625C485.88 522.395 485.418 520.114 485.15 517.807C484.736 513.069 485.997 507.797 484.676 503.426C484.011 501.3 483.613 499.099 483.492 496.875C483.492 496.638 483.492 496.407 483.492 496.17C483.451 494.554 483.265 492.944 482.935 491.361L480.412 480.154C479.31 475.256 478.208 470.15 479.399 465.275C478.831 465.056 478.29 464.772 477.788 464.428C476.822 463.878 476.976 462.438 477.415 461.419C477.853 460.401 478.439 459.246 477.948 458.251C477.685 457.847 477.386 457.468 477.053 457.119C476.402 456.255 476.301 455.111 476.224 454.033L475.916 449.757C477.704 450.466 479.193 451.769 480.133 453.447C477.8 449.834 478.949 444.681 480.672 440.736C480.993 439.528 481.695 438.455 482.675 437.679C483.655 436.903 484.86 436.465 486.11 436.43C495.604 434.807 507.202 430.785 514.914 436.584Z" fill="#3F3D56"/>
<path opacity="0.1" d="M510.584 460.904C510.584 460.904 505.916 464.02 505.916 466.353C505.916 468.687 504.732 489.69 504.732 489.69V504.498C504.732 504.498 505.507 512.281 504.732 514.224C503.956 516.167 504.732 525.116 504.732 526.283C504.732 527.45 505.916 514.224 505.916 514.224V500.198L507.101 468.296L510.584 460.904Z" fill="black"/>
<path d="M484.551 353.021L481.832 351.961C476.276 349.734 470.714 347.501 465.336 344.889C461.427 342.987 457.465 340.743 455.03 337.159C454.248 335.975 453.644 334.731 452.868 333.564C451.977 332.316 450.986 331.141 449.907 330.051L442.645 322.292C442.088 323.329 442.799 324.549 443.368 325.574C443.963 326.654 444.415 327.806 444.712 329.003C444.852 329.388 444.837 329.813 444.671 330.188C444.409 330.505 444.068 330.746 443.682 330.887C443.02 331.292 442.513 331.907 442.242 332.634C441.97 333.36 441.95 334.157 442.183 334.897C442.443 335.628 442.889 336.279 443.477 336.786C444.064 337.292 444.774 337.638 445.535 337.787C446.048 337.846 446.551 337.968 447.034 338.148C447.911 338.581 448.325 339.57 448.953 340.31C450.096 341.667 451.915 342.182 453.644 342.62C456.333 345.682 459.123 348.614 461.812 351.677C465.875 356.308 470.033 361.023 475.34 364.162C477.225 365.315 479.289 366.143 481.447 366.615C482.161 362.016 483.198 357.474 484.551 353.021Z" fill="#A1616A"/>
<path opacity="0.15" d="M484.551 353.021L481.832 351.961C476.276 349.734 470.714 347.501 465.336 344.889C461.427 342.987 457.465 340.743 455.03 337.159C454.248 335.975 453.644 334.731 452.868 333.564C451.977 332.316 450.986 331.141 449.907 330.051L442.645 322.292C442.088 323.329 442.799 324.549 443.368 325.574C443.963 326.654 444.415 327.806 444.712 329.003C444.852 329.388 444.837 329.813 444.671 330.188C444.409 330.505 444.068 330.746 443.682 330.887C443.02 331.292 442.513 331.907 442.242 332.634C441.97 333.36 441.95 334.157 442.183 334.897C442.443 335.628 442.889 336.279 443.477 336.786C444.064 337.292 444.774 337.638 445.535 337.787C446.048 337.846 446.551 337.968 447.034 338.148C447.911 338.581 448.325 339.57 448.953 340.31C450.096 341.667 451.915 342.182 453.644 342.62C456.333 345.682 459.123 348.614 461.812 351.677C465.875 356.308 470.033 361.023 475.34 364.162C477.225 365.315 479.289 366.143 481.447 366.615C482.161 362.016 483.198 357.474 484.551 353.021Z" fill="black"/>
<path d="M479.576 368.486C478.706 368.332 477.728 368.119 477.254 367.373C476.941 366.74 476.851 366.02 477 365.329C477.471 360.865 478.465 356.472 479.961 352.239C481.282 354.685 483.882 356.113 486.346 357.398C488.546 358.621 490.839 359.667 493.205 360.526C492.613 360.336 491.162 369.446 490.344 370.003C489.314 370.725 486.826 369.748 485.683 369.552L479.576 368.486Z" fill="#ADE1D1"/>
<path d="M485.884 365.797C492.76 365.797 498.334 360.223 498.334 353.347C498.334 346.471 492.76 340.897 485.884 340.897C479.008 340.897 473.434 346.471 473.434 353.347C473.434 360.223 479.008 365.797 485.884 365.797Z" fill="#A1616A"/>
<path d="M483.354 363.653C483.354 363.653 491.522 370.654 488.022 375.322C484.521 379.989 482.573 383.104 487.24 383.495C491.907 383.886 507.467 375.712 507.467 375.712C507.467 375.712 493.074 364.044 495.408 357.043C497.742 350.042 483.354 363.653 483.354 363.653Z" fill="#FBBEBE"/>
<path d="M491.192 374.611C489.451 375.029 487.86 375.923 486.598 377.193C485.335 378.462 484.451 380.058 484.042 381.801C483.124 385.995 485.073 390.686 483.237 394.548C482.372 396.384 480.767 397.758 479.683 399.482C478.616 401.276 478.132 403.358 478.3 405.439C478.468 407.519 479.278 409.497 480.619 411.097C481.43 412.021 482.473 412.915 482.568 414.136C482.554 414.692 482.498 415.246 482.402 415.794C482.307 417.115 482.923 418.371 483.255 419.65C483.533 420.71 483.545 421.984 482.929 422.837C482.308 423.73 482.022 424.815 482.123 425.899C482.42 427.557 481.727 429.21 481.608 430.886C481.555 431.609 481.608 432.331 481.543 433.054C481.457 433.742 481.314 434.421 481.116 435.085L480.074 438.93C485.725 441.346 491.731 442.217 497.843 442.104C503.316 441.998 508.712 440.866 514.067 439.735C515.695 439.392 517.324 439.048 518.929 438.604C515.541 434.173 515.18 428.304 515.085 422.73C514.938 413.437 514.244 404.162 513.006 394.951C514.647 391.853 515.376 388.4 516.051 384.958C516.354 383.572 516.481 382.153 516.43 380.735C516.264 377.774 514.902 374.96 513.569 372.277C512.349 369.825 511.028 367.242 508.309 366.182C507.653 365.906 506.937 365.801 506.229 365.879C505.521 365.957 504.845 366.214 504.264 366.626C502.209 368.178 502.819 370.856 502.291 373.142C501.598 376.103 498.868 378.23 495.96 379.065C493.789 379.634 491.54 379.844 489.302 379.687C489.083 379.674 488.871 379.601 488.691 379.475C488.511 379.35 488.37 379.176 488.283 378.975C488.195 378.773 488.166 378.551 488.197 378.334C488.229 378.117 488.32 377.913 488.461 377.744C489.415 376.69 490.374 375.618 491.192 374.611Z" fill="#ADE1D1"/>
<path d="M500.833 422.736C496.225 426.503 491.563 430.306 486.244 432.971C483.123 434.535 479.806 435.69 476.767 437.372C476.016 437.702 475.392 438.267 474.99 438.983C474.749 439.699 474.716 440.47 474.896 441.204L476.246 450.515C476.619 453.038 479.042 454.661 480.985 456.272C480.878 455.425 480.706 454.768 481.109 454.016C481.249 453.78 481.401 453.553 481.565 453.334C482.394 452.079 482.424 450.45 482.223 448.957C482.021 447.465 481.63 445.996 481.707 444.468C481.691 444.215 481.74 443.962 481.85 443.733C481.96 443.505 482.127 443.309 482.335 443.165C488.951 439.984 496.077 437.544 502.764 434.523C504.533 433.808 506.2 432.862 507.721 431.709C509.25 430.537 510.278 428.829 510.6 426.929C510.631 426.806 510.636 426.678 510.616 426.553C510.595 426.428 510.55 426.308 510.482 426.201C510.347 426.054 510.172 425.95 509.978 425.905C506.981 424.815 503.818 423.814 500.833 422.736Z" fill="#A1616A"/>
<path opacity="0.1" d="M488.034 383.667C485.748 384.052 483.343 385.237 482.567 387.428C482.288 388.389 482.184 389.392 482.259 390.39C482.188 391.792 482.425 393.193 482.952 394.495C483.342 395.213 483.806 395.888 484.338 396.508C489.811 403.521 492.559 412.329 497.89 419.454C498.364 420.082 499.229 420.9 498.962 421.64C498.865 421.832 498.78 422.03 498.708 422.232C498.683 422.424 498.706 422.618 498.774 422.799C498.842 422.98 498.954 423.141 499.098 423.269C499.383 423.53 499.603 423.852 499.744 424.211C499.845 424.584 499.596 425.07 499.211 425.04C499.851 427.018 501.811 428.173 503.671 429.109C506.763 430.667 510.186 431.893 513.628 431.555C514.273 428.967 515.174 426.041 514.812 423.405C514.434 421.392 513.766 419.445 512.828 417.624L510.512 412.566C508.54 408.248 506.55 403.9 503.801 400.033C502.811 398.808 501.978 397.465 501.32 396.035C500.615 394.204 498.678 392.919 497.505 391.349C495.764 388.98 493.951 386.611 491.618 384.899C490.682 384.177 489.177 383.478 488.034 383.667Z" fill="black"/>
<path d="M488.034 382.5C485.747 382.885 483.343 384.07 482.567 386.256C482.289 387.217 482.184 388.219 482.259 389.217C482.188 390.619 482.424 392.02 482.952 393.322C483.341 394.04 483.806 394.715 484.338 395.336C489.811 402.349 492.559 411.156 497.89 418.282C498.363 418.909 499.228 419.727 498.962 420.467C498.865 420.659 498.78 420.857 498.707 421.06C498.683 421.251 498.706 421.446 498.774 421.626C498.842 421.807 498.953 421.968 499.098 422.096C499.382 422.357 499.603 422.679 499.744 423.038C499.844 423.411 499.595 423.897 499.21 423.867C499.85 425.845 501.811 427 503.671 427.936C506.762 429.494 510.186 430.72 513.627 430.383C514.273 427.794 515.173 424.868 514.812 422.232C514.434 420.22 513.765 418.272 512.828 416.451L510.512 411.393C508.539 407.075 506.549 402.728 503.801 398.86C502.81 397.634 501.976 396.289 501.319 394.856C500.614 393.032 498.677 391.746 497.505 390.177C495.763 387.807 493.951 385.438 491.617 383.726C490.681 383.01 489.177 382.311 488.034 382.5Z" fill="#ADE1D1"/>
<path d="M482.816 332.894C481.163 333.037 479.463 333.191 477.971 333.913C476.478 334.636 475.205 336.057 475.157 337.716C475.157 338.681 475.513 339.641 475.388 340.594C475.181 342.182 473.706 343.254 472.948 344.658C471.621 347.098 472.652 350.202 474.37 352.358C476.087 354.514 478.415 356.172 480.18 358.316C481.572 360.031 482.58 362.025 483.134 364.163C483.688 366.301 483.775 368.533 483.39 370.707C483.171 371.552 483.066 372.423 483.077 373.296C483.213 374.848 484.261 376.133 485.304 377.318C490.375 383.247 495.067 389.491 499.353 396.011C500.639 397.905 501.795 399.883 502.812 401.934C503.819 404.054 504.589 406.317 505.987 408.195C507.277 409.807 508.859 411.163 510.648 412.193C515.163 414.977 520.284 416.629 525.575 417.008L522.524 409.444C521.985 408.1 521.428 406.684 521.606 405.245C521.944 402.52 524.692 400.732 525.586 398.137C526.179 396.467 525.912 394.625 525.427 392.925C524.349 389.093 522.193 385.645 521.032 381.837C520.014 378.498 519.787 374.967 520.368 371.525C520.623 370.009 521.038 368.486 520.848 366.964C520.285 362.332 514.854 360.117 512.342 356.19C510.72 353.667 510.406 350.557 509.861 347.607C509.073 343.301 507.669 339.001 504.956 335.566C502.244 332.13 498.062 329.643 493.703 329.826C491.369 329.915 489.136 330.727 486.938 331.52L481.229 333.599" fill="#3F3D56"/>
<g opacity="0.1">
<path opacity="0.1" d="M508.302 342.567C508.793 345.226 509.101 348.016 510.345 350.391C510.173 349.467 510.031 348.537 509.859 347.625C509.457 345.303 508.818 343.029 507.952 340.837C508.1 341.412 508.201 341.986 508.302 342.567Z" fill="black"/>
<path opacity="0.1" d="M518.808 366.484C518.23 369.929 518.457 373.46 519.472 376.802C519.75 377.709 520.064 378.579 520.443 379.468C519.95 376.851 519.924 374.168 520.366 371.543C520.621 370.026 521.036 368.504 520.846 366.982C520.672 365.678 520.138 364.447 519.306 363.428C519.217 364.459 518.98 365.471 518.808 366.484Z" fill="black"/>
<path opacity="0.1" d="M525.426 392.943C525.098 391.83 524.702 390.738 524.241 389.673C524.441 390.816 524.363 391.99 524.016 393.097C523.122 395.685 520.368 397.48 520.036 400.204C519.858 401.644 520.409 403.059 520.954 404.404C521.155 404.907 521.357 405.417 521.546 405.92C521.532 405.701 521.532 405.482 521.546 405.263C521.884 402.538 524.632 400.749 525.527 398.155C526.166 396.485 525.912 394.643 525.426 392.943Z" fill="black"/>
<path opacity="0.1" d="M509.095 407.152C507.306 406.12 505.725 404.762 504.434 403.148C503.03 401.271 502.26 399.002 501.253 396.887C500.237 394.836 499.081 392.857 497.794 390.964C493.51 384.443 488.819 378.198 483.75 372.265C483.567 372.058 483.389 371.845 483.211 371.631C483.089 372.179 483.043 372.741 483.075 373.302C483.211 374.854 484.26 376.139 485.302 377.324C490.373 383.253 495.066 389.497 499.352 396.017C500.638 397.91 501.793 399.889 502.811 401.94C503.818 404.06 504.588 406.323 505.986 408.201C507.276 409.813 508.857 411.169 510.647 412.199C515.162 414.983 520.283 416.635 525.573 417.014L523.5 411.92C518.393 411.473 513.461 409.84 509.095 407.152Z" fill="black"/>
<path opacity="0.1" d="M478.621 353.282C476.844 351.138 474.528 349.509 472.811 347.329C472.657 347.128 472.509 346.92 472.361 346.701C472.325 348.774 473.038 350.791 474.369 352.381C476.086 354.567 478.414 356.196 480.179 358.34C480.868 359.173 481.464 360.079 481.956 361.041C481.589 358.194 480.434 355.507 478.621 353.282Z" fill="black"/>
</g>
<path d="M247.415 292.481L243.12 288.163C242.908 287.949 242.656 287.78 242.378 287.664C242.1 287.548 241.802 287.488 241.5 287.488C241.199 287.488 240.901 287.548 240.623 287.664C240.345 287.78 240.092 287.949 239.88 288.163L212.913 314.882L201.505 303.392C201.078 302.965 200.5 302.726 199.897 302.726C199.293 302.726 198.715 302.965 198.289 303.392L193.947 307.686C193.52 308.117 193.281 308.699 193.281 309.306C193.281 309.912 193.52 310.494 193.947 310.926L211.272 328.381C211.702 328.807 212.283 329.046 212.889 329.046C213.494 329.046 214.076 328.807 214.506 328.381L247.415 295.721C247.629 295.509 247.798 295.257 247.914 294.979C248.03 294.701 248.09 294.403 248.09 294.101C248.09 293.8 248.03 293.502 247.914 293.224C247.798 292.946 247.629 292.693 247.415 292.481Z" fill="#3ACC6C"/>
<path d="M366.469 292.481L362.175 288.163C361.962 287.949 361.71 287.78 361.432 287.664C361.154 287.548 360.856 287.488 360.555 287.488C360.253 287.488 359.955 287.548 359.677 287.664C359.399 287.78 359.147 287.949 358.935 288.163L331.967 314.882L320.559 303.392C320.132 302.965 319.554 302.726 318.951 302.726C318.348 302.726 317.769 302.965 317.343 303.392L313.001 307.686C312.575 308.117 312.335 308.699 312.335 309.306C312.335 309.912 312.575 310.494 313.001 310.926L330.326 328.381C330.756 328.807 331.338 329.046 331.943 329.046C332.549 329.046 333.13 328.807 333.56 328.381L366.469 295.721C366.683 295.509 366.853 295.257 366.969 294.979C367.084 294.701 367.144 294.403 367.144 294.101C367.144 293.8 367.084 293.502 366.969 293.224C366.853 292.946 366.683 292.693 366.469 292.481Z" fill="#3ACC6C"/>
<defs>
<linearGradient id="paint0_linear" x1="496.444" y1="581.996" x2="496.444" y2="318.721" gradientUnits="userSpaceOnUse">
<stop stop-color="#808080" stop-opacity="0.25"/>
<stop offset="0.54" stop-color="#808080" stop-opacity="0.12"/>
<stop offset="1" stop-color="#808080" stop-opacity="0.1"/>
</linearGradient>
</defs>
</svg>
