<svg width="669" height="577" viewBox="0 0 669 577" fill="none" xmlns="http://www.w3.org/2000/svg">
<rect x="72" y="25" width="97" height="93" rx="46" fill="#C7EEA9" fill-opacity="0.71"/>
<rect x="633" y="430" width="32" height="31" rx="15.5" fill="#C7EEA9" fill-opacity="0.71"/>
<rect x="345" y="13" width="32" height="31" rx="15.5" fill="#C7EEA9" fill-opacity="0.71"/>
<rect x="234" y="44" width="24" height="23" rx="11.5" fill="#ADE1D1"/>
<rect x="64" y="554" width="24" height="23" rx="11.5" fill="#ADE1D1"/>
<rect x="549" width="111" height="106" rx="53" fill="#ADE1D1" fill-opacity="0.67"/>
<rect x="18" y="148" width="54" height="52" rx="26" fill="#ADE1D1"/>
<rect x="526" y="498" width="66" height="64" rx="32" fill="#E68FB9" fill-opacity="0.68"/>
<rect x="301" y="68" width="107" height="104" rx="50" fill="#E68FB9" fill-opacity="0.68"/>
<rect x="11" y="394" width="65" height="63" rx="31.5" fill="#E68FB9" fill-opacity="0.68"/>
<rect x="608" y="287" width="41" height="40" rx="20" fill="#E68FB9" fill-opacity="0.68"/>
<path d="M517.156 314.041C517.156 328.358 513.76 340.144 507.869 350.239C505.925 353.565 503.718 356.73 501.269 359.704C479.612 386.153 439.349 400.629 402.959 424.078C295.541 493.291 283.906 382.383 288.757 314.041C290.714 286.465 301.469 261.204 318.555 241.864C322.144 237.796 326.02 233.991 330.154 230.477C349.552 213.982 374.612 204 402.959 204C451.592 204 493.123 233.29 509.589 274.565C514.596 287.126 517.164 300.522 517.156 314.041Z" fill="#ADE1D1"/>
<path d="M427.289 228.8L318.555 241.864C322.144 237.796 326.02 233.991 330.154 230.477L427.289 228.8Z" fill="#D0CDE1"/>
<path d="M507.87 350.239C505.925 353.565 503.718 356.73 501.269 359.704L408.129 348.517L507.87 350.239Z" fill="#D0CDE1"/>
<path d="M513.389 285.915L355.537 265.471L509.589 274.565C511.069 278.274 512.338 282.063 513.389 285.915Z" fill="#D0CDE1"/>
<path d="M299.465 233.311C299.465 233.592 299.457 233.869 299.433 234.142C299.309 235.832 298.81 237.474 297.97 238.948C297.131 240.421 295.973 241.689 294.581 242.659C293.189 243.629 291.598 244.277 289.924 244.556C288.249 244.834 286.534 244.736 284.902 244.269C283.27 243.801 281.763 242.976 280.491 241.854C279.219 240.732 278.214 239.34 277.548 237.781C276.883 236.221 276.574 234.533 276.645 232.84C276.715 231.146 277.163 229.49 277.956 227.991C278.201 227.521 278.482 227.071 278.796 226.643C280.161 224.753 282.074 223.326 284.276 222.555C286.479 221.783 288.866 221.705 291.114 222.331C293.363 222.957 295.365 224.256 296.851 226.053C298.337 227.851 299.235 230.06 299.424 232.383C299.453 232.689 299.465 232.998 299.465 233.311Z" fill="#ADE1D1"/>
<path d="M299.465 233.311C299.465 233.592 299.457 233.869 299.433 234.142L282.342 232.09L299.424 232.383C299.453 232.689 299.465 232.998 299.465 233.311Z" fill="#D0CDE1"/>
<path d="M295.388 239.055L279.578 240.957C279.13 240.457 278.726 239.919 278.372 239.349L295.388 239.055Z" fill="#D0CDE1"/>
<path d="M290.904 226.436L277.956 227.991C278.201 227.521 278.482 227.071 278.795 226.643L290.904 226.436Z" fill="#D0CDE1"/>
<path d="M455.909 438.537C455.777 438.785 455.64 439.026 455.49 439.255C454.587 440.69 453.375 441.907 451.942 442.816C450.509 443.724 448.891 444.302 447.206 444.508C445.521 444.713 443.812 444.54 442.202 444.002C440.592 443.465 439.123 442.575 437.901 441.398C436.679 440.222 435.735 438.788 435.138 437.201C434.541 435.614 434.307 433.914 434.451 432.225C434.595 430.536 435.115 428.901 435.972 427.438C436.83 425.975 438.003 424.721 439.407 423.768C439.844 423.468 440.304 423.202 440.781 422.971C442.875 421.94 445.234 421.575 447.542 421.925C449.85 422.275 451.995 423.323 453.687 424.929C455.38 426.534 456.538 428.619 457.007 430.902C457.476 433.185 457.232 435.557 456.309 437.698C456.19 437.981 456.056 438.26 455.909 438.537Z" fill="#ADE1D1"/>
<path d="M455.909 438.537C455.777 438.785 455.639 439.025 455.49 439.255L441.357 429.443L456.308 437.698C456.19 437.981 456.056 438.26 455.909 438.537Z" fill="#D0CDE1"/>
<path d="M449.611 441.702L434.753 435.981C434.591 435.33 434.487 434.665 434.442 433.996L449.611 441.702Z" fill="#D0CDE1"/>
<path d="M451.574 428.456L439.406 423.768C439.844 423.468 440.303 423.202 440.781 422.971L451.574 428.456Z" fill="#D0CDE1"/>
<path d="M536.758 242.044C536.954 242.245 537.142 242.449 537.315 242.661C538.409 243.957 539.199 245.481 539.629 247.121C540.058 248.761 540.116 250.476 539.798 252.141C539.48 253.806 538.793 255.379 537.789 256.746C536.785 258.112 535.488 259.238 533.994 260.041C532.499 260.844 530.843 261.304 529.148 261.388C527.452 261.471 525.759 261.176 524.193 260.523C522.626 259.871 521.225 258.878 520.091 257.616C518.957 256.355 518.119 254.856 517.639 253.231C517.486 252.723 517.372 252.205 517.298 251.681C516.953 249.375 517.325 247.02 518.363 244.932C519.401 242.844 521.055 241.125 523.102 240.005C525.149 238.885 527.491 238.419 529.812 238.67C532.132 238.921 534.32 239.876 536.08 241.408C536.314 241.606 536.539 241.819 536.758 242.044Z" fill="#ADE1D1"/>
<path d="M536.758 242.044C536.954 242.245 537.142 242.449 537.315 242.661L523.646 253.107L536.08 241.408C536.314 241.606 536.539 241.819 536.758 242.044Z" fill="#D0CDE1"/>
<path d="M537.855 248.998L527.866 261.382C527.196 261.337 526.53 261.233 525.878 261.072L537.855 248.998Z" fill="#D0CDE1"/>
<path d="M525.821 243.09L517.639 253.231C517.486 252.723 517.372 252.205 517.298 251.68L525.821 243.09Z" fill="#D0CDE1"/>
<path d="M322.6 452.103C322.6 452.103 347.651 453.145 347.651 459.399C347.651 465.652 319.469 459.399 319.469 459.399L322.6 452.103Z" fill="#A0616A"/>
<path d="M285.024 547.99L238.054 544.863L235.967 519.849L225.529 541.737L179.603 535.483C180.647 495.878 197.347 457.314 198.391 452.103C199.435 446.892 201.929 425.359 201.929 425.359C206.491 415.697 230.393 414.791 249.129 415.666C256.895 416.021 263.783 416.688 268.032 417.167C270.839 417.48 272.499 417.709 272.499 417.709C279.983 425.411 284.805 435.907 287.769 447.632C298.458 489.874 285.024 547.99 285.024 547.99Z" fill="#2F2E41"/>
<path d="M232.836 306.188C247.247 306.188 258.93 294.523 258.93 280.132C258.93 265.742 247.247 254.076 232.836 254.076C218.424 254.076 206.741 265.742 206.741 280.132C206.741 294.523 218.424 306.188 232.836 306.188Z" fill="#A0616A"/>
<path d="M215.092 286.386C215.092 286.386 207.785 318.695 196.304 328.076C184.822 337.456 241.186 328.076 241.186 328.076C241.186 328.076 228.661 307.231 238.055 297.85C247.449 288.47 215.092 286.386 215.092 286.386Z" fill="#A0616A"/>
<path d="M268.324 419.793L251.008 421.711L202.566 427.089C202.566 427.089 202.337 426.474 201.929 425.359C198.412 415.781 181.471 369.171 179.603 355.174C177.516 339.54 199.435 320.78 199.435 320.78C199.435 320.78 220.31 316.611 226.573 316.611C232.836 316.611 257.886 325.991 257.886 325.991L267.228 409.903L268.032 417.167L268.324 419.793Z" fill="#D0CDE1"/>
<path opacity="0.15" d="M287.769 447.632L252.667 427.089C252.667 427.089 252.051 425.088 251.008 421.711C250.486 420.023 249.849 417.98 249.129 415.666C245.079 402.68 238.284 381.251 232.836 365.597C224.485 341.625 265.193 408.329 265.193 408.329L267.228 409.903L268.032 417.167C270.839 417.48 272.499 417.709 272.499 417.709C279.983 425.411 284.805 435.907 287.769 447.632Z" fill="black"/>
<path d="M241.186 328.076C241.186 328.076 230.748 341.625 239.099 365.597C247.449 389.568 258.93 427.089 258.93 427.089L319.469 462.526L327.82 452.103L271.456 408.329C271.456 408.329 269.368 329.118 258.93 325.991C248.493 322.864 241.186 328.076 241.186 328.076Z" fill="#D0CDE1"/>
<path d="M189.519 419.272C189.519 419.272 204.132 449.497 210.395 446.371C216.657 443.244 194.738 411.977 194.738 411.977L189.519 419.272Z" fill="#A0616A"/>
<path d="M187.954 336.414L132.633 382.273C132.633 382.273 111.758 396.864 150.378 407.286C188.997 417.709 192.129 423.962 192.129 423.962C192.129 423.962 196.304 410.413 201.523 412.498L156.64 390.611L193.172 368.723L187.954 336.414Z" fill="#D0CDE1"/>
<path d="M165.72 301.518C168.623 300.082 175.035 297.185 180.496 293.694C180.113 282.337 181.513 272.027 185.613 266.563C187.914 261.345 192.747 256.122 196.532 252.008C205.826 241.906 226.378 236.267 230.023 241.314C257.593 241.858 260.496 263.437 260.496 263.437C260.352 272.463 250.958 272.748 242.728 272.419C243.465 278.581 241.501 284.984 235.814 287.823C224.938 293.253 221.676 300.312 227.114 305.199C232.551 310.086 242.339 323.117 229.289 326.375C216.238 329.633 214.607 336.149 218.413 338.863C222.22 341.578 209.713 333.977 209.713 333.977C209.713 333.977 207.538 347.008 196.118 343.75C195.095 343.458 194.072 342.71 193.067 341.591C189.983 344.975 187.231 346.976 185.158 346.987C173.282 347.05 174.706 333.915 174.706 333.915C174.706 333.915 160.61 337.868 165.008 336.279C169.407 334.689 169.595 327.975 157.907 321.325C146.22 314.674 159.164 304.76 165.72 301.518Z" fill="#2F2E41"/>
<path d="M311.431 335.564L311.242 335.539L311.703 337.292C312.14 339.738 312.774 342.145 313.599 344.488L327.145 395.907C327.578 397.548 328.48 399.028 329.743 400.164C331.005 401.3 332.572 402.043 334.251 402.303L361.876 406.57C363.662 406.846 365.49 406.561 367.108 405.755C368.725 404.949 370.052 403.662 370.905 402.071L397.158 353.107C397.978 351.751 398.727 350.353 399.403 348.919L400.295 347.257L400.156 347.238C402.938 340.665 404.163 333.538 403.735 326.414C403.306 319.29 401.236 312.361 397.685 306.168C394.134 299.974 389.199 294.683 383.264 290.706C377.329 286.73 370.554 284.176 363.468 283.244C356.382 282.311 349.176 283.026 342.412 285.331C335.648 287.636 329.508 291.47 324.472 296.534C319.435 301.598 315.638 307.755 313.376 314.525C311.114 321.295 310.448 328.495 311.431 335.564H311.431Z" fill="#3F3D56"/>
<path d="M363.572 409.93C363.085 409.929 362.599 409.892 362.118 409.818L333.243 405.357C331.409 405.074 329.698 404.262 328.319 403.022C326.94 401.781 325.955 400.165 325.483 398.373L311.324 344.627C310.458 342.166 309.793 339.64 309.335 337.072L308.977 334.721C308.014 327.209 308.812 319.577 311.309 312.426C313.806 305.276 317.934 298.802 323.366 293.517C328.798 288.233 335.386 284.281 342.61 281.974C349.833 279.668 357.495 279.069 364.99 280.227L364.865 281.031C357.452 279.89 349.874 280.496 342.736 282.798C335.599 285.101 329.099 289.037 323.755 294.293C318.411 299.549 314.371 305.98 311.958 313.071C309.545 320.163 308.825 327.72 309.855 335.139L310.131 336.898C310.586 339.443 311.245 341.948 312.103 344.388L326.272 398.166C326.703 399.805 327.604 401.282 328.865 402.417C330.125 403.551 331.69 404.294 333.368 404.552L362.243 409.013C364.027 409.287 365.851 409.002 367.466 408.197C369.08 407.393 370.406 406.108 371.259 404.52L371.978 404.904C371.162 406.422 369.949 407.691 368.469 408.576C366.989 409.46 365.297 409.928 363.572 409.93Z" fill="#D0CDE1"/>
<path d="M370.896 347.252L353.327 395.154L354.317 395.516L371.887 347.614L370.896 347.252Z" fill="#D0CDE1"/>
<path d="M342.209 342.819L341.156 342.865L343.398 393.83L344.452 393.784L342.209 342.819Z" fill="#D0CDE1"/>
<path d="M361.131 434.296L324.13 428.58C323.855 428.536 323.608 428.385 323.445 428.16C323.281 427.935 323.212 427.654 323.255 427.379C323.298 427.104 323.448 426.857 323.672 426.692C323.896 426.527 324.177 426.458 324.453 426.499L361.453 432.214C361.591 432.235 361.723 432.282 361.842 432.354C361.961 432.425 362.065 432.52 362.147 432.632C362.23 432.743 362.289 432.87 362.322 433.005C362.355 433.14 362.362 433.28 362.34 433.417C362.319 433.554 362.271 433.686 362.198 433.804C362.126 433.923 362.031 434.026 361.918 434.108C361.806 434.189 361.679 434.248 361.543 434.28C361.408 434.313 361.268 434.318 361.131 434.296Z" fill="#3F3D56"/>
<path d="M362.08 426.45L325.079 420.734C324.942 420.714 324.81 420.667 324.69 420.595C324.571 420.523 324.468 420.429 324.385 420.317C324.303 420.205 324.243 420.079 324.21 419.944C324.177 419.809 324.171 419.669 324.192 419.532C324.213 419.394 324.262 419.263 324.334 419.144C324.406 419.026 324.501 418.923 324.614 418.841C324.726 418.759 324.854 418.701 324.989 418.668C325.124 418.636 325.264 418.631 325.402 418.653L362.402 424.369C362.54 424.389 362.672 424.436 362.791 424.508C362.91 424.58 363.014 424.674 363.096 424.786C363.179 424.897 363.238 425.024 363.271 425.159C363.305 425.294 363.311 425.434 363.289 425.571C363.268 425.708 363.22 425.84 363.148 425.959C363.075 426.077 362.98 426.18 362.868 426.262C362.755 426.344 362.628 426.402 362.493 426.435C362.357 426.467 362.217 426.472 362.08 426.45Z" fill="#3F3D56"/>
<path d="M363.028 418.604L326.028 412.889C325.752 412.844 325.506 412.693 325.342 412.468C325.178 412.243 325.11 411.963 325.153 411.688C325.195 411.413 325.345 411.166 325.569 411.001C325.794 410.836 326.074 410.766 326.35 410.807L363.351 416.523C363.626 416.567 363.872 416.718 364.036 416.943C364.2 417.168 364.268 417.449 364.226 417.724C364.183 417.999 364.033 418.246 363.809 418.411C363.584 418.576 363.304 418.645 363.028 418.604H363.028Z" fill="#3F3D56"/>
<path d="M341.48 438.862C348.82 439.995 355.402 436.83 356.183 431.792L329.605 427.686C328.824 432.724 334.141 437.728 341.48 438.862Z" fill="#3F3D56"/>
<path d="M354.78 337.159C353.202 336.916 351.896 335.67 351.18 334.834C350.945 334.561 350.716 334.277 350.487 333.992C349.653 332.955 348.866 331.977 347.769 331.466C345.349 330.338 342.497 331.913 340.028 333.603L339.431 332.735C342.146 330.876 345.311 329.16 348.215 330.511C349.534 331.126 350.436 332.248 351.309 333.332C351.531 333.609 351.753 333.884 351.981 334.15C352.725 335.018 354.21 336.425 355.801 336.1C356.472 335.905 357.095 335.575 357.634 335.131C358.044 334.826 358.478 334.552 358.931 334.314C359.85 333.874 360.878 333.716 361.887 333.858C362.896 334 363.84 334.437 364.601 335.114C364.872 335.371 365.129 335.642 365.37 335.927C365.844 336.467 366.292 336.977 366.875 337.162C367.737 337.437 368.648 336.945 369.614 336.425C370.609 335.889 371.638 335.334 372.806 335.471C372.844 335.475 372.882 335.48 372.92 335.486C374.997 335.807 375.955 338.101 376.497 339.813L375.491 340.13C374.755 337.803 373.858 336.646 372.682 336.517C371.846 336.419 371.005 336.872 370.115 337.352C368.999 337.954 367.843 338.576 366.555 338.165C365.693 337.891 365.125 337.246 364.577 336.622C364.361 336.366 364.131 336.122 363.889 335.892C363.283 335.362 362.536 335.02 361.738 334.907C360.941 334.795 360.128 334.917 359.399 335.258C358.995 335.472 358.609 335.717 358.243 335.991C357.588 336.524 356.828 336.913 356.013 337.132C355.607 337.215 355.19 337.224 354.78 337.159Z" fill="#D0CDE1"/>
<path opacity="0.1" d="M388.183 184.728C345.353 183.241 304.561 169.411 265.605 154.283C226.648 139.156 188.065 122.393 146.254 114.379C119.37 109.22 88.6169 108.492 66.9503 122.909C46.1011 136.78 39.3665 160.727 35.7416 182.951C33.017 199.672 31.4177 217.263 38.8808 232.918C44.0635 243.781 53.268 252.914 59.6116 263.321C81.758 299.541 66.127 344.195 42.103 379.562C30.8491 396.146 17.7828 411.973 9.09957 429.629C0.416337 447.286 -3.58767 467.519 4.04719 485.561C11.5813 503.413 29.5164 516.823 48.9856 526.259C88.457 545.384 135.007 550.869 180.395 553.973C280.874 560.843 381.892 557.87 482.638 554.891C519.918 553.783 557.37 552.67 594.045 546.9C614.415 543.702 635.442 538.608 650.232 526.353C669.002 510.782 673.657 484.412 661.077 464.884C639.979 432.129 581.642 424.014 566.9 388.843C558.779 369.498 567.119 347.944 578.918 330.003C604.221 291.503 646.636 257.742 648.869 213.739C650.409 183.531 630.016 153.252 598.488 138.954C565.437 123.969 519.616 125.852 495.231 150.664C470.123 176.21 426.002 186.037 388.183 184.728Z" fill="#ADE1D1"/>
</svg>
